<?xml version="1.0" encoding="UTF-8"?>
<svg width="157px" height="43px" viewBox="0 0 157 43" version="1.1" xmlns="http://www.w3.org/2000/svg" xmlns:xlink="http://www.w3.org/1999/xlink">
    <!-- Generator: sketchtool 63.1 (101010) - https://sketch.com -->
    <title>1BBF54D1-D87F-4BA1-B740-678C8AAC9734</title>
    <desc>Created with sketchtool.</desc>
    <g id="UI---Mapa-mvp1" stroke="none" stroke-width="1" fill="none" fill-rule="evenodd">
        <g id="02.Mapa_geral_layout" transform="translate(-16.000000, -6.000000)">
            <g id="header/mapa/mobile/produtor">
                <g id="header/mapa/mobile">
                    <g id="2.-assets/logo/default" transform="translate(16.000000, 6.000000)">
                        <g id="Group">
                            <path d="M3.32846555,18.7876773 C2.99938831,18.3746167 2.99938831,18.3746167 2.58640292,18.6085106 C2.10327557,18.8831242 1.61850939,19.1580636 1.10293319,19.4509197 C0.779427975,19.0854197 0.455267223,18.7212227 0.121273486,18.344647 C1.0767119,17.6406848 2.00330689,16.9504045 2.94104593,16.2747833 C3.10460125,16.1568591 3.14917745,16.0487076 3.09706263,15.8604197 C2.82731106,14.8828212 2.55723173,13.9042455 2.30911273,12.9207833 C2.25240919,12.6982909 2.15571816,12.6399803 1.94135908,12.6481242 C1.54279541,12.6634348 1.14292067,12.6526848 0.713219207,12.6526848 C0.47526096,11.2372682 0.24025261,9.83911667 -1.86313502e-14,8.41001818 C0.126189979,8.40382879 0.228125261,8.39438182 0.328421712,8.39438182 C1.82434656,8.39340455 3.3212547,8.38786667 4.81816284,8.40187424 C4.97417954,8.40317727 5.16493946,8.48331364 5.27998539,8.58983636 C5.72017537,8.99540455 6.12726096,9.43615455 6.56581211,9.84302576 C6.67430271,9.94335909 6.85293528,10.0166545 7.00075783,10.0199121 C7.81263466,10.0368515 8.62483925,10.0388061 9.43474948,10.0186091 C9.58978288,10.0147 9.78119833,9.9287 9.8880501,9.81663939 C10.7835073,8.87259394 11.6651983,7.91421515 12.5504948,6.9594197 C12.620309,6.88286667 12.6809457,6.79719242 12.757643,6.70239697 C13.1624342,6.94410909 13.5285491,7.16236667 13.9061357,7.38844242 C13.4934781,8.72437424 13.1408017,10.0616091 12.656691,11.3509576 C12.3708789,12.1168136 12.5849102,12.7494348 12.854334,13.4631697 C13.3502443,13.1002758 13.8376326,12.7605106 14.3046994,12.3959879 C14.5246305,12.2236621 14.7478392,12.1578591 15.027096,12.1601394 C16.8609478,12.1702379 18.6947996,12.1686091 20.5279958,12.1607909 C20.7315386,12.1601394 20.8528121,12.2148667 20.9593361,12.3920788 C21.2733361,12.9119879 21.6083132,13.4182152 21.9495177,13.9514803 C21.5588205,14.3329424 21.1681232,14.6987682 20.8010251,15.0883742 C20.7004008,15.1958742 20.6237035,15.3727606 20.6220647,15.5187 C20.6105929,17.2152455 20.6145261,18.9124424 20.6145261,20.6093136 L20.6145261,21.0041318 L20.3024927,21.0041318 C19.1428559,21.0041318 17.983547,21.0080409 16.824238,20.9989197 C16.6633048,20.9979424 16.4908998,20.9575485 16.3417662,20.8927227 C14.9848142,20.2985409 13.6301566,19.6949121 12.2758267,19.0948667 C12.1830689,19.054147 12.0870334,19.0202682 11.9500271,18.9658667 C11.9500271,19.5822 11.9378998,20.1555333 11.9552714,20.7275636 C11.9634656,20.9526621 11.8792296,21.0598364 11.6855198,21.1562606 C11.0843967,21.4579121 10.4963841,21.7856242 9.89689979,22.0915106 C9.72449478,22.1791394 9.66221921,22.2866394 9.66779123,22.4814424 C9.68188518,23.0257833 9.66254697,23.5711015 9.67795198,24.1151167 C9.68385177,24.3415182 9.63239248,24.5122152 9.45343215,24.6633667 C9.2397286,24.8448136 9.04765762,25.0536242 8.83887056,25.2572227 C9.22858455,25.8992909 9.61075992,26.5130182 9.97392484,27.1365182 C10.0538998,27.2730106 10.1089645,27.4453364 10.10962,27.6017 C10.1178142,30.419503 10.1122422,33.2369803 10.1210919,36.0547833 C10.1217474,36.2655485 10.0483278,36.3707682 9.87526722,36.4668667 C9.27709395,36.7988136 8.69137578,37.1506318 8.09221921,37.4789955 C7.95259081,37.554897 7.77821921,37.6011545 7.61925261,37.6024576 C6.33342589,37.6122303 5.04759916,37.6145106 3.76210021,37.5992 C3.60510021,37.597897 3.41335699,37.5200409 3.30060543,37.4122152 C2.61721294,36.7577682 1.94594781,36.0906167 1.28812109,35.4123894 C1.17897495,35.300003 1.0960501,35.1120409 1.09277244,34.9576318 C1.073762,34.1109879 1.08359499,33.2636924 1.08359499,32.3730712 L2.41203132,32.3730712 C2.41203132,31.5449955 2.38515449,30.760897 2.4218643,29.9794045 C2.44349687,29.524647 2.34877244,29.1637076 1.96528601,28.8975636 C1.53886221,28.6011242 1.44217119,28.1988136 1.43201044,27.6860712 C1.42021086,27.0935182 1.54508977,26.6296394 2.03510021,26.280753 C2.16358455,26.1898667 2.27830271,26.0807379 2.43923591,25.9465258 C2.12458038,25.633147 1.83975157,25.3735182 1.58671608,25.0858742 C1.48805846,24.9741394 1.40939457,24.8011621 1.40808351,24.654897 C1.39530063,23.2932303 1.39530063,21.9312379 1.40873904,20.569897 C1.40972234,20.4379652 1.49264718,20.2685712 1.59392693,20.1832227 C2.15670146,19.7115258 2.73717537,19.2593742 3.32846555,18.7876773" id="Fill-66" fill="#4EBBC3"></path>
                            <path d="M23.0773284,9.25858716e-15 C19.5482699,0.676272727 16.7940507,3.67747727 16.3276395,7.43541667 C19.8563701,6.75914394 22.6109171,3.75435606 23.0773284,9.25858716e-15" id="Fill-67" fill="#3E973E"></path>
                            <path d="M23.0773284,7.30918561 C19.5482699,7.98545833 16.7940507,10.9869886 16.3276395,14.7452538 C19.8563701,14.0689811 22.6109171,11.0635417 23.0773284,7.30918561" id="Fill-68" fill="#3E973E"></path>
                            <path d="M16.398142,11.266 C15.9320585,7.50806061 13.1771837,4.5065303 9.64812526,3.83058333 C10.1155198,7.58428788 12.869739,10.590053 16.398142,11.266" id="Fill-69" fill="#3E973E"></path>
                            <path d="M16.398142,18.5758045 C15.9320585,14.8168879 13.1771837,11.8163348 9.64812526,11.1400621 C10.1155198,14.8937667 12.869739,17.8995318 16.398142,18.5758045" id="Fill-70" fill="#3E973E"></path>
                            <path d="M5.92978184,30.2591977 L5.92978184,29.8060689 C8.99996764,29.8060689 12.0495042,28.3714326 13.8872891,26.0611598 C15.758834,23.7098417 16.1505146,20.7702053 16.1488758,18.7179326 C16.1478925,18.6746068 16.1488758,18.6296523 16.1488758,18.5850235 L16.1488758,18.4482053 L16.1488758,3.12163712 L16.6038184,3.12163712 L16.6038184,18.5860008 C16.6034875,18.6293265 16.6034875,18.672978 16.6038184,18.7163038 C16.6051263,20.841872 16.1973852,23.8883568 14.244882,26.3419629 C12.3222056,28.7581068 9.13566284,30.2591977 5.92978184,30.2591977" id="Fill-71" fill="#275B27"></path>
                            <path d="M4.76660522,30.0329917 C4.76660522,29.6095068 5.11174301,29.2661583 5.53783904,29.2661583 C5.96360731,29.2661583 6.30841733,29.6095068 6.30841733,30.0329917 C6.30841733,30.4564765 5.96360731,30.7991735 5.53783904,30.7991735 C5.11174301,30.7991735 4.76660522,30.4564765 4.76660522,30.0329917" id="Fill-72" fill="#275B27"></path>
                            <path d="M15.627367,2.73235682 C15.627367,2.30854621 15.9728326,1.96552348 16.3986008,1.96552348 C16.8240413,1.96552348 17.1691791,2.30854621 17.1691791,2.73235682 C17.1691791,3.15584167 16.8240413,3.49853864 16.3986008,3.49853864 C15.9728326,3.49853864 15.627367,3.15584167 15.627367,2.73235682" id="Fill-73" fill="#275B27"></path>
                            <path d="M22.6154403,28.7936144 C22.4761397,28.3557962 22.0592211,27.895175 21.641647,27.6876674 C21.2709434,27.4804856 20.807482,27.3651674 20.2981334,27.3651674 C19.7409309,27.3651674 19.2551814,27.4573568 18.9303651,27.6417356 C18.5826052,27.8720462 18.512791,28.0795538 18.512791,28.217675 C18.512791,28.3323417 18.5593338,28.4248568 18.5826052,28.4935917 C18.7684486,28.724228 19.2777973,28.9314098 19.9041585,29.1157886 C20.5295363,29.3001674 21.2479998,29.4845462 21.8740332,29.6454705 C22.9166574,29.9676447 23.5194194,30.1060917 24.3303129,30.7742205 C25.3506491,31.5573417 25.8829413,32.6167053 25.790839,33.884228 C25.6980812,35.0585841 25.0487764,36.0723417 24.0061522,36.7404705 C23.0094152,37.3626674 21.804219,37.5463947 20.5295363,37.5463947 C18.8146637,37.5463947 17.3544653,37.1089023 16.1954841,35.8879629 C15.6163213,35.2429629 14.9204737,33.8610992 14.8745864,33.2160992 L17.8641418,32.4789098 C17.8641418,32.8473417 18.0955447,33.5382735 18.4436324,33.884228 C18.9998516,34.4832962 19.7645301,34.5982886 20.5295363,34.5982886 C21.1090269,34.5982886 21.9202482,34.4832962 22.2912795,34.1835992 C22.5230102,33.9760917 22.5688975,33.8379705 22.6154403,33.6076598 C22.6154403,33.3773492 22.5688975,33.2160992 22.4066532,33.0548492 C22.1051084,32.755478 21.5262733,32.5710992 21.1090269,32.4557811 C20.4371063,32.271728 19.7878015,32.110478 19.0929372,31.9257735 C17.9568996,31.6264023 17.2617075,31.3270311 16.6127305,30.820478 C15.7552942,30.1758038 15.3151042,29.1620462 15.3151042,28.2864098 C15.3151042,26.7201674 16.2879142,25.4760992 17.6094674,24.9004856 C18.5826052,24.4857962 19.4869121,24.3936068 20.3440207,24.4167356 C21.2017848,24.4167356 22.1523067,24.6011144 23.0094152,25.0389326 C24.2378829,25.660478 25.1877493,26.7432962 25.6751376,28.056425 L22.6154403,28.7936144 Z" id="Fill-74" fill="#4EBBC3"></path>
                            <path d="M33.4618132,31.8339098 C32.1169885,32.0873492 30.7036608,32.3407886 30.657118,33.3310917 C30.6105752,34.0682811 31.2831514,34.7136068 32.3028319,34.6670235 C33.6237296,34.6210917 35.2232286,33.9760917 35.616548,32.4789098 C35.7558486,31.9720311 35.7794478,31.5117356 35.7794478,31.3964174 L33.4618132,31.8339098 Z M27.8992933,27.0657962 C27.9687797,26.9736068 28.0612098,26.8123568 28.1542954,26.6973644 C29.2900052,25.1079932 31.0052056,24.4398644 33.0675104,24.4398644 C35.3625292,24.4398644 37.2163747,25.2001826 38.2360553,26.9045462 C38.7231159,27.7107962 38.907976,28.6323644 38.907976,29.3923568 L38.907976,37.2010917 L36.1501514,37.2010917 L36.1501514,35.0817129 C35.9180929,35.7498417 35.1534144,36.4410992 34.597523,36.7632735 C33.717143,37.2932811 32.6273205,37.5235917 31.6771263,37.5235917 C30.4489864,37.5235917 29.173976,36.9245235 28.5013998,36.141728 C27.8527505,35.2429629 27.528262,34.6210917 27.528262,33.5382735 C27.528262,32.2026674 28.3630825,30.8898644 29.5450073,30.1982811 C30.9357192,29.4614174 31.9095125,29.4382886 33.6935438,29.1620462 L35.7099614,28.885478 C35.5939322,28.4020538 35.2461722,27.9870386 34.7827109,27.733925 C34.2730344,27.434228 33.6466733,27.3192356 32.998024,27.3423644 C32.1871305,27.3423644 31.5152098,27.5264174 31.0288048,28.1023568 C30.9357192,28.1945462 30.8426336,28.3098644 30.7731472,28.4248568 L27.8992933,27.0657962 Z" id="Fill-75" fill="#4EBBC3"></path>
                            <path d="M60.253519,29.6226348 L60.253519,37.2010591 L57.0551766,37.2010591 L57.0551766,29.6226348 C57.0551766,28.8160591 56.8929324,28.4020212 56.4524146,27.9182712 C56.0584397,27.480453 55.4556777,27.2501424 54.8529157,27.2501424 C54.251137,27.2501424 53.6483749,27.5032561 53.2544,27.9410742 C52.7673395,28.4935591 52.6749094,29.0466955 52.6749094,29.6688924 L52.6749094,37.2010591 L49.4762392,37.2010591 L49.4762392,29.6226348 C49.4762392,28.8160591 49.313995,28.4020212 48.8734772,27.9182712 C48.4798301,27.480453 47.8767403,27.2501424 47.2746338,27.2501424 C46.6718718,27.2501424 46.0691098,27.5032561 45.6754626,27.9410742 C45.1880743,28.4935591 45.095972,29.0466955 45.095972,29.6688924 L45.095972,37.2010591 L41.920901,37.2010591 L41.920901,24.7620061 L44.7019971,24.7620061 L44.7019971,26.0982636 C45.582377,25.061703 46.9268739,24.4626348 48.317258,24.4626348 C49.3608656,24.4626348 50.4962476,24.9235818 51.3071411,25.6376424 C51.5857424,25.8910818 51.8171453,26.16765 52.002661,26.4666955 C52.8597695,25.20015 54.3432392,24.4626348 55.8961954,24.4626348 C56.9394752,24.4626348 58.075185,24.9235818 58.8857507,25.6376424 C59.9749177,26.6048167 60.253519,28.0329379 60.253519,29.6226348" id="Fill-76" fill="#4EBBC3"></path>
                            <path d="M71.8645704,30.9816629 C71.8645704,29.9219735 71.6331674,28.9544735 71.1926497,28.3097992 C70.6593741,27.5032235 69.8481528,27.2038523 68.8048731,27.2038523 C67.9477645,27.2038523 67.2057019,27.4804205 66.6960255,28.0794886 C66.0932635,28.7704205 65.8156455,29.8532386 65.8156455,30.9816629 C65.8156455,32.1104129 66.0932635,33.2160341 66.6960255,33.8841629 C67.2529002,34.4832311 68.0172509,34.7597992 68.9212301,34.7597992 C69.80161,34.7597992 70.7055891,34.4597765 71.2388647,33.6535265 C71.6793825,33.0085265 71.8645704,32.0413523 71.8645704,30.9816629 M75.2018856,30.9816629 C75.2018856,32.6863523 74.8079106,34.2757235 73.742015,35.5653977 C72.7223344,36.8325947 71.0766205,37.5463295 69.4309065,37.5463295 C68.226038,37.5463295 67.1129441,37.2704129 66.2092927,36.7169508 L66.2092927,42.7294583 L63.0342217,42.7294583 L63.0342217,24.7619735 L65.8156455,24.7619735 L65.8156455,25.5457462 C66.7651841,24.8313598 67.993324,24.4169962 69.26899,24.4169962 C71.0068063,24.4169962 72.6757916,25.0847992 73.742015,26.397928 C74.7154806,27.6185417 75.2018856,29.2538447 75.2018856,30.9816629" id="Fill-77" fill="#4EBBC3"></path>
                            <path d="M82.9887578,31.8339098 C81.6445887,32.0873492 80.2309332,32.3407886 80.1843904,33.3310917 C80.1378476,34.0682811 80.8104238,34.7136068 81.8301044,34.6670235 C83.1510021,34.6210917 84.750501,33.9760917 85.144476,32.4789098 C85.2834489,31.9720311 85.3060647,31.5117356 85.3060647,31.3964174 L82.9887578,31.8339098 Z M77.4259102,27.0657962 C77.4957244,26.9736068 77.5884823,26.8123568 77.6815678,26.6973644 C78.8166221,25.1079932 80.5324781,24.4398644 82.5951106,24.4398644 C84.8888184,24.4398644 86.7436472,25.2001826 87.7633278,26.9045462 C88.2497328,27.7107962 88.4349207,28.6323644 88.4349207,29.3923568 L88.4349207,37.2010917 L85.6774238,37.2010917 L85.6774238,35.0817129 C85.4456931,35.7498417 84.6810146,36.4410992 84.1244676,36.7632735 C83.2437599,37.2932811 82.1545929,37.5235917 81.2043987,37.5235917 C79.9759311,37.5235917 78.7012484,36.9245235 78.0286722,36.141728 C77.3803507,35.2429629 77.0555344,34.6210917 77.0555344,33.5382735 C77.0555344,32.2026674 77.8896994,30.8898644 79.0722797,30.1982811 C80.4623361,29.4614174 81.4358017,29.4382886 83.2204885,29.1620462 L85.2369061,28.885478 C85.1212046,28.4020538 84.7734447,27.9870386 84.3099833,27.733925 C83.7999791,27.434228 83.1742735,27.3192356 82.5256242,27.3423644 C81.7144029,27.3423644 81.0418267,27.5264174 80.5550939,28.1023568 C80.4623361,28.1945462 80.3695783,28.3098644 80.3004196,28.4248568 L77.4259102,27.0657962 Z" id="Fill-78" fill="#4EBBC3"></path>
                            <path d="M117.847838,25.1619061 L117.847838,31.3962545 C117.847838,32.5272848 118.033354,33.5892545 118.68397,34.2358833 C119.125471,34.6978076 119.799686,34.9284439 120.658761,34.9284439 C121.23989,34.9056409 121.726951,34.7440652 122.145508,34.4437167 C122.610281,34.0974364 122.935097,33.5433227 123.074725,32.8507621 C123.190755,32.2966485 123.213698,31.4421864 123.213698,30.5877242 L123.213698,25.1619061 L126.396636,25.1619061 L126.396636,37.6299515 L123.608657,37.6299515 L123.608657,36.7754894 C122.610281,37.5608909 121.355592,37.9303 120.216932,37.9765576 C118.823598,38.0224894 117.336523,37.4918303 116.337819,36.5907848 C114.851072,35.2287924 114.641629,33.5664515 114.641629,31.3962545 L114.641629,25.1619061 L117.847838,25.1619061 Z M144.657473,24.8390152 C146.956425,24.8390152 148.815187,25.6009621 149.837817,27.3092348 C150.325206,28.1171136 150.511377,29.0409621 150.511377,29.8029091 L150.511377,37.6302121 L147.746669,37.6302121 L147.746669,35.505947 C147.514611,36.1753788 146.747638,36.8682652 146.190435,37.1914167 C145.307433,37.7224015 144.215972,37.9533636 143.263156,37.9533636 C142.032066,37.9533636 140.754105,37.3529924 140.080218,36.5679167 C139.430258,35.667197 139.104458,35.0440227 139.104458,33.9589242 C139.104458,32.6197348 139.941245,31.3036742 141.125465,30.6111136 C142.519454,29.8719697 143.495214,29.8491667 145.28449,29.5716212 L147.305496,29.295053 C147.189139,28.81 146.840723,28.3946591 146.376279,28.1402424 C145.864963,27.8402197 145.237619,27.7245758 144.587331,27.7480303 C143.774799,27.7480303 143.100911,27.9327348 142.61254,28.510303 C142.519454,28.6024924 142.427024,28.7178106 142.356882,28.8331288 L139.476473,27.4708106 C139.546287,27.3782955 139.639045,27.2167197 139.732458,27.1014015 C140.870135,25.508447 142.589596,24.8390152 144.657473,24.8390152 Z M112.899224,25.1848068 L112.899224,28.0944735 C112.248609,27.8400568 111.389206,27.7019356 110.48326,27.7709962 C109.577314,27.8400568 108.926698,28.1638598 108.485197,28.6254583 C107.927667,29.2255038 107.672141,30.0568371 107.672141,30.9803598 L107.672141,37.6300492 L104.489859,37.6300492 L104.489859,25.1620038 L107.27751,25.1620038 L107.27751,26.8706023 C107.602654,26.3168144 108.044024,25.8314356 108.624498,25.4851553 C109.298713,25.0694886 110.065358,24.8847841 110.808732,24.8388523 C111.482619,24.7925947 112.202066,24.9079129 112.899224,25.1848068 Z M138.058884,25.1848068 L138.058884,28.0944735 C137.408268,27.8400568 136.549193,27.7019356 135.643247,27.7709962 C134.736646,27.8400568 134.087341,28.1638598 133.645185,28.6254583 C133.087982,29.2255038 132.831997,30.0568371 132.831997,30.9803598 L132.831997,37.6300492 L129.649387,37.6300492 L129.649387,25.1620038 L132.437039,25.1620038 L132.437039,26.8706023 C132.762183,26.3168144 133.204011,25.8314356 133.784813,25.4851553 C134.458045,25.0694886 135.225018,24.8847841 135.968064,24.8388523 C136.641951,24.7925947 137.362053,24.9079129 138.058884,25.1848068 Z M156.690753,20.659578 L156.690753,37.6302447 L153.531414,37.6302447 L153.531414,20.659578 L156.690753,20.659578 Z M147.374327,31.8115303 L145.051776,32.2503258 C143.704329,32.5044167 142.287723,32.7585076 142.241181,33.7510909 C142.19431,34.4899091 142.868525,35.1365379 143.890172,35.0902803 C145.214675,35.0440227 146.817452,34.3977197 147.212738,32.8966288 C147.352039,32.3887727 147.374327,31.9271742 147.374327,31.8115303 Z" id="Combined-Shape" fill="#275B27"></path>
                            <polygon id="Fill-84" fill="#3E973E" points="102.019387 32.5452341 97.6755015 32.5452341 97.6755015 36.8859538 95.23561 36.8859538 95.23561 32.5452341 90.8687812 32.5452341 90.8687812 30.1209462 95.23561 30.1209462 95.23561 25.8033553 97.6755015 25.8033553 97.6755015 30.1209462 102.019387 30.1209462"></polygon>
                        </g>
                    </g>
                </g>
            </g>
        </g>
    </g>
</svg>