<?xml version="1.0" encoding="UTF-8"?>
<svg width="86px" height="86px" viewBox="0 0 86 86" version="1.1" xmlns="http://www.w3.org/2000/svg" xmlns:xlink="http://www.w3.org/1999/xlink">
    <!-- Generator: Sketch 63.1 (92452) - https://sketch.com -->
    <title>2. assets/icone/pag-int/iniciativas/associacoes-e-cooperativas</title>
    <desc>Created with Sketch.</desc>
    <defs>
        <circle id="path-1" cx="43" cy="43" r="43"></circle>
        <path d="M0.698812936,0.00716215974 L83.234652,0.234067718 C77.9649702,18.0226047 61.4980016,31 42,31 C22.4191896,31 5.89521276,17.9121396 0.698812936,0.00716215974 Z" id="path-3"></path>
    </defs>
    <g id="2.-assets/icone/pag-int/iniciativas/associacoes-e-cooperativas" stroke="none" stroke-width="1" fill="none" fill-rule="evenodd">
        <g id="Group" opacity="0.6">
            <mask id="mask-2" fill="white">
                <use xlink:href="#path-1"></use>
            </mask>
            <g id="Oval"></g>
            <g id="1.-colors/iniciativas" mask="url(#mask-2)" fill="#27ADB6">
                <rect id="Rectangle-Copy-2" x="0" y="0" width="86" height="86"></rect>
            </g>
        </g>
        <g id="1.-colors/agricultores" opacity="0.8" transform="translate(1.000000, 55.000000)">
            <mask id="mask-4" fill="white">
                <use xlink:href="#path-3"></use>
            </mask>
            <g id="Mask"></g>
            <g id="1.-colors/iniciativas" mask="url(#mask-4)" fill="#27ADB6">
                <g transform="translate(-1.000000, -55.000000)" id="Rectangle-Copy-2">
                    <rect x="0" y="0" width="86" height="86"></rect>
                </g>
            </g>
        </g>
        <g id="cooperation" transform="translate(18.000000, 22.000000)" fill-rule="nonzero">
            <path d="M12.7605438,29.3125152 L12.7605438,15.7848358 C12.7605438,12.8582001 15.3907775,10.8005523 18.0545807,11.2499237 L23.0331421,6.2713623 C23.871994,5.43327334 24.8222352,4.68139648 25.8419037,4.03594971 L25.2296447,3.75671387 C22.5910187,2.55737305 19.3428039,3.18527227 17.5537109,3.70178223 C16.6954041,3.95011904 15.7703399,3.71360781 15.1386261,3.08189395 L12.4851227,0.428390527 C11.9140625,-0.142669727 10.9863281,-0.142669727 10.4141235,0.428390527 L0.428771973,10.4141235 C-0.142669727,10.9863281 -0.142669727,11.9140625 0.428771973,12.4851227 L4.45289609,16.5096283 C4.60433965,19.5293427 6.19049072,22.7420807 8.34350586,24.8954773 C8.34350586,24.8954773 10.5194092,27.0721436 12.7605438,29.3125152 L12.7605438,29.3125152 Z" id="Path" fill="#E6E6E6"></path>
            <path d="M49.5716095,12.4851227 C50.1426697,11.9140625 50.1426697,10.9863281 49.5716095,10.4137421 L39.5858765,0.428390527 C39.0136719,-0.142669727 38.0859375,-0.142669727 37.5148773,0.428390527 L33.4903717,4.45289609 C30.4706573,4.60433965 27.2579193,6.19049072 25.1045227,8.34350586 C25.9864807,8.67462158 26.789093,9.29985049 27.3681641,10.2458954 C30.4336548,8.43925479 34.2060089,10.7429504 34.2060089,14.1727447 L34.2060089,14.6308898 C37.1757508,13.4834289 40.3781891,15.7127381 40.3781891,18.9228058 L40.3781891,26.9218445 C40.4071808,28.6651611 40.58609,30.5438995 41.4600372,31.4178467 C42.3049927,32.2628021 43.4238434,31.4289093 43.7316895,30.7540894 L46.2432861,25.2296447 C47.442627,22.5906372 46.8147277,19.3428039 46.2978363,17.5537109 C46.049881,16.6954041 46.2863922,15.7703399 46.9181061,15.1386261 L49.5716095,12.4851227 Z" id="Path" fill="#E6E6E6"></path>
            <path d="M35.7955933,17.2592163 C34.9147797,17.276001 34.2060089,17.9958344 34.2060089,18.8796997 L34.2060089,26.5281678 C34.2060089,27.3174286 33.5990906,27.9964447 32.8105927,28.0326844 C31.969452,28.0715942 31.2763214,27.4009705 31.2763214,26.5693664 L31.2763214,14.1727447 C31.2763214,13.2881164 30.5656434,12.5675201 29.6844482,12.5518799 C28.7769317,12.5358582 28.0342102,13.3079529 28.0342102,14.2154693 L28.0342102,26.5281678 C28.0342102,27.3174286 27.4272919,27.9964447 26.6387939,28.0326844 C25.7976532,28.0715942 25.1045227,27.4009705 25.1045227,26.5693664 L25.1045227,12.6045227 C25.1045227,11.71875 24.3934631,10.9989166 23.5122681,10.9834127 C22.605133,10.9676361 21.8624115,11.7393494 21.8624115,12.6468658 L21.8624115,26.5693664 C21.8624115,27.4017334 21.1669922,28.0727387 20.3258515,28.0323028 C19.5381164,27.9949188 18.932724,27.3159027 18.932724,26.5274048 L18.932724,15.7421112 C18.932724,14.8563385 18.2216645,14.1368866 17.3404693,14.1212463 C16.4329529,14.1052246 15.6902313,14.8773193 15.6902313,15.7848358 L15.6902313,32.5927734 C15.6902313,33.1130981 15.0569916,33.3374023 14.6915436,32.9669952 C13.261795,31.5185547 11.2442017,29.4132232 9.60693359,29.4132232 C8.4129334,29.4132232 8.21075439,30.7941437 8.47053525,31.4884186 L10.6014252,37.171173 C11.6191864,39.8849487 14.3596649,41.7373657 15.9896851,42.6372528 C16.7720795,43.0686951 17.2588349,43.8899994 17.2588349,44.7834015 L17.2588349,48.5355377 C17.2588349,49.3442535 17.9145813,50.0003814 18.7236786,50.0003814 L32.8449249,50.0003814 C33.6544037,50.0003814 34.3097687,49.3438721 34.3097687,48.5355377 L34.3097687,42.8440094 C36.3380432,40.6028748 37.4485016,37.7277374 37.4485016,34.683609 L37.4485016,18.9224243 C37.4485016,18.0133819 36.7046356,17.2416687 35.7955933,17.2592163 L35.7955933,17.2592163 Z" id="Path" fill="#252E37"></path>
        </g>
    </g>
</svg>