<?xml version="1.0" encoding="UTF-8"?>
<svg width="86px" height="86px" viewBox="0 0 86 86" version="1.1" xmlns="http://www.w3.org/2000/svg" xmlns:xlink="http://www.w3.org/1999/xlink">
    <!-- Generator: Sketch 63.1 (92452) - https://sketch.com -->
    <title>2. assets/icone/pag-int/iniciativas/iniciativas</title>
    <desc>Created with Sketch.</desc>
    <defs>
        <circle id="path-1" cx="43" cy="43" r="43"></circle>
        <path d="M0.698812936,0.00716215974 L83.234652,0.234067718 C77.9649702,18.0226047 61.4980016,31 42,31 C22.4191896,31 5.89521276,17.9121396 0.698812936,0.00716215974 Z" id="path-3"></path>
    </defs>
    <g id="2.-assets/icone/pag-int/iniciativas/iniciativas" stroke="none" stroke-width="1" fill="none" fill-rule="evenodd">
        <g id="Group" opacity="0.6">
            <mask id="mask-2" fill="white">
                <use xlink:href="#path-1"></use>
            </mask>
            <g id="Oval"></g>
            <g id="1.-colors/iniciativas" mask="url(#mask-2)" fill="#27ADB6">
                <rect id="Rectangle-Copy-2" x="0" y="0" width="86" height="86"></rect>
            </g>
        </g>
        <g id="1.-colors/agricultores" opacity="0.8" transform="translate(1.000000, 55.000000)">
            <mask id="mask-4" fill="white">
                <use xlink:href="#path-3"></use>
            </mask>
            <g id="Mask"></g>
            <g id="1.-colors/iniciativas" mask="url(#mask-4)" fill="#27ADB6">
                <g transform="translate(-1.000000, -55.000000)" id="Rectangle-Copy-2">
                    <rect x="0" y="0" width="86" height="86"></rect>
                </g>
            </g>
        </g>
        <g id="couple" transform="translate(12.000000, 25.000000)" fill-rule="nonzero">
            <path d="M52.7475887,9 C53.8936977,9 54.9486464,9.61075917 55.5108013,10.5956654 C56.9990916,13.205569 58.9332743,16.0292709 61.2083172,17.6470983 C63.0850294,18.9813822 61.2789994,22.0840649 59.3811486,20.7328336 C57.505097,19.3992015 55.7988149,17.892836 54.3270392,16.1857087 C54.3270392,26.5197278 55.1811712,34.1923491 55.1970251,39.2713624 C55.2042915,41.577516 51.5829835,41.5749087 51.5743959,39.2713624 C51.5605237,34.7842054 51.2923276,30.3074776 50.8761612,25.8405271 L50.8761612,25.8405271 L50.4712247,25.8405271 C50.0550583,30.3068257 49.7868622,34.7835536 49.7736506,39.2713624 C49.7657236,41.5749087 46.1430944,41.577516 46.1503608,39.2713624 C46.1662148,34.1923491 47.0203467,26.5197278 47.0203467,16.1857087 C45.5492316,17.8934878 43.8422889,19.3998533 41.9662373,20.7328336 C41.3670898,21.1578229 39.0960105,15.3044426 40.9998065,16.9639867 C42.9036025,15.3037907 44.5385418,12.8692278 45.8352634,10.5956654 C46.3967577,9.61075917 47.4536882,9 48.598476,9 L48.598476,9 Z M50,0 C52.209139,0 54,1.790861 54,4 C54,6.209139 52.209139,8 50,8 C47.790861,8 46,6.209139 46,4 C46,1.790861 47.790861,0 50,0 Z" id="Combined-Shape" fill="#282F37"></path>
            <path d="M12.7475887,9 C13.8936977,9 14.9486464,9.61075917 15.5108013,10.5956654 C16.9990916,13.205569 18.9332743,16.0292709 21.2083172,17.6470983 C23.0850294,18.9813822 21.2789994,22.0840649 19.3811486,20.7328336 C17.505097,19.3992015 15.7988149,17.892836 14.3270392,16.1857087 C14.3270392,26.5197278 15.1811712,34.1923491 15.1970251,39.2713624 C15.2042915,41.577516 11.5829835,41.5749087 11.5743959,39.2713624 C11.5605237,34.7842054 11.2923276,30.3074776 10.8761612,25.8405271 L10.8761612,25.8405271 L10.4712247,25.8405271 C10.0550583,30.3068257 9.78686223,34.7835536 9.7736506,39.2713624 C9.76572362,41.5749087 6.14309441,41.577516 6.15036081,39.2713624 C6.16621477,34.1923491 7.02034671,26.5197278 7.02034671,16.1857087 C5.5492316,17.8934878 3.84228888,19.3998533 1.96623729,20.7328336 C1.36708982,21.1578229 -0.90398954,15.3044426 0.999806482,16.9639867 C2.9036025,15.3037907 4.53854183,12.8692278 5.83526341,10.5956654 C6.39675773,9.61075917 7.45368821,9 8.59847603,9 L8.59847603,9 Z M10,0 C12.209139,0 14,1.790861 14,4 C14,6.209139 12.209139,8 10,8 C7.790861,8 6,6.209139 6,4 C6,1.790861 7.790861,0 10,0 Z" id="Combined-Shape" fill="#282F37" transform="translate(11.127012, 20.500000) scale(-1, 1) translate(-11.127012, -20.500000) "></path>
            <path d="M31.1247729,25.8405271 C30.7092671,30.3068257 30.4404104,34.7835536 30.4265382,39.2713624 C30.4228284,40.3494358 29.6275365,40.9235355 28.7831502,40.9928597 C27.9388285,40.9244182 27.1469596,40.3508023 27.1503608,39.2713624 C27.1662148,34.1923491 28.0203467,26.5197278 28.0203467,16.1857087 L27.6734823,16.5796302 C27.6737562,16.4487555 27.6738949,16.3174484 27.6738949,16.1857087 C26.2027798,17.8934878 24.4958371,19.3998533 22.6197855,20.7328336 C22.3658378,20.9135762 22.113533,21.0146173 21.8714683,21.050853 C21.5852886,21.0261941 21.3004344,20.9212563 21.0346968,20.7328336 C20.779059,20.5511079 20.5265735,20.3661749 20.277404,20.1779637 C19.8359669,19.4043073 19.8612588,18.3082393 20.7919563,17.6470983 C21.1461403,17.395158 21.4920901,17.113974 21.8293991,16.8089077 C21.8850972,16.8630747 21.9423296,16.9138839 21.9998065,16.9639867 C23.9036025,15.3037907 25.5385418,12.8692278 26.8352634,10.5956654 C27.3637287,9.66869483 28.3310578,9.07314865 29.3974496,9.0062919 L29.598476,9 L33.4017975,9 C34.5465853,9 35.6021947,9.61075917 36.1643496,10.5956654 C37.4604105,12.8698796 39.0960105,15.3044426 40.9998065,16.9639867 L41.1706519,16.8089077 C41.5080097,17.113974 41.8540303,17.395158 42.2083172,17.6470983 C43.1391664,18.3089031 43.1640022,19.4057623 42.7210028,20.1784048 C42.4727721,20.3675123 42.2210648,20.5517724 41.9662373,20.7328336 C41.7031308,20.9194611 41.4172222,21.0262709 41.1271953,21.0504478 C40.8858405,21.0140738 40.6343115,20.9130804 40.3811486,20.7328336 C38.505097,19.3992015 36.7988149,17.892836 35.3270392,16.1857087 L35.3268366,16.5788623 C35.2100328,16.4490073 35.0946064,16.3179605 34.9805874,16.1857087 C34.9805874,26.5197278 35.8340588,34.1923491 35.8505733,39.2713624 C35.8542837,40.3508023 35.062724,40.9244182 34.2187516,40.9930122 C33.3739422,40.9236911 32.5784155,40.3495819 32.5743959,39.2713624 C32.562065,35.2827784 32.3487869,31.3024347 32.0092571,27.3298736 L31.8761612,25.8405271 L31.1247729,25.8405271 Z M31,0 C33.209139,0 35,1.790861 35,4 C35,6.14219539 33.3160315,7.89107888 31.1996403,7.99510469 L31,8 L31,8 C28.790861,8 27,6.209139 27,4 C27,1.85780461 28.6839685,0.108921124 30.8003597,0.00489530723 L31,0 L31,0 Z" id="Combined-Shape" fill="#F2F2F2"></path>
        </g>
    </g>
</svg>