<?xml version="1.0" encoding="UTF-8"?>
<svg width="86px" height="86px" viewBox="0 0 86 86" version="1.1" xmlns="http://www.w3.org/2000/svg" xmlns:xlink="http://www.w3.org/1999/xlink">
    <!-- Generator: Sketch 63.1 (92452) - https://sketch.com -->
    <title>2. assets/icone/pag-int/iniciativas/pesquisa e extensao</title>
    <desc>Created with Sketch.</desc>
    <defs>
        <circle id="path-1" cx="43" cy="43" r="43"></circle>
        <path d="M0.498470874,0 L39.4984709,0.23750456 L39.4992131,26.8283426 C33.8958484,29.5027755 27.622772,31 21,31 C13.5764294,31 6.59223467,29.1188085 0.498119401,25.8071291 L0.498470874,0 Z" id="path-3"></path>
    </defs>
    <g id="2.-assets/icone/pag-int/iniciativas/pesquisa-e-extensao" stroke="none" stroke-width="1" fill="none" fill-rule="evenodd">
        <g id="Group" opacity="0.6">
            <mask id="mask-2" fill="white">
                <use xlink:href="#path-1"></use>
            </mask>
            <g id="Oval"></g>
            <g id="1.-colors/iniciativas" mask="url(#mask-2)" fill="#27ADB6">
                <rect id="Rectangle-Copy-2" x="0" y="0" width="86" height="86"></rect>
            </g>
        </g>
        <g id="1.-colors/agricultores" opacity="0.8" transform="translate(22.000000, 55.000000)">
            <mask id="mask-4" fill="white">
                <use xlink:href="#path-3"></use>
            </mask>
            <g id="Mask"></g>
            <g id="1.-colors/iniciativas" mask="url(#mask-4)" fill="#27ADB6">
                <g transform="translate(-22.000000, -55.000000)" id="Rectangle-Copy-2">
                    <rect x="0" y="0" width="86" height="86"></rect>
                </g>
            </g>
        </g>
        <g id="idea" transform="translate(18.000000, 14.000000)" fill-rule="nonzero">
            <path d="M27.5452489,0 C24.1807692,0 20.870362,0.751131222 17.9770362,2.16968326 C12.7932127,4.61425339 5.01708145,11.2062217 5.01708145,22.5339367 L5.01708145,26.1346154 L0.555542986,34.2748869 C0.223190045,34.9050905 0.056561086,35.5624434 0.056561086,36.1871041 C0.056561086,36.7643665 0.198868778,37.3135747 0.48438914,37.7873303 C1.02104072,38.6798643 2.00622172,39.1911765 3.18461538,39.1911765 L5.01719457,39.1911765 L5.01719457,47.1029412 C5.01719457,49.8325792 7.22590498,52.0531674 9.94072398,52.0531674 L9.98484163,52.0497738 L16.0326923,51.1255656 L16.0326923,56.9558824 C16.0326923,57.4875566 16.4631222,57.918552 16.9942308,57.918552 L34.3229638,57.918552 C38.9754525,57.918552 42.7614253,54.1300905 42.7614253,49.4728507 L42.7614253,39.0124434 C47.3269231,34.7545249 49.943552,28.7567873 49.943552,22.5328054 C49.8947964,10.1085973 39.8476244,0 27.5452489,0 Z" id="Path" fill="#282F37"></path>
            <path d="M25.9634615,8.4841629 C25.9634615,7.54751131 26.7227376,6.78733032 27.6581448,6.78733032 C28.5947964,6.78733032 29.3528281,7.54751131 29.3528281,8.4841629 L29.3528281,9.8959276 C29.3528281,10.8325792 28.5946833,11.5927602 27.6581448,11.5927602 C26.7226244,11.5927602 25.9634615,10.8325792 25.9634615,9.8959276 L25.9634615,8.4841629 Z M15.4100679,23.7567873 L14.0001131,23.7567873 C13.0634615,23.7567873 12.3054299,22.9966063 12.3054299,22.0599548 C12.3054299,21.1221719 13.0635747,20.3631222 14.0001131,20.3631222 L15.4100679,20.3631222 C16.3467195,20.3631222 17.1047511,21.1221719 17.1047511,22.0599548 C17.1047511,22.9966063 16.3467195,23.7567873 15.4100679,23.7567873 Z M17.355543,14.9366516 L16.3579186,13.938914 C16.0272624,13.6073529 15.8617647,13.1727376 15.8617647,12.7381222 C15.8617647,11.8022624 16.6190045,11.0412896 17.5559955,11.0412896 C17.9895928,11.0412896 18.4230769,11.2070136 18.7541855,11.5384615 L19.75181,12.5361991 C20.0830317,12.8677602 20.2485294,13.3023756 20.2485294,13.736991 C20.2485294,14.1711538 20.0832579,14.6053167 19.7529412,14.9366516 C19.4219457,15.2680995 18.9881222,15.4332579 18.5541855,15.4332579 C18.1202489,15.4332579 17.6866516,15.2680995 17.355543,14.9366516 Z M32.569457,28.9038462 L32.0520362,33.2375566 C31.7865385,35.4581448 29.9020362,37.1323529 27.6673077,37.1323529 C25.4337104,37.1323529 23.5492081,35.4581448 23.2837104,33.2375566 L22.7651584,28.9038462 C20.6199095,27.3414027 19.3323529,24.8355204 19.3323529,22.1522624 C19.3323529,17.528733 23.0348416,13.8133484 27.6661765,13.8133484 L27.7124434,13.8133484 C32.2835973,13.8371041 36.0029412,17.5803167 36.0029412,22.1561086 C36.0029412,24.8325792 34.7070136,27.3438914 32.569457,28.9038462 L32.569457,28.9038462 Z M36.7632353,15.4332579 C35.8239819,15.4332579 35.0684389,14.6722851 35.0684389,13.736991 C35.0684389,13.3023756 35.2339367,12.8677602 35.5645928,12.5361991 L36.5622172,11.5384615 C36.8932127,11.2070136 37.3270362,11.0412896 37.7609729,11.0412896 C38.1947964,11.0412896 38.6286199,11.2070136 38.9597285,11.5384615 C39.2900452,11.8697964 39.4553167,12.3039593 39.4553167,12.7381222 C39.4553167,13.1727376 39.289819,13.6073529 38.9585973,13.938914 L37.9609729,14.9366516 C37.6297511,15.2680995 37.1970588,15.4332579 36.7632353,15.4332579 L36.7632353,15.4332579 Z M41.3004525,23.7567873 L39.8904977,23.7567873 C38.9538462,23.7567873 38.1958145,22.9966063 38.1958145,22.0599548 C38.1958145,21.1221719 38.9539593,20.3631222 39.8904977,20.3631222 L41.3004525,20.3631222 C42.2371041,20.3631222 42.9951357,21.1221719 42.9951357,22.0599548 C42.9951357,22.9966063 42.2371041,23.7567873 41.3004525,23.7567873 Z" id="Shape" fill="#F2F2F2"></path>
            <path d="M25.94824,33.0150542 C26.0511812,33.9157949 26.7912499,34.5933258 27.6669184,34.5933258 C28.5443057,34.5933258 29.2843744,33.9157949 29.3875066,33.0150542 L29.6678733,30.5933258 L25.6678733,30.5933258 L25.94824,33.0150542 Z" id="Path" fill="#282F37"></path>
        </g>
    </g>
</svg>