<?xml version="1.0" encoding="UTF-8"?>
<svg width="86px" height="86px" viewBox="0 0 86 86" version="1.1" xmlns="http://www.w3.org/2000/svg" xmlns:xlink="http://www.w3.org/1999/xlink">
    <!-- Generator: Sketch 63.1 (92452) - https://sketch.com -->
    <title>2. assets/icone/pag-int/iniciativas/politicas publicas</title>
    <desc>Created with Sketch.</desc>
    <defs>
        <circle id="path-1" cx="43" cy="43" r="43"></circle>
        <path d="M0.698812936,0.00716215974 L83.234652,0.234067718 C77.9649702,18.0226047 61.4980016,31 42,31 C22.4191896,31 5.89521276,17.9121396 0.698812936,0.00716215974 Z" id="path-3"></path>
    </defs>
    <g id="2.-assets/icone/pag-int/iniciativas/politicas-publicas" stroke="none" stroke-width="1" fill="none" fill-rule="evenodd">
        <g id="Group" opacity="0.6">
            <mask id="mask-2" fill="white">
                <use xlink:href="#path-1"></use>
            </mask>
            <g id="Oval"></g>
            <g id="1.-colors/iniciativas" mask="url(#mask-2)" fill="#27ADB6">
                <rect id="Rectangle-Copy-2" x="0" y="0" width="86" height="86"></rect>
            </g>
        </g>
        <g id="1.-colors/agricultores" opacity="0.8" transform="translate(1.000000, 55.000000)">
            <mask id="mask-4" fill="white">
                <use xlink:href="#path-3"></use>
            </mask>
            <g id="Mask"></g>
            <g id="1.-colors/iniciativas" mask="url(#mask-4)" fill="#27ADB6">
                <g transform="translate(-1.000000, -55.000000)" id="Rectangle-Copy-2">
                    <rect x="0" y="0" width="86" height="86"></rect>
                </g>
            </g>
        </g>
        <path d="M24,48.0284653 C20.4751111,48.0284653 17.5028274,48.3283256 15.3185556,49.8744481 C13.8763333,51.4067628 13,53.4221148 13,55.6281395 L13,64.2950776 C13,65.2519076 13.8213333,66.0284653 14.8333333,66.0284653 L33.1666667,66.0284653 C34.1786667,66.0284653 35,65.2519076 35,64.2950776 L35,55.6281395 C35,53.4221148 34.1236667,51.4067628 32.6814444,49.8744481 C30.383368,48.3283256 27.5248889,48.0284653 24,48.0284653 Z" id="Path" fill="#F4F4F4" fill-rule="nonzero"></path>
        <path d="M62,48.0284653 C58.4751111,48.0284653 55.5028274,48.3283256 53.3185556,49.8744481 C51.8763333,51.4067628 51,53.4221148 51,55.6281395 L51,64.2950776 C51,65.2519076 51.8213333,66.0284653 52.8333333,66.0284653 L71.1666667,66.0284653 C72.1786667,66.0284653 73,65.2519076 73,64.2950776 L73,55.6281395 C73,53.4221148 72.1236667,51.4067628 70.6814444,49.8744481 C68.383368,48.3283256 65.5248889,48.0284653 62,48.0284653 Z" id="Path-Copy" fill="#F4F4F4" fill-rule="nonzero"></path>
        <circle id="Oval" fill="#292F36" fill-rule="nonzero" cx="24" cy="43" r="6"></circle>
        <circle id="Oval-Copy" fill="#292F36" fill-rule="nonzero" cx="62" cy="43" r="6"></circle>
        <path d="M57.2807194,31.8748195 C55.8498459,31.217322 54.8599094,29.911622 54.6020346,28.3875516 C60.4802162,24.853683 60.4762162,18.3450291 54.5282847,14.8186341 C46.1798556,9.8692837 27,11.7740105 27,21.625357 C27,24.3007545 28.5518734,26.6831075 31.3869331,28.3875516 C31.1289958,29.9116848 30.1391218,31.2173848 28.7082483,31.8748195 C27.9809365,32.2090008 27.978374,33.25287 28.7080608,33.5883074 C31.92637,35.0679123 35.7553662,33.7156744 37.3404271,30.5409832 C40.8506735,31.2155007 45.1361067,31.2159403 48.6485407,30.5409832 C50.236289,33.7208871 54.0682227,35.0652746 57.2809069,33.5883074 C58.0081562,33.2540005 58.0104687,32.2101313 57.2807194,31.8748195 Z" id="Path" fill="#F4F4F4" fill-rule="nonzero"></path>
        <path d="M44.306545,24.4805002 L34.2474927,24.4805002 C33.7299307,24.4805002 33.3103061,24.058707 33.3103061,23.5384367 C33.3103061,23.0181665 33.7299307,22.5963732 34.2474927,22.5963732 L44.306545,22.5963732 C44.824107,22.5963732 45.2437316,23.0181665 45.2437316,23.5384367 C45.2437316,24.0587698 44.824107,24.4805002 44.306545,24.4805002 Z M48.0552287,24.4805002 C47.5376668,24.4805002 47.1180422,24.058707 47.1180422,23.5384367 C47.1180422,23.0181665 47.5376043,22.5963732 48.0552287,22.5963732 C48.5727907,22.5963732 48.9924153,23.0181665 48.9924153,23.5384367 C48.9924153,24.0587698 48.5727907,24.4805002 48.0552287,24.4805002 Z M51.741475,24.5119024 C51.2239131,24.5119024 50.8042885,24.0901091 50.8042885,23.5698389 C50.8042885,23.0495686 51.2238506,22.6277754 51.741475,22.6277754 C52.259037,22.6277754 52.6786616,23.0495686 52.6786616,23.5698389 C52.6785991,24.0901719 52.259037,24.5119024 51.741475,24.5119024 Z M51.741475,20.649442 L34.2474927,20.649442 C33.7299307,20.649442 33.3103061,20.2276488 33.3103061,19.7073785 C33.3103061,19.1871082 33.7299307,18.765315 34.2474927,18.765315 L51.741475,18.765315 C52.259037,18.765315 52.6786616,19.1871082 52.6786616,19.7073785 C52.6786616,20.2276488 52.259037,20.649442 51.741475,20.649442 Z" id="Shape" fill="#282F37" fill-rule="nonzero"></path>
    </g>
</svg>