<?xml version="1.0" encoding="UTF-8"?>
<svg width="73px" height="77px" viewBox="0 0 73 77" version="1.1" xmlns="http://www.w3.org/2000/svg" xmlns:xlink="http://www.w3.org/1999/xlink">
    <!-- Generator: sketchtool 64 (101010) - https://sketch.com -->
    <title>6E8BC735-CCCD-4CA6-A231-22C2A3C718F8</title>
    <desc>Created with sketchtool.</desc>
    <defs>
        <path d="M24.5,0 C38.0309764,0 49,10.9690236 49,24.5 C49,36.0754281 40.9724351,45.775918 30.1807309,48.338044 L24.5,54 L18.8192691,48.338044 C8.02756491,45.775918 0,36.0754281 0,24.5 C0,10.9690236 10.9690236,0 24.5,0 Z" id="path-1"></path>
        <filter x="-38.8%" y="-31.5%" width="177.6%" height="170.4%" filterUnits="objectBoundingBox" id="filter-3">
            <feOffset dx="0" dy="2" in="SourceAlpha" result="shadowOffsetOuter1"></feOffset>
            <feGaussianBlur stdDeviation="6" in="shadowOffsetOuter1" result="shadowBlurOuter1"></feGaussianBlur>
            <feColorMatrix values="0 0 0 0 0   0 0 0 0 0   0 0 0 0 0  0 0 0 0.15 0" type="matrix" in="shadowBlurOuter1"></feColorMatrix>
        </filter>
        <path d="M24.5,0 C38.0309764,0 49,10.9690236 49,24.5 C49,36.0754281 40.9724351,45.775918 30.1807309,48.338044 L24.5,54 L18.8192691,48.338044 C8.02756491,45.775918 0,36.0754281 0,24.5 C0,10.9690236 10.9690236,0 24.5,0 Z" id="path-4"></path>
        <path d="M16.1204063,14.2364692 C16.5289385,12.4460585 17.4125888,10.7218741 18.7047713,9.39575047 C18.6368968,6.5440893 19.7254623,3.2953901 22.3776592,1.76982058 C25.4384209,0.0456041883 30.0640696,0.244123198 33.2605935,1.37153602 C33.601261,1.5038799 33.8048877,1.83598293 33.7369903,2.1668586 C33.0569667,5.48296667 31.0168632,9.46069824 27.9547245,11.1850744 C25.3703595,12.5772006 22.1045941,11.980397 19.5880282,10.6544332 C17.1393926,13.3737377 17.0715279,17.3515332 17.7515515,20.7338037 C17.955175,21.5952886 16.459369,21.7950541 16.2557422,20.9984914 C15.9150747,19.472794 15.7793454,17.8821489 15.8472101,16.290417 C15.6435866,15.9582948 15.3708133,15.6274511 15.0993219,15.2953289 C12.6506862,16.687455 9.31705607,17.2842586 6.73262555,15.8259701 C3.73972813,14.1679161 1.63162884,10.1887462 0.950359589,6.8739166 C0.882485079,6.54179439 1.08610857,6.14478833 1.49465369,6.01243167 C4.69117788,4.9511812 9.3167938,4.75266219 12.3097237,6.41071623 C15.0298507,7.93641361 16.0504762,11.1852726 16.0504762,14.1028085 C16.0504762,14.1689804 16.1183507,14.1689804 16.1183507,14.2351523 L16.1204063,14.2364692 Z M32.104337,2.56504727 C29.3150667,1.835919 25.7099779,1.63615345 23.193412,3.02949417 C21.2890707,4.09074464 20.473285,6.34560225 20.2683796,8.40079019 L23.8734028,6.34569814 C24.6212911,5.94741358 25.3692121,7.20718306 24.6212911,7.60546762 L21.0162678,9.66055968 C22.9206092,10.5220446 25.3012491,10.9203292 27.2057216,9.85907549 C29.7900865,8.46694935 31.3549735,5.28332578 32.103124,2.56523584 L32.104337,2.56504727 Z M2.65173074,7.27312167 C3.39961897,9.9250173 4.96460361,13.1088326 7.48093998,14.5669613 C9.38528137,15.6282118 11.7659212,15.2299272 13.6703937,14.3684455 L10.0653705,12.3133534 C9.31748228,11.9150689 10.0653705,10.5891371 10.8132587,11.053584 L14.418282,13.0425137 C14.2146585,10.9874216 13.4654884,8.79885421 11.561147,7.73738 C9.04464667,6.27909151 5.37169322,6.54377287 2.65022231,7.27293309 L2.65173074,7.27312167 Z" id="path-6"></path>
    </defs>
    <g id="UI---Mapa-mvp2" stroke="none" stroke-width="1" fill="none" fill-rule="evenodd">
        <g id="Explorar/Mapa-Geral" transform="translate(-50.000000, -146.000000)">
            <g id="pin/agricultor/organico-copy-4" transform="translate(62.000000, 154.000000)">
                <g id="Group-8-Copy" transform="translate(0.000000, 2.000000)">
                    <mask id="mask-2" fill="white">
                        <use xlink:href="#path-1"></use>
                    </mask>
                    <g id="Oval-2">
                        <use fill="black" fill-opacity="1" filter="url(#filter-3)" xlink:href="#path-1"></use>
                        <use fill="#FFA129" fill-rule="evenodd" xlink:href="#path-1"></use>
                    </g>
                    <g id="1.-colors/iniciativas" mask="url(#mask-2)" fill="#27ADB6">
                        <g transform="translate(-5.000000, -5.000000)" id="Rectangle-Copy-2">
                            <rect x="0" y="0" width="60" height="62"></rect>
                        </g>
                    </g>
                    <mask id="mask-5" fill="white">
                        <use xlink:href="#path-4"></use>
                    </mask>
                    <use id="Oval-2" stroke="#FFFFFF" stroke-width="3" xlink:href="#path-4"></use>
                </g>
                <g id="2.-assets/icons/todos-cinza" transform="translate(7.000000, 15.000000)">
                    <mask id="mask-7" fill="white">
                        <use xlink:href="#path-6"></use>
                    </mask>
                    <use id="Fill-1" fill="#A9ACAF" xlink:href="#path-6"></use>
                    <g id="1.-colors/white" mask="url(#mask-7)" fill="#FFFFFF">
                        <g transform="translate(-3.000000, -10.000000)" id="Rectangle">
                            <rect x="0" y="0" width="42" height="42"></rect>
                        </g>
                    </g>
                </g>
            </g>
        </g>
    </g>
</svg>