<?xml version="1.0" encoding="UTF-8"?>
<svg width="69px" height="69px" viewBox="0 0 69 69" version="1.1" xmlns="http://www.w3.org/2000/svg" xmlns:xlink="http://www.w3.org/1999/xlink">
    <!-- Generator: sketchtool 63.1 (101010) - https://sketch.com -->
    <title>B9357625-3C6B-4B88-8489-8D17AC4DC756@0,5x</title>
    <desc>Created with sketchtool.</desc>
    <defs>
        <circle id="path-1" cx="34.8117647" cy="34.8117647" r="34"></circle>
        <path d="M15.2099108,13.0823516 C15.598989,11.3771986 16.4405608,9.73511817 17.6712107,8.4721433 C17.6065684,5.75627552 18.6432975,2.66227629 21.1691992,1.20935293 C24.0842104,-0.432757916 28.4895901,-0.243692192 31.5338985,0.830034304 C31.8583438,0.956076091 32.052274,1.27236469 31.9876098,1.58748438 C31.3399683,4.74568255 29.3970126,8.53399833 26.48069,10.1762614 C24.01939,11.5020958 20.9091372,10.9337114 18.5124078,9.67088879 C16.1803739,12.2607026 16.1157409,16.0490793 16.7633824,19.2702892 C16.9573095,20.090751 15.5327324,20.2810039 15.3388021,19.5223728 C15.0143569,18.0693276 14.8850909,16.5544275 14.9497239,15.0384924 C14.7557968,14.7221855 14.4960126,14.4070963 14.2374494,14.0907894 C11.9054154,15.4166238 8.7305296,15.9850082 6.26916719,14.596162 C3.41878869,13.0170629 1.41107508,9.22737731 0.762247228,6.07039676 C0.697604837,5.75408989 0.891531968,5.37598889 1.28062256,5.24993492 C4.32493132,4.23922019 8.73027981,4.05015447 11.5806892,5.62925355 C14.1712864,7.08229867 15.1433107,10.1764501 15.1433107,12.9550557 C15.1433107,13.0180766 15.2079531,13.0180766 15.2079531,13.0810975 L15.2099108,13.0823516 Z M30.4327019,1.96671168 C27.776254,1.27230381 24.3428361,1.08205091 21.9461067,2.40904207 C20.1324482,3.4197568 19.3555095,5.56724024 19.1603615,7.52456209 L22.593717,5.56733156 C23.3059915,5.18801293 24.0182972,6.38779339 23.3059915,6.76711202 L19.872636,8.72434255 C21.6862945,9.54480438 23.9535705,9.92412301 25.7673539,8.91340523 C28.2286538,7.58757081 29.7190224,4.55554836 30.4315467,1.96689128 L30.4327019,1.96671168 Z M2.38260071,6.45059207 C3.09487521,8.97620695 4.58533678,12.008412 6.9818476,13.397106 C8.79550607,14.4078208 11.0627821,14.0285021 12.8765655,13.2080433 L9.44321001,11.2508128 C8.7309355,10.8714942 9.44321001,9.60870196 10.1554845,10.0510323 L13.58884,11.9452511 C13.3949128,9.98802059 12.6814175,7.90367068 10.867759,6.89274286 C8.47109207,5.50389667 4.97304116,5.75597416 2.38116411,6.45041247 L2.38260071,6.45059207 Z" id="path-3"></path>
    </defs>
    <g id="UI---Mapa" stroke="none" stroke-width="1" fill="none" fill-rule="evenodd">
        <g id="[desktop]-mapa---Iniciativas_layout" transform="translate(-406.000000, -647.000000)">
            <g id="lista" transform="translate(116.500000, 40.000000)">
                <g id="card-lista/desktop/agricultor/completo-copy-5" transform="translate(3.000000, 600.000000)">
                    <g id="turismo/active" transform="translate(286.000000, 7.000000)">
                        <g id="1.-colors/iniciativas">
                            <mask id="mask-2" fill="white">
                                <use xlink:href="#path-1"></use>
                            </mask>
                            <use id="Mask" fill="#27ADB6" xlink:href="#path-1"></use>
                            <g mask="url(#mask-2)" fill="#27ADB6" id="Rectangle-Copy-2">
                                <g transform="translate(1.000000, 1.000000)">
                                </g>
                            </g>
                        </g>
                        <g id="2.-assets/icons/todos-cinza" transform="translate(18.000000, 25.000000)">
                            <mask id="mask-4" fill="white">
                                <use xlink:href="#path-3"></use>
                            </mask>
                            <use id="Fill-1" fill="#fff" xlink:href="#path-3"></use>
                            <g id="1.-colors/white" mask="url(#mask-4)" fill="#FFFFFF">
                                <g transform="translate(-3.000000, -10.000000)" id="Rectangle">
                                </g>
                            </g>
                        </g>
                    </g>
                </g>
            </g>
        </g>
    </g>
</svg>