<?xml version="1.0" encoding="UTF-8"?>
<svg width="69px" height="69px" viewBox="0 0 69 69" version="1.1" xmlns="http://www.w3.org/2000/svg" xmlns:xlink="http://www.w3.org/1999/xlink">
    <!-- Generator: sketchtool 62 (101010) - https://sketch.com -->
    <title>D5B69587-62BB-44D9-AAB2-EB1A4464A066@0,5x</title>
    <desc>Created with sketchtool.</desc>
    <defs>
        <circle id="path-1-market-avatar" cx="34.02" cy="34.02" r="34.02"></circle>
    </defs>
    <g id="UI---Mapa" stroke="none" stroke-width="1" fill="none" fill-rule="evenodd">
        <g id="[desktop]-mapa---Feiras_layout" transform="translate(-406.000000, -408.000000)">
            <g id="card-lista/desktop/agricultor/completo-copy-3-item-lista/desktop/feira/tradicional/sem-imagem" transform="translate(119.500000, 400.000000)">
                <g id="Group" transform="translate(287.000000, 8.000000)">
                    <mask id="mask-2-market-avatar" fill="white">
                        <use xlink:href="#path-1-market-avatar"></use>
                    </mask>
                    <use id="Mask" fill="#EA3E57" xlink:href="#path-1-market-avatar"></use>
                    <path d="M23.7527036,35.2830189 L23.7527036,44.7924528 C23.7527036,45.4563623 24.2876006,46 24.9408356,46 L43.0598486,46 C43.7130835,46 44.2479806,45.4563623 44.2479806,44.7924528 L44.2479806,35.2830189 C45.3177746,34.6485736 46,33.4716981 46,32.144 C46,31.9329147 45.9408251,31.7218415 45.8514835,31.5402264 L40.8913294,22.6037736 C40.683638,22.2110792 40.2972634,22 39.8517139,22 L28.1492078,22 C27.7338369,22 27.3172778,22.2417449 27.1095923,22.6037736 L22.1494383,31.5390189 C22.0600973,31.7206219 22.0009224,31.9317132 22.0009224,32.1427925 C21.9707557,33.4717887 22.6831769,34.6486943 23.7529412,35.2830189 L23.7527036,35.2830189 Z M39.1681222,24.3843019 L43.6236172,32.3843019 C43.5052674,32.9585811 43.0005311,33.3807698 42.4064651,33.3807698 C41.9609156,33.3807698 41.5455446,33.1390249 41.336671,32.7463245 C41.1289796,32.3843019 40.742605,32.1425509 40.2970555,32.1425509 C39.851506,32.1425509 39.4651255,32.3843019 39.25744,32.7463245 C39.0497486,33.1390189 38.6343539,33.3807698 38.2178245,33.3807698 C37.8024536,33.3807698 37.3569041,33.1390249 37.1480305,32.7463245 C36.9403391,32.3843019 36.5539645,32.1425509 36.108415,32.1425509 C35.693044,32.1425509 35.2764849,32.3843019 35.0687995,32.7463245 C34.8611081,33.1390189 34.4457134,33.3807698 34.0001639,33.3807698 C33.5546144,33.3807698 33.1392434,33.1390249 32.9303698,32.7463245 C32.7226784,32.3843019 32.3363038,32.1425509 31.8907543,32.1425509 C31.4452048,32.1425509 31.0588243,32.3843019 30.8511388,32.7463245 C30.6434474,33.1390189 30.2268943,33.3807698 29.7813448,33.3807698 C29.3357953,33.3807698 28.9204243,33.1390249 28.7115507,32.7463245 C28.5038593,32.3843019 28.1174847,32.1425509 27.6719352,32.1425509 C27.2565643,32.1425509 26.8400052,32.3843019 26.6323197,32.7463245 C26.4246283,33.1390189 26.0080752,33.3807698 25.5625257,33.3807698 C24.9684597,33.3807698 24.4637412,32.9586113 24.3442151,32.3843019 L28.7997101,24.3843019 L39.1681222,24.3843019 Z M27.7032425,35.101283 C28.2973085,35.5541132 29.039891,35.7958642 29.812652,35.7958642 C30.5854131,35.7958642 31.297817,35.5541192 31.9220616,35.101283 C32.5161276,35.5541132 33.2587101,35.7958642 34.0314711,35.7958642 C34.8042322,35.7958642 35.5166361,35.5541192 36.1408807,35.101283 C36.7349467,35.5541132 37.4775292,35.7958642 38.2502902,35.7958642 C39.0230513,35.7958642 39.7354552,35.5541192 40.3596998,35.101283 C40.8354278,35.4338415 41.3691367,35.6743849 41.9342123,35.7357283 L41.9342123,39.176634 L26.1914633,39.176634 L26.1879821,35.7650113 C26.6927006,35.6753872 27.2275976,35.4631245 27.7033257,35.1011019 L27.7032425,35.101283 Z M26.12873,43.5849057 L26.12873,41.6533132 L41.8714789,41.6533132 L41.8714789,43.5849057 L26.12873,43.5849057 Z" id="Fill-1" stroke="#EA3E57" stroke-width="0.972" fill="#FFFFFF" mask="url(#mask-2-market-avatar)"></path>
                </g>
            </g>
        </g>
    </g>
</svg>
