<?xml version="1.0" encoding="UTF-8"?>
<svg width="63px" height="67px" viewBox="0 0 63 67" version="1.1" xmlns="http://www.w3.org/2000/svg" xmlns:xlink="http://www.w3.org/1999/xlink">
    <!-- Generator: Sketch 63 (92445) - https://sketch.com -->
    <title>pin/agricultor copy</title>
    <desc>Created with Sketch.</desc>
    <defs>
        <path d="M20.825,0 C32.3263299,0 41.65,9.32367009 41.65,20.825 C41.65,30.6641331 34.8265433,38.9095624 25.6535677,41.0873501 L20.825,45.9 L15.9964323,41.0873501 C6.82345673,38.9095624 0,30.6641331 0,20.825 C0,9.32367009 9.32367009,0 20.825,0 Z" id="path-1"></path>
        <filter x="-41.5%" y="-33.3%" width="183.0%" height="176.4%" filterUnits="objectBoundingBox" id="filter-2">
            <feMorphology radius="1.275" operator="dilate" in="SourceAlpha" result="shadowSpreadOuter1"></feMorphology>
            <feOffset dx="0" dy="2" in="shadowSpreadOuter1" result="shadowOffsetOuter1"></feOffset>
            <feGaussianBlur stdDeviation="5" in="shadowOffsetOuter1" result="shadowBlurOuter1"></feGaussianBlur>
            <feComposite in="shadowBlurOuter1" in2="SourceAlpha" operator="out" result="shadowBlurOuter1"></feComposite>
            <feColorMatrix values="0 0 0 0 0   0 0 0 0 0   0 0 0 0 0  0 0 0 0.15 0" type="matrix" in="shadowBlurOuter1"></feColorMatrix>
        </filter>
    </defs>
    <g id="UI---Mapa" stroke="none" stroke-width="1" fill="none" fill-rule="evenodd">
        <g id="[desktop]-mapa---Feiras_layout" transform="translate(-625.000000, -243.000000)">
            <g id="Group-2" transform="translate(301.000000, 170.000000)">
                <g id="pin/feira/organica" transform="translate(334.900000, 79.900000)">
                    <g id="Group-7-Copy-3" transform="translate(0.000000, 1.700000)">
                        <g id="Oval-2">
                            <use fill="black" fill-opacity="1" filter="url(#filter-2)" xlink:href="#path-1"></use>
                            <use stroke="#FFFFFF" stroke-width="2.55" fill="#EA3E57" fill-rule="evenodd" xlink:href="#path-1"></use>
                        </g>
                        <path d="M10.3001726,20.4427673 L10.3001726,30.2097484 C10.3001726,30.8916387 10.8495565,31.45 11.5204832,31.45 L30.1302195,31.45 C30.8011462,31.45 31.35053,30.8916387 31.35053,30.2097484 L31.35053,20.4427673 C32.4492977,19.7911391 33.15,18.5823899 33.15,17.2187333 C33.15,17.0019312 33.0892224,16.7851414 32.9974612,16.5986075 L27.9029696,7.42012579 C27.6896532,7.01679597 27.2928143,6.8 26.8351979,6.8 L14.8157489,6.8 C14.3891283,6.8 13.9612874,7.04829216 13.7479771,7.42012579 L8.65348556,16.5973673 C8.56172491,16.7838887 8.50094735,17.0006971 8.50094735,17.2174931 C8.46996366,18.582483 9.20167958,19.7912631 10.3004167,20.4427673 L10.3001726,20.4427673 Z M26.1330922,9.24887673 L30.7092568,17.4655434 C30.5877017,18.055376 30.0692955,18.488999 29.4591402,18.488999 C29.0015237,18.488999 28.5749031,18.2407068 28.3603725,17.8373708 C28.1470561,17.4655434 27.7502172,17.217245 27.2926008,17.217245 C26.8349843,17.217245 26.4381393,17.4655372 26.224829,17.8373708 C26.0115126,18.2407006 25.5848676,18.488999 25.1570573,18.488999 C24.7304367,18.488999 24.2728202,18.2407068 24.0582896,17.8373708 C23.8449732,17.4655434 23.4481343,17.217245 22.9905179,17.217245 C22.5638973,17.217245 22.1360564,17.4655372 21.9227461,17.8373708 C21.7094297,18.2407006 21.2827848,18.488999 20.8251683,18.488999 C20.3675518,18.488999 19.9409312,18.2407068 19.7264007,17.8373708 C19.5130843,17.4655434 19.1162454,17.217245 18.6586289,17.217245 C18.2010124,17.217245 17.8041674,17.4655372 17.5908571,17.8373708 C17.3775408,18.2407006 16.949706,18.488999 16.4920895,18.488999 C16.034473,18.488999 15.6078525,18.2407068 15.3933219,17.8373708 C15.1800055,17.4655434 14.7831666,17.217245 14.3255501,17.217245 C13.8989295,17.217245 13.4710887,17.4655372 13.2577784,17.8373708 C13.044462,18.2407006 12.6166272,18.488999 12.1590107,18.488999 C11.5488554,18.488999 11.0304675,18.055407 10.9077043,17.4655434 L15.4838689,9.24887673 L26.1330922,9.24887673 Z M14.3577053,20.2561094 C14.9678606,20.7212038 15.7305547,20.9695021 16.5242447,20.9695021 C17.3179347,20.9695021 18.0496329,20.72121 18.6907841,20.2561094 C19.3009394,20.7212038 20.0636335,20.9695021 20.8573235,20.9695021 C21.6510135,20.9695021 22.3827117,20.72121 23.0238629,20.2561094 C23.6340182,20.7212038 24.3967123,20.9695021 25.1904023,20.9695021 C25.9840923,20.9695021 26.7157905,20.72121 27.3569416,20.2561094 C27.845554,20.5976747 28.3937175,20.8447328 28.9740972,20.9077376 L28.9740972,24.4418345 L12.8049821,24.4418345 L12.8014066,20.9378137 C13.3197945,20.8457622 13.8691784,20.6277508 14.3577907,20.2559234 L14.3577053,20.2561094 Z M12.7405497,28.9694969 L12.7405497,26.9855904 L28.9096648,26.9855904 L28.9096648,28.9694969 L12.7405497,28.9694969 Z" id="Fill-1" stroke="#EA3E57" stroke-width="0.765" fill="#FFFFFF"></path>
                    </g>
                </g>
            </g>
        </g>
    </g>
</svg>