<?xml version="1.0" encoding="UTF-8"?>
<svg width="69px" height="69px" viewBox="0 0 69 69" version="1.1" xmlns="http://www.w3.org/2000/svg" xmlns:xlink="http://www.w3.org/1999/xlink">
    <!-- Generator: sketchtool 63.1 (101010) - https://sketch.com -->
    <title>D137EBCF-B4A4-4A62-BF7B-1BA1C10F7B6D@0,5x</title>
    <desc>Created with sketchtool.</desc>
    <defs>
        <circle id="path-1-tourism-avatar" cx="34.02" cy="34.02" r="34.02"></circle>
        <path d="M15.7215796,0.125034749 C16.1206372,0.125034749 16.4450581,0.449447938 16.4450581,0.848508929 L16.444223,3.02103475 L22.2370171,3.02167664 C22.3985444,3.02167664 22.5560025,3.07597195 22.6836113,3.17641741 L27.7507105,7.15761034 C27.9271694,7.29470557 28.0289735,7.50374166 28.0289735,7.72634722 C28.0289735,7.94895279 27.9271694,8.1579993 27.7520657,8.29508411 L22.6849665,12.276277 C22.5573716,12.3780812 22.399917,12.4324008 22.2383723,12.4324008 L16.446223,12.4320347 L16.446223,13.8790347 L23.6853242,13.8794083 C24.0843817,13.8794083 24.4088026,14.2038214 24.4088026,14.6028824 L24.4088026,22.5666583 C24.410157,22.967071 24.0857404,23.2914876 23.6853242,23.2914876 L16.444223,23.2910347 L16.4450581,34.1491366 C16.4464125,34.5495494 16.1219958,34.874 15.7229348,34.874 L12.8276516,34.874 C12.4285941,34.874 12.1041775,34.5495868 12.1041775,34.1505258 L12.102223,23.2910347 L6.31082418,23.2914876 C6.14929693,23.2914876 5.99183878,23.237168 5.86423003,23.1367225 L0.797130852,19.1555296 C0.622027166,19.0170757 0.520223021,18.8080396 0.520223021,18.5854375 C0.520223021,18.3628354 0.622027166,18.1537854 0.797130852,18.0167006 L5.86423003,14.0355077 C5.99182489,13.9337036 6.14927955,13.8794083 6.31082418,13.8794083 L12.103223,13.8790347 L12.103223,12.4320347 L4.86387582,12.4324008 C4.4648183,12.4324008 4.14040164,12.1079876 4.14040164,11.7089266 L4.13904295,3.74515082 C4.13904295,3.3460933 4.46345614,3.02167664 4.86251713,3.02167664 L12.103223,3.02103475 L12.1028188,0.848508929 C12.1028188,0.449451413 12.427232,0.125034749 12.826293,0.125034749 L15.7215796,0.125034749 Z M14.9981055,23.2914633 L13.5497671,23.2914633 L13.5511258,33.4256617 L14.9994641,33.4256617 L14.9981055,23.2914633 Z M22.96185,15.3276875 L6.56205945,15.3276875 L2.41650375,18.5854063 L6.56205945,21.843125 L22.96185,21.843125 L22.96185,15.3276875 Z M14.999223,12.4320347 L13.550223,12.4320347 L13.5511258,13.8793492 L14.9994641,13.8793492 L14.999223,12.4320347 Z M21.9871406,4.468625 L5.58735,4.468625 L5.58735,10.9840625 L21.9871406,10.9840625 L26.1326963,7.72634375 L21.9871406,4.468625 Z M14.9981055,1.57330357 L13.5497671,1.57330357 L13.5511258,3.02028668 L14.9994641,3.02028668 L14.9981055,1.57330357 Z" id="path-3-tourism"></path>
    </defs>
    <g id="UI---Mapa" stroke="none" stroke-width="1" fill="none" fill-rule="evenodd">
        <g id="[desktop]-mapa---tourism_layout" transform="translate(-406.000000, -528.000000)">
            <g id="card-lista/desktop/agricultor/completo-copy-4" transform="translate(119.500000, 496.000000)">
                <g id="Group" transform="translate(287.000000, 32.000000)">
                    <mask id="mask-2" fill="white">
                        <use xlink:href="#path-1-tourism-avatar"></use>
                    </mask>
                    <use id="Mask" fill="#FFA129" xlink:href="#path-1-tourism-avatar"></use>
                    <g id="2.-assets/icons/todos-cinza" mask="url(#mask-2)">
                        <g transform="translate(19.000000, 16.000000)">
                            <mask id="mask-4-tourism" fill="white">
                                <use xlink:href="#path-3-tourism"></use>
                            </mask>
                            <use id="Combined-Shape-tourism" stroke="#FFFFFF" stroke-width="0.25" fill="#FFFFFF" fill-rule="evenodd" xlink:href="#path-3-tourism"></use>
                            <g id="1.-colors/white-tourism" stroke="none" stroke-width="1" fill="none" fill-rule="evenodd" mask="url(#mask-4-tourism)">
                            </g>
                        </g>
                    </g>
                </g>
            </g>
        </g>
    </g>
</svg>
