<?xml version="1.0" encoding="UTF-8"?>
<svg width="77px" height="83px" viewBox="0 0 77 83" version="1.1" xmlns="http://www.w3.org/2000/svg" xmlns:xlink="http://www.w3.org/1999/xlink">
    <title>4E03D274-8979-4A81-9146-1FA80E9FB6FC</title>
    <defs>
        <path d="M24.5,2 C38.0309764,2 49,12.9690236 49,26.5 C49,38.0754281 40.9724351,47.775918 30.1807309,50.338044 L24.5,56 L18.8192691,50.338044 C8.02756491,47.775918 0,38.0754281 0,26.5 C0,12.9690236 10.9690236,2 24.5,2 Z" id="path-1"></path>
        <filter x="-41.8%" y="-34.3%" width="183.7%" height="177.1%" filterUnits="objectBoundingBox" id="filter-2">
            <feMorphology radius="1.5" operator="dilate" in="SourceAlpha" result="shadowSpreadOuter1"></feMorphology>
            <feOffset dx="0" dy="2" in="shadowSpreadOuter1" result="shadowOffsetOuter1"></feOffset>
            <feGaussianBlur stdDeviation="6" in="shadowOffsetOuter1" result="shadowBlurOuter1"></feGaussianBlur>
            <feComposite in="shadowBlurOuter1" in2="SourceAlpha" operator="out" result="shadowBlurOuter1"></feComposite>
            <feColorMatrix values="0 0 0 0 0   0 0 0 0 0   0 0 0 0 0  0 0 0 0.15 0" type="matrix" in="shadowBlurOuter1"></feColorMatrix>
        </filter>
        <path d="M7.94876528,16.6754378 C9.90247882,16.0709217 13.075589,16.0618859 14.8560177,16.666484 L14.8560177,16.666484 L15.1515536,16.7405157 C15.6538304,16.8752752 16.1451389,17.0478538 16.6028978,17.2493488 L16.6028978,17.2493488 L16.9660901,17.4091997 C18.0758942,17.9369502 19.0244335,18.7730558 19.7147829,19.8364015 C20.3825384,20.8987376 20.7346033,22.1512949 20.7856754,23.5375836 L20.7856754,23.5375836 L20.7913706,23.8658705 C20.7909313,24.1970931 20.7722697,24.5231826 20.7350245,24.8530426 L20.7350245,24.8530426 L20.72176,24.9563212 C20.6628836,25.4147403 20.2726268,25.7580341 19.8104424,25.7580341 L19.8104424,25.7580341 L3.06786013,25.757074 C2.59924563,25.7570472 2.20574699,25.4043375 2.15464245,24.9385179 L2.15464245,24.9385179 L2.12565226,24.6733549 C1.99831217,23.3301644 2.17032332,21.9890924 2.67536218,20.7828862 C2.81572449,20.4476436 2.98075108,20.1280083 3.1776996,19.8138808 C3.90844694,18.6832153 4.95136881,17.798224 6.17532354,17.2762027 L6.17532354,17.2762027 L6.59540767,17.1005954 C6.95972049,16.9572545 7.33107703,16.8350345 7.70790634,16.734364 L7.70790634,16.734364 Z M14.3391277,18.4282241 C12.8636857,17.9298129 10.0855599,17.9377239 8.44325008,18.4444312 L8.44325008,18.4444312 L8.172875,18.5110625 L7.87488313,18.5979045 C7.77342839,18.6291153 7.67318829,18.6620081 7.57488913,18.6962949 L7.57488913,18.6962949 L7.28654076,18.8030491 L6.89052024,18.9687929 C6.01145536,19.3437337 5.25401279,19.986476 4.72784911,20.800429 C4.59144441,21.0181082 4.4723777,21.2487251 4.37029321,21.4925446 C4.073109,22.2023225 3.92642288,22.9887951 3.92233622,23.793547 L3.92233622,23.793547 L3.9243125,23.9185625 L18.9524375,23.919875 L18.9489489,23.5879283 C18.9097592,22.5276492 18.6458152,21.5886034 18.1663822,20.825683 C17.6672331,20.0569758 16.9782555,19.4496652 16.1966324,19.0776938 L16.1966324,19.0776938 L15.9768333,18.979129 L15.4869092,18.7774881 C15.2229081,18.6769974 14.9554379,18.5903376 14.6906202,18.5191948 L14.6906202,18.5191948 Z M11.4385136,0.0392021 C14.894153,0.0392021 16.5533835,1.73908432 17.0641306,5.10232685 C20.0674966,5.43787541 21.901349,6.12220617 21.901349,7.26729047 C21.901349,8.56201431 20.1804491,9.09237439 16.8699036,9.4298971 C16.5388826,12.9290991 14.295438,15.7050695 11.4385678,15.7050695 C8.58195491,15.7050695 6.33856203,12.9296005 6.0073273,9.43092556 C2.70365236,9.09689143 0.97562416,8.55724811 0.97562416,7.26729047 C0.97562416,6.12206942 2.80991003,5.43771351 5.81315419,5.10173372 C6.32093147,1.73300481 7.9705466,0.0392021 11.4385136,0.0392021 Z M11.8232742,8.67571607 L11.4460252,8.67636382 C10.3227865,8.68556412 9.23497994,8.75912465 8.44705464,8.88049701 C8.21803887,8.9157747 8.02070611,8.95425304 7.86213568,8.99344157 L7.86213568,8.99344157 L7.8171875,9.004625 L7.82486171,9.12318315 C8.02323546,11.7350975 9.52093067,13.7213016 11.2460109,13.8598418 L11.2460109,13.8598418 L11.4385678,13.8675695 C13.2434483,13.8675695 14.8464305,11.83187 15.0521398,9.12319013 L15.0521398,9.12319013 L15.060875,8.9639375 L15.0063955,8.94914001 C14.9722719,8.94050088 14.9362084,8.93192764 14.898281,8.92345042 L14.898281,8.92345042 L14.6489554,8.87398055 L14.434795,8.83926096 C13.6629539,8.72458092 12.5857099,8.66702882 11.4460252,8.67636382 Z M16.1561312,6.92078206 C14.0660279,6.70988607 11.9697505,6.63933542 9.87444965,6.70930271 C8.8222769,6.74442116 7.77080913,6.81492888 6.72082249,6.92078948 C6.62839915,6.93010769 6.53829828,6.92550146 6.45238156,6.90881648 C5.86811926,6.96544951 5.32486658,7.03366146 4.83282182,7.11120894 C4.6291926,7.14330142 4.43642475,7.17671284 4.25537107,7.21117886 L3.9768125,7.266875 L4.02818694,7.27847413 C4.67758642,7.41283819 5.48751765,7.53034742 6.41394331,7.6232744 C7.10587231,7.07949286 8.58125093,6.89473025 10.7273958,6.84902246 L10.7273958,6.84902246 L11.430975,6.83892546 C14.0153069,6.81775755 15.7606451,6.96958117 16.5048928,7.61912764 C17.266468,7.54175115 17.9473892,7.44789024 18.5237099,7.34185891 L18.8999375,7.266875 L18.8842986,7.26363561 C18.7151737,7.22818108 18.5339083,7.19364897 18.3413554,7.16030363 L18.0441669,7.11120873 C17.5521277,7.03366137 17.0088819,6.96544948 16.4252517,6.90754827 C16.3387058,6.9255064 16.2485805,6.93011039 16.1561312,6.92078206 Z M11.4385136,1.8767021 C9.13336917,1.8767021 8.10989185,2.74413705 7.69452132,4.96698593 L7.69828423,4.94410337 C8.83856244,4.87622663 10.0934403,4.84434788 11.4385542,4.84434788 L12.2699728,4.84856399 C13.3022648,4.8592377 14.2750291,4.89035685 15.1762422,4.94395416 L15.1287393,4.70951123 C14.6977601,2.76322427 13.7243712,1.94319463 11.6978152,1.88060721 L11.6978152,1.88060721 Z" id="path-3"></path>
    </defs>
    <g id="UI---Mapa-mvp2" stroke="none" stroke-width="1" fill="none" fill-rule="evenodd">
        <g id="Explorar/Mapa-Geral" transform="translate(-337.000000, -333.000000)">
            <g id="pin/agricultor/organico-copy" transform="translate(351.000000, 343.000000)">
                <g id="Oval-2">
                    <use fill="black" fill-opacity="1" filter="url(#filter-2)" xlink:href="#path-1"></use>
                    <use stroke="#3F993F" stroke-width="3" fill="#FFFFFF" fill-rule="evenodd" xlink:href="#path-1"></use>
                </g>
                <g id="2.-assets/icons/todos-cinza" transform="translate(13.000000, 12.000000)">
                    <mask id="mask-4" fill="white">
                        <use xlink:href="#path-3"></use>
                    </mask>
                    <use id="Combined-Shape" fill="#A9ACAF" fill-rule="nonzero" xlink:href="#path-3"></use>
                    <g id="1.-colors/white" mask="url(#mask-4)" fill="#3F993F">
                        <g transform="translate(-10.000000, -7.000000)" id="Rectangle-Copy-2">
                            <rect x="0" y="0" width="42" height="42"></rect>
                        </g>
                    </g>
                </g>
            </g>
        </g>
    </g>
</svg>