<?xml version="1.0" encoding="UTF-8"?>
<svg width="69px" height="69px" viewBox="0 0 69 69" version="1.1" xmlns="http://www.w3.org/2000/svg" xmlns:xlink="http://www.w3.org/1999/xlink">
    <!-- Generator: sketchtool 62 (101010) - https://sketch.com -->
    <title>16C4F520-A20C-4D2F-B744-55D06E02DADE@0,5x</title>
    <desc>Created with sketchtool.</desc>
    <defs>
        <circle id="path-1-upa-avatar" cx="34.02" cy="34.02" r="34.02"></circle>
    </defs>
    <g id="UI---Mapa" stroke="none" stroke-width="1" fill="none" fill-rule="evenodd">
        <g id="[desktop]-mapa---geral-grande_layout" transform="translate(-406.000000, -288.000000)">
            <g id="lista" transform="translate(117.000000, 40.000000)">
                <g id="card-lista/desktop/agricultor/completo-copy-2-item-lista/desktop/agricultor/sem-iamgem" transform="translate(2.500000, 240.000000)">
                    <g id="Group" transform="translate(287.000000, 8.000000)">
                        <mask id="mask-2-upa-avatar" fill="white">
                            <use xlink:href="#path-1-upa-avatar"></use>
                        </mask>
                        <use id="Mask" fill="#3F993F" xlink:href="#path-1-upa-avatar"></use>
                        <g id="Group-4" mask="url(#mask-2-upa-avatar)">
                            <g transform="translate(24.000000, 20.000000)">
                                <path d="M9.6304108,7.91112103e-15 C6.0783422,7.91112103e-15 5.06044127,2.07742785 4.77704607,5.24594354 C5.85736223,5.13378495 6.93904415,5.05910757 8.02127237,5.0219114 C10.1764417,4.94780407 12.3332498,5.02248145 14.4839121,5.24594354 C14.198878,2.07329494 13.1626759,7.91112103e-15 9.6304108,7.91112103e-15 Z" id="Stroke-1" stroke="#FFFFFF" stroke-width="1.160896" stroke-linejoin="round"></path>
                                <path d="M6.3831252,15.9479391 L6.10532961,16.0193387 C5.75992891,16.1143956 5.41848891,16.230117 5.08292168,16.365933 L4.67756411,16.5407977 C3.61814408,17.0059637 2.7103234,17.8004798 2.07346952,18.8151801 C1.9073931,19.0880945 1.76439803,19.3742628 1.64311854,19.6724023 C1.1664683,20.8451507 1.05010555,22.1034076 1.15636168,23.256204 L1.1840866,23.5177174 L18.0781281,23.518715 L18.0915125,23.4112594 C18.1226519,23.1276563 18.1404067,22.8239588 18.1408165,22.5058674 L18.1352168,22.1832155 C18.0916491,20.969423 17.7997862,19.816484 17.1966666,18.8282914 C16.5991466,17.8807152 15.7723155,17.1316611 14.8098644,16.6605096 L14.566486,16.5484935 L14.4849501,16.513435 C14.0483166,16.315768 13.5969329,16.1525894 13.1368084,16.0254668 L12.8539595,15.9526421 C11.141433,15.3569332 8.13512212,15.3897115 6.3831252,15.9479391" id="Fill-3" stroke="none"></path>
                                <path d="M6.3831252,15.9479391 L6.10532961,16.0193387 C5.75992891,16.1143956 5.41848891,16.230117 5.08292168,16.365933 L4.67756411,16.5407977 C3.61814408,17.0059637 2.7103234,17.8004798 2.07346952,18.8151801 C1.9073931,19.0880945 1.76439803,19.3742628 1.64311854,19.6724023 C1.1664683,20.8451507 1.05010555,22.1034076 1.15636168,23.256204 L1.1840866,23.5177174 L18.0781281,23.518715 L18.0915125,23.4112594 C18.1226519,23.1276563 18.1404067,22.8239588 18.1408165,22.5058674 L18.1352168,22.1832155 C18.0916491,20.969423 17.7997862,19.816484 17.1966666,18.8282914 C16.5991466,17.8807152 15.7723155,17.1316611 14.8098644,16.6605096 L14.566486,16.5484935 L14.4849501,16.513435 C14.0483166,16.315768 13.5969329,16.1525894 13.1368084,16.0254668 L12.8539595,15.9526421 C11.141433,15.3569332 8.13512212,15.3897115 6.3831252,15.9479391 Z" id="Stroke-5" stroke="#FFFFFF" stroke-width="1.160896" stroke-linejoin="round"></path>
                                <path d="M4.99936448,7.92664777 C2.01954931,7.660859 8.73387762e-13,7.14666817 8.73387762e-13,6.55580477 C8.73387762e-13,5.69259694 4.31170432,4.99285277 9.63038349,4.99285277 C14.9491992,4.99285277 19.2609036,5.69259694 19.2609036,6.55580477 C19.2609036,7.1358371 17.3151053,7.64190462 14.4254303,7.91168379" id="Stroke-7" stroke="#FFFFFF" stroke-width="1.160896" stroke-linejoin="round"></path>
                                <path d="M14.2262478,7.87091051 C14.2262478,11.4595577 12.1687304,14.3685553 9.63046543,14.3685553 C7.09220047,14.3685553 5.03454646,11.4595577 5.03454646,7.87091051 C5.03454646,6.8743095 14.2262478,6.71925417 14.2262478,7.87091051 Z" id="Stroke-9" stroke="#FFFFFF" stroke-width="1.160896" stroke-linejoin="round"></path>
                            </g>
                        </g>
                    </g>
                </g>
            </g>
        </g>
    </g>
</svg>
