<?xml version="1.0" encoding="UTF-8"?>
<svg width="69px" height="69px" viewBox="0 0 69 69" version="1.1" xmlns="http://www.w3.org/2000/svg" xmlns:xlink="http://www.w3.org/1999/xlink">
    <title>AA0EBE5E-469C-48FE-95C7-39880451EBA5@0,5x</title>
    <defs>
        <circle id="path-1" cx="34.02" cy="34.02" r="34.02"></circle>
        <path d="M8.36757772,20.185045 C10.6934272,19.465383 14.4709393,19.454626 16.5904972,20.1743857 L16.5904972,20.1743857 L16.9423258,20.2625187 C17.5402743,20.4229466 18.1251653,20.6283974 18.6701164,20.8682724 L18.6701164,20.8682724 L19.1024882,21.0585711 C20.4236836,21.6868454 21.552897,22.6822093 22.3747416,23.948097 C23.1696886,25.2127828 23.5888134,26.7039225 23.6496136,28.3542662 L23.6496136,28.3542662 L23.6563936,28.7450839 C23.6558706,29.1393965 23.6336544,29.5275983 23.5893149,29.9202888 L23.5893149,29.9202888 L23.5735238,30.0432395 C23.5034329,30.5889765 23.0388414,30.9976597 22.4886218,30.9976597 L22.4886218,30.9976597 L2.55697634,30.9965167 C1.99910194,30.9964847 1.53065118,30.5765922 1.46981244,30.0220451 L1.46981244,30.0220451 L1.4353003,29.7063748 C1.28370496,28.1073386 1.48848015,26.5108242 2.08971688,25.0748645 C2.25681487,24.6757662 2.45327509,24.295248 2.68773762,23.9212867 C3.55767493,22.5752563 4.79924858,21.5216952 6.25633755,20.9002413 L6.25633755,20.9002413 L6.75643771,20.691185 C7.19014344,20.5205411 7.63223456,20.3750411 8.08084088,20.2551952 L8.08084088,20.2551952 Z M15.975152,22.2716954 C14.2186735,21.6783487 10.9113809,21.6877666 8.9562501,22.2909895 L8.9562501,22.2909895 L8.634375,22.3703125 L8.27962278,22.4736959 C8.15884332,22.5108516 8.03950987,22.5500097 7.92248706,22.5908273 L7.92248706,22.5908273 L7.57921519,22.7179156 L7.10776219,22.9152296 C6.06125638,23.3615877 5.15953904,24.1267572 4.5331537,25.0957488 C4.37076716,25.3548907 4.22902107,25.6294347 4.10749191,25.9196959 C3.75370119,26.7646696 3.57907486,27.7009465 3.57420978,28.6589845 L3.57420978,28.6589845 L3.5765625,28.8078125 L21.4671875,28.809375 L21.4630344,28.4142003 C21.41638,27.1519633 21.102161,26.0340517 20.5314074,25.1258131 C19.9371822,24.2106855 19.1169708,23.4876966 18.1864671,23.0448736 L18.1864671,23.0448736 L17.9248016,22.9275345 L17.3415586,22.6874859 C17.0272715,22.567854 16.7088546,22.4646876 16.3935955,22.3799938 L16.3935955,22.3799938 Z M12.52204,0.3800025 C16.6357833,0.3800025 18.6110621,2.40356048 19.2191529,6.40720155 C22.7942036,6.80683213 24.9777964,7.62153813 24.9777964,8.98486961 C24.9777964,10.5260845 22.9294332,11.1574877 18.9889244,11.5593051 C18.5940643,15.7249244 15.9232401,19.0298447 12.5221045,19.0298447 C9.12122284,19.0298447 6.45043026,15.7254194 6.05628914,11.560067 C2.12339566,11.162966 0.0662192383,10.5205335 0.0662192383,8.98486961 C0.0662192383,7.62164966 2.24944943,6.80696726 5.82409444,6.40694772 C6.42985307,2.39625693 8.39368944,0.3800025 12.52204,0.3800025 Z M12.9354934,10.6613812 L12.5309824,10.6623379 C11.1937935,10.6732906 9.89878565,10.7608627 8.96077934,10.9053536 C8.68814151,10.9473508 8.45322156,10.9931584 8.26444723,11.0398114 L8.26444723,11.0398114 L8.2109375,11.053125 L8.22007347,11.1942657 C8.45623269,14.3036875 10.2392032,16.6682162 12.2928701,16.833145 L12.2928701,16.833145 L12.5221045,16.8423447 C14.6707718,16.8423447 16.5790839,14.4188928 16.8239759,11.194274 L16.8239759,11.194274 L16.834375,11.0046875 L16.7695185,10.9870714 C16.7288952,10.9767868 16.6859624,10.9665805 16.6408107,10.9564886 L16.6408107,10.9564886 L16.3439945,10.8975959 L16.0890416,10.856263 C15.1701832,10.7197392 13.8877498,10.6512248 12.5309824,10.6623379 Z M18.1382515,8.5723596 C15.6500332,8.32129294 13.1544649,8.23730407 10.6600591,8.32059846 C9.4074725,8.36240615 8.15572516,8.44634391 6.90574106,8.57236843 C6.79599699,8.58343293 6.68900353,8.5780061 6.58695985,8.55826822 C5.89081554,8.62551034 5.24397817,8.70672575 4.65812121,8.79905827 C4.41570547,8.83726359 4.18621994,8.87703909 3.97067985,8.91807007 L3.6390625,8.984375 L3.70022254,8.99818349 C4.47298108,9.15807116 5.43668271,9.29791101 6.53897041,9.4085157 C7.36312378,8.76142752 9.11980224,8.54136119 11.6754712,8.48693149 L11.6754712,8.48693149 L12.5130655,8.47491126 C15.5893151,8.44971412 17.6669808,8.63041431 18.5531535,9.40347007 C19.4589371,9.31176617 20.2702174,9.19995839 20.9567975,9.07364156 L21.4046875,8.984375 L21.3860698,8.98051858 C21.1847306,8.93831081 20.9689385,8.89720116 20.7397088,8.85750432 L20.3859129,8.79905801 C19.8000626,8.70672564 19.1532335,8.62551032 18.458315,8.55657353 C18.3550488,8.57801197 18.2480263,8.58343612 18.1382515,8.5723596 Z M12.52204,2.5675025 C9.77782044,2.5675025 8.55939506,3.60016315 8.06490634,6.24641182 L8.06902727,6.21919204 C9.42659686,6.13837172 10.9206212,6.10041414 12.5220884,6.10041414 L13.5118724,6.10543332 C14.7408581,6.11814081 15.8989699,6.15519075 16.9718915,6.21900343 L16.9151658,5.93989432 C16.4020953,3.62288603 15.243299,2.64666028 12.8307323,2.57215144 L12.8307323,2.57215144 Z" id="path-3"></path>
    </defs>
    <g id="UI---Mapa-mvp2" stroke="none" stroke-width="1" fill="none" fill-rule="evenodd">
        <g id="[desktop]-Explorar-Agricultura" transform="translate(-415.000000, -396.000000)">
            <g id="lista" transform="translate(117.000000, 61.000000)">
                <g id="Group" transform="translate(3.000000, 153.000000)">
                    <g id="card-lista/desktop/agricultor/completo-copy" transform="translate(0.000000, 170.000000)">
                        <g id="Group" transform="translate(295.000000, 12.000000)">
                            <mask id="mask-2" fill="white">
                                <use xlink:href="#path-1"></use>
                            </mask>
                            <circle stroke="#3F993F" stroke-width="2" cx="34.02" cy="34.02" r="33.02"></circle>
                            <g id="2.-assets/icons/agricultores" mask="url(#mask-2)">
                                <g transform="translate(22.000000, 17.000000)">
                                    <mask id="mask-4" fill="white">
                                        <use xlink:href="#path-3"></use>
                                    </mask>
                                    <use id="Combined-Shape" stroke="none" fill="#A9ACAF" fill-rule="nonzero" xlink:href="#path-3"></use>
                                    <g id="1.-colors/white" stroke="none" stroke-width="1" fill="none" fill-rule="evenodd" mask="url(#mask-4)">
                                        <g transform="translate(-13.000000, -8.000000)" fill="#3F993F" id="Rectangle-Copy-2">
                                            <rect x="0" y="0" width="50" height="50"></rect>
                                        </g>
                                    </g>
                                </g>
                            </g>
                        </g>
                    </g>
                </g>
            </g>
        </g>
    </g>
</svg>