<?xml version="1.0" encoding="UTF-8"?>
<svg width="86px" height="86px" viewBox="0 0 86 86" version="1.1" xmlns="http://www.w3.org/2000/svg" xmlns:xlink="http://www.w3.org/1999/xlink">
    <!-- Generator: Sketch 63.1 (92452) - https://sketch.com -->
    <title>2. assets/icone/pag-int/agricultura/frutas</title>
    <desc>Created with Sketch.</desc>
    <defs>
        <circle id="path-1" cx="43" cy="43" r="43"></circle>
        <path d="M52.5,0 L52.5004196,33.865755 C45.1976222,39.5883326 35.9972299,43 26,43 C16.4540139,43 7.63455529,39.8893659 0.499953923,34.6264275 L0.5,7.92448495 L52.5,0 Z" id="path-3"></path>
    </defs>
    <g id="2.-assets/icone/pag-int/agricultura/frutas" stroke="none" stroke-width="1" fill="none" fill-rule="evenodd">
        <g id="Group" opacity="0.6">
            <mask id="mask-2" fill="white">
                <use xlink:href="#path-1"></use>
            </mask>
            <g id="Oval"></g>
            <g id="1.-colors/agricultores" mask="url(#mask-2)" fill="#3F993F">
                <rect id="Rectangle-Copy-2" x="0" y="0" width="86" height="86"></rect>
            </g>
        </g>
        <g id="1.-colors/agricultores" opacity="0.8" transform="translate(17.000000, 43.000000)">
            <mask id="mask-4" fill="white">
                <use xlink:href="#path-3"></use>
            </mask>
            <g id="Mask"></g>
            <g mask="url(#mask-4)" fill="#3F993F" id="Rectangle-Copy-2">
                <g transform="translate(-17.000000, -43.000000)">
                    <rect x="0" y="0" width="86" height="86"></rect>
                </g>
            </g>
        </g>
        <path d="M33.9318092,26.1133355 C31.3916788,21.1654462 31.5294063,15.0824244 33.3405351,10 C44.2691995,10.3945233 52.9591194,20.7354424 50.6676568,30.9171233 C48.9759082,28.2250888 46.3082025,26.222562 43.2375888,25.3411209 C43.0428622,18.6156969 38.6341146,14.6320769 38.4423235,14.4621824 C38.0396602,14.1051981 37.4209873,14.1392254 37.0606452,14.5379871 C36.7003031,14.9366276 36.7344292,15.5491196 37.1372148,15.9058617 C37.1767228,15.9408578 40.903438,19.3077475 41.259866,24.9359413 C38.8387487,24.6317539 36.2834512,24.9893436 33.9318092,26.1133355 Z" id="Path" fill="#292F36" fill-rule="nonzero"></path>
        <path d="M48.9318092,37.1133355 C46.3916788,32.1654462 46.5294063,26.0824244 48.3405351,21 C59.2691995,21.3945233 67.9591194,31.7354424 65.6676568,41.9171233 C63.9759082,39.2250888 61.3082025,37.222562 58.2375888,36.3411209 C58.0428622,29.6156969 53.6341146,25.6320769 53.4423235,25.4621824 C53.0396602,25.1051981 52.4209873,25.1392254 52.0606452,25.5379871 C51.7003031,25.9366276 51.7344292,26.5491196 52.1372148,26.9058617 C52.1767228,26.9408578 55.903438,30.3077475 56.259866,35.9359413 C53.8387487,35.6317539 51.2834512,35.9893436 48.9318092,37.1133355 Z" id="Path-Copy" fill="#292F36" fill-rule="nonzero" transform="translate(56.518439, 31.458562) scale(-1, 1) translate(-56.518439, -31.458562) "></path>
        <path d="M63.2419451,34.0088886 C61.2050215,32.8314944 57.6350655,31.6555526 53.8522569,32.5598812 C53.7655351,32.5788929 53.6790579,32.5987523 53.592703,32.6194593 C48.983737,34.0088886 42.6437276,41.1261487 44.4950983,44.6968391 C39.9367585,47.7945375 35.9918136,40 28.3220318,40.8189571 C21.9599022,41.6434842 17,47.0298538 17,53.6122661 C17,60.7278541 22.8473027,66.5167392 30.0345741,66.5167392 C32.6446691,66.5167392 35.1211954,65.7724972 37.2597633,64.3548531 C39.6087143,67.7603717 43.560735,70 48.0311298,70 C55.1447671,70 60.9455898,64.3291812 61.0639914,57.3141011 C66.1114717,55.5226406 69.7136695,50.7658372 69.7136695,45.1598036 C69.7136695,41.170371 67.8755089,37.5979853 64.9937507,35.2290289 C64.1814567,34.5688857 64.9937507,35.2290289 63.2419451,34.0088886 Z" id="Shape" fill="#292F36" fill-rule="nonzero"></path>
        <path d="M48.0311298,68.0625005 C43.1418037,68.0625005 38.9107809,64.90256 37.4608504,60.3794674 C36.0054157,55.7765741 37.7632148,50.841763 41.6534661,48.1272051 C42.0950258,47.8187794 42.2005843,47.2144007 41.8890462,46.7772523 C41.5773857,46.340104 40.9670303,46.2356002 40.5254706,46.5440258 C39.7690702,47.0722366 39.0683235,47.6812169 38.4343611,48.3639433 C34.7938785,47.5195568 31.7946972,44.8772919 30.5312982,41.3601249 C27.9148428,34.0742792 33.5473591,26.5783359 41.1372938,26.7201367 C50.2446773,26.8585468 55.2339352,37.2118174 49.7966348,44.3089991 C49.2069507,44.2311358 48.6385496,44.1910538 48.0312521,44.1910538 C47.4908613,44.1910538 47.0527264,44.6248115 47.0527264,45.1598036 C47.0527264,45.6956433 47.4141693,46.1164439 48.2292812,46.1303697 C54.3147326,46.2329361 59.1090194,51.1868801 59.1090194,57.0955269 C59.1090194,63.142705 54.1394542,68.0625005 48.0311298,68.0625005 L48.0311298,68.0625005 Z" id="Combined-Shape" fill="#FFFFFF" fill-rule="nonzero"></path>
        <circle id="Oval" fill="#F4F4F4" cx="48" cy="57" r="13"></circle>
        <circle id="Oval-Copy" fill="#F4F4F4" cx="40" cy="37" r="13"></circle>
        <path d="M39.6726375,29.2424326 L39.0440483,29.2424326 L39.0440483,28.6138433 C39.0440483,28.0609651 38.5957889,27.6127057 38.0429107,27.6127057 C37.4900325,27.6127057 37.0417731,28.0609651 37.0417731,28.6138433 L37.0417731,29.2424326 L36.413309,29.2424326 C35.8604308,29.2424326 35.4121714,29.6906919 35.4121714,30.2435701 C35.4121714,30.7964484 35.8604308,31.2447077 36.413309,31.2447077 L37.0417731,31.2447077 L37.0417731,31.873297 C37.0417731,32.4261752 37.4900325,32.8744345 38.0429107,32.8744345 C38.5957889,32.8744345 39.0440483,32.4261752 39.0440483,31.873297 L39.0440483,31.2447077 L39.6726375,31.2447077 C40.2255158,31.2447077 40.6737751,30.7964484 40.6737751,30.2435701 C40.6737751,29.6906919 40.2255158,29.2424326 39.6726375,29.2424326 Z" id="Path" fill="#292F36" fill-rule="nonzero"></path>
        <path d="M54.9807819,49.2588018 L54.3523178,49.2588018 L54.3523178,48.6303377 C54.3523178,48.0774595 53.9040585,47.6292001 53.3511802,47.6292001 C52.798302,47.6292001 52.3500427,48.0774595 52.3500427,48.6303377 L52.3500427,49.2588018 L51.7214534,49.2588018 C51.1685752,49.2588018 50.7203158,49.7070612 50.7203158,50.2599394 C50.7203158,50.8128176 51.1685752,51.261077 51.7214534,51.261077 L52.3500427,51.261077 L52.3500427,51.8896662 C52.3500427,52.4425445 52.798302,52.8908038 53.3511802,52.8908038 C53.9040585,52.8908038 54.3523178,52.4425445 54.3523178,51.8896662 L54.3523178,51.261077 L54.9807819,51.261077 C55.5336602,51.261077 55.9819195,50.8128176 55.9819195,50.2599394 C55.9819195,49.7070612 55.5336602,49.2588018 54.9807819,49.2588018 Z" id="Path" fill="#292F36" fill-rule="nonzero"></path>
    </g>
</svg>