<?xml version="1.0" encoding="UTF-8"?>
<svg width="86px" height="86px" viewBox="0 0 86 86" version="1.1" xmlns="http://www.w3.org/2000/svg" xmlns:xlink="http://www.w3.org/1999/xlink">
    <!-- Generator: Sketch 63.1 (92452) - https://sketch.com -->
    <title>2. assets/icone/pag-int/agricultura/hortalicas-e-raizes</title>
    <desc>Created with Sketch.</desc>
    <defs>
        <circle id="path-1" cx="43" cy="43" r="43"></circle>
        <path d="M54.5,0 L54.50033,22.057915 C47.0460396,28.2658118 37.459103,32 27,32 C17.0027701,32 7.80237776,28.5883326 0.499580448,22.865755 L0.5,7.92448495 L54.5,0 Z" id="path-3"></path>
    </defs>
    <g id="2.-assets/icone/pag-int/agricultura/hortalicas-e-raizes" stroke="none" stroke-width="1" fill="none" fill-rule="evenodd">
        <g id="Group" opacity="0.6">
            <mask id="mask-2" fill="white">
                <use xlink:href="#path-1"></use>
            </mask>
            <g id="Oval"></g>
            <g id="1.-colors/agricultores" mask="url(#mask-2)" fill="#3F993F">
                <rect id="Rectangle-Copy-2" x="0" y="0" width="86" height="86"></rect>
            </g>
        </g>
        <g id="1.-colors/agricultores" opacity="0.8" transform="translate(16.000000, 54.000000)">
            <mask id="mask-4" fill="white">
                <use xlink:href="#path-3"></use>
            </mask>
            <g id="Mask"></g>
            <g mask="url(#mask-4)" fill="#3F993F" id="Rectangle-Copy-2">
                <g transform="translate(-16.000000, -54.000000)">
                    <rect x="0" y="0" width="86" height="86"></rect>
                </g>
            </g>
        </g>
        <g id="vegetables-(1)" transform="translate(16.000000, 19.000000)" fill-rule="nonzero">
            <path d="M9.11735714,39 L19.1565357,34.2894552 C20.9537409,33.4487355 22.9745302,33.2535568 24.8930714,33.7353898 C26.947,31.0788444 28,28.695374 28,26.6502792 C27.9687631,20.3976472 23.8807871,14.9324758 18.0022857,13.2844422 L15.4642857,12.6167814 L15.4642857,0.989402401 C15.4642857,0.442970543 15.0325602,0 14.5,0 C13.9674398,0 13.5357143,0.442970543 13.5357143,0.989402401 L13.5357143,12.6167814 L10.9977143,13.2844422 C5.11921285,14.9324758 1.03123685,20.3976472 1,26.6502792 C1,30.8354514 5.3065,35.6014028 9.11735714,39 Z" id="Shape-path" fill="#292F36"></path>
            <path d="M9.24753571,16.8601425 C9.47640859,16.7427341 9.74137783,16.723478 9.98409433,16.8066146 C10.2268108,16.8897511 10.4273702,17.0684626 10.5416071,17.3033947 C10.5628214,17.3390132 11.3766786,18.73506 14.5,18.73506 C17.6233214,18.73506 18.4371786,17.3390132 18.4709286,17.2796491 C18.7298666,16.8109912 19.303558,16.6361925 19.7698214,16.8838881 C20.2304259,17.1297371 20.4147263,17.7084738 20.1844643,18.1859417 C20.0581429,18.4461545 18.8277143,20.7138648 14.5,20.7138648 C10.1722857,20.7138648 8.94185714,18.4461545 8.81553571,18.1879205 C8.70110786,17.9530861 8.68234061,17.6812153 8.76336668,17.4321768 C8.84439276,17.1831382 9.01856748,16.9773549 9.24753571,16.8601425 L9.24753571,16.8601425 Z" id="Shape-path" fill="#F4F4F4"></path>
            <path d="M10.7295974,6.02718612 C11.1026055,5.93464434 11.4928862,6.08288107 11.7190792,6.40301186 L11.7190792,6.40301186 L14,9.66124447 L14,13 L10.1775569,7.54604464 C10.0305573,7.3390743 9.97121721,7.07929015 10.0131405,6.82624822 C10.0739976,6.43490149 10.3565892,6.1197279 10.7295974,6.02718612 Z M17.2791092,6.40825273 C17.5042361,6.08490373 17.8962132,5.93426672 18.2711221,6.02702167 C18.646031,6.11977663 18.9294675,6.43751545 18.988441,6.83115286 C19.0276048,7.08475488 18.9663407,7.34397156 18.8184575,7.55037744 L18.8184575,7.55037744 L15,13 L15,9.66389689 Z M10.7299777,1.02703814 C11.1029289,0.934817534 11.4930318,1.08301005 11.7190924,1.40278359 L11.7190924,1.40278359 L14,4.65773735 L14,8 L10.177579,2.5446661 C10.0305277,2.33755425 9.97119567,2.07771113 10.0131636,1.82461304 C10.0743178,1.43381914 10.3570265,1.11925876 10.7299777,1.02703814 Z M17.2787876,1.40801631 C17.5037524,1.08503044 17.8954966,0.934441696 18.2702965,1.02687461 C18.6450964,1.11930751 18.9286123,1.4364285 18.9878783,1.82951118 C19.0283173,2.08459589 18.9666306,2.34569565 18.8169692,2.552914 L18.8169692,2.552914 L15,8 L15,4.66038834 Z" id="Combined-Shape" fill="#292F36"></path>
            <path d="M53.0472,33.9124504 C52.8137306,33.7421284 52.6680252,33.4782195 52.6490863,33.1913672 C52.6301474,32.904515 52.7399089,32.6240118 52.9489899,32.424943 C54.4784221,30.8273902 54.6907536,28.3930492 53.4606645,26.5586893 C52.1860107,24.906063 49.8433258,24.5057638 48.0846439,25.640078 C47.8597676,25.7969515 47.5788953,25.8531498 47.3102924,25.7950141 C47.0416897,25.7368783 46.8099513,25.5697317 46.6714007,25.3341989 C46.1309468,24.3997343 45.0748612,23.8817459 43.998122,24.0230104 C42.9001322,24.2553125 42.0306696,25.0863711 41.7559855,26.166112 C41.6646064,26.527081 41.3738572,26.8048605 41.0067685,26.8819081 C40.6396799,26.9589557 40.260412,26.8218048 40.0294521,26.528491 C39.4927442,25.8688187 38.5829735,25.6370804 37.7922261,25.9586208 C36.9757957,26.3874798 36.4996218,27.2613927 36.5852241,28.1738086 C36.6214974,28.5125546 36.4767382,28.8454873 36.2034659,29.0518167 C35.9301937,29.2581461 35.5681113,29.3078952 35.2485847,29.1830147 C34.3882643,28.8459633 33.2843828,29.6038419 32.7864577,30.5224532 C32.4508619,31.1887027 32.2402117,31.9099322 32.1647878,32.6509429 C32.1412615,32.8774551 32.131423,33.1051607 32.1353247,33.3328388 C32.154086,33.8337212 32.1001741,34.3346781 31.9752423,34.8203462 C31.4380331,36.5601551 28.9061769,37.0189737 27.5459671,37.2664045 C27.0092647,37.3621793 26.493265,37.0166498 26.3821775,36.4870948 C26.3309869,36.2358854 26.383564,35.9748072 26.5281233,35.7623819 C26.6726825,35.5499567 26.8971328,35.4039522 27.1511625,35.3570958 L27.2375874,35.3385872 C25.1692108,33.2452977 22.0005981,32.6611122 19.3120328,33.8773815 L8.51383302,38.7724205 L8.4991015,38.7792395 L1.5713615,41.92278 C0.620598823,42.353695 0.00776378289,43.2920875 0,44.3288987 C0.00069850947,44.5193387 0.0224344558,44.7091293 0.0648186618,44.8948724 C0.343360587,46.1184956 1.43904206,46.9876902 2.70372388,46.988293 L22.2308368,46.988293 C25.5667752,46.9937874 28.4355973,44.6463443 29.0642951,41.3967459 C28.3686807,41.344666 27.6696555,41.43349 27.00974,41.6578147 C26.678167,41.7719671 26.3103834,41.7019906 26.0449299,41.4742447 C25.7794763,41.2464988 25.6566813,40.8955835 25.7228008,40.5536851 C25.7889201,40.2117868 26.0339087,39.9308479 26.3654817,39.8166955 C28.0470217,39.2217727 29.8968632,39.3057311 31.5166012,40.0504884 C33.4434832,40.999298 34.5336152,42.8754861 35.3300991,44.2470712 C36.0480413,45.5887587 37.3848521,46.4948326 38.9059286,46.6707243 C40.4202735,46.7902788 41.8957347,46.1567052 42.8441534,44.9796223 C43.0099828,44.7775106 43.2505378,44.6497259 43.5120511,44.62483 C43.7735644,44.5999342 44.0342317,44.6800029 44.2357904,44.8471396 C45.1514472,45.6836811 46.2175509,46.3419491 47.3785134,46.7876208 C48.3737925,47.1592589 49.4880226,47.038429 50.3788317,46.462259 C51.1653842,45.8797422 51.4692132,44.8517648 51.1242463,43.940218 C50.9958489,43.6858554 50.9859591,43.3885327 51.0971739,43.1263286 C51.2083887,42.8641245 51.4295955,42.6632391 51.7027038,42.576426 C53.4177968,41.9599049 54.659327,40.4672228 54.9436369,38.6798775 C55.2152871,36.8688311 54.4924022,35.0515805 53.0472,33.9124504 L53.0472,33.9124504 Z" id="Shape-path" fill="#F4F4F4"></path>
            <path d="M19.7461214,39.2487736 C20.000121,40.7845371 20.6181153,42.2385356 21.5492587,43.4911408 C21.8654838,43.9228678 21.7726516,44.5265959 21.3410533,44.8451914 L21.3410533,44.8490879 C21.1737068,44.9748992 20.9696325,45.0432842 20.7596496,45.0439165 C20.4474093,45.0443904 20.1535468,44.8975657 19.9680762,44.6484157 C18.8523207,43.1461695 18.1118333,41.4027744 17.8074542,39.5614716 C17.7253928,39.0328981 18.0882953,38.5375419 18.6204809,38.4517027 C19.1526666,38.3658637 19.6551073,38.7216441 19.7461214,39.2487736 Z M14.8071358,41.120091 C14.9642711,41.9733762 15.3538309,42.7677382 15.9336056,43.4171063 C16.1070871,43.6098367 16.1962711,43.8630323 16.1815367,44.120988 C16.1668021,44.3789437 16.049356,44.6205271 15.8550375,44.792588 C15.6606818,44.9649654 15.4051992,45.0536133 15.1448942,45.0389951 C14.884589,45.0243769 14.6408268,44.9076924 14.4673289,44.714657 C13.6426606,43.797348 13.0908635,42.6710032 12.8733791,41.461039 C12.7853857,40.9346354 13.1407235,40.4359804 13.6703734,40.3425958 C14.2000233,40.2492112 14.7068458,40.5958554 14.8071358,41.120091 Z" id="Combined-Shape" fill="#292F36"></path>
        </g>
    </g>
</svg>