<?xml version="1.0" encoding="UTF-8"?>
<svg width="86px" height="86px" viewBox="0 0 86 86" version="1.1" xmlns="http://www.w3.org/2000/svg" xmlns:xlink="http://www.w3.org/1999/xlink">
    <!-- Generator: Sketch 63.1 (92452) - https://sketch.com -->
    <title>2. assets/icone/pag-int/agricultura/mulher</title>
    <desc>Created with Sketch.</desc>
    <defs>
        <circle id="path-1" cx="43" cy="43" r="43"></circle>
        <path d="M40,0 L39.9999539,28 L40.3181078,28 L58.1097044,34.1398377 C58.9597267,34.4331784 59.7360599,34.8600906 60.418515,35.3922499 C52.6360154,43.1817346 41.8806908,48 30,48 C18.3562864,48 7.79349263,43.3720319 0.0507289739,35.8552058 C0.853381593,35.1065167 1.8178201,34.5172322 2.90166465,34.1450369 L20.7962047,28 L20.9999539,28 L21,0 L40,0 Z" id="path-3"></path>
    </defs>
    <g id="2.-assets/icone/pag-int/agricultura/mulher" stroke="none" stroke-width="1" fill="none" fill-rule="evenodd">
        <g id="Group" opacity="0.6">
            <mask id="mask-2" fill="white">
                <use xlink:href="#path-1"></use>
            </mask>
            <g id="Oval"></g>
            <g id="1.-colors/agricultores" mask="url(#mask-2)" fill="#3F993F">
                <rect id="Rectangle-Copy-2" x="0" y="0" width="86" height="86"></rect>
            </g>
        </g>
        <g id="1.-colors/agricultores" opacity="0.8" transform="translate(13.000000, 38.000000)">
            <mask id="mask-4" fill="white">
                <use xlink:href="#path-3"></use>
            </mask>
            <use id="Combined-Shape" fill="#66AE66" xlink:href="#path-3"></use>
            <g mask="url(#mask-4)" fill="#3F993F" id="Rectangle-Copy-2">
                <g transform="translate(-13.000000, -38.000000)">
                    <rect x="0" y="0" width="86" height="86"></rect>
                </g>
            </g>
        </g>
        <g id="woman-hair-(1)" transform="translate(15.000000, 11.000000)" fill-rule="nonzero">
            <path d="M56,32.5005778 C56,30.9402664 55.6588414,29.5158943 54.9867994,28.2683958 C54.1022115,26.6269195 53.9217611,24.7790125 54.5045593,23.1618153 C55.1931109,21.287518 55.0157777,19.2446747 54.0306317,17.6949193 C53.4156226,16.7277444 52.5299957,15.7574026 51.3985729,14.8113399 C49.8316679,13.4996837 49.7617044,12.9829271 48.670805,11.0813011 C46.9472326,8.07972778 42.6690896,8.709884 42.6130957,8.67516611 C41.5059957,7.86929868 40.0734621,4.13756656 38.3979483,3.54826975 C36.5019845,2.88143827 34.150941,4.11134961 33.2383846,3.54826975 C29.4897093,1.23520337 29.212245,1.25065309 28,1 C25.4748491,0.477472185 25.1324206,0.094777277 20.3900275,3.54826975 C20.3413453,3.58011461 16.9357204,4.68288486 14.7675904,5.2481156 C13.4982816,5.57902395 12.6541878,9.22416078 11.4938932,9.78535768 C10.373047,10.3274747 7.78189564,10.2921261 7.32873315,11.0813011 C6.23771835,12.9829271 6.16821667,13.4996837 4.60131161,14.8113399 C3.46988886,15.7574026 2.58426193,16.7277444 1.9693683,17.6949193 C0.984222343,19.2446747 0.806889144,21.287518 1.50894851,23.1975888 C2.07823887,24.7790125 1.89778849,26.6269195 1.01320062,28.2683958 C0.341158595,29.515777 0,30.9402664 0,32.5005778 C0,34.3495405 0.806773693,37.7547094 3.72087999,38.6185517 C2.53865866,42.1827661 3.37556514,46.159842 5.9671005,48.9854801 C8.51718884,51.7658441 16.5783448,57.5046187 18.4563911,54.8938563 L20.3900275,50.8238193 C26.7602395,50.4039055 31.7851845,50.6097776 35.4648627,51.4414353 C35.7869447,51.5142302 36.7646399,52.6650372 38.3979483,54.8938563 C41.2332013,58.7213872 47.4823494,51.7658441 50.0324377,48.9854801 C52.6156606,46.1703981 53.4546452,42.2090391 52.274502,38.6196073 C55.1931109,37.7567033 56,34.3495405 56,32.5005778 Z" id="Shape" fill="#F2F2F2"></path>
            <path d="M43.2672223,42.0637165 C42.8399371,45.2822768 41.8308927,48.2322424 39.4965828,50.483745 C39.2601386,50.7102324 38.9987568,50.9231141 38.7198265,51.1337672 C38.6472076,51.1885418 29.5617675,55.6004448 28.5412934,55.7458847 C28.3639602,55.7680525 27.630729,55.7679352 27.4502786,55.7458847 C26.4070607,55.5963397 19.4215642,52.0861636 18.9547946,51.7132981 C18.9475212,51.7059088 17.9208128,50.8514498 17.5401698,50.483745 C13.0622757,46.1652373 12.4451885,39.2886305 12.4441494,32.5005778 C12.4441494,30.1185313 13.7236637,28.5182043 15.676407,27 C18.3668701,25.9107847 20.0207208,25.2821234 20.6379592,25.1140162 C23.358301,24.3731207 24.1778556,21.2158586 24.9136981,20.9298782 C27.6935246,19.8495166 29.2588633,21.6122365 31.0146067,20.9298782 C32.4442094,20.3742724 34.2592698,19.9472176 36.459788,19.6487139 C37.3623736,22.3766694 38.1157197,24.1984368 38.7198265,25.1140162 C39.0673352,25.6406976 41.8105735,27.6111743 42.2628684,28.2713532 C43.1071801,29.5037277 43.5559499,30.9494599 43.5552733,32.5005778 C43.5552733,33.0831582 43.5594296,33.6721896 43.5635858,34.2653261 C43.5814808,36.892861 43.6000684,39.5593363 43.2672223,42.0637165 Z" id="Path" fill="#292F36"></path>
        </g>
    </g>
</svg>