<?xml version="1.0" encoding="UTF-8"?>
<svg width="86px" height="86px" viewBox="0 0 86 86" version="1.1" xmlns="http://www.w3.org/2000/svg" xmlns:xlink="http://www.w3.org/1999/xlink">
    <!-- Generator: Sketch 63.1 (92452) - https://sketch.com -->
    <title>2. assets/icone/pag-int/agricultura/ornamentais</title>
    <desc>Created with Sketch.</desc>
    <defs>
        <circle id="path-1" cx="43" cy="43" r="43"></circle>
        <path d="M35,0 L35.0004045,21.0624887 C29.5245635,23.5900097 23.4269422,25 17,25 C10.9614375,25 5.21359675,23.755272 -0.000943134016,21.508395 L1.70086124e-12,7.92448495 L35,0 Z" id="path-3"></path>
    </defs>
    <g id="2.-assets/icone/pag-int/agricultura/ornamentais" stroke="none" stroke-width="1" fill="none" fill-rule="evenodd">
        <g id="Group" opacity="0.6">
            <mask id="mask-2" fill="white">
                <use xlink:href="#path-1"></use>
            </mask>
            <g id="Oval"></g>
            <g id="1.-colors/agricultores" mask="url(#mask-2)" fill="#3F993F">
                <rect id="Rectangle-Copy-2" x="0" y="0" width="86" height="86"></rect>
            </g>
        </g>
        <g id="1.-colors/agricultores" opacity="0.8" transform="translate(26.000000, 61.000000)">
            <mask id="mask-4" fill="white">
                <use xlink:href="#path-3"></use>
            </mask>
            <g id="Mask"></g>
            <g mask="url(#mask-4)" fill="#3F993F" id="Rectangle-Copy-2">
                <g transform="translate(-26.000000, -61.000000)">
                    <rect x="0" y="0" width="86" height="86"></rect>
                </g>
            </g>
        </g>
        <path d="M44.9149516,62.5656847 C44.9149516,60.7753041 44.9149516,58.0897332 44.9149516,54.5089719 C46.3321147,55.177964 47.6326428,55.3827865 49.3048858,54.9356855 C51.335094,54.3828544 53.0571202,52.8604353 53.6824927,50.4215303 C56.1043291,51.0924188 58.2772494,50.3674798 59.8712615,48.7824762 C61.3856205,47.2581605 62.0811636,45.0790767 61.4263953,42.6946962 C63.7970261,42.0859182 65.3678061,40.3942361 65.9713688,38.1819633 C66.5194586,36.117618 66.0538667,33.8555621 64.2597733,32.0918127 C66.0401171,30.3413389 66.5265706,28.0987221 65.9377058,25.8821824 C65.3744439,23.8145182 63.8311632,22.1209394 61.4235506,21.5050496 C62.0949133,19.0775237 61.3671296,16.9064999 59.7840223,15.3153325 C58.2696634,13.8109302 56.0976913,13.0954739 53.6824927,13.7635176 C53.0618616,11.3445258 51.3739724,9.81309839 49.185406,9.21712171 C47.1414481,8.67804029 44.88603,9.10475384 43.0957296,10.9263466 C41.3523677,9.15121826 39.1040614,8.65291163 36.8870474,9.24746579 C34.830288,9.80551237 33.1258046,11.3388363 32.5056475,13.7620952 C30.0638977,13.0869395 27.8938223,13.8317918 26.3173528,15.4006752 C24.8077351,16.9178789 24.0984424,19.0960146 24.7650637,21.5036272 C22.3527098,22.1204653 20.8136963,23.8040874 20.215349,26.0064034 C19.6677334,28.0773865 20.1385407,30.3347012 21.9269445,32.0922868 C20.1309546,33.8574586 19.6672592,36.1071872 20.249012,38.2995466 C20.8099033,40.3662626 22.3764162,42.0844958 24.7589001,42.6946962 C24.0965459,45.1042053 24.8082092,47.270962 26.4026955,48.8730342 C27.9047272,50.3660576 30.0667426,51.1000049 32.5061216,50.4239009 C33.1300717,52.8575906 34.8293399,54.3795355 37.0084237,54.971245 C38.4535603,55.3538648 39.9508506,55.2149458 41.2736627,54.5962111 C41.2736627,58.1014299 41.2736627,60.730344 41.2736627,62.4829534 C41.2736627,63.4174135 44.9149516,63.4725677 44.9149516,62.5656847 Z" id="Path" fill="#F4F4F4" fill-rule="nonzero"></path>
        <polygon id="Rectangle" fill="#292F36" points="41.2736627 54.5962111 43.0943072 53.5715908 44.9149516 54.5089719 44.9149516 60 41.2736627 60"></polygon>
        <path d="M43.0957296,10.9263466 C44.88603,9.10475384 47.1414481,8.67804029 49.185406,9.21712171 C51.3739724,9.81309839 53.0618616,11.3445258 53.6824927,13.7635176 C56.0976913,13.0954739 58.2696634,13.8109302 59.7840223,15.3153325 C61.3671296,16.9064999 62.0949133,19.0775237 61.4235506,21.5050496 C63.8311632,22.1209394 65.3744439,23.8145182 65.9377058,25.8821824 C66.4838866,27.9380558 66.1049886,30.0163629 64.6266076,31.7036024 C64.5351323,31.6155325 64.4987973,31.5328905 64.5314646,31.457469 C65.0199261,30.3297204 65.0663981,29.1008294 64.7204308,27.8808539 C64.1876925,26.0487942 62.7280433,24.548194 60.4509011,24.0024831 C61.0858821,21.8515669 60.3975376,19.9279251 58.9002201,18.5180668 C57.4679254,17.1850869 55.4136542,16.5511548 53.1293371,17.1430768 C52.5423384,14.9997223 50.9459173,13.6427967 48.875951,13.1147299 C46.9427567,12.6370753 44.8095614,13.015166 43.1162788,14.6291934 C41.467391,13.056336 39.3409221,12.61481 37.2440499,13.1416163 C35.2987479,13.6360751 33.6866317,14.9946811 33.1000814,17.1418165 C30.7906519,16.5435929 28.7381745,17.2035713 27.2471352,18.5936849 C25.8193248,19.9380076 25.1484692,21.8679508 25.7789658,24.0012228 C23.4973392,24.5477739 22.041726,26.039552 21.4758036,27.9909203 C21.1584625,29.1152228 21.2027191,30.3015037 21.6736565,31.4099449 C21.7117956,31.4997126 21.6684832,31.5994351 21.5653415,31.7063564 C20.076353,30.0124704 19.7069352,27.9291324 20.215349,26.0064034 C20.8136963,23.8040874 22.3527098,22.1204653 24.7650637,21.5036272 C24.0984424,19.0960146 24.8077351,16.9178789 26.3173528,15.4006752 C27.8938223,13.8317918 30.0638977,13.0869395 32.5056475,13.7620952 C33.1258046,11.3388363 34.830288,9.80551237 36.8870474,9.24746579 C39.1040614,8.65291163 41.3523677,9.15121826 43.0957296,10.9263466 Z" id="Combined-Shape" fill="#292F36" fill-rule="nonzero"></path>
        <path d="M28,59.3225806 L59,59.3225806 C60.1045695,59.3225806 61,60.2180111 61,61.3225806 L61,72.3225806 C61,75.0840044 58.7614237,77.3225806 56,77.3225806 L31,77.3225806 C28.2385763,77.3225806 26,75.0840044 26,72.3225806 L26,61.3225806 C26,60.2180111 26.8954305,59.3225806 28,59.3225806 Z" id="Rectangle" fill="#292F36"></path>
    </g>
</svg>