<?xml version="1.0" encoding="UTF-8"?>
<svg width="86px" height="86px" viewBox="0 0 86 86" version="1.1" xmlns="http://www.w3.org/2000/svg" xmlns:xlink="http://www.w3.org/1999/xlink">
    <!-- Generator: Sketch 63.1 (92452) - https://sketch.com -->
    <title>2. assets/icone/pag-int/agricultura/outros</title>
    <desc>Created with Sketch.</desc>
    <defs>
        <circle id="path-1" cx="43" cy="43" r="43"></circle>
        <path d="M55,0 L55.0000452,20.6353078 C47.4768402,27.0959507 37.6943399,31 27,31 C16.7733833,31 7.38059063,27.4299747 -9.79593584e-05,21.4682042 L3.63797881e-12,7.92448495 L55,0 Z" id="path-3"></path>
    </defs>
    <g id="2.-assets/icone/pag-int/agricultura/outros" stroke="none" stroke-width="1" fill="none" fill-rule="evenodd">
        <g id="Group" opacity="0.6">
            <mask id="mask-2" fill="white">
                <use xlink:href="#path-1"></use>
            </mask>
            <g id="Oval"></g>
            <g id="1.-colors/agricultores" mask="url(#mask-2)" fill="#3F993F">
                <rect id="Rectangle-Copy-2" x="0" y="0" width="86" height="86"></rect>
            </g>
        </g>
        <g id="1.-colors/agricultores" opacity="0.8" transform="translate(16.000000, 55.000000)">
            <mask id="mask-4" fill="white">
                <use xlink:href="#path-3"></use>
            </mask>
            <g id="Mask"></g>
            <g mask="url(#mask-4)" fill="#3F993F" id="Rectangle-Copy-2">
                <g transform="translate(-16.000000, -55.000000)">
                    <rect x="0" y="0" width="86" height="86"></rect>
                </g>
            </g>
        </g>
        <path d="M36.6208984,34.002832 L35.2292969,31.2359375 C35.1845703,31.1022461 35.1213867,30.977832 35.0427734,30.8650391 L32.5647461,25.9378906 C33.5208984,25.3230469 34.1560547,24.2505859 34.1560547,23.0317383 L34.1560547,21.4536133 C34.1560547,19.5492188 32.6068359,18 30.7025391,18 L22.5865234,18 C20.6823242,18 19.1330078,19.5492188 19.1330078,21.4535156 L19.1330078,23.0316406 C19.1330078,24.2948242 19.8150391,25.4010742 20.8298828,26.0032227 L16.7430664,33.9236328 C16.2989258,34.7673828 16.0642578,35.7169922 16.0642578,36.6704102 L16.0642578,62.1033203 C16.0642578,65.3546875 18.7094727,68 21.9609375,68 L31.328125,68 C34.5794922,68 37.2248047,65.3548828 37.2248047,62.1033203 L37.2248047,36.6022461 C37.2248047,35.705957 37.015918,34.8070313 36.6208984,34.002832 Z" id="Shape" fill="#292F36" fill-rule="nonzero"></path>
        <path d="M21.2868413,29.4295759 C23.0203369,28.7220784 25.7767944,29.0729546 27.0300555,29.6967854 C27.5951032,29.978047 29.161656,30.4753906 29.7679687,30.4753906 C31.4299894,30.4753906 32.9050798,30.0424934 34.1932401,29.1766989 L35.0427734,30.8650391 C35.1213867,30.977832 35.1845703,31.1022461 35.2292969,31.2359375 L35.2292969,31.2359375 L36.6208984,34.002832 C37.015918,34.8070313 37.2248047,35.705957 37.2248047,36.6022461 L37.2248047,36.6022461 L37.2248047,62.1033203 C37.2248047,65.3548828 34.5794922,68 31.328125,68 L31.328125,68 L21.9609375,68 C18.7094727,68 16.0642578,65.3546875 16.0642578,62.1033203 L16.0642578,62.1033203 L16.0642578,36.6704102 C16.0642578,35.7169922 16.2989258,34.7673828 16.7430664,33.9236328 L16.7430664,33.9236328 L18.2943027,30.917492 C19.5268473,30.236742 20.5243601,29.7407699 21.2868413,29.4295759 Z" id="Shape" fill="#F4F4F4" fill-rule="nonzero"></path>
        <path d="M46.5,47 C43.4117647,47 39,51.7653846 39,59.2365385 C39,64.955 43.3588235,68 46.5,68 C49.6411765,68 54,64.955 54,59.2365385 C54,51.7653846 49.5882353,47 46.5,47 Z" id="Shape" fill="#F4F4F4" fill-rule="nonzero"></path>
        <path d="M63.5,47 C60.4117647,47 56,51.7653846 56,59.2365385 C56,64.955 60.3588235,68 63.5,68 C66.6411765,68 71,64.955 71,59.2365385 C71,51.7653846 66.5882353,47 63.5,47 Z" id="Shape" fill="#F4F4F4" fill-rule="nonzero"></path>
        <path d="M45.6781394,50.535974 C44.6854035,51.6780589 43.9516948,53.0484762 43.5336493,54.5414414 C43.346073,54.9140438 42.9348612,55.0887704 42.5588504,54.9556399 C42.1828395,54.8225095 41.95083,54.4200437 42.0088598,54.001574 C42.4950707,52.2368134 43.3734501,50.6236687 44.5692015,49.2995037 C44.7701547,49.052648 45.0837042,48.9468782 45.3809831,49.0256649 C45.6782621,49.1044517 45.9091189,49.3545035 45.9786728,49.6730507 C46.0482267,49.9915978 45.944744,50.3249008 45.7107552,50.535974 L45.6781394,50.535974 Z" id="Shape-path" fill="#292F36" fill-rule="nonzero"></path>
        <path d="M62.7620562,51.2208102 C61.746671,52.1876853 60.9962228,53.3478638 60.5686395,54.6117899 C60.3767837,54.9272305 59.9561901,55.0751519 59.5716006,54.9624453 C59.187011,54.8497387 58.9497082,54.5090161 59.0090619,54.1547448 C59.5063657,52.66072 60.4047853,51.2950514 61.6278179,50.1740295 C61.9607051,49.9254815 62.4539587,49.9453481 62.7598929,50.2196258 C63.065827,50.4939033 63.0813048,50.9301269 62.7954161,51.2208102 L62.7620562,51.2208102 Z" id="Shape-path" fill="#292F36" fill-rule="nonzero"></path>
    </g>
</svg>