<?xml version="1.0" encoding="UTF-8"?>
<svg width="86px" height="86px" viewBox="0 0 86 86" version="1.1" xmlns="http://www.w3.org/2000/svg" xmlns:xlink="http://www.w3.org/1999/xlink">
    <!-- Generator: Sketch 63.1 (92452) - https://sketch.com -->
    <title>2. assets/icone/pag-int/turismo/alimentacao</title>
    <desc>Created with Sketch.</desc>
    <defs>
        <circle id="path-1" cx="43" cy="43" r="43"></circle>
        <path d="M39,0 L39.0006179,38.0752395 C33.0259689,41.220154 26.2208371,43 19,43 C12.1785353,43 5.72806355,41.41159 -0.0017233067,38.5844619 L-5.5067062e-13,7.92448495 L39,0 Z" id="path-3"></path>
    </defs>
    <g id="2.-assets/icone/pag-int/turismo/alimentacao" stroke="none" stroke-width="1" fill="none" fill-rule="evenodd">
        <g id="Group" opacity="0.6">
            <mask id="mask-2" fill="white">
                <use xlink:href="#path-1"></use>
            </mask>
            <g id="Oval"></g>
            <g id="1.-colors/turismo" mask="url(#mask-2)" fill="#FFA129">
                <rect id="Rectangle-Copy-2" x="0" y="0" width="86" height="86"></rect>
            </g>
        </g>
        <g id="1.-colors/agricultores" opacity="0.8" transform="translate(24.000000, 43.000000)">
            <mask id="mask-4" fill="white">
                <use xlink:href="#path-3"></use>
            </mask>
            <g id="Mask"></g>
            <g id="1.-colors/turismo" mask="url(#mask-4)" fill="#FFA129">
                <g transform="translate(-24.000000, -43.000000)" id="Rectangle-Copy-2">
                    <rect x="0" y="0" width="86" height="86"></rect>
                </g>
            </g>
        </g>
        <g id="restaurant" transform="translate(23.000000, 8.000000)" fill-rule="nonzero">
            <polygon id="Path" fill="#292F36" points="35.7537809 10 35.7537809 0 1.75378088 5.55555556 1.75378088 10"></polygon>
            <polygon id="Path" fill="#F4F4F4" points="0.753780877 5 39.7537809 5 39.7537809 62 0.753780877 62"></polygon>
            <path d="M26.6307628,24.5740867 C28.0808475,24.5765757 29.4720923,24.01713 30.4962631,23.0196965 L32.0424632,21.5173673 C33.4637677,20.1835747 34.0337841,18.2084292 33.5334263,16.3510794 C33.0330686,14.4937296 31.5402038,13.0432224 29.6286159,12.5570614 C27.717028,12.0709005 25.6842044,12.6247437 24.3114627,14.005721 L22.7652626,15.5080502 C20.928323,17.2928842 20.637624,20.0871939 22.0698006,22.1930967 L20.4448689,23.7719236 L17.2737371,20.6907674 C18.7059137,18.5848646 18.4152147,15.790555 16.5782751,14.005721 L13.4858749,11 L11.9396748,12.5023293 L15.032075,15.5080502 C16.0048556,16.4626763 16.2571998,17.907437 15.6630209,19.1204402 L10.3934747,14.0004086 L8.84727459,15.5027379 L14.1168208,20.6227695 C12.8669567,21.2026129 11.3769518,20.9572857 10.3934747,20.0097257 L7.29998099,17.0103795 L5.75378088,18.5127087 L8.84727459,21.5173673 C10.6842291,23.3021867 13.5601379,23.5846376 15.727537,22.1930967 L18.8986688,25.2742529 L8.84727459,35.0404555 L10.3934747,36.5427848 L20.4448689,26.7765821 L30.4962631,36.5427848 L32.0424632,35.0404555 L21.991069,25.2742529 L23.6160007,23.6954259 C24.5105564,24.2691026 25.5589251,24.5746525 26.6307628,24.5740867 L26.6307628,24.5740867 Z M24.3114627,17.0103795 L25.8576628,15.5080502 C27.1448543,14.3001131 29.1909097,14.3173883 30.4563022,15.5468773 C31.7216946,16.7763664 31.7394743,18.7643684 30.4962631,20.015038 L28.950063,21.5173673 C28.1264179,22.3459536 26.9067238,22.6782596 25.7597711,22.386563 C24.6128183,22.0948664 23.7170995,21.2245621 23.4168848,20.1101522 C23.1166701,18.9957423 23.45868,17.810655 24.3114627,17.0103795 L24.3114627,17.0103795 Z" id="Combined-Shape" fill="#292F36"></path>
            <path d="M32.7537809,50.8750647 L32.7537809,53 L30.5667935,53 L30.5667935,50.8750647 L32.7537809,50.8750647 Z M28.379806,50.8750647 L28.379806,53 L21.8188438,53 L21.8188438,50.8750647 L28.379806,50.8750647 Z M32.7537809,46.6251941 L32.7537809,48.7501294 L30.5667935,48.7501294 L30.5667935,46.6251941 L32.7537809,46.6251941 Z M28.379806,46.6251941 L28.379806,48.7501294 L18.5383626,48.7501294 L18.5383626,46.6251941 L28.379806,46.6251941 Z M32.7537809,42.3753235 L32.7537809,44.5002588 L30.5667935,44.5002588 L30.5667935,42.3753235 L32.7537809,42.3753235 Z M28.379806,42.3753235 L28.379806,44.5002588 L14.1643878,44.5002588 L14.1643878,42.3753235 L28.379806,42.3753235 Z" id="Combined-Shape" fill="#292F36"></path>
        </g>
    </g>
</svg>