<?xml version="1.0" encoding="UTF-8"?>
<svg width="86px" height="86px" viewBox="0 0 86 86" version="1.1" xmlns="http://www.w3.org/2000/svg" xmlns:xlink="http://www.w3.org/1999/xlink">
    <!-- Generator: Sketch 63.1 (92452) - https://sketch.com -->
    <title>2. assets/icone/pag-int/turismo/cultura</title>
    <desc>Created with Sketch.</desc>
    <defs>
        <circle id="path-1" cx="43" cy="43" r="43"></circle>
        <path d="M86,0 L85.9998383,0.119204382 C85.9355441,23.8126336 66.7084968,43 43,43 C19.2517558,43 3.07409209e-10,23.7482442 3.07409209e-10,2.27373675e-13 L3.07409209e-10,2.27373675e-13 L86,0 Z" id="path-3"></path>
    </defs>
    <g id="2.-assets/icone/pag-int/turismo/cultura" stroke="none" stroke-width="1" fill="none" fill-rule="evenodd">
        <g id="Group" opacity="0.6">
            <mask id="mask-2" fill="white">
                <use xlink:href="#path-1"></use>
            </mask>
            <g id="Oval"></g>
            <g id="1.-colors/turismo" mask="url(#mask-2)" fill="#FFA129">
                <rect id="Rectangle-Copy-2" x="0" y="0" width="86" height="86"></rect>
            </g>
        </g>
        <g id="1.-colors/agricultores" opacity="0.8" transform="translate(0.000000, 43.000000)">
            <mask id="mask-4" fill="white">
                <use xlink:href="#path-3"></use>
            </mask>
            <g id="Mask"></g>
            <g id="1.-colors/turismo" mask="url(#mask-4)" fill="#FFA129">
                <g transform="translate(0.000000, -43.000000)" id="Rectangle-Copy-2">
                    <rect x="0" y="0" width="86" height="86"></rect>
                </g>
            </g>
        </g>
        <g id="holding-hands-in-a-circle" transform="translate(12.000000, 15.000000)" fill-rule="nonzero">
            <g id="Group" transform="translate(24.000000, 0.000000)">
                <ellipse id="Oval" fill="#262F38" cx="6.25778571" cy="5.53193317" rx="4.82057143" ry="4.88305831"></ellipse>
                <path d="M23.4663571,32.0838454 C22.3616429,31.0981605 20.6747143,31.2081393 19.7043571,32.3285482 L15.9043571,36.7002052 C14.9312857,37.8192394 15.0398571,39.5280348 16.1459286,40.512345 C16.6521429,40.963258 17.2805,41.1859651 17.9061429,41.1859651 C18.6457857,41.1859651 19.3813571,40.8739003 19.9092857,40.2676422 L23.7065714,35.8946105 C24.681,34.7769511 24.5724286,33.0695303 23.4663571,32.0838454 Z" id="Path" fill="#242F39"></path>
                <path d="M19.9079286,11.3049974 C18.9335,10.1859632 17.2492857,10.0759844 16.1459286,11.0616694 C15.0412143,12.0473543 14.9312857,13.754775 15.9043571,14.8738092 L19.7043571,19.2468409 C20.2322857,19.8530989 20.9678571,20.163789 21.7088571,20.163789 C22.3345,20.163789 22.9615,19.9424567 23.4690714,19.4915437 C24.5737857,18.5058588 24.6837143,16.798438 23.7092857,15.6794038 L19.9079286,11.3049974 Z" id="Path" fill="#242F39"></path>
                <g transform="translate(0.000000, 9.536819)">
                    <path d="M6.28221429,19.0980868 C6.27407143,19.0980868 6.24014286,19.0980868 6.232,19.0980868 C4.53421429,19.0980868 2.91514286,19.8775615 1.78328571,21.1629386 C0.651428571,22.4469409 0.112642857,24.1791069 0.304,25.8892771 L3.04407143,43.8268179 C3.23135714,45.516367 4.59664286,46.9117229 6.25778571,46.9117229 C7.92164286,46.9117229 9.28285714,45.5273649 9.47421429,43.8350663 L12.2115714,25.8865276 C12.4042857,24.1777322 11.8641429,22.4441915 10.7322857,21.1601891 C9.59771429,19.8789362 7.98135714,19.0980868 6.28221429,19.0980868 Z" id="Path" fill="#F2F2F2"></path>
                    <path d="M6.28221429,0.903181395 C6.27407143,0.903181395 6.24014286,0.903181395 6.232,0.903181395 C4.53421429,0.903181395 2.91514286,1.68265607 1.78328571,2.96803319 C0.651428571,4.25203557 0.112642857,5.98420153 0.304,7.69437172 L3.04407143,25.6319125 C3.23135714,27.3214617 4.59664286,28.7168176 6.25778571,28.7168176 C7.92164286,28.7168176 9.28285714,27.3324595 9.47421429,25.6401609 L12.2115714,7.69162225 C12.4042857,5.98282679 11.8641429,4.2492861 10.7322857,2.96528372 C9.59771429,1.68403081 7.98135714,0.903181395 6.28221429,0.903181395 Z" id="Path-Copy" fill="#F2F2F2"></path>
                    <ellipse id="Oval" fill="#262F38" cx="6.25642857" cy="13.9409037" rx="5.87642857" ry="5.95260205"></ellipse>
                </g>
                <g transform="translate(25.785714, 9.623144)">
                    <path d="M5.72578571,10.752354 C5.719,10.752354 5.68914286,10.752354 5.681,10.752354 C4.13385714,10.752354 2.66,11.4630919 1.63128571,12.6316166 C0.599857143,13.8001412 0.109928571,15.3783369 0.283642857,16.9359115 L2.77671429,33.2650125 C2.94771429,34.8047155 4.19085714,36.0735958 5.70271429,36.0735958 C7.21592857,36.0735958 8.45771429,34.8129639 8.63007143,33.2746356 L11.1217857,16.933162 C11.2955,15.3769622 10.8055714,13.8001412 9.7755,12.6316166 C8.74542857,11.4630919 7.27157143,10.752354 5.72578571,10.752354 Z" id="Path" fill="#F2F2F2"></path>
                    <ellipse id="Oval" fill="#262F38" cx="5.70271429" cy="6.26466687" rx="5.34985714" ry="5.41920491"></ellipse>
                </g>
            </g>
            <g id="Group" transform="translate(0.000000, 12.000000)">
                <path d="M13.65375,22.0773455 C14.774375,21.1042448 16.482125,21.2128195 17.466625,22.3189242 L21.31525,26.6347682 C22.301125,27.7395157 22.191125,29.426495 21.071875,30.3982385 C20.559,30.8433948 19.922375,31.0632585 19.2885,31.0632585 C18.539125,31.0632585 17.793875,30.7551778 17.259,30.1566598 L13.41175,25.8394586 C12.4245,24.7360683 12.53175,23.0504462 13.65375,22.0773455 Z" id="Path" fill="#242F39"></path>
                <path d="M17.25625,1.62818098 C18.2435,0.523433485 19.949875,0.414858792 21.069125,1.38795947 C22.188375,2.36106016 22.298375,4.04668226 21.3125,5.15142976 L17.463875,9.46863097 C16.929,10.067149 16.18375,10.3738725 15.433,10.3738725 C14.799125,10.3738725 14.163875,10.1553659 13.649625,9.71020966 C12.530375,8.73710898 12.420375,7.05148688 13.40625,5.94673938 L17.25625,1.62818098 Z" id="Path" fill="#242F39"></path>
                <g>
                    <path d="M5.501375,10.5828788 C5.50825,10.5828788 5.539875,10.5828788 5.548125,10.5828788 C7.11425,10.5828788 8.6075,11.2845427 9.651125,12.4381488 C10.696125,13.5917549 11.1925,15.1498018 11.0165,16.6874908 L8.48925,32.8081183 C8.316,34.328164 7.0565,35.5808445 5.52475,35.5808445 C3.991625,35.5808445 2.7335,34.3363071 2.558875,32.8176186 L0.034375,16.6847765 C-0.141625,15.1484446 0.35475,13.5917549 1.398375,12.4381488 C2.442,11.2845427 3.933875,10.5828788 5.501375,10.5828788 Z" id="Path" fill="#F2F2F2"></path>
                    <ellipse id="Oval" fill="#262F38" cx="5.526125" cy="6.18468593" rx="5.42025" ry="5.35001798"></ellipse>
                </g>
            </g>
        </g>
    </g>
</svg>