<?xml version="1.0" encoding="UTF-8"?>
<svg width="86px" height="86px" viewBox="0 0 86 86" version="1.1" xmlns="http://www.w3.org/2000/svg" xmlns:xlink="http://www.w3.org/1999/xlink">
    <!-- Generator: Sketch 63.1 (92452) - https://sketch.com -->
    <title>2. assets/icone/pag-int/turismo/hospedagem</title>
    <desc>Created with Sketch.</desc>
    <defs>
        <circle id="path-1" cx="43" cy="43" r="43"></circle>
        <path d="M49.9995283,0 L50.0002679,23.3418778 C42.7593483,28.1701035 33.9637754,31 24.4797316,31 C15.4458708,31 7.03667227,28.4323831 0.000734456715,24.0158314 L0.00146513287,0 L49.9995283,0 Z" id="path-3"></path>
    </defs>
    <g id="2.-assets/icone/pag-int/turismo/hospedagem" stroke="none" stroke-width="1" fill="none" fill-rule="evenodd">
        <g id="Group" opacity="0.6">
            <mask id="mask-2" fill="white">
                <use xlink:href="#path-1"></use>
            </mask>
            <g id="Oval"></g>
            <g id="1.-colors/turismo" mask="url(#mask-2)" fill="#FFA129">
                <rect id="Rectangle-Copy-2" x="0" y="0" width="86" height="86"></rect>
            </g>
        </g>
        <g id="1.-colors/agricultores" opacity="0.8" transform="translate(18.000000, 55.000000)">
            <mask id="mask-4" fill="white">
                <use xlink:href="#path-3"></use>
            </mask>
            <g id="Mask"></g>
            <g id="1.-colors/turismo" mask="url(#mask-4)" fill="#FFA129">
                <g transform="translate(-21.000000, -55.000000)" id="Rectangle-Copy-2">
                    <rect x="0" y="0" width="90" height="86"></rect>
                </g>
            </g>
        </g>
        <g id="bed-(1)" transform="translate(18.000000, 20.000000)" fill-rule="nonzero">
            <path d="M26.5509809,1.57172969 C26.7160809,1.5788187 26.8811512,1.58704067 27.0461782,1.59639616 L26.9401875,1.59064063 L27.3127363,1.612605 L27.3127363,1.612605 L27.7090217,1.64009022 L27.7090217,1.64009022 C27.7897259,1.64621317 27.8710344,1.65259245 27.9523263,1.65924812 C28.3700788,1.69344964 28.7869135,1.73492721 29.2030927,1.78368579 C29.2641679,1.79080236 29.3258578,1.79818812 29.3875324,1.80573414 L29.3941875,1.80664063 L29.3945312,8.10546875 C29.3945312,8.86649816 29.9758461,9.49257948 30.718366,9.56360278 L30.859375,9.5703125 C31.6679687,9.5703125 32.3242188,8.9140625 32.3242188,8.10546875 L32.3242188,8.10546875 L32.3242188,2.29003906 C31.8501544,2.19131541 31.3744597,2.10237428 30.8974758,2.02321567 L30.7486496,1.99873955 C30.8768223,2.0194866 31.0044744,2.04079446 31.1320318,2.06279617 C31.2512435,2.08329785 31.3705908,2.10450672 31.4898498,2.12632436 C31.6604859,2.15759521 31.83091,2.19004901 32.0011379,2.22374865 C32.0472565,2.23283226 32.0936187,2.24210652 32.139966,2.25147329 C32.324744,2.28885794 32.5090281,2.32761235 32.6930566,2.3678335 C32.7219023,2.37410859 32.7508978,2.3804843 32.779887,2.38689644 C32.9578306,2.42627946 33.1354293,2.466983 33.3127684,2.50905839 L33.4865551,2.5507422 L33.4865551,2.5507422 C33.8798818,2.64615335 34.271799,2.74829066 34.6622138,2.85719544 L34.7885312,2.89270313 C34.8119199,2.89932066 34.8353031,2.90596252 34.8586807,2.91262869 C35.0223691,2.95928044 35.1858448,3.00716435 35.3490352,3.0562427 C35.4265056,3.07956696 35.5041598,3.10321072 35.5817479,3.12712524 C35.7210736,3.17004521 35.8596922,3.21370631 35.9980898,3.25823539 L36.2014245,3.3243543 L36.2014245,3.3243543 C36.2279389,3.33304294 36.2541902,3.34169853 36.2804333,3.35038547 L36.8154297,3.53222656 C37.2392578,1.54882813 39.0058594,0.056640625 41.1132812,0.056640625 C43.5361328,0.056640625 45.5078125,2.02832031 45.5078125,4.45117188 L45.5078125,21.2246094 C45.0556641,21.0410156 44.5605469,20.9394531 44.0429688,20.9394531 L5.95703125,20.9394531 C5.43945312,20.9394531 4.94433594,21.0410156 4.4921875,21.2246094 L4.4921875,4.45117188 C4.4921875,2.02832031 6.46386719,0.056640625 8.88671875,0.056640625 C10.9941406,0.056640625 12.7597656,1.54785156 13.1845703,3.53125 C14.6551062,3.01842638 16.1557473,2.60416866 17.675281,2.2889529 L17.6757812,8.10546875 C17.6757812,8.9140625 18.3320312,9.5703125 19.140625,9.5703125 C19.9492188,9.5703125 20.6054688,8.9140625 20.6054688,8.10546875 L20.6054688,8.10546875 L20.6055215,1.80648923 C21.3606972,1.71396375 22.1186981,1.64535602 22.8781996,1.60072229 L23.5351562,1.56835937 L23.5351562,7.38085937 C23.5351562,8.19042969 24.1914063,8.84570312 25,8.84570312 L25,8.84570312 L25.141009,8.83900295 C25.8835289,8.76807823 26.4648438,8.1428079 26.4648438,7.38085937 L26.4648438,7.38085937 L26.4648438,1.56835937 L26.5509809,1.57172969 Z" id="Combined-Shape" fill="#282F37"></path>
            <path d="M20.1171875,12.6386719 C22.0019531,12.6386719 23.5351562,14.171875 23.5351562,16.0566406 L23.5351562,20.9394531 L10.3515625,20.9394531 L10.3515625,16.0566406 C10.3515625,14.171875 11.8847656,12.6386719 13.7695312,12.6386719 L20.1171875,12.6386719 Z M36.2304688,12.6386719 C38.1152344,12.6386719 39.6484375,14.171875 39.6484375,16.0566406 L39.6484375,20.9394531 L26.4648438,20.9394531 L26.4648438,16.0566406 C26.4648438,14.171875 27.9980469,12.6386719 29.8828125,12.6386719 L36.2304688,12.6386719 Z" id="Combined-Shape" fill="#F4F4F4"></path>
            <path d="M1.5625,29.7285156 L1.5625,24.8457031 C1.5625,22.421875 3.53417969,20.4511719 5.95703125,20.4511719 L44.0429688,20.4511719 C44.1206765,20.4511719 44.1979201,20.4531991 44.2746494,20.4572034 L44.0429688,20.4511719 C44.1497279,20.4511719 44.2556012,20.4550105 44.3604572,20.4625476 C44.4158419,20.4664836 44.4715222,20.4715428 44.5268964,20.477635 C44.5427788,20.4794449 44.5581288,20.4812205 44.5734545,20.4830753 C44.6354693,20.4904964 44.6975376,20.499354 44.7591781,20.5094988 C44.7842625,20.5137305 44.8089056,20.5180099 44.8334772,20.5224937 C44.8736868,20.5297158 44.9140626,20.5376693 44.9542376,20.5461733 C44.9931158,20.5545237 45.0316389,20.5632306 45.0699656,20.5724387 C45.209221,20.6057776 45.3460429,20.6459264 45.479945,20.6923794 C45.4893727,20.6956564 45.4985997,20.6988876 45.5078125,20.7021484 L45.5977028,20.7351368 C45.6268368,20.7461914 45.6558238,20.7575474 45.6846599,20.7692007 L45.5078125,20.7021484 C45.5930664,20.732373 45.6771191,20.7651587 45.7598777,20.8004125 C45.7971705,20.8163016 45.8343473,20.8327546 45.8712506,20.8497042 C45.8978115,20.8619023 45.9238365,20.8741715 45.9497208,20.8866872 C45.9820176,20.9023058 46.0142739,20.9183956 46.0463028,20.9348674 C46.0822158,20.9533313 46.1179696,20.9723492 46.153427,20.9918422 C46.1805733,21.0067727 46.2072124,21.0217855 46.2336782,21.0370662 C46.2526923,21.0480383 46.2720694,21.0594223 46.2913513,21.0709498 C46.333789,21.0963295 46.3753705,21.1221471 46.416484,21.1486314 C46.4326544,21.1590439 46.4490789,21.1697781 46.465427,21.1806186 C46.5055494,21.2072305 46.5449071,21.2342646 46.5837975,21.2619152 C46.6014038,21.2744309 46.6191292,21.2872312 46.6367549,21.3001596 C46.6694893,21.3241723 46.7017244,21.3485053 46.7336107,21.3732672 C46.7590798,21.3930457 46.7843984,21.4131556 46.8094888,21.4335362 C46.8359938,21.4550637 46.8622781,21.4769237 46.8883017,21.4990812 C46.9176212,21.5240465 46.946685,21.5494546 46.9754085,21.5752348 C46.9947869,21.592626 47.0137947,21.6099894 47.0326487,21.6275161 C47.0597908,21.652749 47.0867963,21.6784938 47.113472,21.7045747 C47.1355938,21.7261979 47.1574613,21.7480295 47.1790987,21.7700878 C47.2048223,21.7963067 47.2308954,21.8235625 47.2566184,21.8511487 C47.2801748,21.8764074 47.3032171,21.9017028 47.3259661,21.9272648 C47.3443901,21.9479701 47.3630283,21.9693159 47.3814623,21.9908415 C47.4121035,22.0266177 47.4419426,22.0626036 47.4712132,22.0990648 C47.4807622,22.1109723 47.4900716,22.1226915 47.4993222,22.134459 C47.5335035,22.1779218 47.5670573,22.2222934 47.5997786,22.2673076 C47.6068585,22.2770593 47.614078,22.2870777 47.6212563,22.2971276 C47.6509974,22.3387592 47.6798357,22.3806495 47.7079584,22.4230539 C47.7190828,22.4398443 47.7300147,22.456575 47.7408353,22.4733839 C47.7673386,22.51453 47.7933866,22.5565173 47.8187394,22.5989659 C47.8276425,22.6138918 47.8363199,22.628617 47.8449137,22.6433967 C47.8710403,22.6883079 47.8964645,22.7338727 47.9210923,22.7799251 C47.9286632,22.7941049 47.9359158,22.8078458 47.9430975,22.8216293 C47.9626969,22.8592104 47.9820943,22.8978007 48.0009346,22.9367094 C48.0154211,22.9666599 48.0292593,22.9960811 48.0427784,23.0256775 C48.0564275,23.0555263 48.0700037,23.0861606 48.0832372,23.1169757 C48.0950267,23.1444581 48.1063445,23.171571 48.1173966,23.1988192 C48.1322533,23.2354162 48.1467769,23.2726708 48.1608023,23.3101667 C48.1724783,23.3414036 48.1838008,23.3727629 48.1947738,23.4042846 C48.2064106,23.4376947 48.2176188,23.4711979 48.228431,23.5048771 C48.2374273,23.5329221 48.2461348,23.561019 48.2545659,23.5892342 C48.2657893,23.6267662 48.2765796,23.6647381 48.2868673,23.7029143 C48.2957951,23.7360598 48.3043806,23.7694863 48.3125793,23.8030629 C48.3343888,23.8924049 48.3533724,23.9823464 48.3695525,24.0732472 C48.3768671,24.1143645 48.3835881,24.1555242 48.3897312,24.1968702 L48.3924932,24.2157274 C48.4221496,24.4214965 48.4375,24.6318359 48.4375,24.8457031 L48.4375,29.7285156 L1.5625,29.7285156 Z" id="Combined-Shape" fill="#F4F4F4"></path>
            <path d="M48.5351562,29.2397461 C49.0586167,29.2397461 49.517966,29.5143447 49.7770065,29.927344 L49.8425136,30.04354 C49.943231,30.2422078 50,30.4669692 50,30.7050781 L50,40.9589844 C50,41.3632812 49.8359375,41.7294922 49.5708008,41.9946289 C49.5553539,42.0098805 49.5394105,42.025124 49.5231301,42.0400048 L49.4213375,42.1252063 C49.1752271,42.3125608 48.8681066,42.4238281 48.5351562,42.4238281 L46.875,42.4238281 L46.875,43.9863281 C46.875,44.7473575 46.2936851,45.3734389 45.5511653,45.4444622 L45.4101562,45.4510742 C44.6015625,45.4510742 43.9453125,44.7948242 43.9453125,43.9862305 L43.9453125,43.9862305 L43.9453125,42.4238281 L25,42.4238281 L25,42.4227461 L6.0546875,42.4233398 L6.0546875,43.9862305 C6.0546875,44.7948242 5.3984375,45.4510742 4.58984375,45.4510742 C3.78125,45.4510742 3.125,44.7948242 3.125,43.9862305 L3.125,43.9862305 L3.125,42.4233398 L1.46484375,42.4233398 C0.655859375,42.4233398 0,41.7674805 0,40.9584961 L0,40.9584961 L0,30.7045898 C0,29.8956055 0.655859375,29.2397461 1.46484375,29.2397461 L1.46484375,29.2397461 Z" id="Combined-Shape" fill="#282F37"></path>
        </g>
    </g>
</svg>