<?xml version="1.0" encoding="UTF-8"?>
<svg width="86px" height="86px" viewBox="0 0 86 86" version="1.1" xmlns="http://www.w3.org/2000/svg" xmlns:xlink="http://www.w3.org/1999/xlink">
    <!-- Generator: Sketch 63.1 (92452) - https://sketch.com -->
    <title>2. assets/icone/pag-int/turismo/natureza</title>
    <desc>Created with Sketch.</desc>
    <defs>
        <circle id="path-1" cx="43" cy="43" r="43"></circle>
        <path d="M73.9529913,0.00103674377 C66.4494154,12.5769554 52.7083614,21 37,21 C21.2916386,21 7.55058464,12.5769554 0.0470086615,0.00103674377 Z" id="path-3"></path>
    </defs>
    <g id="2.-assets/icone/pag-int/turismo/natureza" stroke="none" stroke-width="1" fill="none" fill-rule="evenodd">
        <g id="Group" opacity="0.6">
            <mask id="mask-2" fill="white">
                <use xlink:href="#path-1"></use>
            </mask>
            <g id="Oval"></g>
            <g id="1.-colors/turismo" mask="url(#mask-2)" fill="#FFA129">
                <rect id="Rectangle-Copy-2" x="0" y="0" width="86" height="86"></rect>
            </g>
        </g>
        <g id="1.-colors/agricultores" opacity="0.8" transform="translate(6.000000, 65.000000)">
            <mask id="mask-4" fill="white">
                <use xlink:href="#path-3"></use>
            </mask>
            <g id="Mask"></g>
            <g id="1.-colors/turismo" mask="url(#mask-4)" fill="#FFA129">
                <g transform="translate(-6.000000, -65.000000)" id="Rectangle-Copy-2">
                    <rect x="0" y="0" width="86" height="86"></rect>
                </g>
            </g>
        </g>
        <g id="trees" transform="translate(12.000000, 16.000000)" fill-rule="nonzero">
            <path d="M39.7943925,7 L56.2056075,7 C57.1967289,7 58,6.10468747 58,5 C58,3.89583333 57.1967289,3 56.2056075,3 L39.7943925,3 C38.8037383,3 38,3.89583333 38,5 C38,6.10468747 38.8037383,7 39.7943925,7 Z" id="Path" fill="#F2F2F2"></path>
            <path d="M22.3777466,58.3355124 L22.3777466,38.5777042 L31,27.2595308 L22.3777466,24.8370601 L22.3777466,16.433919 L18.7449341,16.433919 L18.7449341,49.6616353 L18.5637664,49.4808202 C17.8509216,48.7690098 16.7010041,48.7747348 15.9947816,49.4937015 C15.2890319,50.2126682 15.2951813,51.3729382 16.0080261,52.0847486 L18.7449341,54.8174898 L18.7449341,58.3359894 L22.3777466,58.3355124 Z" id="Path" fill="#282F37"></path>
            <path d="M48.3239746,58.3359894 L48.3239746,48.7022179 C53.618515,47.8243821 57.6708984,43.177577 57.6708984,37.5933005 L57.6708984,26.2591991 C57.6708984,20.0508957 52.6630096,15 46.5075684,15 C38.9981656,15 35.2434642,18.7530664 35.2434642,26.2591991 C35.2434642,31.7591991 35.2434642,27.6583775 35.2434642,32.5847542 C35.2434642,37.9409842 35.2434642,37.5933005 35.2434642,40.780519 C35.2434642,44.9766846 42.0313568,48.2609146 44.6911621,48.7022179 L44.6911621,58.3355124 L48.3239746,58.3359894 Z" id="Path" fill="#282F37"></path>
            <path d="M35.5358123,58.3355124 L36.9231872,55.105649 C37.3219452,54.1772421 36.8990631,53.0985536 35.9785614,52.6963711 C35.0575866,52.2941887 33.988556,52.7207025 33.589798,53.6491093 L32.7468719,55.6118358 L31.903946,53.6491093 C31.505188,52.7211795 30.4356842,52.2941887 29.5151825,52.6963711 C28.5946808,53.0985536 28.1717987,54.1772421 28.5705566,55.105649 L29.9579315,58.3355124 L35.5358123,58.3355124 Z" id="Path" fill="#282F37"></path>
            <path d="M18.6884576,34.2476076 L18.6884576,21.2824959 C18.6884576,20.2812942 19.4996664,19.4698537 20.4995283,19.4698537 C21.4998619,19.4698537 22.3105991,20.2812942 22.3105991,21.2824959 L22.3105991,30.1351757 L24.5206712,27.9231858 C25.2276491,27.2155946 26.3746606,27.2155946 27.0816385,27.9231858 C27.789088,28.6312493 27.789088,29.7787838 27.0816385,30.4868472 L22.3105991,35.2620263 L22.3105991,44 L29.1035292,44 C35.6634726,44 41,38.6588422 41,32.0936789 C41,27.7475862 38.6446647,23.788568 34.9079164,21.6993091 L34.9079164,14.342531 C34.9079164,6.43393561 28.4795587,0 20.5778194,0 L20.4217089,0 C12.5199696,0 6.09161186,6.43393561 6.09161186,14.342531 L6.09161186,21.6993091 C2.35486356,23.78904 0,27.7475862 0,32.0936789 C0,38.6588422 5.33652745,44 11.8959991,44 L18.6889292,44 L18.6889292,34.8244433 C18.6578015,34.6332661 18.6578015,34.4387847 18.6884576,34.2476076 Z" id="Path" fill="#F2F2F2"></path>
        </g>
    </g>
</svg>