<?xml version="1.0" encoding="UTF-8"?>
<svg width="86px" height="86px" viewBox="0 0 86 86" version="1.1" xmlns="http://www.w3.org/2000/svg" xmlns:xlink="http://www.w3.org/1999/xlink">
    <!-- Generator: Sketch 64 (93537) - https://sketch.com -->
    <title>2. assets/icone/pag-int/turismo/vivencia-rural</title>
    <desc>Created with Sketch.</desc>
    <defs>
        <circle id="path-1" cx="43" cy="43" r="43"></circle>
        <circle id="path-3" cx="43" cy="43" r="43"></circle>
    </defs>
    <g id="2.-assets/icone/pag-int/turismo/vivencia-rural" stroke="none" stroke-width="1" fill="none" fill-rule="evenodd">
        <g id="fundo" opacity="0.6">
            <mask id="mask-2" fill="white">
                <use xlink:href="#path-1"></use>
            </mask>
            <g id="Oval"></g>
            <g id="1.-colors/turismo" mask="url(#mask-2)" fill="#FFA129">
                <rect id="Rectangle-Copy-2" x="0" y="0" width="86" height="86"></rect>
            </g>
        </g>
        <g id="Group-2">
            <mask id="mask-4" fill="white">
                <use xlink:href="#path-3"></use>
            </mask>
            <g id="Oval"></g>
            <g id="casa" mask="url(#mask-4)">
                <g transform="translate(46.000000, 40.475806)" id="Combined-Shape">
                    <path d="M20.4933586,14.1036114 L20.4933586,25.6034946 L9.85610373,25.6034946 L9.85610373,14.1036114 L20.4933586,14.1036114 Z M15.1747312,0.436827957 L29.7580645,11.2330788 L29.7580645,19.2773442 L25.4688488,19.2773442 L25.4688488,13.3499908 L15.1747312,5.7291078 L4.88061354,13.3499908 L4.88061354,19.2773442 L0.591397849,19.2773442 L0.591397849,11.2330788 L15.1747312,0.436827957 Z" fill="#292F36" fill-rule="evenodd"></path>
                    <path d="M15.1747312,4.60349462 L26.4247312,12.7728757 L26.4247312,25.6034946 L20.5397312,25.9844946 L20.5401158,14.4654039 L9.80934657,14.4654039 L9.80934657,26.4654039 L13.1587312,26.4644946 L3.92473118,27.0648799 L3.92473118,12.7728757 L15.1747312,4.60349462 Z M15.1747312,20.7697048 L17.9712395,23.3193167 L12.3170376,23.3193167 L15.1747312,20.7697048 Z M11.7131927,17.4181639 L13.9510233,19.5848827 L11.7131927,21.7516016 L11.7131927,17.4181639 Z M18.6362696,17.4181639 L18.6362696,21.7516016 L16.3984391,19.5848827 L18.6362696,17.4181639 Z M17.4125617,16.2333418 L15.1747312,18.4000606 L12.9369007,16.2333418 L17.4125617,16.2333418 Z" fill="#F4F4F4" fill-rule="nonzero"></path>
                </g>
            </g>
            <g id="farm" mask="url(#mask-4)" fill-rule="nonzero">
                <g transform="translate(46.000000, 72.500000) rotate(-360.000000) translate(-46.000000, -72.500000) translate(1.000000, 59.000000)" id="Path">
                    <path d="M72,6.4921875 L72,13.8164062 L58.8164062,15.3046875 L47.6064453,16.5703125 L44.2558594,10.0380859 C48.3242188,7.71875 52.9589844,6.4921875 57.6601562,6.4921875 L72,6.4921875 Z" fill="#FFA93B"></path>
                    <polygon fill="#FFA93B" points="90 6.4921875 90 13.8164063 58.8164062 15.3046875 58.8164062 6.4921875"></polygon>
                    <path d="M72,13.8164062 L72,19.6757812 L58.8164062,20.9619141 L50.2861328,21.7939453 L47.6064453,16.5703125 C50.6074219,14.7939453 54.0693359,13.8164062 57.6611328,13.8164062 L72,13.8164062 Z" fill="#FFC77F"></path>
                    <polygon fill="#FFC77F" points="90 13.8164062 90 19.6757812 58.8164062 20.9619141 58.8164062 13.8164062"></polygon>
                    <path d="M72,19.6757812 L72,27 L52.9570312,27 L50.2861328,21.7939453 C52.4619141,20.4287109 55.0068359,19.6757812 57.6601562,19.6757812 L72,19.6757812 Z" fill="#FFA93B"></path>
                    <polygon fill="#FFA93B" points="58.8164062 19.6757812 72 19.6757812 72 27 58.8164062 27"></polygon>
                    <path d="M53.6110352,25.2423828 C50.7322266,11.1262695 38.265332,0.6328125 23.4648438,0.6328125 L5.68434189e-13,0.6328125 L4,8.00351562 L46.4875977,27 L53.9695313,27 L53.6110352,25.2423828 Z" fill="#FFA93B"></path>
                    <path d="M22,8.00351563 C9.83031134,8.00351562 3.43669816,8.00351562 2.81916046,8.00351562 C2.81916046,8.45672744 6.75370966,13.1062801 6.75370966,13.8164062 C7.19133182,13.8164062 12.2734286,13.8368815 22,13.877832 L40.4854492,27 L46.4875977,27 C44.3370117,15.7103516 34.0624023,7.26601563 22,8.00351563 Z" fill="#FFC77F"></path>
                    <path d="M22,13.877832 C12.4407261,13.877832 7.12455294,13.877832 6.05148038,13.877832 C6.6393352,14.3563869 7.24135816,18.0532667 9.1099401,19.765625 C9.65489084,20.2650149 13.9515775,20.2650149 22,19.765625 L34.3275391,27 L40.4854492,27 C38.4133789,18.9787109 30.8077148,13.1609375 22,13.877832 Z" fill="#FFA93B"></path>
                    <path d="M22,19.765625 L22,27 L34.3275391,27 C32.4143555,22.2880859 27.5214844,19.0923828 22,19.765625 Z" fill="#FFC77F"></path>
                </g>
            </g>
        </g>
        <g id="trees" transform="translate(9.000000, 16.000000)" fill-rule="nonzero">
            <path d="M7.89719626,7 L16.1028037,7 C16.5983645,7 17,6.3285156 17,5.5 C17,4.671875 16.5983645,4 16.1028037,4 L7.89719626,4 C7.40186916,4 7,4.671875 7,5.5 C7,6.3285156 7.40186916,7 7.89719626,7 Z" id="Path" fill="#F2F2F2"></path>
            <path d="M24.859375,17.578125 C21.6289062,17.578125 19,14.9492187 19,11.71875 C19,9.58300781 20.1748047,7.65332031 21.9824219,6.6328125 C21.9472656,6.37695313 21.9296875,6.11816406 21.9296875,5.859375 C21.9296875,2.62890625 24.5585938,0 27.7890625,0 C29.9248047,0 31.8544922,1.17480469 32.875,2.98242188 L32.875,2.98242188 C33.1198652,2.94896673 33.3644194,2.93134288 33.6074014,2.92898475 L33.8498127,2.93169425 C36.0259566,3.0014999 38.0407006,4.29255922 38.9746094,6.39257813 C41.0732422,7.32617188 42.4375,9.38183594 42.4375,11.71875 C42.4375,14.9492187 39.8085938,17.578125 36.578125,17.578125 L36.578125,17.578125 Z" id="Combined-Shape" fill="#F4F4F4"></path>
            <path d="M11.5585712,48.9997495 L11.5585712,38.6262339 L16,32.6838112 L11.5585712,31.4119324 L11.5585712,27 L9.68726478,27 L9.68726478,44.4456716 L9.59394311,44.3507375 C9.22674794,43.9770131 8.63441128,43.9800189 8.27062738,44.3575007 C7.90708706,44.7349824 7.91025469,45.3441633 8.27744979,45.7178877 L9.68726478,47.152669 L9.68726478,49 L11.5585712,48.9997495 Z" id="Path" fill="#282F37"></path>
            <path d="M24.9988445,48 L24.9988445,42.8870039 C27.8317359,42.4211042 30,39.9548742 30,36.9910938 L30,30.9756702 C30,27.6806957 27.3204841,25 24.02696,25 C20.0089867,25 18,26.9918901 18,30.9756702 C18,33.894722 18,31.7182655 18,34.3328744 C18,37.1756222 18,36.9910938 18,38.6826676 C18,40.9097266 21.6319229,42.652788 23.0550756,42.8870039 L23.0550756,47.9997468 L24.9988445,48 Z" id="Path" fill="#282F37"></path>
            <path d="M18.2892491,53 L18.9305937,51.3266611 C19.1149283,50.8456688 18.9194418,50.2868181 18.4939196,50.078454 C18.0681787,49.8700899 17.5739958,50.0910596 17.3896611,50.5720519 L17,51.5889081 L16.6103389,50.5720519 C16.4260043,50.0913068 15.9316026,49.8700899 15.5060804,50.078454 C15.0805583,50.2868181 14.8850717,50.8456688 15.0694063,51.3266611 L15.7107509,53 L18.2892491,53 Z" id="Path" fill="#282F37"></path>
            <path d="M9.57213683,36.9021585 L9.57213683,30.124941 C9.57213683,29.6015856 9.987634,29.1774235 10.4997584,29.1774235 C11.0121244,29.1774235 11.42738,29.6015856 11.42738,30.124941 L11.42738,34.7524782 L12.5593682,33.5962108 C12.9214788,33.2263335 13.5089725,33.2263335 13.8710831,33.5962108 C14.2334353,33.9663348 14.2334353,34.5661824 13.8710831,34.9363065 L11.42738,37.4324228 L11.42738,42 L14.9066857,42 C18.2666567,42 21,39.2080311 21,35.7762412 C21,33.5044201 19.7936088,31.4349333 17.8796645,30.3428207 L17.8796645,26.4972321 C17.8796645,22.3631936 14.587091,19 10.5398587,19 L10.4598997,19 C6.41266735,19 3.12009388,22.3631936 3.12009388,26.4972321 L3.12009388,30.3428207 C1.20614963,31.43518 0,33.5044201 0,35.7762412 C0,39.2080311 2.73334333,42 6.09307271,42 L9.57237839,42 L9.57237839,37.2036863 C9.55643492,37.1037527 9.55643492,37.002092 9.57213683,36.9021585 Z" id="Path" fill="#F2F2F2"></path>
        </g>
    </g>
</svg>