<?xml version="1.0" encoding="UTF-8"?>
<svg width="86px" height="86px" viewBox="0 0 86 86" version="1.1" xmlns="http://www.w3.org/2000/svg" xmlns:xlink="http://www.w3.org/1999/xlink">
    <!-- Generator: Sketch 63.1 (92452) - https://sketch.com -->
    <title>2. assets/icone/pag-int/comercio/comercio-parceiro-de-organicos</title>
    <desc>Created with Sketch.</desc>
    <defs>
        <circle id="path-1" cx="43" cy="43" r="43"></circle>
        <path d="M5,0.92448495 L52,1 L44.7065675,18.0411603 C39.8410949,19.9511779 34.5430302,21 29,21 C18.2569059,21 8.43398432,17.0602734 0.897203692,10.5467887 L5,0.92448495 Z" id="path-3"></path>
    </defs>
    <g id="2.-assets/icone/pag-int/comercio/comercio-parceiro-de-organicos" stroke="none" stroke-width="1" fill="none" fill-rule="evenodd">
        <g id="Group" opacity="0.6">
            <mask id="mask-2" fill="white">
                <use xlink:href="#path-1"></use>
            </mask>
            <g id="Oval"></g>
            <g id="1.-colors/feiras" mask="url(#mask-2)" fill="#EA3E57">
                <rect id="Rectangle-Copy-2" x="0" y="0" width="86" height="86"></rect>
            </g>
        </g>
        <g id="1.-colors/agricultores" opacity="0.8" transform="translate(14.000000, 65.000000)">
            <mask id="mask-4" fill="white">
                <use xlink:href="#path-3"></use>
            </mask>
            <g id="Mask"></g>
            <g id="1.-colors/feiras" mask="url(#mask-4)" fill="#EA3E57">
                <g transform="translate(-14.000000, -65.000000)" id="Rectangle-Copy-2">
                    <rect x="0" y="0" width="86" height="86"></rect>
                </g>
            </g>
        </g>
        <g id="stand" transform="translate(16.000000, 20.000000)">
            <rect id="Rectangle" fill="#292F36" fill-rule="nonzero" x="3" y="8" width="47" height="38"></rect>
            <path d="M16,20 L17,20 C21.418278,20 25,23.581722 25,28 L25,46 L25,46 L8,46 L8,28 C8,23.581722 11.581722,20 16,20 Z" id="Rectangle" fill="#F2F2F2"></path>
            <path d="M53,8 L53,10.1474788 C53,12.0068959 51.664959,13.566733 49.8815918,13.9645227 C48.0565838,13.6567963 47.1440799,12.9901611 47.1440799,11.9646173 C47.020644,11.9563598 46.8974137,11.9482151 46.7743889,11.9401819 L46.775916,13.4134571 C46.3906309,13.1639923 46.0516172,12.8516813 45.7749199,12.4912759 C45.2131309,13.2230511 44.3955319,13.7573216 43.452751,13.9665847 L41.6720811,13.9665847 C40.7293002,13.7573216 39.9117011,13.2230511 39.3499121,12.4912759 C38.7881231,13.2230511 37.9705241,13.7573216 37.0277432,13.9665847 L35.2470732,13.9665847 C34.3042923,13.7573216 33.4866933,13.2230511 32.9249043,12.4912759 C32.3631153,13.2230511 31.5455163,13.7573216 30.6027353,13.9665847 L28.8220654,13.9665847 C27.8792845,13.7573216 27.0616855,13.2230511 26.4998965,12.4912759 C25.9381075,13.2230511 25.1205084,13.7573216 24.1777275,13.9665847 L22.3970576,13.9665847 C21.4542767,13.7573216 20.6366777,13.2230511 20.0748887,12.4912759 C19.5130997,13.2230511 18.6955006,13.7573216 17.7527197,13.9665847 L15.9720498,13.9665847 C15.0292689,13.7573216 14.2116699,13.2230511 13.6498809,12.4912759 C13.0880919,13.2230511 12.2704928,13.7573216 11.3277119,13.9665847 L9.547042,13.9665847 C8.60426109,13.7573216 7.78666205,13.2230511 7.22487305,12.4912759 C7.00343242,12.7796811 6.7422418,13.0372411 6.44935717,13.2564032 L6.22387695,13.4134571 L6.223,11.964 L6.12856864,11.9646173 C6.12856864,12.778016 5.21053609,13.423339 3.374471,13.9005864 L3.1184082,13.9646238 C1.33504102,13.566834 0,12.0069969 0,10.1474788 L0,10.1474788 L0,8 L53,8 Z" id="Combined-Shape" fill="#F2F2F2" fill-rule="nonzero"></path>
            <rect id="Rectangle" fill="#292F36" fill-rule="nonzero" x="0" y="0" width="53" height="8"></rect>
        </g>
        <rect id="Rectangle" fill="#F2F2F2" x="46" y="40" width="14" height="14" rx="3"></rect>
        <circle id="Oval" fill="#282F37" cx="37" cy="55" r="2"></circle>
    </g>
</svg>