<?xml version="1.0" encoding="UTF-8"?>
<svg width="86px" height="86px" viewBox="0 0 86 86" version="1.1" xmlns="http://www.w3.org/2000/svg" xmlns:xlink="http://www.w3.org/1999/xlink">
    <!-- Generator: Sketch 63.1 (92452) - https://sketch.com -->
    <title>2. assets/icone/pag-int/comercio/CSAs</title>
    <desc>Created with Sketch.</desc>
    <defs>
        <circle id="path-1" cx="43" cy="43" r="43"></circle>
        <path d="M38,-4.54747351e-13 L38.0002789,14.5851745 C32.2708524,17.4118569 25.8208916,19 19,19 C12.1785353,19 5.72806355,17.41159 -0.00172330668,14.5844619 L-3.85468784e-13,-4.54747351e-13 L38,-4.54747351e-13 Z" id="path-3"></path>
    </defs>
    <g id="2.-assets/icone/pag-int/comercio/CSAs" stroke="none" stroke-width="1" fill="none" fill-rule="evenodd">
        <g id="Group" opacity="0.6">
            <mask id="mask-2" fill="white">
                <use xlink:href="#path-1"></use>
            </mask>
            <g id="Oval"></g>
            <g id="1.-colors/feiras" mask="url(#mask-2)" fill="#EA3E57">
                <rect id="Rectangle-Copy-2" x="0" y="0" width="86" height="86"></rect>
            </g>
        </g>
        <g id="1.-colors/agricultores" opacity="0.8" transform="translate(24.000000, 67.000000)">
            <mask id="mask-4" fill="white">
                <use xlink:href="#path-3"></use>
            </mask>
            <g id="Mask"></g>
            <g id="1.-colors/feiras" mask="url(#mask-4)" fill="#EA3E57">
                <g transform="translate(-24.000000, -67.000000)" id="Rectangle-Copy-2">
                    <rect x="0" y="0" width="86" height="86"></rect>
                </g>
            </g>
        </g>
        <g id="leafs-(1)" transform="translate(25.000000, 12.000000)" fill-rule="nonzero">
            <path d="M28.4200052,0.0288051209 C28.9149295,-0.0732348377 29.4265259,0.0999450407 29.757523,0.481918402 C32.9667284,4.18478176 34.8377127,8.65537016 35.3607799,13.2556464 C35.3850438,13.470468 35.4066511,13.6859038 35.42531,13.9015963 C35.4299606,13.9557209 35.434475,14.0103494 35.4388003,14.0649909 C35.70929,17.464517 35.2479504,20.9233313 34.0345917,24.1886511 C33.8678184,24.6372145 33.6874153,25.0814091 33.4929473,25.5209976 C33.4775266,25.5552439 33.4620554,25.5899634 33.4464955,25.6246558 C33.2161053,26.1393738 32.9662134,26.6474167 32.6969767,27.1479724 C32.6152265,27.2987809 32.5323377,27.4489515 32.4476773,27.5984598 C32.2707936,27.9118157 32.0858945,28.2215455 31.8932917,28.5278934 C25.3094886,38.9990786 9.03049269,33.5594498 10.0174609,21.0834282 C10.8205113,10.9337611 17.9994063,2.45834991 27.824086,0.159940785 C28.0222422,0.113661836 28.2207959,0.0698990503 28.4200052,0.0288051209 L27.8570815,0.152247295 C28.0437784,0.108859921 28.2314282,0.0677022487 28.4200052,0.0288051209 Z" id="Combined-Shape" fill="#292F36"></path>
            <path d="M18.403411,5.94506246 L18.438548,5.97944141 C18.5052484,6.04366312 18.5715582,6.1082783 18.6374742,6.17328287 C18.7089952,6.24268438 18.7796348,6.31314627 18.849858,6.38411138 C18.8670873,6.40288891 18.8854248,6.42150661 18.9037306,6.44015489 C19.0805669,6.61866213 19.2536005,6.80056334 19.423904,6.98559097 C19.4229073,6.98571791 19.4219105,6.9858449 19.4209137,6.98597194 C22.90168,10.7674182 25.1271787,15.6994131 25.5531973,21.0834282 C26.0070642,26.8205759 22.7932169,31.0789134 18.5511637,32.9746289 C15.9354688,34.1590834 12.9121197,34.4388827 10.0718415,33.562243 C5.77036402,32.2346761 3.31546942,28.7756175 1.65969869,24.6202606 C1.67407824,24.6221503 1.68845309,24.6240294 1.70282319,24.6258977 C0.625956277,21.8963699 0.0812646951,19.0194823 0.0576165239,16.146874 C0.0387784183,14.162775 0.271599582,12.2108666 0.731242829,10.3312877 C1.45064224,7.37706812 2.74358235,4.54302566 4.59732853,2.0078122 C4.62100578,1.97705489 4.64393501,1.94580607 4.66694159,1.91461436 C5.02758736,1.42496777 5.40991312,0.947161185 5.81313526,0.481918402 C6.14421958,0.0999450407 6.65581598,-0.0731475495 7.15065305,0.0288051209 C7.29841897,0.0592846145 7.44560106,0.0911445003 7.59218763,0.124369806 C7.61809943,0.130354815 7.64413394,0.136315545 7.67015754,0.142322079 C7.78860615,0.169462791 7.90655555,0.197607215 8.02410815,0.226634466 C8.06024197,0.235958769 8.09623805,0.244969779 8.13221163,0.254068652 C8.25736645,0.285151077 8.38211266,0.317711144 8.50639723,0.351264434 C8.52019816,0.355839963 8.53451543,0.359735603 8.54882889,0.363645211 C12.3025337,1.38394893 15.6331796,3.31126396 18.3338824,5.87929334 L18.403411,5.94506246 L18.403411,5.94506246 Z" id="Combined-Shape" fill="#F4F4F4"></path>
            <path d="M14.8098474,18.8526025 L16.4009375,14.3493146 C16.6579141,13.622029 16.2766391,12.8242144 15.5493534,12.5672378 C14.8218932,12.3101739 14.0241659,12.6915363 13.7672766,13.4188219 L13.2160513,14.979012 C12.4112537,13.170836 11.5203026,11.3583829 10.54442,9.54697724 C10.1786823,8.86796198 9.33163714,8.61404048 8.65253459,8.97977822 C7.97343204,9.34560326 7.71959783,10.1926484 8.08533557,10.8716636 C10.3938478,15.1569055 12.2088323,19.4388303 13.5020076,23.6450763 L10.5665039,22.6312233 C9.83755981,22.379484 9.04227661,22.7662582 8.79045002,23.495377 C8.53862343,24.2244084 8.92557222,25.0196043 9.65460365,25.2714309 L14.4043062,26.9119262 C15.6922443,32.1694717 16.2219093,37.6348506 15.7807546,43.1392474 C15.7191291,43.9081695 16.2924383,44.5813365 17.0612731,44.642962 C17.8275766,44.7048493 18.5031876,44.1332859 18.5649877,43.3624434 C19.2405987,34.9345015 17.7866384,26.7318505 14.8098474,18.8526025 L14.8098474,18.8526025 Z" id="Path" fill="#292F36"></path>
        </g>
        <path d="M25.6044444,35 C24.9806111,44.378 24,60.146 24,66.7647059 C24,69.5155294 26.4932222,71 28.8407778,71 L57.1592222,71 C59.5067778,71 62,69.5155294 62,66.7647059 C62,60.2285882 61.0172778,44.3917647 60.3934444,35 L25.6044444,35 Z" id="Path" fill="#292F36" fill-rule="nonzero"></path>
        <path d="M55,41.1111111 L52.9090909,41.1111111 L52.9090909,48.5 C52.9090909,53.7376667 48.6885909,58 43.5,58 C38.3114091,58 34.0909091,53.7376667 34.0909091,48.5 L34.0909091,41.1111111 L32,41.1111111 L32,39 L36.1818182,39 L36.1818182,48.5 C36.1818182,52.5744444 39.4655909,55.8888889 43.5,55.8888889 C47.5344091,55.8888889 50.8181818,52.5744444 50.8181818,48.5 L50.8181818,39 L55,39 L55,41.1111111 Z" id="Path" fill="#F4F4F4" fill-rule="nonzero"></path>
    </g>
</svg>