<?xml version="1.0" encoding="UTF-8"?>
<svg width="86px" height="86px" viewBox="0 0 86 86" version="1.1" xmlns="http://www.w3.org/2000/svg" xmlns:xlink="http://www.w3.org/1999/xlink">
    <!-- Generator: Sketch 63.1 (92452) - https://sketch.com -->
    <title>2. assets/icone/pag-int/comercio/feiras organicas</title>
    <desc>Created with Sketch.</desc>
    <defs>
        <circle id="path-1" cx="43" cy="43" r="43"></circle>
        <path d="M5,0.92448495 L52,1 L44.7065675,18.0411603 C39.8410949,19.9511779 34.5430302,21 29,21 C18.2569059,21 8.43398432,17.0602734 0.897203692,10.5467887 L5,0.92448495 Z" id="path-3"></path>
    </defs>
    <g id="2.-assets/icone/pag-int/comercio/feiras-organicas" stroke="none" stroke-width="1" fill="none" fill-rule="evenodd">
        <g id="Group" opacity="0.6">
            <mask id="mask-2" fill="white">
                <use xlink:href="#path-1"></use>
            </mask>
            <g id="Oval"></g>
            <g id="1.-colors/feiras" mask="url(#mask-2)" fill="#EA3E57">
                <rect id="Rectangle-Copy-2" x="0" y="0" width="86" height="86"></rect>
            </g>
        </g>
        <g id="1.-colors/agricultores" opacity="0.8" transform="translate(14.000000, 65.000000)">
            <mask id="mask-4" fill="white">
                <use xlink:href="#path-3"></use>
            </mask>
            <g id="Mask"></g>
            <g id="1.-colors/feiras" mask="url(#mask-4)" fill="#EA3E57">
                <g transform="translate(-14.000000, -65.000000)" id="Rectangle-Copy-2">
                    <rect x="0" y="0" width="86" height="86"></rect>
                </g>
            </g>
        </g>
        <g id="stand" transform="translate(16.000000, 20.000000)" fill-rule="nonzero">
            <rect id="Rectangle" fill="#292F36" x="3" y="40" width="47" height="6"></rect>
            <path d="M53,10.1474788 L53,8 L0,8 L0,10.1474788 C0,12.0069969 1.33504102,13.566834 3.1184082,13.9646238 L3.1184082,26.2595308 L0,26.2595308 L0,40 L53,40 L53,26.2594298 L49.8815918,26.2594298 L49.8815918,13.9645227 C51.664959,13.566733 53,12.0068959 53,10.1474788 Z M46.775916,26.2595308 L6.22387695,26.2595308 L6.22387695,26.2595308 L6.22387695,13.4134571 C6.60916211,13.1640933 6.94807227,12.8517824 7.22487305,12.4912759 C7.95734961,13.4453854 9.12469531,14.0637429 10.437377,14.0637429 C11.7500586,14.0637429 12.9174043,13.4453854 13.6498809,12.4912759 C14.3823574,13.4453854 15.5497031,14.0637429 16.8623848,14.0637429 C18.1750664,14.0637429 19.3424121,13.4453854 20.0748887,12.4912759 C20.8073652,13.4453854 21.9747109,14.0637429 23.2873926,14.0637429 C24.6000742,14.0637429 25.7674199,13.4453854 26.4998965,12.4912759 C27.232373,13.4453854 28.3997187,14.0637429 29.7124004,14.0637429 C31.025082,14.0637429 32.1924277,13.4453854 32.9249043,12.4912759 C33.6573809,13.4453854 34.8247266,14.0637429 36.1374082,14.0637429 C37.4500898,14.0637429 38.6174355,13.4453854 39.3499121,12.4912759 C40.0823887,13.4453854 41.2497344,14.0637429 42.562416,14.0637429 C43.8750977,14.0637429 45.0424434,13.4453854 45.7749199,12.4912759 C46.0516172,12.8516813 46.3906309,13.1639923 46.775916,13.4134571 L46.775916,26.2595308 Z" id="Shape" fill="#F2F2F2"></path>
            <rect id="Rectangle" fill="#292F36" x="0" y="0" width="53" height="8"></rect>
        </g>
        <g id="leafs-(1)" transform="translate(29.500000, 62.231744) rotate(-54.000000) translate(-29.500000, -62.231744) translate(16.000000, 45.731744)" fill-rule="nonzero">
            <path d="M26.8291895,10.4812977 L26.8364663,10.5555272 C26.8424513,10.6185439 26.8480586,10.6815881 26.8532881,10.7446567 C26.8581929,10.8027741 26.8627106,10.860847 26.8669083,10.9189418 C26.8695524,10.9576201 26.8721915,10.9963428 26.8746885,11.0350728 C26.888537,11.2456819 26.8980006,11.4566334 26.9032468,11.6677306 C26.9035728,11.6986242 26.9042473,11.7299322 26.9048292,11.7612418 C26.9091883,11.9670553 26.9090826,12.1725096 26.9049774,12.3779734 C26.9035696,12.4142091 26.9027083,12.450526 26.9017223,12.4868409 C26.9010706,12.5373522 26.8994789,12.5876609 26.8976471,12.6379672 C26.8944852,12.7037895 26.8916413,12.770025 26.8883821,12.8362474 C26.810643,14.4397717 26.488045,16.0385849 25.9168992,17.5800525 C25.9031254,17.6164154 25.8894323,17.653004 25.8756,17.6895568 C25.8040551,17.8791124 25.728584,18.0674996 25.6493421,18.2549017 C25.6314586,18.2971654 25.6135104,18.3391535 25.5953739,18.3810871 C25.576874,18.423766 25.5581732,18.4664549 25.5392751,18.50909 C25.4101681,18.8007978 25.2718779,19.0896881 25.1244261,19.3754817 C25.1038497,19.4146094 25.0836966,19.4532671 25.063374,19.491871 C25.0270788,19.5616165 24.9897605,19.6312996 24.9518912,19.7007876 C24.9402137,19.7213962 24.9287048,19.7424001 24.9171451,19.7633873 C24.8719209,19.8463251 24.8258164,19.928354 24.7789361,20.0100962 C24.7595121,20.0431464 24.7404021,20.0761997 24.7211639,20.1092086 C24.5614781,20.3839789 24.3924817,20.6554857 24.2146588,20.9233231 L24.4017468,20.6331844 L24.3681764,20.6872427 C24.3679469,20.6869176 24.3677175,20.6865924 24.367488,20.6862672 L24.2146588,20.9233231 C19.3165111,28.3003585 7.20543723,24.4680956 7.93971131,15.6786366 C8.5335944,8.57074243 13.8145214,2.62835319 21.0567785,0.967292596 C21.2473485,0.923673774 21.4385847,0.882999572 21.6306401,0.845482807 L21.1709126,0.941506102 C21.3233063,0.907596557 21.4765571,0.875579197 21.6306401,0.845482807 C21.7124642,0.8295077 21.7949008,0.823107635 21.8763394,0.825769057 L21.9975474,0.836493108 C22.237661,0.871276661 22.4615445,0.985302578 22.6257123,1.16470481 C22.8792713,1.44174939 23.1217449,1.72514323 23.3530865,2.01433545 L23.3691608,2.03420715 C23.6497615,2.38589937 23.9137169,2.74581082 24.1610112,3.11297091 C24.2531177,3.25085767 24.3433345,3.3893896 24.4312388,3.52892536 C25.4541752,5.14997188 26.16071,6.90244944 26.5498974,8.70534834 C26.5555929,8.73538494 26.5619168,8.76504138 26.5681552,8.79471213 C26.6098097,8.98953866 26.6470442,9.18519433 26.6805681,9.38132258 C26.6862946,9.41781455 26.6923307,9.45379237 26.6982424,9.48978697 C26.7124248,9.57342871 26.7254952,9.65743118 26.7378872,9.7415087 C26.7416094,9.76919837 26.745669,9.79717438 26.7496538,9.82515932 C26.7728028,9.9858879 26.7931142,10.1466454 26.8109556,10.3076115 L26.8291895,10.4812977 L26.8291895,10.4812977 Z" id="Combined-Shape" fill="#292F36"></path>
            <path d="M4.97935229,1.12558576 C5.22566179,0.856552911 5.60626288,0.734639715 5.97439589,0.806447387 C6.09695629,0.830381279 6.21897682,0.855523657 6.3404454,0.881859906 C6.39700475,0.894235966 6.45368102,0.906842173 6.51028554,0.919724597 C6.75271156,0.974564672 6.99245207,1.03423509 7.22986433,1.09853952 C7.24312837,1.10301076 7.25712213,1.10683542 7.27111072,1.11067713 C9.84299234,1.81308683 12.1398523,3.06023797 14.0392386,4.70221627 C14.2204877,4.85867701 14.3985026,5.01897716 14.5731425,5.18318899 C14.6001259,5.20939519 14.6278296,5.23566046 14.6554377,5.26201375 C14.8084671,5.40697854 14.9581271,5.55514647 15.1050557,5.70627583 C15.1047239,5.70631583 15.1043922,5.70635583 15.1040604,5.70639584 C17.6926676,8.37059357 19.3480264,11.8440017 19.6649308,15.6357152 C20.0095717,19.760147 17.5115212,22.7994623 14.2588879,24.0917195 C12.3590277,24.8575177 10.1897143,25.0215558 8.14760799,24.424839 C4.94753272,23.4898023 3.12121893,21.0535057 1.88941172,18.1267898 C1.90046475,18.128165 1.91151407,18.1295322 1.92255959,18.1308913 C1.09886161,16.1567436 0.693639857,14.0730871 0.696967364,11.995637 C0.696900273,11.1399084 0.767441476,10.2933569 0.90373876,9.46219378 C0.911073868,9.42345421 0.917648077,9.38414148 0.924370882,9.34484916 C0.954451881,9.16426151 0.988498185,8.98478325 1.02559549,8.80611361 C1.04050396,8.73661647 1.05539182,8.66697662 1.07075115,8.59741818 C1.0832876,8.53926679 1.09649009,8.48126588 1.1100142,8.42335623 C1.12747275,8.34914017 1.14525216,8.27510926 1.16356844,8.2011812 C1.17164134,8.1688039 1.17986811,8.13617164 1.18819717,8.10357005 C1.76173777,5.84944057 2.83535758,3.69379351 4.39717353,1.7960897 C4.42157937,1.76691759 4.44578908,1.73766675 4.47010359,1.70849335 C4.63443439,1.51116134 4.80424472,1.31686591 4.97935229,1.12558576 Z" id="Combined-Shape" fill="#F4F4F4"></path>
            <path d="M11.9520807,14.3666426 L13.1295521,11.2249649 C13.3197252,10.7175806 13.0375662,10.1609926 12.4993452,9.98171519 C11.960995,9.80237691 11.3706444,10.0684309 11.1805358,10.5758151 L10.7726067,11.6642675 C10.1770237,10.40281 9.51768362,9.13836857 8.79549079,7.87465789 C8.52482997,7.40094908 7.8979821,7.22380305 7.39541857,7.47895666 C6.89285505,7.73417117 6.7050074,8.32510449 6.97566822,8.79881331 C8.68406121,11.7883733 10.0272236,14.7756192 10.984226,17.7100684 L8.81183379,17.0027631 C8.27238546,16.8271394 7.68384353,17.0969689 7.4974816,17.605632 C7.31111968,18.1142341 7.59747753,18.6689953 8.13699046,18.8446798 L11.6519637,19.9891564 C12.6050903,23.6570352 12.997064,27.4699071 12.6705915,31.3099994 C12.6249861,31.8464309 13.0492582,32.3160597 13.6182273,32.3590522 C14.1853231,32.4022273 14.6853027,32.0034813 14.7310373,31.46571 C15.231017,25.5860331 14.1550272,19.8635283 11.9520807,14.3666426 L11.9520807,14.3666426 Z" id="Path" fill="#292F36"></path>
        </g>
    </g>
</svg>