<?xml version="1.0" encoding="UTF-8"?>
<svg width="86px" height="86px" viewBox="0 0 86 86" version="1.1" xmlns="http://www.w3.org/2000/svg" xmlns:xlink="http://www.w3.org/1999/xlink">
    <!-- Generator: Sketch 63.1 (92452) - https://sketch.com -->
    <title>2. assets/icone/pag-int/comercio/feiras livres</title>
    <desc>Created with Sketch.</desc>
    <defs>
        <circle id="path-1" cx="43" cy="43" r="43"></circle>
        <path d="M5,0.92448495 L52,1 L44.9193096,17.5434693 C39.726439,19.768222 34.0070681,21 28,21 C17.6024599,21 8.06684915,17.3096417 0.631520535,11.1672777 L5,0.92448495 Z" id="path-3"></path>
    </defs>
    <g id="2.-assets/icone/pag-int/comercio/feiras-livres" stroke="none" stroke-width="1" fill="none" fill-rule="evenodd">
        <g id="Group" opacity="0.6">
            <mask id="mask-2" fill="white">
                <use xlink:href="#path-1"></use>
            </mask>
            <g id="Oval"></g>
            <g id="1.-colors/feiras" mask="url(#mask-2)" fill="#EA3E57">
                <rect id="Rectangle-Copy-2" x="0" y="0" width="86" height="86"></rect>
            </g>
        </g>
        <g id="1.-colors/agricultores" opacity="0.8" transform="translate(15.000000, 65.000000)">
            <mask id="mask-4" fill="white">
                <use xlink:href="#path-3"></use>
            </mask>
            <g id="Mask"></g>
            <g id="1.-colors/feiras" mask="url(#mask-4)" fill="#EA3E57">
                <g transform="translate(-15.000000, -65.000000)" id="Rectangle-Copy-2">
                    <rect x="0" y="0" width="86" height="86"></rect>
                </g>
            </g>
        </g>
        <g id="stand" transform="translate(17.000000, 20.000000)" fill-rule="nonzero">
            <rect id="Rectangle" fill="#292F36" x="3" y="40" width="47" height="6"></rect>
            <path d="M53,10.1474788 L53,8 L0,8 L0,10.1474788 C0,12.0069969 1.33504102,13.566834 3.1184082,13.9646238 L3.1184082,26.2595308 L0,26.2595308 L0,40 L53,40 L53,26.2594298 L49.8815918,26.2594298 L49.8815918,13.9645227 C51.664959,13.566733 53,12.0068959 53,10.1474788 Z M46.775916,26.2595308 L6.22387695,26.2595308 L6.22387695,26.2595308 L6.22387695,13.4134571 C6.60916211,13.1640933 6.94807227,12.8517824 7.22487305,12.4912759 C7.95734961,13.4453854 9.12469531,14.0637429 10.437377,14.0637429 C11.7500586,14.0637429 12.9174043,13.4453854 13.6498809,12.4912759 C14.3823574,13.4453854 15.5497031,14.0637429 16.8623848,14.0637429 C18.1750664,14.0637429 19.3424121,13.4453854 20.0748887,12.4912759 C20.8073652,13.4453854 21.9747109,14.0637429 23.2873926,14.0637429 C24.6000742,14.0637429 25.7674199,13.4453854 26.4998965,12.4912759 C27.232373,13.4453854 28.3997187,14.0637429 29.7124004,14.0637429 C31.025082,14.0637429 32.1924277,13.4453854 32.9249043,12.4912759 C33.6573809,13.4453854 34.8247266,14.0637429 36.1374082,14.0637429 C37.4500898,14.0637429 38.6174355,13.4453854 39.3499121,12.4912759 C40.0823887,13.4453854 41.2497344,14.0637429 42.562416,14.0637429 C43.8750977,14.0637429 45.0424434,13.4453854 45.7749199,12.4912759 C46.0516172,12.8516813 46.3906309,13.1639923 46.775916,13.4134571 L46.775916,26.2595308 Z" id="Shape" fill="#F2F2F2"></path>
            <rect id="Rectangle" fill="#292F36" x="0" y="0" width="53" height="8"></rect>
        </g>
    </g>
</svg>