<?xml version="1.0" encoding="UTF-8"?>
<svg width="86px" height="86px" viewBox="0 0 86 86" version="1.1" xmlns="http://www.w3.org/2000/svg" xmlns:xlink="http://www.w3.org/1999/xlink">
    <!-- Generator: Sketch 63.1 (92452) - https://sketch.com -->
    <title>2. assets/icone/pag-int/comercio/Restaurantes com ingredientes organico</title>
    <desc>Created with Sketch.</desc>
    <defs>
        <circle id="path-1" cx="43" cy="43" r="43"></circle>
        <path d="M34.5,-4.54747351e-13 L34.4998318,22.2896513 C29.1539224,24.6743449 23.2317729,26 17,26 C11.1534815,26 5.57948727,24.8331851 0.498180358,22.7197183 L0.5,-4.54747351e-13 L34.5,-4.54747351e-13 Z" id="path-3"></path>
    </defs>
    <g id="2.-assets/icone/pag-int/comercio/Restaurantes-com-ingredientes-organico" stroke="none" stroke-width="1" fill="none" fill-rule="evenodd">
        <g id="Group" opacity="0.6">
            <mask id="mask-2" fill="white">
                <use xlink:href="#path-1"></use>
            </mask>
            <g id="Oval"></g>
            <g id="1.-colors/feiras" mask="url(#mask-2)" fill="#EA3E57">
                <rect id="Rectangle-Copy-2" x="0" y="0" width="86" height="86"></rect>
            </g>
        </g>
        <g id="1.-colors/agricultores" opacity="0.8" transform="translate(26.000000, 60.000000)">
            <mask id="mask-4" fill="white">
                <use xlink:href="#path-3"></use>
            </mask>
            <g id="Mask"></g>
            <g id="1.-colors/feiras" mask="url(#mask-4)" fill="#EA3E57">
                <g transform="translate(-26.000000, -60.000000)" id="Rectangle-Copy-2">
                    <rect x="0" y="0" width="86" height="86"></rect>
                </g>
            </g>
        </g>
        <g id="restaurant" transform="translate(28.246219, 14.000000)">
            <polygon id="Path" fill="#292F36" fill-rule="nonzero" points="28.5517241 7.75862069 28.5517241 0 0.965517241 4.31034483 0.965517241 7.75862069"></polygon>
            <polygon id="Path" fill="#F4F4F4" fill-rule="nonzero" points="0.965517241 4.31034483 32 4.31034483 32 50 0.965517241 50"></polygon>
            <path d="M28.5517241,37.0689655 L28.5517241,38.7931034 L26.8275862,38.7931034 L26.8275862,37.0689655 L28.5517241,37.0689655 Z M25.1034483,37.0689655 L25.1034483,38.7931034 L19.9310345,38.7931034 L19.9310345,37.0689655 L25.1034483,37.0689655 Z M28.5517241,33.6206897 L28.5517241,35.3448276 L26.8275862,35.3448276 L26.8275862,33.6206897 L28.5517241,33.6206897 Z M25.1034483,33.6206897 L25.1034483,35.3448276 L17.3448276,35.3448276 L17.3448276,33.6206897 L25.1034483,33.6206897 Z M28.5517241,30.1724138 L28.5517241,31.8965517 L26.8275862,31.8965517 L26.8275862,30.1724138 L28.5517241,30.1724138 Z M25.1034483,30.1724138 L25.1034483,31.8965517 L13.8965517,31.8965517 L13.8965517,30.1724138 L25.1034483,30.1724138 Z M10.9965517,7.14913793 L13.4344828,9.58793103 C14.8826562,11.0361163 15.1118323,13.3033737 13.9827586,15.012069 L13.9827586,15.012069 L16.4827586,17.512069 L17.7637931,16.2310345 C16.6347195,14.5223392 16.8638955,12.2550818 18.312069,10.8068966 L18.312069,10.8068966 L19.5310345,9.58793103 C20.613252,8.46742852 22.215853,8.01804915 23.7228764,8.41251226 C25.2298998,8.80697536 26.4068177,9.98389329 26.8012808,11.4909167 C27.195744,12.9979401 26.7463646,14.6005411 25.6258621,15.6827586 L25.6258621,15.6827586 L24.4068966,16.9017241 C23.5994792,17.7110255 22.5026745,18.1649506 21.3594828,18.162931 C20.5144866,18.1633901 19.6879924,17.9154719 18.9827586,17.45 L18.9827586,17.45 L17.7017241,18.7310345 L25.6258621,26.6551724 L24.4068966,27.8741379 L16.4827586,19.95 L8.55862069,27.8741379 L7.33965517,26.6551724 L15.2637931,18.7310345 L12.7637931,16.2310345 C11.0550978,17.3601081 8.78784043,17.1309321 7.33965517,15.6827586 L7.33965517,15.6827586 L4.90086207,13.2448276 L6.11982759,12.0258621 L8.55862069,14.4594828 C9.33395675,15.2283175 10.50862,15.4273721 11.4939655,14.9568966 L11.4939655,14.9568966 L7.33965517,10.8025862 L8.55862069,9.58362069 L12.712931,13.737931 C13.1813592,12.75372 12.9824206,11.5814646 12.2155172,10.8068966 L12.2155172,10.8068966 L9.77758621,8.36810345 L10.9965517,7.14913793 Z M24.3753929,10.8384002 C23.3778055,9.84081283 21.764773,9.82679601 20.75,10.8068966 L20.75,10.8068966 L19.5310345,12.0258621 C18.858733,12.6751926 18.5891054,13.6367532 18.8257832,14.5409672 C19.0624611,15.4451813 19.7686118,16.151332 20.6728259,16.3880099 C21.5770399,16.6246878 22.5386005,16.3550601 23.187931,15.6827586 L23.187931,15.6827586 L24.4068966,14.4637931 C25.3869971,13.4490201 25.3729803,11.8359876 24.3753929,10.8384002 Z" id="Combined-Shape" fill="#292F36" fill-rule="nonzero"></path>
            <g id="Group" transform="translate(13.896552, 30.172414)"></g>
        </g>
        <g id="restaurant" transform="translate(28.246219, 14.000000)">
            <polygon id="Path" fill="#292F36" fill-rule="nonzero" points="28.5517241 7.75862069 28.5517241 0 0.965517241 4.31034483 0.965517241 7.75862069"></polygon>
            <polygon id="Path" fill="#F4F4F4" fill-rule="nonzero" points="0.965517241 4.31034483 32 4.31034483 32 50 0.965517241 50"></polygon>
            <path d="M28.5517241,37.0689655 L28.5517241,38.7931034 L26.8275862,38.7931034 L26.8275862,37.0689655 L28.5517241,37.0689655 Z M25.1034483,37.0689655 L25.1034483,38.7931034 L19.9310345,38.7931034 L19.9310345,37.0689655 L25.1034483,37.0689655 Z M28.5517241,33.6206897 L28.5517241,35.3448276 L26.8275862,35.3448276 L26.8275862,33.6206897 L28.5517241,33.6206897 Z M25.1034483,33.6206897 L25.1034483,35.3448276 L17.3448276,35.3448276 L17.3448276,33.6206897 L25.1034483,33.6206897 Z M28.5517241,30.1724138 L28.5517241,31.8965517 L26.8275862,31.8965517 L26.8275862,30.1724138 L28.5517241,30.1724138 Z M25.1034483,30.1724138 L25.1034483,31.8965517 L13.8965517,31.8965517 L13.8965517,30.1724138 L25.1034483,30.1724138 Z M10.9965517,7.14913793 L13.4344828,9.58793103 C14.8826562,11.0361163 15.1118323,13.3033737 13.9827586,15.012069 L13.9827586,15.012069 L16.4827586,17.512069 L17.7637931,16.2310345 C16.6347195,14.5223392 16.8638955,12.2550818 18.312069,10.8068966 L18.312069,10.8068966 L19.5310345,9.58793103 C20.613252,8.46742852 22.215853,8.01804915 23.7228764,8.41251226 C25.2298998,8.80697536 26.4068177,9.98389329 26.8012808,11.4909167 C27.195744,12.9979401 26.7463646,14.6005411 25.6258621,15.6827586 L25.6258621,15.6827586 L24.4068966,16.9017241 C23.5994792,17.7110255 22.5026745,18.1649506 21.3594828,18.162931 C20.5144866,18.1633901 19.6879924,17.9154719 18.9827586,17.45 L18.9827586,17.45 L17.7017241,18.7310345 L25.6258621,26.6551724 L24.4068966,27.8741379 L16.4827586,19.95 L8.55862069,27.8741379 L7.33965517,26.6551724 L15.2637931,18.7310345 L12.7637931,16.2310345 C11.0550978,17.3601081 8.78784043,17.1309321 7.33965517,15.6827586 L7.33965517,15.6827586 L4.90086207,13.2448276 L6.11982759,12.0258621 L8.55862069,14.4594828 C9.33395675,15.2283175 10.50862,15.4273721 11.4939655,14.9568966 L11.4939655,14.9568966 L7.33965517,10.8025862 L8.55862069,9.58362069 L12.712931,13.737931 C13.1813592,12.75372 12.9824206,11.5814646 12.2155172,10.8068966 L12.2155172,10.8068966 L9.77758621,8.36810345 L10.9965517,7.14913793 Z M24.3753929,10.8384002 C23.3778055,9.84081283 21.764773,9.82679601 20.75,10.8068966 L20.75,10.8068966 L19.5310345,12.0258621 C18.858733,12.6751926 18.5891054,13.6367532 18.8257832,14.5409672 C19.0624611,15.4451813 19.7686118,16.151332 20.6728259,16.3880099 C21.5770399,16.6246878 22.5386005,16.3550601 23.187931,15.6827586 L23.187931,15.6827586 L24.4068966,14.4637931 C25.3869971,13.4490201 25.3729803,11.8359876 24.3753929,10.8384002 Z" id="Combined-Shape" fill="#292F36" fill-rule="nonzero"></path>
            <g id="Group" transform="translate(13.896552, 30.172414)"></g>
        </g>
        <g id="leafs-(1)" transform="translate(34.315262, 62.231744) rotate(-54.000000) translate(-34.315262, -62.231744) translate(20.815262, 45.731744)" fill-rule="nonzero">
            <path d="M26.8291895,10.4812977 L26.8364663,10.5555272 C26.8424513,10.6185439 26.8480586,10.6815881 26.8532881,10.7446567 C26.8581929,10.8027741 26.8627106,10.860847 26.8669083,10.9189418 C26.8695524,10.9576201 26.8721915,10.9963428 26.8746885,11.0350728 C26.888537,11.2456819 26.8980006,11.4566334 26.9032468,11.6677306 C26.9035728,11.6986242 26.9042473,11.7299322 26.9048292,11.7612418 C26.9091883,11.9670553 26.9090826,12.1725096 26.9049774,12.3779734 C26.9035696,12.4142091 26.9027083,12.450526 26.9017223,12.4868409 C26.9010706,12.5373522 26.8994789,12.5876609 26.8976471,12.6379672 C26.8944852,12.7037895 26.8916413,12.770025 26.8883821,12.8362474 C26.810643,14.4397717 26.488045,16.0385849 25.9168992,17.5800525 C25.9031254,17.6164154 25.8894323,17.653004 25.8756,17.6895568 C25.8040551,17.8791124 25.728584,18.0674996 25.6493421,18.2549017 C25.6314586,18.2971654 25.6135104,18.3391535 25.5953739,18.3810871 C25.576874,18.423766 25.5581732,18.4664549 25.5392751,18.50909 C25.4101681,18.8007978 25.2718779,19.0896881 25.1244261,19.3754817 C25.1038497,19.4146094 25.0836966,19.4532671 25.063374,19.491871 C25.0270788,19.5616165 24.9897605,19.6312996 24.9518912,19.7007876 C24.9402137,19.7213962 24.9287048,19.7424001 24.9171451,19.7633873 C24.8719209,19.8463251 24.8258164,19.928354 24.7789361,20.0100962 C24.7595121,20.0431464 24.7404021,20.0761997 24.7211639,20.1092086 C24.5614781,20.3839789 24.3924817,20.6554857 24.2146588,20.9233231 L24.4017468,20.6331844 L24.3681764,20.6872427 C24.3679469,20.6869176 24.3677175,20.6865924 24.367488,20.6862672 L24.2146588,20.9233231 C19.3165111,28.3003585 7.20543723,24.4680956 7.93971131,15.6786366 C8.5335944,8.57074243 13.8145214,2.62835319 21.0567785,0.967292596 C21.2473485,0.923673774 21.4385847,0.882999572 21.6306401,0.845482807 L21.1709126,0.941506102 C21.3233063,0.907596557 21.4765571,0.875579197 21.6306401,0.845482807 C21.7124642,0.8295077 21.7949008,0.823107635 21.8763394,0.825769057 L21.9975474,0.836493108 C22.237661,0.871276661 22.4615445,0.985302578 22.6257123,1.16470481 C22.8792713,1.44174939 23.1217449,1.72514323 23.3530865,2.01433545 L23.3691608,2.03420715 C23.6497615,2.38589937 23.9137169,2.74581082 24.1610112,3.11297091 C24.2531177,3.25085767 24.3433345,3.3893896 24.4312388,3.52892536 C25.4541752,5.14997188 26.16071,6.90244944 26.5498974,8.70534834 C26.5555929,8.73538494 26.5619168,8.76504138 26.5681552,8.79471213 C26.6098097,8.98953866 26.6470442,9.18519433 26.6805681,9.38132258 C26.6862946,9.41781455 26.6923307,9.45379237 26.6982424,9.48978697 C26.7124248,9.57342871 26.7254952,9.65743118 26.7378872,9.7415087 C26.7416094,9.76919837 26.745669,9.79717438 26.7496538,9.82515932 C26.7728028,9.9858879 26.7931142,10.1466454 26.8109556,10.3076115 L26.8291895,10.4812977 L26.8291895,10.4812977 Z" id="Combined-Shape" fill="#292F36"></path>
            <path d="M4.97935229,1.12558576 C5.22566179,0.856552911 5.60626288,0.734639715 5.97439589,0.806447387 C6.09695629,0.830381279 6.21897682,0.855523657 6.3404454,0.881859906 C6.39700475,0.894235966 6.45368102,0.906842173 6.51028554,0.919724597 C6.75271156,0.974564672 6.99245207,1.03423509 7.22986433,1.09853952 C7.24312837,1.10301076 7.25712213,1.10683542 7.27111072,1.11067713 C9.84299234,1.81308683 12.1398523,3.06023797 14.0392386,4.70221627 C14.2204877,4.85867701 14.3985026,5.01897716 14.5731425,5.18318899 C14.6001259,5.20939519 14.6278296,5.23566046 14.6554377,5.26201375 C14.8084671,5.40697854 14.9581271,5.55514647 15.1050557,5.70627583 C15.1047239,5.70631583 15.1043922,5.70635583 15.1040604,5.70639584 C17.6926676,8.37059357 19.3480264,11.8440017 19.6649308,15.6357152 C20.0095717,19.760147 17.5115212,22.7994623 14.2588879,24.0917195 C12.3590277,24.8575177 10.1897143,25.0215558 8.14760799,24.424839 C4.94753272,23.4898023 3.12121893,21.0535057 1.88941172,18.1267898 C1.90046475,18.128165 1.91151407,18.1295322 1.92255959,18.1308913 C1.09886161,16.1567436 0.693639857,14.0730871 0.696967364,11.995637 C0.696900273,11.1399084 0.767441476,10.2933569 0.90373876,9.46219378 C0.911073868,9.42345421 0.917648077,9.38414148 0.924370882,9.34484916 C0.954451881,9.16426151 0.988498185,8.98478325 1.02559549,8.80611361 C1.04050396,8.73661647 1.05539182,8.66697662 1.07075115,8.59741818 C1.0832876,8.53926679 1.09649009,8.48126588 1.1100142,8.42335623 C1.12747275,8.34914017 1.14525216,8.27510926 1.16356844,8.2011812 C1.17164134,8.1688039 1.17986811,8.13617164 1.18819717,8.10357005 C1.76173777,5.84944057 2.83535758,3.69379351 4.39717353,1.7960897 C4.42157937,1.76691759 4.44578908,1.73766675 4.47010359,1.70849335 C4.63443439,1.51116134 4.80424472,1.31686591 4.97935229,1.12558576 Z" id="Combined-Shape" fill="#F4F4F4"></path>
            <path d="M11.9520807,14.3666426 L13.1295521,11.2249649 C13.3197252,10.7175806 13.0375662,10.1609926 12.4993452,9.98171519 C11.960995,9.80237691 11.3706444,10.0684309 11.1805358,10.5758151 L10.7726067,11.6642675 C10.1770237,10.40281 9.51768362,9.13836857 8.79549079,7.87465789 C8.52482997,7.40094908 7.8979821,7.22380305 7.39541857,7.47895666 C6.89285505,7.73417117 6.7050074,8.32510449 6.97566822,8.79881331 C8.68406121,11.7883733 10.0272236,14.7756192 10.984226,17.7100684 L8.81183379,17.0027631 C8.27238546,16.8271394 7.68384353,17.0969689 7.4974816,17.605632 C7.31111968,18.1142341 7.59747753,18.6689953 8.13699046,18.8446798 L11.6519637,19.9891564 C12.6050903,23.6570352 12.997064,27.4699071 12.6705915,31.3099994 C12.6249861,31.8464309 13.0492582,32.3160597 13.6182273,32.3590522 C14.1853231,32.4022273 14.6853027,32.0034813 14.7310373,31.46571 C15.231017,25.5860331 14.1550272,19.8635283 11.9520807,14.3666426 L11.9520807,14.3666426 Z" id="Path" fill="#292F36"></path>
        </g>
    </g>
</svg>