<svg xmlns="http://www.w3.org/2000/svg" xmlns:xlink="http://www.w3.org/1999/xlink" viewBox="0 0 32 32"><defs><path d="M16 19.8c2.04345 0 3.7 1.65655 3.7 3.7s-1.65655 3.7-3.7 3.7-3.7-1.65655-3.7-3.7 1.65655-3.7 3.7-3.7zm0 1.4c-1.27025 0-2.3 1.02975-2.3 2.3 0 1.27025 1.02975 2.3 2.3 2.3 1.27025 0 2.3-1.02975 2.3-2.3 0-1.27025-1.02975-2.3-2.3-2.3zm-7.5-8.9c2.04345 0 3.7 1.65655 3.7 3.7s-1.65655 3.7-3.7 3.7-3.7-1.65655-3.7-3.7 1.65655-3.7 3.7-3.7zm15 0c2.04345 0 3.7 1.65655 3.7 3.7s-1.65655 3.7-3.7 3.7-3.7-1.65655-3.7-3.7 1.65655-3.7 3.7-3.7zm-15 1.4c-1.27025 0-2.3 1.02975-2.3 2.3 0 1.27025 1.02975 2.3 2.3 2.3 1.27025 0 2.3-1.02975 2.3-2.3 0-1.27025-1.02975-2.3-2.3-2.3zm15 0c-1.27025 0-2.3 1.02975-2.3 2.3 0 1.27025 1.02975 2.3 2.3 2.3 1.27025 0 2.3-1.02975 2.3-2.3 0-1.27025-1.02975-2.3-2.3-2.3zM16 4.8c2.04345 0 3.7 1.65655 3.7 3.7s-1.65655 3.7-3.7 3.7-3.7-1.65655-3.7-3.7 1.65655-3.7 3.7-3.7zm0 1.4c-1.27025 0-2.3 1.02975-2.3 2.3 0 1.27025 1.02975 2.3 2.3 2.3 1.27025 0 2.3-1.02975 2.3-2.3 0-1.27025-1.02975-2.3-2.3-2.3z" id="a"/></defs><g fill="none" fill-rule="evenodd"><circle fill="#7F8286" cx="16" cy="16" r="16"/><mask id="b" fill="#fff"><use xlink:href="#a"/></mask><use fill="#A9ACAF" fill-rule="nonzero" xlink:href="#a"/><g mask="url(#b)" fill="#FFF"><path d="M0 0h32v32H0z"/></g></g></svg>