<?xml version="1.0" encoding="UTF-8"?>
<svg width="20px" height="11px" viewBox="0 0 20 11" version="1.1" xmlns="http://www.w3.org/2000/svg" xmlns:xlink="http://www.w3.org/1999/xlink">
    <!-- Generator: sketchtool 61.2 (101010) - https://sketch.com -->
    <title>C4BF3FB3-3C86-4C23-B95A-054A646D82AA@0,5x</title>
    <desc>Created with sketchtool.</desc>
    <g id="UI---Perfil" stroke="none" stroke-width="1" fill="none" fill-rule="evenodd" stroke-linejoin="round">
        <g id="[desktop]-perfil---agricultores-completo" transform="translate(-35.000000, -80.000000)" fill="#000000" stroke="#292F36" stroke-width="0.8">
            <g id="Group-6" transform="translate(22.000000, 62.000000)">
                <path d="M14,23.4999417 C14,23.6091118 14.0649041,23.7552815 14.1298081,23.8255999 L17.8221286,27.8519195 C17.9943038,28.0351028 18.2737456,28.0563808 18.4747693,27.8704216 C18.6541561,27.7048167 18.6586654,27.3810106 18.4927971,27.2006102 L15.5287891,23.9736335 L31.5384599,23.9736335 C31.7935762,23.9736335 32,23.7617709 32,23.4999489 C32,23.2381268 31.7935693,23.0262642 31.5384599,23.0262642 L15.5287891,23.0262642 L18.4927971,19.7992875 C18.658663,19.6188799 18.6469445,19.3033847 18.4747693,19.1294737 C18.2926779,18.9462904 17.991583,18.9620191 17.8221286,19.1479758 L14.1298081,23.1742954 C14.0216347,23.2834655 14.0018023,23.3889337 14,23.4999536 L14,23.4999417 Z" id="Fill-1"></path>
            </g>
        </g>
    </g>
</svg>