<svg xmlns="http://www.w3.org/2000/svg" xmlns:xlink="http://www.w3.org/1999/xlink" viewBox="0 0 451 257"><defs><path d="M203.17 247.74C183.78 228.34 28.64 73.21 9.25 53.81c-12.33-12.33-12.33-32.33 0-44.66 12.33-12.33 32.33-12.33 44.67 0 11.43 11.44 68.63 68.63 171.58 171.59C328.45 77.79 385.64 20.59 397.08 9.15c12.34-12.33 32.33-12.33 44.66 0 12.34 12.33 12.34 32.33 0 44.67-19.39 19.39-174.52 174.53-193.91 193.92-6.17 6.16-14.25 9.24-22.33 9.24-8.08 0-16.17-3.08-22.33-9.24z" id="a"/></defs><use xlink:href="#a" fill="#fff"/><use xlink:href="#a" fill-opacity="0" stroke="#000" stroke-opacity="0"/></svg>