<svg xmlns="http://www.w3.org/2000/svg" viewBox="0 0 16 21"><path d="M8.3064.38552c-2.0647 0-3.74868 1.73647-3.74868 3.86554v1.93277H2.6834c-.37616 0-.66994.36805-.70288.65685L.80905 19.88688c-.03661.4011.31207.79464.70287.79274h13.58896c.3908.00282.73947-.39166.70287-.79274L14.6323 6.84068c-.03294-.35674-.356-.65873-.70287-.65685h-1.87434V4.25106c0-2.12907-1.68398-3.86554-3.74868-3.86554zm0 1.44958c1.31059 0 2.34292 1.06452 2.34292 2.41596v1.93277H5.96348V4.25106c0-1.35144 1.03234-2.41596 2.34292-2.41596zM3.3277 7.6334h9.95742l1.03967 11.59662H2.28802L3.32769 7.63341z" fill="#000" stroke="#FFF" stroke-width=".25" fill-rule="evenodd"/></svg>