<svg xmlns="http://www.w3.org/2000/svg" viewBox="0 0 25 25"><g transform="translate(1 1)" stroke="#93D450" fill="none" fill-rule="evenodd"><path d="M15.1798 10.10115l-.35082.36608-.83937.87589-1.01489 1.05905-.8772.91538c-.14196.14813-.2823.299-.42687.44543a36.43589 36.43589 0 01-.00587.00613c-.09399.09808-.25193.09808-.34592 0l-.35082-.36608-.83936-.87589-1.0149-1.05905-.8772-.91538c-.14196-.14813-.28653-.29457-.42686-.44543l-.00588-.00613c-.09072-.09467-.09725-.26835 0-.36097.09791-.09365.24966-.10149.34593 0l3.08234 3.21646c.14196.14814.28784.29355.42686.44544.00164.00272.00392.00408.00588.00613h-.34592l.35081-.36609.83937-.87588 1.8921-1.97443c.14196-.14814.28228-.299.42686-.44543l.00587-.00613c.09072-.09467.25716-.10149.34592 0 .09007.10114.09726.25983 0 .36097l-.00006-.00007z" stroke-width=".58" fill="#FFF"/><circle stroke-width="1.16" cx="11.6" cy="11.6" r="11.6"/></g></svg>