<svg xmlns="http://www.w3.org/2000/svg" viewBox="0 0 16 16"><g transform="translate(-5 -4)" fill="none" fill-rule="evenodd"><path d="M0 0h25v25H0z"/><circle fill="#A9ACAF" cx="13" cy="12" r="8"/><path d="M13 11.36267L15.23067 9.132c.176-.176.46134-.176.63733 0 .176.176.176.46134 0 .63733L13.63733 12l2.23067 2.23067c.176.176.176.46134 0 .63733-.176.176-.46134.176-.63733 0L13 12.63733 10.76933 14.868c-.176.176-.46134.176-.63733 0-.176-.176-.176-.46134 0-.63733L12.36267 12 10.132 9.76933c-.176-.176-.176-.46134 0-.63733.176-.176.46134-.176.63733 0L13 11.36267z" fill="#FFF"/></g></svg>