<svg xmlns="http://www.w3.org/2000/svg" viewBox="0 0 20 20"><path d="M10.29296 1.08957c5.12404 0 9.29296 4.15741 9.29296 9.2673 0 5.10988-4.16892 9.26728-9.29296 9.26728C5.16892 19.62415 1 15.46675 1 10.35686c0-5.10988 4.16892-9.26729 9.29296-9.26729zm0 .68668c-4.7445 0-8.60438 3.84922-8.60438 8.58061 0 4.7314 3.85988 8.58062 8.60438 8.58062s8.60438-3.84922 8.60438-8.58062-3.85988-8.5806-8.60438-8.5806zm-.0001 3.0564c.19015 0 .34417.15359.34417.34322h0v6.03578l3.34114 3.3318c.13423.1347.13423.3518 0 .48567-.06712.06693-.15574.10039-.24352.10039-.08777 0-.1764-.03346-.2435-.1004h0l-3.4418-3.43228c-.03098-.03175-.0568-.0695-.074-.11155-.01721-.04205-.02668-.08667-.02668-.13129h0V5.17587c0-.18963.15402-.34323.34418-.34323z" fill="#292F36" stroke="#292F36" stroke-width=".5" fill-rule="evenodd" stroke-linejoin="round"/></svg>