<svg xmlns="http://www.w3.org/2000/svg" viewBox="0 0 16 16"><path d="M1.61026 1.00026c-.24698 0-.46966.1505-.56312.37927-.09271.22954-.038.4925.13907.66506l5.95352 5.95438-5.95352 5.9544c-.11703.11324-.18466.26905-.18621.43247-.0015.16342.0631.32074.17785.43628.11552.11477.27282.17938.43622.17788.16338-.00155.31917-.0692.43241-.18624L8 8.85937l5.95352 5.95439c.11323.11705.26901.1847.43241.18624.1634.0015.3207-.06311.43622-.17788.11475-.11553.17935-.27285.17785-.43628-.00155-.1634-.06918-.31922-.18621-.43248L8.86027 7.99897 14.8138 2.0446c.17934-.17482.2333-.44235.13603-.67341-.09804-.23106-.32754-.3785-.57833-.3709-.15731.00456-.30777.07069-.41797.18393L8 7.13861 2.0465 1.1842c-.11476-.11704-.27206-.18393-.43622-.18393l-.00002-.00002z" fill="#FFF" stroke="#FFF" stroke-width=".5" fill-rule="evenodd" stroke-linejoin="round"/></svg>