<svg xmlns="http://www.w3.org/2000/svg" viewBox="0 0 70 56"><g fill="none" fill-rule="evenodd"><ellipse fill="#959595" cx="14.6087" cy="22.55714" rx="3.6087" ry="3.55714"/><ellipse fill="#959595" cx="3.6087" cy="10.55714" rx="3.6087" ry="3.55714"/><ellipse fill="#959595" cx="36.1087" cy="23.05" rx="4.1087" ry="4.05"/><ellipse fill="#959595" cx="49.6087" cy="40.55714" rx="3.6087" ry="3.55714"/><ellipse fill="#959595" cx="63.6087" cy="50.55714" rx="3.6087" ry="3.55714"/><ellipse fill="#959595" cx="23.1087" cy="51.05" rx="4.1087" ry="4.05"/><ellipse fill="#959595" cx="65.1087" cy="10.05" rx="4.1087" ry="4.05"/><ellipse fill="#959595" cx="32.5" cy="4.00714" rx="3.6087" ry="3.55714"/><path stroke="#959595" stroke-width="2" stroke-linecap="round" stroke-linejoin="round" d="M32 3.544l-28 7M36 23L23 51M32 2l4 21M36 23l14 18M50 41l14 10M65 9L32 4M65 9L38 23M23 51l-8-28M15 23L4 11M36 23H15M50 41L23 51M65 10L50 41M65 10l-1 41"/></g></svg>