<?xml version="1.0" encoding="UTF-8"?>
<svg width="30px" height="27px" viewBox="0 0 30 27" version="1.1" xmlns="http://www.w3.org/2000/svg" xmlns:xlink="http://www.w3.org/1999/xlink">
    <title>19DF7CA2-0BA1-4788-B59F-6495D8DFA4C1</title>
    <defs>
        <filter id="filter-1">
            <feColorMatrix in="SourceGraphic" type="matrix" values="0 0 0 0 1.000000 0 0 0 0 1.000000 0 0 0 0 1.000000 0 0 0 1.000000 0"></feColorMatrix>
        </filter>
    </defs>
    <g id="UI---Mapa-cadeia-de-valor" stroke="none" stroke-width="1" fill="none" fill-rule="evenodd">
        <g id="Explorar/Mapa-Geral/conexoes" transform="translate(-161.000000, -681.000000)">
            <g id="2.-assets/icon/list" transform="translate(146.000000, 672.000000)" filter="url(#filter-1)">
                <g transform="translate(15.895522, 9.000000)">
                    <rect id="Rectangle-45-Copy-18" x="0" y="0" width="27.9761194" height="26.4"></rect>
                    <path d="M5.29850746,3 C7.63953536,3 9.53731343,4.790861 9.53731343,7 C9.53731343,8.09739697 9.06901053,9.09157808 8.31070182,9.81429112 L12.5558724,17.1682281 C12.9422998,17.0587979 13.3519332,17 13.7761194,17 C14.5787096,17 15.3292015,17.2104924 15.9689835,17.5761675 L17.3668403,16.1786387 C18.2293938,15.3160852 18.976236,14.569243 19.6073668,13.9381122 C19.2672038,13.3650037 19.0746269,12.7037242 19.0746269,12 C19.0746269,9.790861 20.9724049,8 23.3134328,8 C25.6544607,8 27.5522388,9.790861 27.5522388,12 C27.5522388,14.209139 25.6544607,16 23.3134328,16 C22.5685603,16 21.8685623,15.8186938 21.2602929,15.500296 L17.5618858,19.1988125 C17.8516803,19.7401429 18.0149254,20.3520815 18.0149254,21 C18.0149254,23.209139 16.1171473,25 13.7761194,25 C11.4350915,25 9.53731343,23.209139 9.53731343,21 C9.53731343,19.9797208 9.94211054,19.0486605 10.6084167,18.3420347 L6.30526965,10.8864957 C5.98257019,10.9606765 5.64540523,11 5.29850746,11 C2.95747957,11 1.05970149,9.209139 1.05970149,7 C1.05970149,4.790861 2.95747957,3 5.29850746,3 Z M13.7761194,19.0167891 C13.5660816,19.0167891 13.3634175,19.0473145 13.1726136,19.1040275 C13.078605,19.2621317 12.9386531,19.4116662 12.7622061,19.5337932 L12.6503167,19.6046183 C12.4874885,19.6978649 12.3183642,19.7583969 12.1552954,19.7872755 C11.8850841,20.1215581 11.72501,20.5427042 11.72501,21 C11.72501,22.0952971 12.643323,22.9832109 13.7761194,22.9832109 C14.9089158,22.9832109 15.8272288,22.0952971 15.8272288,21 C15.8272288,19.9047029 14.9089158,19.0167891 13.7761194,19.0167891 Z M23.3134328,10.0167891 C22.1806364,10.0167891 21.2623234,10.9047029 21.2623234,12 C21.2623234,12.3228075 21.3420887,12.6276016 21.4836015,12.8969608 C21.7919723,13.0381212 22.0597715,13.3277046 22.1902183,13.6593184 C22.513026,13.8642907 22.8988663,13.9832109 23.3134328,13.9832109 C24.4462293,13.9832109 25.3645422,13.0952971 25.3645422,12 C25.3645422,10.9047029 24.4462293,10.0167891 23.3134328,10.0167891 Z M5.29850746,5.01678909 C4.16571102,5.01678909 3.24739806,5.90470286 3.24739806,7 C3.24739806,8.09529714 4.16571102,8.98321091 5.29850746,8.98321091 C5.59208158,8.98321091 5.87125028,8.92357573 6.12376275,8.81615064 C6.15548833,8.7887341 6.18916411,8.76333882 6.22428587,8.73902946 L6.33617523,8.66820438 C6.41107231,8.62496253 6.48746657,8.58875368 6.56409705,8.55946456 C7.04259537,8.19729863 7.34961687,7.63331678 7.34961687,7 C7.34961687,5.90470286 6.43130391,5.01678909 5.29850746,5.01678909 Z" id="Combined-Shape" fill="#54595E" fill-rule="nonzero"></path>
                </g>
            </g>
        </g>
    </g>
</svg>