<svg xmlns="http://www.w3.org/2000/svg" viewBox="0 0 16 16"><path d="M13.65558 2.34442c-3.12557-3.12564-8.18507-3.12614-11.31115 0-3.12567 3.12563-3.12614 8.18507 0 11.31118 3.12558 3.12563 8.18508 3.1261 11.31115 0 3.12567-3.12564 3.12611-8.18508 0-11.31118zm-.33429 10.17104c-.3737-.33416-.77343-.62989-1.19477-.88474.27849-.962.44348-2.0206.48248-3.12102h2.35149c-.10632 1.48326-.67623 2.87465-1.6392 4.00576zM1.0395 8.5097H3.391c.039 1.10041.20398 2.15902.48247 3.12102-.42134.25485-.82108.55058-1.19477.88474-.96297-1.1311-1.53285-2.5225-1.6392-4.00576zm1.63923-5.02515c.3737.33416.77343.6299 1.19477.88475-.27849.962-.44348 2.0206-.48248 3.12101H1.0395c.10635-1.48323.67623-2.87462 1.63923-4.00576zm4.8116.9901c-.83125-.05945-1.63276-.2642-2.3758-.60195.43214-1.11281 1.2288-2.4475 2.3758-2.77826v3.3802zm0 1.02129v1.9944H4.41082c.03528-.93086.16717-1.82473.38653-2.6426.8444.36915 1.75254.5896 2.69299.6482zm0 3.01376v1.9944c-.94044.05861-1.84858.27906-2.69298.6482-.21936-.81787-.35125-1.71173-.38653-2.6426h3.07952zm0 3.0157v3.38018c-1.14693-.33077-1.9436-1.6653-2.3758-2.77824.74304-.33775 1.54455-.5425 2.3758-.60194zm1.01936 0c.83126.05945 1.63277.26419 2.37582.60194-.43218 1.11284-1.22881 2.44747-2.37582 2.77824V11.5254zm0-1.0213V8.5097h3.07953c-.03529.93087-.16718 1.82473-.38653 2.6426-.8444-.36914-1.75254-.58959-2.693-.6482zm0-3.01376v-1.9944c.94046-.0586 1.8486-.27905 2.693-.6482.21935.81787.35124 1.71174.38652 2.6426H8.50968zm0-3.0157V1.09448c1.147.33076 1.94367 1.66545 2.37582 2.77826-.74305.33773-1.54456.54247-2.37582.60192zm2.28939-2.8713c.65243.2857 1.26113.6731 1.80678 1.15377a7.0055 7.0055 0 01-.81996.62234c-.25414-.62924-.57878-1.24074-.98682-1.77612zm-6.58498 1.7761a7.0081 7.0081 0 01-.81995-.62233c.54564-.48067 1.15434-.86807 1.80677-1.15378-.40804.53544-.73268 1.14694-.98682 1.77612zm.00003 9.24116c.2541.6292.57881 1.24073.98682 1.77611-.65243-.2857-1.26112-.6731-1.80677-1.15378a7.00549 7.00549 0 01.81995-.62233zm7.57177 0a7.00866 7.00866 0 01.81996.6223c-.54565.48067-1.15435.86807-1.80678 1.15378.408-.53531.73268-1.14685.98682-1.77608zm.82314-5.13026c-.039-1.10041-.20399-2.15905-.48248-3.12101.42134-.25486.82105-.55059 1.19477-.88475.96297 1.1311 1.53285 2.5225 1.6392 4.00576h-2.35149z" fill="#292F36" fill-rule="nonzero"/></svg>