<svg xmlns="http://www.w3.org/2000/svg" viewBox="0 0 24 23"><g stroke="#292F36" stroke-width="1.6" fill="none" fill-rule="evenodd"><path d="M21.34205 2.49397c1.24968 1.24967 1.24968 3.2758 0 4.52548l-3.39411 3.39411c-1.24968 1.24968-3.27581 1.24968-4.52549 0-1.24968-1.24968-1.24968-3.2758 0-4.52548l3.39411-3.39411c1.24968-1.24968 3.27581-1.24968 4.52549 0zM10.5806 13.25536c1.24966 1.24966 1.24966 3.27576 0 4.52543l-3.39417 3.39416c-1.24966 1.24967-3.27576 1.24967-4.52542 0-1.24967-1.24966-1.24967-3.27576 0-4.52542l3.39416-3.39417c1.24967-1.24966 3.27577-1.24966 4.52543 0z"/><path stroke-linecap="round" d="M17 7l-9 9"/></g></svg>