<?xml version="1.0" encoding="UTF-8"?>
<svg width="36px" height="36px" viewBox="0 0 36 36" version="1.1" xmlns="http://www.w3.org/2000/svg" xmlns:xlink="http://www.w3.org/1999/xlink">
    <title>A69C19B9-9AA3-40B1-BCAB-F9E791C6FBDD</title>
    <defs>
        <filter id="filter-1">
            <feColorMatrix in="SourceGraphic" type="matrix" values="0 0 0 0 1.000000 0 0 0 0 1.000000 0 0 0 0 1.000000 0 0 0 1.000000 0"></feColorMatrix>
        </filter>
    </defs>
    <g id="UI---Corona-Virus" stroke="none" stroke-width="1" fill="none" fill-rule="evenodd">
        <g id="01.Home_Desktop-corona" transform="translate(-133.000000, -362.000000)">
            <g id="btn/active-copy-2" transform="translate(123.000000, 353.000000)">
                <g id="Group">
                    <g id="Group-2" transform="translate(10.000000, 1.000000)">
                        <g filter="url(#filter-1)" id="2.-assets/icon/corona-virus">
                            <g transform="translate(0.000000, 8.000000)">
                                <path d="M19.7167098,2.57142857 C21.3295474,2.57142857 21.3278599,5.00994063 19.7167098,5.00994063 L19.7167098,5.00994063 L19.2194368,5.00994063 L19.2194368,7.95000473 C21.0993228,8.17667347 22.8224512,8.92008184 24.2415265,10.0344411 L24.2415265,10.0344411 L26.3234919,7.95247573 L25.9717666,7.60075045 C24.8310099,6.46017457 26.5569709,4.73740778 27.6960401,5.87647695 C28.4753597,6.65579657 29.0011838,7.18162072 29.3477868,7.52822372 L29.5115239,7.69196081 C29.5171311,7.69756798 29.5273097,7.70774661 29.542417,7.72285384 C29.6958598,7.87629671 29.798135,7.97857186 29.8618385,8.04227536 C29.8687091,8.04914594 29.8758207,8.05625758 29.8829323,8.06336923 L29.8829323,8.06336923 L29.8905261,8.07096303 C29.8994458,8.07988272 29.9086066,8.08904349 29.9178879,8.09832479 L29.9094286,8.08942857 C29.914302,8.09473884 29.9161703,8.09660715 29.9178879,8.09832479 L29.919485,8.0999219 L29.9301224,8.11055924 L29.9301224,8.11055924 L29.9500711,8.13050802 C30.0023839,8.18282083 30.0600004,8.24043723 30.1237038,8.30414073 C31.2620498,9.44224562 29.5369928,11.1659767 28.3994304,10.0284142 L28.3994304,10.0284142 L28.0477051,9.67668895 L25.9657398,11.7586543 C27.0800387,13.1777296 27.8234471,14.9007977 28.0501761,16.780744 L28.0501761,16.780744 L30.9902402,16.780744 L30.9902402,16.283471 C30.9902402,14.6706937 33.4285714,14.6723209 33.4285714,16.2835312 L33.4285714,16.2835312 L33.4285714,19.7166496 C33.4285714,21.3294871 30.9900594,21.3277996 30.9900594,19.7166496 L30.9900594,19.7166496 L30.9900594,19.2193766 L28.0499953,19.2193766 C27.8233265,21.0993228 27.0799182,22.822391 25.9655589,24.2414663 L25.9655589,24.2414663 L28.0475243,26.3234316 L28.3992495,25.9717063 C29.5397652,24.831251 31.2628936,26.5568504 30.123523,27.6959798 C29.2136539,28.605849 28.6493024,29.1702005 28.3123428,29.5071601 C28.2846797,29.5348232 28.2585233,29.5609796 28.2338736,29.5856293 C28.1499802,29.6695226 28.0825401,29.7369627 28.0302876,29.7892153 C28.011725,29.8077779 27.9954525,29.8240503 27.9804458,29.8390571 L27.8919814,29.9275214 C27.8850788,29.934424 27.8798656,29.9396372 27.8762119,29.943291 C27.8190475,30.0004554 27.7605873,30.0589155 27.6959195,30.1235833 C26.5600446,31.2594583 24.8322755,29.5384995 25.971646,28.3993098 L25.971646,28.3993098 L26.3233713,28.0475845 L24.241406,25.9656192 C22.8223307,27.0799182 21.0992626,27.8233265 19.2193163,28.0500555 L19.2193163,28.0500555 L19.2193163,30.9901196 L19.7165893,30.9901196 C21.3294269,30.9901196 21.3277394,33.4286317 19.7165893,33.4286317 L19.7165893,33.4286317 L16.283471,33.4286317 C14.6706334,33.4286317 14.6723209,30.9901196 16.283471,30.9901196 L16.283471,30.9901196 L16.780744,30.9901196 L16.780744,28.0500555 C14.9007977,27.8233868 13.1777296,27.0799784 11.7586543,25.9656192 L11.7586543,25.9656192 L9.67668895,28.0475845 L10.0284142,28.3993098 C11.1693517,29.5400665 9.44320991,31.2626525 8.30414073,30.1235833 C7.39493451,29.2143771 6.8307638,28.6502064 6.4936837,28.3131263 L6.47275335,28.2921959 C6.42701813,28.2464607 6.30211115,28.1215537 6.05010967,27.8695522 C5.99779686,27.8172394 5.94018045,27.759623 5.87647695,27.6959195 C4.73566,26.5553437 6.46162101,24.8326371 7.60075045,25.971646 L7.60075045,25.971646 L7.95247573,26.3233713 L10.0344411,24.241406 C8.92014211,22.8223307 8.17673374,21.0992626 7.95000473,19.2193163 L7.95000473,19.2193163 L5.00994063,19.2193163 L5.00994063,19.7165893 C5.00994063,21.3294269 2.57142857,21.3277394 2.57142857,19.7165893 L2.57142857,19.7165893 L2.57142857,16.283471 C2.57142857,14.6706334 5.00994063,14.6723209 5.00994063,16.283471 L5.00994063,16.283471 L5.00994063,16.780744 L7.950065,16.780744 C8.17673374,14.900858 8.92014211,13.1777296 10.0345013,11.7586543 L10.0345013,11.7586543 L7.95253599,9.67668895 L7.60081072,10.0284142 C6.46493576,11.1644097 4.73716671,9.44333044 5.87653722,8.30414073 C7.12493293,7.05574503 7.72417975,6.45649821 7.97537765,6.20530031 C7.99686326,6.18381469 8.01972752,6.16095044 8.04404574,6.13663222 L8.304201,5.87647695 C9.44471661,4.73602161 11.167845,6.46162101 10.0284745,7.60075045 L10.0284745,7.60075045 L9.67674922,7.95247573 L11.7587748,10.0344411 C13.1778501,8.92014211 14.9009182,8.17673374 16.7808645,7.95000473 L16.7808645,7.95000473 L16.7808645,5.00994063 L16.2835915,5.00994063 C14.6707539,5.00994063 14.6724414,2.57142857 16.2835915,2.57142857 L16.2835915,2.57142857 Z M20.1955408,18.5377431 C19.2799461,18.5377431 18.5377431,19.2799461 18.5377431,20.1955408 C18.5377431,21.1111354 19.2799461,21.8533384 20.1955408,21.8533384 C21.1111354,21.8533384 21.8533384,21.1111354 21.8533384,20.1955408 C21.8533384,19.2799461 21.1111354,18.5377431 20.1955408,18.5377431 Z M15.80464,13.4043983 C14.3199327,13.4043983 13.116256,14.608075 13.116256,16.0927824 C13.116256,17.5774897 14.3198724,18.7811664 15.80464,18.7811664 C17.2894077,18.7811664 18.4930241,17.5774897 18.4930241,16.0927824 C18.4930241,14.608075 17.2893474,13.4043983 15.80464,13.4043983 Z" id="Combined-Shape" fill="#FFFFFF" fill-rule="nonzero"></path>
                            </g>
                        </g>
                    </g>
                </g>
            </g>
        </g>
    </g>
</svg>