<svg xmlns="http://www.w3.org/2000/svg" viewBox="0 0 36 36"><defs><filter id="a"><feColorMatrix in="SourceGraphic" values="0 0 0 0 0.329412 0 0 0 0 0.349020 0 0 0 0 0.368627 0 0 0 1.000000 0"/></filter></defs><g filter="url(#a)" transform="translate(0 -8)" fill="none" fill-rule="evenodd"><path d="M19.71671 10.57143c1.61284 0 1.61115 2.43851 0 2.43851h-.49727V15.95c1.87988.22667 3.60301.97008 5.02209 2.08444l2.08196-2.08196-.35172-.35173c-1.14076-1.14058.5852-2.86334 1.72427-1.72427l1.65175 1.65174.16373.16374.0309.0309.31942.31942.0211.02109.00759.0076.02736.02735-.00846-.0089c.00487.00532.00674.00719.00846.0089l.0016.0016.01063.01064.01995.01995.17363.17363c1.13835 1.1381-.5867 2.86184-1.72427 1.72427l-.35172-.35172-2.08197 2.08196c1.1143 1.41908 1.8577 3.14215 2.08444 5.0221h2.94006v-.49728c0-1.61278 2.43833-1.61115 2.43833.00006v3.43312c0 1.61284-2.43851 1.61115-2.43851 0v-.49727H28.05c-.22667 1.87994-.97008 3.60301-2.08444 5.02209l2.08196 2.08196.35173-.35172c1.14052-1.14046 2.86364.58514 1.72427 1.72427l-1.81118 1.81118-.07847.07847-.20358.20359-.04984.04984-.08847.08846-.01577.01577-.1803.1803c-1.13587 1.13587-2.86363-.58509-1.72426-1.72428l.35172-.35173-2.08196-2.08196c-1.41908 1.1143-3.14215 1.8577-5.0221 2.08444v2.94006h.49728c1.61284 0 1.61115 2.43851 0 2.43851h-3.43312c-1.61284 0-1.61115-2.43851 0-2.43851h.49727v-2.94006c-1.87994-.22667-3.60301-.97008-5.02209-2.08444L9.6767 36.04758l.35172.35173c1.14094 1.14076-.5852 2.86334-1.72427 1.72427l-1.81046-1.81045-.02093-.02093-.42264-.42265-.17363-.17363c-1.14082-1.14058.58514-2.86328 1.72427-1.72427l.35173.35172 2.08196-2.08196c-1.1143-1.41908-1.8577-3.14215-2.08444-5.0221H5.00994v.49728c0 1.61284-2.43851 1.61115-2.43851 0v-3.43312c0-1.61284 2.43851-1.61115 2.43851 0v.49727h2.94013c.22666-1.87988.97007-3.60301 2.08443-5.02209L7.95254 17.6767l-.35173.35172c-1.13587 1.136-2.86364-.58508-1.72427-1.72427l2.09884-2.09884.06867-.06867.26015-.26015c1.14052-1.14046 2.86364.58514 1.72427 1.72427l-.35172.35173 2.08202 2.08196c1.41908-1.1143 3.14215-1.8577 5.0221-2.08444v-2.94006h-.49728c-1.61284 0-1.61115-2.43851 0-2.43851zm.47883 15.96631c-.9156 0-1.6578.7422-1.6578 1.6578s.7422 1.6578 1.6578 1.6578 1.6578-.7422 1.6578-1.6578-.7422-1.6578-1.6578-1.6578zm-4.3909-5.13334c-1.4847 0-2.68838 1.20368-2.68838 2.68838 0 1.48471 1.20361 2.68839 2.68838 2.68839s2.68838-1.20368 2.68838-2.68839c0-1.4847-1.20367-2.68838-2.68838-2.68838z" fill="#FFF" fill-rule="nonzero"/></g></svg>