<svg xmlns="http://www.w3.org/2000/svg" viewBox="0 0 78 78"><g fill="none" fill-rule="evenodd"><circle fill="#292F36" cx="39" cy="39" r="39"/><path d="M41.67044 15c2.50886 0 2.50623 3.79324 0 3.79324h-.77354v4.57343c2.92427.3526 5.6047 1.50901 7.81214 3.24246l3.23861-3.23861-.54712-.54713c-1.77451-1.77423.91031-4.45409 2.6822-2.6822l2.61624 2.61623.20784.20785.04806.04806.49688.49688.03281.0328.01181.01182.02107.02107.0215.0215-.01772-.01772.0202.0202.01655.01655.03103.03103.08417.08417.18592.18592c1.77077 1.77039-.91266 4.45175-2.6822 2.6822l-.54713-.54712-3.2386 3.23861c1.73334 2.20745 2.88976 4.88778 3.24245 7.81214h4.57343v-.77354c0-2.50876 3.79296-2.50623 3.79296.0001v5.3404c0 2.50886-3.79324 2.50624-3.79324 0v-.77353h-4.57343c-.3526 2.92436-1.50901 5.60469-3.24246 7.81214l3.23861 3.23861.54713-.54713c1.77414-1.77404 4.45456.91023 2.6822 2.6822l-2.81739 2.8174-.12206.12206-.3167.31669-.07752.07753-.09732.09731a8079.4352 8079.4352 0 00-.07143.07144l-.27385.27385c-1.76692 1.76691-4.45456-.91013-2.6822-2.6822l.54713-.54713-3.23862-3.23862c-2.20745 1.73336-4.88777 2.88977-7.81214 3.24246v4.57343h.77354c2.50886 0 2.50623 3.79324 0 3.79324h-5.3404c-2.50886 0-2.50624-3.79324 0-3.79324h.77353v-4.57343c-2.92436-.3526-5.60469-1.509-7.81214-3.24246l-3.23861 3.23862.54713.54712c1.77479 1.77451-.91032 4.4541-2.6822 2.6822-1.24794-1.24792-2.078-2.07799-2.61624-2.61623l-.20513-.20512-.6849-.68491-.2701-.2701c-1.7746-1.77423.91022-4.454 2.6822-2.6822l.54713.54713 3.23861-3.23862c-1.73335-2.20745-2.88977-4.88777-3.24246-7.81214h-4.57343v.77354c0 2.50886-3.79324 2.50623-3.79324 0v-5.3404c0-2.50886 3.79324-2.50624 3.79324 0v.77353h4.57353c.3526-2.92427 1.509-5.60469 3.24245-7.81214l-3.2386-3.23861-.54714.54713c-1.76691 1.7671-4.45455-.91013-2.6822-2.6822l3.0338-3.03381.74257-.74256c1.77413-1.77405 4.45455.91022 2.6822 2.6822l-.54713.54713 3.2387 3.23861c2.20746-1.73335 4.88779-2.88977 7.81215-3.24246v-4.57343h-.77354c-2.50886 0-2.50623-3.79324 0-3.79324zm.74485 24.83649c-1.42426 0-2.5788 1.15454-2.5788 2.5788 0 1.42425 1.15454 2.5788 2.5788 2.5788 1.42425 0 2.5788-1.15455 2.5788-2.5788 0-1.42426-1.15455-2.5788-2.5788-2.5788zm-6.8303-7.9852c-2.30954 0-4.18193 1.87238-4.18193 4.18193 0 2.30954 1.8723 4.18193 4.18194 4.18193 2.30963 0 4.18193-1.87239 4.18193-4.18193 0-2.30955-1.87239-4.18193-4.18193-4.18193z" fill="#FFF" fill-rule="nonzero"/></g></svg>