<svg xmlns="http://www.w3.org/2000/svg" viewBox="0 0 72 53"><path d="M35.99961 1C41.3711 1 46.75472 3.01635 50.8505 7.08523c3.17792 3.15728 5.07072 7.10847 5.78472 11.20454C64.76844 19.6028 71 26.56337 71 35c0 9.36932-7.68056 17-17.11111 17H15.77778C7.61733 52 1 45.4258 1 37.31818 1 29.42478 7.286 23.0436 15.14622 22.709c-.22786-5.62337 1.71656-11.34055 6.02778-15.62377C25.26643 3.01937 30.62867 1 36 1h-.00039zm.00037 3.0008c-4.59754 0-9.17073 1.72145-12.68292 5.21278-4.06096 4.03683-5.7561 9.5166-5.12195 14.76523.05487.44247-.08232.89099-.3811 1.22437s-.72866.5243-1.17986.52128h-.92683C9.19508 25.72446 4 30.88868 4 37.36223 4 43.83578 9.19508 49 15.70732 49h38.2439C61.72862 49 68 42.76588 68 35.03468c0-7.30092-5.59454-13.27094-12.7563-13.91723-.73475-.06364-1.3262-.63038-1.41463-1.35774-.45121-3.85505-2.14025-7.5827-5.12195-10.54692C45.19797 5.72449 40.59707 4 36 4l-.00002.0008zM36.00456 20c.85019 0 1.5381.6858 1.5381 1.53333v16.48334l5.88802-5.34275c.59782-.54206 1.64323-.50313 2.18703.09583.5438.59896.5107 1.63216-.12016 2.18025l-8.45957 7.66667c-.2193.20065-.62185.37434-1.03346.38333-.40856 0-.69394-.07487-1.03345-.38333L26.5115 34.95c-.60082-.53906-.71197-1.59022-.12016-2.18025.57078-.569 1.58917-.63789 2.18703-.09583l5.88801 5.34275V21.53333c0-.84755.68794-1.53333 1.5381-1.53333h.00008z" fill="#959595" stroke="#959595" stroke-width=".25" fill-rule="evenodd"/></svg>