<svg viewBox="0 0 55 58" xmlns="http://www.w3.org/2000/svg" xmlns:xlink="http://www.w3.org/1999/xlink"><defs><filter x="-42.9%" y="-36.8%" width="185.7%" height="180%" filterUnits="objectBoundingBox" id="a"><feMorphology radius="1" operator="dilate" in="SourceAlpha" result="shadowSpreadOuter1"/><feOffset dy="1" in="shadowSpreadOuter1" result="shadowOffsetOuter1"/><feGaussianBlur stdDeviation="4.5" in="shadowOffsetOuter1" result="shadowBlurOuter1"/><feComposite in="shadowBlurOuter1" in2="SourceAlpha" operator="out" result="shadowBlurOuter1"/><feColorMatrix values="0 0 0 0 0 0 0 0 0 0 0 0 0 0 0 0 0 0 0.15 0" in="shadowBlurOuter1"/></filter><path d="M17.5 0C27.16498 0 35 7.71894 35 17.24074c0 8.14573-5.73406 14.97205-13.4425 16.77496L17.5 38l-4.0575-3.9843C5.73407 32.2128 0 25.38647 0 17.24074 0 7.71894 7.83502 0 17.5 0z" id="b"/></defs><g fill="none" fill-rule="evenodd"><g transform="translate(10 9)"><use fill="#000" filter="url(#a)" xlink:href="#b"/><use stroke="#FFF" stroke-width="2" fill="#3F993F" xlink:href="#b"/></g><g stroke="#FFF" stroke-linejoin="round" stroke-width="1.207"><path d="M27.82353 16.05803c-2.49536 0-3.21044 1.3986-3.40953 3.53176a34.48214 34.48214 0 012.2791-.15082c1.51403-.0499 3.0291.00038 4.53997.15082-.20015-2.13594-.92809-3.53176-3.40954-3.53176zM25.54229 27.66697l-.19516.04816a6.71037 6.71037 0 00-.71825.23334l-.28476.11763c-.74426.31327-1.382.84807-1.8294 1.5312-.11667.18374-.21713.3764-.30233.57721-.33495.78945-.4166 1.63665-.34205 2.41266l.01958.17606 11.86821.00067.0094-.07225c.02178-.19093.03435-.39539.03464-.60954l-.00393-.21732c-.03061-.81717-.23565-1.59337-.65934-2.25856-.41977-.63795-1.00062-1.14224-1.67675-1.45953l-.17098-.07542-.05737-.0236c-.30665-.13308-.62375-.24284-.94699-.32842l-.1987-.04903c-1.20307-.40105-3.31503-.37908-4.54582-.00326z"/><path d="M24.57014 21.39455c-2.09335-.17894-3.5121-.52512-3.5121-.9229 0-.58115 3.029-1.05225 6.76552-1.05225 3.73642 0 6.76543.4711 6.76543 1.05224 0 .3904-1.36694.7312-3.39696.91283"/><path d="M31.05215 21.35702c0 2.41592-1.44542 4.37446-3.22858 4.37446-1.78315 0-3.22867-1.95854-3.22867-4.37446 0-.67095 6.45725-.77534 6.45725 0z"/></g></g></svg>