<svg xmlns="http://www.w3.org/2000/svg" xmlns:xlink="http://www.w3.org/1999/xlink" viewBox="0 0 25 25"><defs><path d="M12 12.0086l3.46993-3.46994c.27377-.27377.71764-.27377.9914 0 .27378.27377.27378.71764 0 .99141L12.99142 13l3.46993 3.46993c.27377.27377.27377.71764 0 .9914-.27377.27378-.71764.27378-.9914 0L12 13.99142l-3.46993 3.46993c-.27377.27377-.71764.27377-.9914 0-.27378-.27377-.27378-.71764 0-.9914L11.00858 13 7.53866 9.53007c-.27377-.27377-.27377-.71764 0-.9914.27377-.27378.71764-.27378.99141 0L12 12.00858z" id="a"/></defs><g fill="none" fill-rule="evenodd"><path d="M0 0h25v25H0z"/><mask id="b" fill="#fff"><use xlink:href="#a"/></mask><use fill="#000" xlink:href="#a"/><g mask="url(#b)" fill="#F52424"><path d="M4 5h16v16H4z"/></g></g></svg>