<svg xmlns="http://www.w3.org/2000/svg" viewBox="0 0 30 31"><g fill="none" fill-rule="evenodd"><path d="M15 .98c-4.00959 0-7.63959 1.6252-10.26719 4.25281C2.10521 7.86041.48 11.49041.48 15.5c0 4.00959 1.6252 7.63959 4.25281 10.2672C7.36041 28.3948 10.99041 30.02 15 30.02c4.00959 0 7.63959-1.6252 10.2672-4.2528C27.8948 23.13958 29.52 19.50958 29.52 15.5c0-4.00959-1.6252-7.63959-4.2528-10.26719C22.63958 2.60521 19.00958.98 15 .98z" stroke="#3F993F" stroke-width=".96"/><path d="M7.5 8h15v15h-15z"/><path d="M21.33738 10.50662c.28858.25984.31188.70442.05204.993l-8.38564 9.3132c-.09519.10571-.21518.17583-.3432.20947-.2532.07639-.53881.00663-.72726-.20266L8.621 17.14093c-.25984-.28859-.23654-.73317.05204-.99301.28858-.25984.73317-.23654.993.05204l2.79835 3.10905 7.87998-8.75035c.25984-.28859.70442-.31189.993-.05204z" fill="#3F993F"/></g></svg>