<svg xmlns="http://www.w3.org/2000/svg" viewBox="0 0 24 18"><path d="M11.99988 1c1.68818 0 3.38018.63258 4.66742 1.9091.99878.99051 1.59366 2.2301 1.81806 3.51514C21.0415 6.83617 23 9.01988 23 11.66667 23 14.60607 20.58611 17 17.62222 17H5.64444C3.07974 17 1 14.9375 1 12.39394c0-2.47636 1.9756-4.4783 4.44596-4.58327-.07162-1.7642.53948-3.55782 1.89444-4.90158C8.6266 1.63353 10.31187 1 12 1h-.00012zm0 .9697c-1.43993 0-2.87222.53789-3.97222 1.6288-1.27187 1.26135-1.80278 2.97357-1.60417 4.61357.01719.13826-.02578.2784-.11936.38257-.09357.10417-.2282.16383-.36952.16288h-.29028c-2.0396 0-3.66667 1.61363-3.66667 3.63637 0 2.02274 1.62707 3.63636 3.66667 3.63636H17.6221c2.43584 0 4.4-1.94793 4.4-4.36364 0-2.28126-1.75218-4.14666-3.9952-4.3486-.23013-.01989-.41537-.19697-.44306-.42425-.14132-1.20455-.67032-2.3693-1.60417-3.29551-1.09904-1.08996-2.54002-1.6288-3.9798-1.6288v.00025zm0 4.84848c.27023 0 .48889.21686.48889.48485v5.21212l1.87151-1.6894c.19002-.1714.5223-.1591.69515.0303.17285.1894.16233.5161-.0382.6894l-2.68888 2.42425c-.0697.06344-.19766.11837-.32848.1212-.12987 0-.22058-.02367-.32849-.1212L8.9825 11.54545c-.19097-.17045-.2263-.50283-.0382-.6894.18143-.17993.50513-.2017.69516-.0303l1.87151 1.6894V7.30303c0-.268.21867-.48485.4889-.48485h.00002z" fill="#3F993F" stroke="#3F993F" stroke-width=".25" fill-rule="evenodd"/></svg>