<svg xmlns="http://www.w3.org/2000/svg" viewBox="0 0 17 11"><path d="M1.65532 11h13.6886c.91342 0 1.6553-.72054 1.6553-1.60596L17 1.60671c0-.88619-.74268-1.60596-1.6553-1.60596L1.6553 0C.7419 0 0 .72054 0 1.60596v7.78656C-.00077 10.27946.7419 11 1.6553 11h.00002zm0-9.94974h13.6886c.2305 0 .43536.13477.52538.33354L8.52018 5.75143l-7.3809-4.38729c.09468-.18973.2918-.31396.51608-.31396l-.00004.00008zm13.6878 8.89947H1.65533c-.31584 0-.5735-.24997-.5735-.5564V2.5599l7.15661 4.25314c.17073.10089.39424.10089.56418 0l7.11469-4.22847v6.80857c0 .3072-.25688.5564-.57427.5564l.0001.00019z" fill="#000" fill-rule="evenodd"/></svg>