<svg xmlns="http://www.w3.org/2000/svg" viewBox="0 0 48 51"><g fill="none" fill-rule="evenodd"><path d="M21 1.5c-5.08833 0-9.96837 1.9934-13.56113 5.5434-3.47888 3.44622-5.57614 8.01768-5.9 12.86947-.17126 2.63787.22311 5.28444 1.15745 7.76518.92481 2.49668 2.43128 4.83906 4.46878 6.97682L21 49.17057l13.8349-14.5157c2.0375-2.13776 3.54397-4.48014 4.4659-6.96914.93722-2.48842 1.33159-5.13499 1.16015-7.77558-.32368-4.84907-2.42094-9.42053-5.90117-12.86808C30.96837 3.4934 26.08833 1.5 21 1.5z" stroke="#959595" stroke-width="3"/><circle fill="#F9F9F9" cx="37" cy="37" r="11"/><rect fill="#959595" x="28" y="36" width="18" height="3" rx="1.5"/><rect fill="#959595" transform="rotate(90 37 37)" x="28" y="35.5" width="18" height="3" rx="1.5"/><path d="M20.5 11.5c-2.20561 0-4.20522.89784-5.65368 2.3463C13.39783 15.29479 12.5 17.29443 12.5 19.5s.89783 4.20521 2.34632 5.6537C16.29478 26.60216 18.2944 27.5 20.5 27.5c2.20568 0 4.20536-.89774 5.65383-2.34622C27.60225 23.70538 28.5 21.70576 28.5 19.5s-.89775-4.20537-2.34617-5.65378C24.70536 12.39774 22.70568 11.5 20.5 11.5z" stroke="#959595" stroke-width="3"/></g></svg>