<svg xmlns="http://www.w3.org/2000/svg" xmlns:xlink="http://www.w3.org/1999/xlink" viewBox="0 0 32 32"><defs><path d="M12.3383.25433a1.02273 1.02273 0 01.01472.01318c.42769.39051.46412 1.0515.08195 1.48666L5.3929 9.77547a1.01013 1.01013 0 01-.18676.22883c-.10622.09707-.22676.16893-.35419.2158-.31552.12533-.683.08919-.97187-.11684-.061-.04043-.11837-.08804-.17134-.14242L.28657 6.44786a1.01013 1.01013 0 01-.02207-.0234c-.37636-.41179-.34763-1.05071.06417-1.42707.42903-.3921 1.09184-.37286 1.4974.04346L4.428 7.711 10.8948.3479c.37278-.42445 1.01905-.46634 1.4435-.09357z" id="a"/></defs><g fill="none" fill-rule="evenodd"><circle fill="#27ADB6" cx="16" cy="16" r="16"/><g transform="translate(10 11)"><mask id="b" fill="#fff"><use xlink:href="#a"/></mask><use fill="#FFF" xlink:href="#a"/><g mask="url(#b)" fill="#FFF"><path d="M-10-11h32v32h-32z"/></g></g></g></svg>