<svg xmlns="http://www.w3.org/2000/svg" viewBox="0 0 17 18"><g fill="none" fill-rule="evenodd"><path d="M21.4 22.4H-5V-4h26.4z"/><path d="M3 18c-.55228 0-1-.44772-1-1l-.0009-8.17102C.83438 8.41688 0 7.30588 0 6c0-1.30588.83438-2.41689 1.9991-2.82898L2 1c0-.55228.44772-1 1-1s1 .44772 1 1l-.00009 2.17067C5.16515 3.5825 6 4.69375 6 6c0 1.30625-.83485 2.41751-2.00009 2.82933L4 17c0 .55228-.44772 1-1 1zm11 0c-.55228 0-1-.44772-1-1l-.0009-3.17102C11.83438 13.41688 11 12.30588 11 11c0-1.30588.83438-2.41689 1.9991-2.82898L13 1c0-.55228.44772-1 1-1s1 .44772 1 1l-.00009 7.17067C16.16515 8.5825 17 9.69375 17 11c0 1.30625-.83485 2.41751-2.00009 2.82933L15 17c0 .55228-.44772 1-1 1z" fill="#FFF"/></g></svg>