<svg xmlns="http://www.w3.org/2000/svg" viewBox="0 0 512 512"><path d="M8.82813 282.48438h45.90234c12.0625 91.0664 83.71875 162.72265 174.78516 174.78515v45.90235c.01562 4.87109 3.96093 8.8125 8.82812 8.82812h35.3125c4.86719-.01563 8.8125-3.95703 8.82813-8.82813v-45.90234c91.0664-12.0625 162.72265-83.71875 174.78515-174.78515h45.90235c4.87109-.01563 8.8125-3.96094 8.82812-8.82813v-35.3125c-.01563-4.86719-3.95703-8.8125-8.82813-8.82813h-45.90234c-12.0625-91.0664-83.71875-162.72265-174.78515-174.78515V8.82813c-.01563-4.8711-3.96094-8.8125-8.82813-8.82813h-35.3125c-4.86719.01563-8.8125 3.95703-8.82813 8.82813v45.90234c-91.0664 12.0625-162.72265 83.71875-174.78515 174.78516H8.82813c-4.8711.01562-8.8125 3.96093-8.82813 8.82812v35.3125c.01563 4.86719 3.95703 8.8125 8.82813 8.82813zM256 105.92968c82.8789 0 150.07031 67.19141 150.07031 150.07032S338.87891 406.07031 256 406.07031 105.92969 338.87891 105.92969 256C106.04688 173.16797 173.16797 106.04687 256 105.92969zm0 0" data-original="#000000" class="active-path" data-old_color="#000000" fill="#4A4A4A"/><path d="M326.6211 256c0 39.0039-31.6172 70.6211-70.6211 70.6211S185.3789 295.0039 185.3789 256 216.9961 185.3789 256 185.3789 326.6211 216.9961 326.6211 256zm0 0" data-original="#000000" class="active-path" data-old_color="#000000" fill="#4A4A4A"/></svg>