<?xml version="1.0" encoding="UTF-8"?>
<svg width="32px" height="32px" viewBox="0 0 32 32" version="1.1" xmlns="http://www.w3.org/2000/svg" xmlns:xlink="http://www.w3.org/1999/xlink">
    <!-- Generator: Sketch 64 (93537) - https://sketch.com -->
    <title>hover-turismo</title>
    <desc>Created with Sketch.</desc>
    <defs>
        <path d="M16.444049,5.00002138 C16.6896229,5.00002138 16.8892665,5.19966027 16.8892665,5.44523626 L16.888368,6.78202138 L20.453549,6.78257024 C20.5529504,6.78257024 20.6498477,6.81598274 20.7283762,6.87779533 L23.8465911,9.32776021 C23.9551811,9.41212651 24.0178298,9.5407641 24.0178298,9.67775214 C24.0178298,9.81474018 23.9551811,9.94338419 23.847425,10.0277441 L20.7292101,12.4777089 C20.6506902,12.5403577 20.5537951,12.5737851 20.454383,12.5737851 L16.889368,12.5730214 L16.889368,13.4640214 L21.3448149,13.4642512 C21.5903887,13.4642512 21.7900324,13.6638901 21.7900324,13.9094661 L21.7900324,18.8102512 C21.7908659,19.0566591 21.5912249,19.2563001 21.3448149,19.2563001 L16.888368,19.2560214 L16.8892665,25.9379302 C16.8901,26.1843381 16.690459,26.384 16.444883,26.384 L14.6631702,26.384 C14.4175964,26.384 14.2179554,26.1843611 14.2179554,25.9387851 L14.216368,19.2560214 L10.6528149,19.2563001 C10.5534135,19.2563001 10.4565162,19.2228726 10.3779877,19.16106 L7.25977283,16.7110951 C7.15201672,16.6258927 7.08936801,16.4972551 7.08936801,16.3602692 C7.08936801,16.2232833 7.15201672,16.0946372 7.25977283,16.0102773 L10.3779877,13.5603124 C10.4565076,13.4976637 10.5534028,13.4642512 10.6528149,13.4642512 L14.217368,13.4640214 L14.217368,12.5730214 L9.76238512,12.5737851 C9.51681126,12.5737851 9.31717024,12.3741462 9.31717024,12.1285702 L9.31633413,7.22778512 C9.31633413,6.98221126 9.51597301,6.78257024 9.76154901,6.78257024 L14.217368,6.78202138 L14.2171192,5.44523626 C14.2171192,5.19966241 14.4167581,5.00002138 14.6623341,5.00002138 L16.444049,5.00002138 Z M15.9988341,19.2562851 L15.107549,19.2562851 L15.1083851,25.4927149 L15.9996702,25.4927149 L15.9988341,19.2562851 Z M20.8996,14.3555 L10.8074212,14.3555 L8.25631,16.36025 L10.8074212,18.365 L20.8996,18.365 L20.8996,14.3555 Z M15.999368,12.5730214 L15.108368,12.5730214 L15.1083851,13.4642149 L15.9996702,13.4642149 L15.999368,12.5730214 Z M20.2997788,7.673 L10.2076,7.673 L10.2076,11.6825 L20.2997788,11.6825 L22.85089,9.67775 L20.2997788,7.673 Z M15.9988341,5.89126374 L15.107549,5.89126374 L15.1083851,6.78171488 L15.9996702,6.78171488 L15.9988341,5.89126374 Z" id="path-1-tourism-hover"></path>
    </defs>
    <g id="UI---Mapa-mvp2" stroke="none" stroke-width="1" fill="none" fill-rule="evenodd">
        <g id="[desktop]-Explorar-Geral-hovercategorias" transform="translate(-44.000000, -302.000000)">
            <g id="header-desktop/categorias" transform="translate(0.000000, 50.000000)">
                <g id="header-item/turismo/unactive" transform="translate(34.000000, 252.000000)">
                    <g id="hover-turismo" transform="translate(10.000000, 0.000000)">
                        <circle id="Oval" fill="#FFFFFF" cx="16" cy="16" r="16"></circle>
                        <g id="2.-assets/icons/turismo">
                            <mask id="mask-2-tourism-hover" fill="white">
                                <use xlink:href="#path-1-tourism-hover"></use>
                            </mask>
                            <use id="Combined-Shape" fill="#FFFFFF" fill-rule="evenodd" xlink:href="#path-1-tourism-hover"></use>
                            <g id="1.-colors/turismo" mask="url(#mask-2-tourism-hover)" fill="#FFA129" fill-rule="evenodd">
                                <rect id="Rectangle-Copy-2" x="0" y="0" width="32" height="32"></rect>
                            </g>
                        </g>
                    </g>
                </g>
            </g>
        </g>
    </g>
</svg>