<?xml version="1.0" encoding="UTF-8"?>
<svg width="32px" height="32px" viewBox="0 0 32 32" version="1.1" xmlns="http://www.w3.org/2000/svg" xmlns:xlink="http://www.w3.org/1999/xlink">
    <!-- Generator: Sketch 64 (93537) - https://sketch.com -->
    <title>icone-todos</title>
    <desc>Created with Sketch.</desc>
    <defs>
        <path d="M16,19.8 C18.0434536,19.8 19.7,21.4565464 19.7,23.5 C19.7,25.5434536 18.0434536,27.2 16,27.2 C13.9565464,27.2 12.3,25.5434536 12.3,23.5 C12.3,21.4565464 13.9565464,19.8 16,19.8 Z M16,21.2 C14.7297451,21.2 13.7,22.2297451 13.7,23.5 C13.7,24.7702549 14.7297451,25.8 16,25.8 C17.2702549,25.8 18.3,24.7702549 18.3,23.5 C18.3,22.2297451 17.2702549,21.2 16,21.2 Z M8.5,12.3 C10.5434536,12.3 12.2,13.9565464 12.2,16 C12.2,18.0434536 10.5434536,19.7 8.5,19.7 C6.45654643,19.7 4.8,18.0434536 4.8,16 C4.8,13.9565464 6.45654643,12.3 8.5,12.3 Z M23.5,12.3 C25.5434536,12.3 27.2,13.9565464 27.2,16 C27.2,18.0434536 25.5434536,19.7 23.5,19.7 C21.4565464,19.7 19.8,18.0434536 19.8,16 C19.8,13.9565464 21.4565464,12.3 23.5,12.3 Z M8.5,13.7 C7.22974508,13.7 6.2,14.7297451 6.2,16 C6.2,17.2702549 7.22974508,18.3 8.5,18.3 C9.77025492,18.3 10.8,17.2702549 10.8,16 C10.8,14.7297451 9.77025492,13.7 8.5,13.7 Z M23.5,13.7 C22.2297451,13.7 21.2,14.7297451 21.2,16 C21.2,17.2702549 22.2297451,18.3 23.5,18.3 C24.7702549,18.3 25.8,17.2702549 25.8,16 C25.8,14.7297451 24.7702549,13.7 23.5,13.7 Z M16,4.8 C18.0434536,4.8 19.7,6.45654643 19.7,8.5 C19.7,10.5434536 18.0434536,12.2 16,12.2 C13.9565464,12.2 12.3,10.5434536 12.3,8.5 C12.3,6.45654643 13.9565464,4.8 16,4.8 Z M16,6.2 C14.7297451,6.2 13.7,7.22974508 13.7,8.5 C13.7,9.77025492 14.7297451,10.8 16,10.8 C17.2702549,10.8 18.3,9.77025492 18.3,8.5 C18.3,7.22974508 17.2702549,6.2 16,6.2 Z" id="path-1-all-hover"></path>
    </defs>
    <g id="Symbols-all-hover" stroke="none" stroke-width="1" fill="none" fill-rule="evenodd">
        <g id="header-item/todos/unactive-all-hover" transform="translate(-34.000000, 0.000000)">
            <g id="icone-todos-all-hover" transform="translate(34.000000, 0.000000)">
                <circle id="Oval-all-hover" fill="#FFFFFF" cx="16" cy="16" r="16"></circle>
                <g id="2.-assets/icons/todos-all-hover">
                    <mask id="mask-2-all-hover" fill="white">
                        <use xlink:href="#path-1-all-hover"></use>
                    </mask>
                    <use id="Combined-Shape-all-hover" fill="#7F8286" fill-rule="nonzero" xlink:href="#path-1-all-hover"></use>
                    <g id="1.-colors/cinza-icone-all-hover" mask="url(#mask-2-all-hover)" fill="#7F8286" fill-rule="evenodd">
                        <rect id="Rectangle-Copy-2-all-hover" x="0" y="0" width="32" height="32"></rect>
                    </g>
                </g>
            </g>
        </g>
    </g>
</svg>