<?xml version="1.0" encoding="UTF-8"?>
<svg width="32px" height="32px" viewBox="0 0 32 32" version="1.1" xmlns="http://www.w3.org/2000/svg" xmlns:xlink="http://www.w3.org/1999/xlink">
    <!-- Generator: Sketch 64 (93537) - https://sketch.com -->
    <title>hover-agricultores</title>
    <desc>Created with Sketch.</desc>
    <defs>
        <path d="M13.6752497,18.0384288 C15.1637934,17.5778451 17.5814011,17.5709607 18.9379182,18.0316068 L18.9379182,18.0316068 L19.1630885,18.088012 C19.5457755,18.1906859 19.9201058,18.3221743 20.2688745,18.4756943 L20.2688745,18.4756943 L20.5455924,18.5974855 C21.3911575,18.9995811 22.1138541,19.6366139 22.6398346,20.4467821 C23.1486007,21.256181 23.4168406,22.2105104 23.4557527,23.2667303 L23.4557527,23.2667303 L23.4600919,23.5168537 C23.4597572,23.7692138 23.4455388,24.0176629 23.4171615,24.2689848 L23.4171615,24.2689848 L23.4070553,24.3476733 C23.362197,24.696945 23.0648585,24.9585022 22.712718,24.9585022 L22.712718,24.9585022 L9.95646486,24.9577707 C9.59942524,24.9577502 9.29961676,24.689019 9.26067996,24.3341089 L9.26067996,24.3341089 L9.23859219,24.1320799 C9.14157118,23.1086967 9.27262729,22.0869275 9.6574188,21.1679133 C9.76436152,20.9124904 9.89009606,20.6689587 10.0401521,20.4296235 C10.596912,19.568164 11.3915191,18.8938849 12.324056,18.4961544 L12.324056,18.4961544 L12.6441201,18.3623584 C12.9216918,18.2531463 13.2046301,18.1600263 13.4917382,18.0833249 L13.4917382,18.0833249 Z M18.5440973,19.373885 C17.419951,18.9941431 15.3032838,19.0001706 14.0520001,19.3862333 L14.0520001,19.3862333 L13.846,19.437 L13.6189586,19.5031654 C13.5416597,19.526945 13.4652863,19.5520062 13.3903917,19.5781294 L13.3903917,19.5781294 L13.1706977,19.659466 L12.8689678,19.785747 C12.1992041,20.0714161 11.622105,20.5611246 11.2212184,21.1812793 C11.117291,21.34713 11.0265735,21.5228382 10.9487948,21.7086054 C10.7223688,22.2493886 10.6106079,22.8486058 10.6074943,23.4617501 L10.6074943,23.4617501 L10.609,23.557 L22.059,23.558 L22.056342,23.3050882 C22.0264832,22.4972565 21.825383,21.7817931 21.4601007,21.2005204 C21.0797966,20.6148387 20.5548613,20.1521258 19.9593389,19.8687191 L19.9593389,19.8687191 L19.791873,19.7936221 L19.4185975,19.639991 C19.2174538,19.5634266 19.013667,19.4974 18.8119011,19.4431961 L18.8119011,19.4431961 Z M16.3341056,5.3632016 C18.9665802,5.3632016 20.2307714,6.65796286 20.6201154,9.21967164 C22.908396,9.476412 24.3057897,9.9978174 24.3057897,10.8703165 C24.3057897,11.8566942 22.9948368,12.2607923 20.4729103,12.5179554 C20.2202723,15.1838636 18.510919,17.2991006 16.3341469,17.2991006 C14.1576343,17.2991006 12.4483565,15.1843688 12.196043,12.5186326 C9.67897322,12.2642982 8.36238031,11.8531414 8.36238031,10.8703165 C8.36238031,9.99789668 9.75951665,9.47650793 12.0470987,9.22048254 C12.4352955,6.65340486 13.6921604,5.3632016 16.3341056,5.3632016 Z M16.6628613,11.9436034 L16.3398287,11.9438962 C15.4840278,11.950906 14.6552228,12.0069521 14.0548988,12.0994263 C13.8804106,12.1263045 13.7300618,12.1556214 13.6092462,12.1854793 L13.6092462,12.1854793 L13.575,12.194 L13.580847,12.28433 C13.7319889,14.27436 14.87309,15.7876584 16.1874369,15.8932128 L16.1874369,15.8932128 L16.3341469,15.8991006 C17.7092939,15.8991006 18.9306137,14.3480914 19.0873446,12.2843353 L19.0873446,12.2843353 L19.094,12.163 L19.0524918,12.1517257 C19.0264929,12.1451435 18.999016,12.1386115 18.9701188,12.1321527 L18.9701188,12.1321527 L18.7801565,12.0944614 L18.6169866,12.0680083 C18.0289172,11.9806331 17.2081599,11.9367839 16.3398287,11.9438962 Z M19.9284809,10.6063101 C18.3360212,10.4456275 16.7388575,10.3918746 15.1424378,10.445183 C14.3407824,10.4719399 13.5396641,10.5256601 12.7396743,10.6063158 C12.6693496,10.613406 12.6007898,10.6099151 12.5354075,10.5972439 C12.0898365,10.6403625 11.6760167,10.6923249 11.3011976,10.7513973 C11.1460515,10.7758487 10.9991808,10.801305 10.8612351,10.8275648 L10.649,10.87 L10.6881424,10.8788374 C11.18242,10.981106 11.7987589,11.0705589 12.5037092,11.1413264 C13.0310361,10.7274844 14.1556817,10.5864923 15.7923016,10.5516362 L15.7923016,10.5516362 L16.3283619,10.5439432 C18.2964054,10.5278232 19.6258461,10.6433763 20.1933643,11.1376508 L19.8914444,11.1673888 C20.5943312,11.1036633 21.2180135,11.0217582 21.7323504,10.9271306 L22.019,10.87 L22.0070847,10.8675319 C21.8782276,10.8405189 21.7401206,10.8142087 21.5934136,10.7888028 L21.3669843,10.7513971 C20.9923682,10.6923561 20.5787939,10.6404176 20.1344889,10.5963229 C20.0674038,10.6099189 19.9988253,10.613408 19.9284809,10.6063101 Z M16.3341056,6.7632016 C14.5778051,6.7632016 13.7980128,7.42410442 13.4815401,9.11770356 L13.4845425,9.10026117 C14.3532898,9.0485511 15.3093411,9.02426505 16.3341366,9.02426505 L16.9675983,9.02747732 C17.7543534,9.03561223 18.4957256,9.0593344 19.1825455,9.10019401 L19.1457061,8.92153236 C18.817341,7.43864706 18.0757114,6.81386258 16.5316687,6.76617692 L16.5316687,6.76617692 Z" id="path-1-upa-hover"></path>
    </defs>
    <g id="UI---Mapa-mvp2" stroke="none" stroke-width="1" fill="none" fill-rule="evenodd">
        <g id="[desktop]-Explorar-Geral-hovercategorias" transform="translate(-45.000000, -144.000000)">
            <g id="header-desktop/categorias" transform="translate(0.000000, 50.000000)">
                <g id="header-item/agricultor/unactive" transform="translate(21.016949, 94.000000)">
                    <g id="hover-agricultores" transform="translate(24.000000, 0.000000)">
                        <circle id="Oval" fill="#FFFFFF" cx="16" cy="16" r="16"></circle>
                        <g id="Group">
                            <g id="2.-assets/icons/agricultores">
                                <mask id="mask-2-upa-hover" fill="white">
                                    <use xlink:href="#path-1-upa-hover"></use>
                                </mask>
                                <use id="Combined-Shape" fill="#A9ACAF" fill-rule="nonzero" xlink:href="#path-1-upa-hover"></use>
                                <g id="1.-colors/agricultores" mask="url(#mask-2-upa-hover)" fill="#3F993F" fill-rule="evenodd">
                                    <rect id="Rectangle-Copy-2" x="0" y="0" width="32" height="32"></rect>
                                </g>
                            </g>
                        </g>
                    </g>
                </g>
            </g>
        </g>
    </g>
</svg>