<svg xmlns="http://www.w3.org/2000/svg" xmlns:xlink="http://www.w3.org/1999/xlink" viewBox="0 0 78 78"><defs><path d="M20.49388 18.3153c.5447-2.38722 1.7229-4.68613 3.44581-6.4543-.0905-3.80221 1.36093-8.13381 4.89719-10.1679 4.08101-2.29896 10.24855-2.03427 14.51058-.53105.45422.17646.72572.61926.6352 1.06043-.9067 4.42148-3.62684 9.72512-7.7097 12.02429-3.44581 1.85616-7.80017 1.06043-11.15559-.70753-3.26485 3.62574-3.35533 8.92947-2.44863 13.43916.2715 1.14865-1.72291 1.415-1.99442.35292-.45422-2.03426-.6352-4.15512-.5447-6.27743-.2715-.44283-.6352-.88396-.9972-1.32678-3.26484 1.85616-7.70968 2.6519-11.15559.70752C3.9863 18.22389 1.17551 12.91833.26715 8.49856c-.0905-.44283.181-.97218.72572-1.14865 4.26203-1.415 10.42952-1.6797 14.4201.53104 3.62683 2.03427 4.98767 6.36608 4.98767 10.25613 0 .08823.0905.08823.0905.17646l.00274.00175zm21.3119-15.5619c-3.71902-.97217-8.52581-1.23853-11.88123.61926-2.53912 1.415-3.62684 4.42148-3.90004 7.16173l4.8067-2.74013c.99718-.53104 1.9944 1.14865.99718 1.6797l-4.8067 2.74012c2.53912 1.14865 5.7133 1.6797 8.2526.26469 3.44583-1.85617 5.53234-6.101 6.52988-9.72512l.00161-.00025zM2.53564 9.03083c.99719 3.53586 3.08383 7.78095 6.43895 9.72512 2.53912 1.415 5.7133.88395 8.2526-.26469l-4.8067-2.74012c-.99718-.53105 0-2.29896.99719-1.6797l4.8067 2.65191c-.2715-2.74012-1.2704-5.65821-3.80952-7.07351-3.35533-1.94438-8.2526-1.59148-11.88123-.61926l.00201.00025z" id="a"/></defs><g fill="none" fill-rule="evenodd"><circle fill="#00B0B8" cx="39" cy="39" r="39"/><g transform="translate(16 25)"><mask id="b" fill="#fff"><use xlink:href="#a"/></mask><use fill="#A9ACAF" xlink:href="#a"/><g mask="url(#b)" fill="#fff"><path d="M-5-14h56v56H-5z"/></g></g></g></svg>