<svg xmlns="http://www.w3.org/2000/svg" xmlns:xlink="http://www.w3.org/1999/xlink" viewBox="0 0 69 69"><defs><circle id="a" cx="34.81176" cy="34.81176" r="34"/><path d="M15.20991 13.08235c.38908-1.70515 1.23065-3.34723 2.4613-4.6102-.06464-2.71587.97209-5.80987 3.49799-7.2628C24.0842-.43275 28.48959-.24369 31.5339.83003c.32444.12605.51837.44233.45371.75745-.64764 3.1582-2.5906 6.94652-5.50692 8.58878-2.4613 1.32584-5.57155.75745-7.96828-.50537-2.33204 2.58981-2.39667 6.37819-1.74903 9.5994.19393.82046-1.23065 1.01071-1.42458.25208-.32444-1.45304-.4537-2.96794-.38908-4.48388-.19392-.3163-.4537-.6314-.71227-.9477-2.33203 1.32583-5.50692 1.89422-7.96828.50537-2.85038-1.5791-4.8581-5.36878-5.50692-8.52576-.06465-.31631.12928-.69441.51837-.82047 3.04431-1.01071 7.44966-1.19978 10.30007.37932 2.5906 1.45305 3.56262 4.5472 3.56262 7.3258 0 .06303.06464.06303.06464.12605l.00196.00125zm15.2228-11.11564c-2.65646-.6944-6.08987-.88466-8.4866.44233-1.81366 1.01072-2.5906 3.1582-2.78575 5.11552l3.43336-1.95723c.71227-.37932 1.42458.82046.71227 1.19978l-3.43335 1.95723c1.81365.82046 4.08093 1.19978 5.89471.18907 2.4613-1.32584 3.95167-4.35786 4.6642-6.94652l.00115-.00018zM2.3826 6.4506c.71227 2.52562 2.20273 5.55782 4.59924 6.94652 1.81366 1.01071 4.08093.6314 5.89472-.18907L9.4432 11.25081c-.71227-.37932 0-1.6421.71227-1.19978l3.43336 1.89422c-.19393-1.95723-.90742-4.04158-2.72108-5.0525-2.39667-1.38885-5.89472-1.13678-8.4866-.44234l.00144.00018z" id="c"/></defs><g fill="none" fill-rule="evenodd"><g transform="translate(-.5)"><mask id="b" fill="#fff"><use xlink:href="#a"/></mask><use fill="#27ADB6" xlink:href="#a"/></g><g transform="translate(17.5 25)"><mask id="d" fill="#fff"><use xlink:href="#c"/></mask><use fill="#fff" xlink:href="#c"/></g></g></svg>