<svg xmlns="http://www.w3.org/2000/svg" xmlns:xlink="http://www.w3.org/1999/xlink" viewBox="0 0 59 58"><defs><path d="M17.8519 15.69882c.46689-2.04618 1.47677-4.01668 2.95355-5.53225-.07757-3.25904 1.1665-6.97184 4.19759-8.71535C28.50105-.5193 33.7875-.29243 37.44068.99604c.38933.15125.62205.5308.54445.90894-.77717 3.78984-3.10871 8.33582-6.6083 10.30653-2.95356 1.591-6.68587.90894-9.56194-.60644-2.79844 3.10777-2.876 7.65383-2.09883 11.51928.23271.98455-1.47678 1.21285-1.7095.3025-.38933-1.74366-.54445-3.56154-.4669-5.38066-.2327-.37957-.54444-.75767-.85472-1.13724-2.79844 1.591-6.6083 2.27306-9.56194.60644C3.70255 15.62048 1.2933 11.07285.5147 7.28448c-.07757-.37957.15514-.8333.62205-.98456 3.65317-1.21286 8.93959-1.43973 12.36008.45518 3.10871 1.74366 4.27514 5.45664 4.27514 8.79097 0 .07562.07757.07562.07757.15125l.00235.0015zM36.11923 2.36005c-3.18774-.83329-7.30784-1.06159-10.18391.5308-2.1764 1.21286-3.10872 3.78984-3.3429 6.13862l4.12003-2.34867c.85473-.45518 1.7095.98455.85473 1.43973l-4.12003 2.34868c2.1764.98456 4.89712 1.43974 7.07366.22688 2.95356-1.591 4.742-5.22943 5.59704-8.33582l.00138-.00022zM2.45912 7.74071c.85473 3.03074 2.64328 6.66938 5.5191 8.33582 2.17639 1.21285 4.89712.75767 7.07366-.22688l-4.12003-2.34867c-.85473-.45519 0-1.97054.85473-1.43974l4.12003 2.27306c-.23271-2.34868-1.0889-4.8499-3.2653-6.063-2.876-1.66662-7.07366-1.36413-10.18391-.5308l.00172.00021z" id="a"/></defs><g transform="translate(.5)" fill="none" fill-rule="evenodd"><circle fill="#27ADB6" cx="29" cy="29" r="29"/><g transform="translate(9 17)" fill="#fff"><mask id="b"><use xlink:href="#a"/></mask><use xlink:href="#a"/><g mask="url(#b)"><path d="M-4-12h48v48H-4z"/></g></g></g></svg>