<?xml version="1.0" encoding="UTF-8"?>
<svg width="32px" height="32px" viewBox="0 0 32 32" version="1.1" xmlns="http://www.w3.org/2000/svg" xmlns:xlink="http://www.w3.org/1999/xlink">
    <!-- Generator: Sketch 63.1 (92452) - https://sketch.com -->
    <title>active-todos</title>
    <desc>Created with Sketch.</desc>
    <defs>
        <path d="M14.5679286,18.4658813 C14.8791912,17.1017589 15.5524486,15.7880945 16.5369686,14.7777146 C16.4852547,12.6050204 17.314638,10.129821 19.3353594,8.96748234 C21.6673683,7.65379367 25.1916721,7.80504625 27.6271188,8.66402744 C27.886675,8.76486087 28.0418192,9.01789175 27.9900878,9.2699875 C27.4719746,11.796546 25.9176101,14.8271987 23.584552,16.1410091 C21.615512,17.2016766 19.1273098,16.7469692 17.2099262,15.736711 C15.3442991,17.8085621 15.2925927,20.8392634 15.8107059,23.4162314 C15.9658476,24.0726008 14.8261859,24.2248031 14.6710417,23.6178982 C14.4114855,22.4554621 14.3080727,21.243542 14.3597791,20.0307939 C14.2046374,19.7777484 13.9968101,19.525677 13.7899595,19.2726315 C11.9243324,20.3332991 9.38442368,20.7880065 7.41533375,19.6769296 C5.13503095,18.4136503 3.52886007,15.3819018 3.00979778,12.8563174 C2.95808387,12.6032719 3.11322557,12.3007911 3.42449805,12.1999479 C5.85994505,11.3913762 9.38422384,11.2401236 11.6645514,12.5034028 C13.7370291,13.6658389 14.5146485,16.1411601 14.5146485,18.3640445 C14.5146485,18.4144613 14.5663624,18.4144613 14.5663624,18.464878 L14.5679286,18.4658813 Z M26.7461615,9.57336934 C24.6210032,9.01784305 21.8742689,8.86564073 19.9568854,9.92723365 C18.5059586,10.7358054 17.8844076,12.4537922 17.7282892,14.0196497 L20.4749736,12.4538652 C21.0447932,12.1504103 21.6146378,13.1102347 21.0447932,13.4136896 L18.2981088,14.979474 C19.7490356,15.6358435 21.5628564,15.9392984 23.0138831,15.1307242 C24.9829231,14.0700566 26.1752179,11.6444387 26.7452373,9.57351302 L26.7461615,9.57336934 Z M4.30608057,13.1604737 C4.87590017,15.1809656 6.06826942,17.6067296 7.98547808,18.7176848 C9.43640485,19.5262566 11.2502257,19.2228017 12.7012524,18.5664347 L9.95456801,17.0006502 C9.3847484,16.6971953 9.95456801,15.6869616 10.5243876,16.0408259 L13.271072,17.5562009 C13.1159303,15.9904165 12.545134,14.3229365 11.0942072,13.5141943 C9.17687365,12.4031173 6.37843293,12.6047793 4.30493129,13.16033 L4.30608057,13.1604737 Z" id="path-1-plant-gray"></path>
    </defs>
    <g id="Symbols-gray" stroke="none" stroke-width="1" fill="none" fill-rule="evenodd">
        <g id="header-item/todos/active" transform="translate(-34.000000, 0.000000)">
            <g id="active-todos" transform="translate(34.000000, 0.000000)">
                <circle id="Oval-gray" fill="#27ADB6" cx="16" cy="16" r="16"></circle>
                <g id="2.-assets/icons/todos">
                    <circle id="Oval-gray" cx="16" cy="16" r="16"></circle>
                    <mask id="mask-2-gray" fill="white">
                        <use xlink:href="#path-1-plant-gray"></use>
                    </mask>
                    <use id="Fill-1" fill="#A9ACAF" fill-rule="evenodd" xlink:href="#path-1-plant-gray"></use>
                    <g id="1.-colors/white" mask="url(#mask-2-gray)" fill="#FFFFFF" fill-rule="evenodd">
                        <rect id="Rectangle" x="0" y="0" width="32" height="32"></rect>
                    </g>
                </g>
            </g>
        </g>
    </g>
</svg>
