<svg xmlns="http://www.w3.org/2000/svg" xmlns:xlink="http://www.w3.org/1999/xlink" viewBox="0 0 73 77"><defs><path d="M24.5 0C38.03098 0 49 10.96902 49 24.5c0 11.57543-8.02756 21.27592-18.81927 23.83804L24.5 54l-5.68073-5.66196C8.02757 45.77592 0 36.07543 0 24.5 0 10.96902 10.96902 0 24.5 0z" id="a"/><path d="M24.5 0C38.03098 0 49 10.96902 49 24.5c0 11.57543-8.02756 21.27592-18.81927 23.83804L24.5 54l-5.68073-5.66196C8.02757 45.77592 0 36.07543 0 24.5 0 10.96902 10.96902 0 24.5 0z" id="d"/><path d="M16.1204 14.23647c.40854-1.79041 1.29219-3.5146 2.58437-4.84072-.06787-2.85166 1.0207-6.10036 3.67289-7.62593C25.43842.0456 30.06407.24412 33.26059 1.37154c.34067.13234.5443.46444.4764.79532-.68002 3.3161-2.72013 7.29384-5.78227 9.01821-2.58436 1.39213-5.85013.79533-8.3667-.53064-2.44863 2.7193-2.5165 6.6971-1.83647 10.07937.20362.86149-1.29218 1.06125-1.4958.2647-.34068-1.5257-.4764-3.11635-.40854-4.70808-.20362-.33213-.4764-.66297-.74789-.9951-2.44863 1.39213-5.78226 1.98894-8.3667.53065-2.9929-1.65805-5.101-5.63722-5.78226-8.95205-.06787-.33213.13575-.72913.5443-.86149 3.19652-1.06125 7.82213-1.25977 10.81506.39829 2.72013 1.5257 3.74076 4.77455 3.74076 7.69209 0 .06617.06787.06617.06787.13234l.00206.00132zM32.10435 2.56505c-2.78927-.72913-6.39436-.9289-8.91093.46444-1.90434 1.06125-2.72012 3.31611-2.92503 5.3713l3.60502-2.0551c.7479-.39828 1.49581.8615.7479 1.25978l-3.60503 2.05509c1.90434.86148 4.28498 1.25977 6.18945.19852 2.58437-1.39213 4.14925-4.57575 4.8974-7.29384l.00122-.0002zM2.65174 7.27312c.74788 2.6519 2.31286 5.83571 4.8292 7.29384 1.90434 1.06125 4.28498.66297 6.18945-.19851l-3.60502-2.0551c-.74789-.39828 0-1.72421.74789-1.25977l3.60502 1.98893c-.20362-2.05509-.9528-4.24366-2.85713-5.30513-2.5165-1.45829-6.18946-1.1936-8.91093-.46445l.00151.0002z" id="e"/><filter x="-38.8%" y="-31.5%" width="177.6%" height="170.4%" filterUnits="objectBoundingBox" id="b"><feOffset dy="2" in="SourceAlpha" result="shadowOffsetOuter1"/><feGaussianBlur stdDeviation="6" in="shadowOffsetOuter1" result="shadowBlurOuter1"/><feColorMatrix values="0 0 0 0 0 0 0 0 0 0 0 0 0 0 0 0 0 0 0.15 0" in="shadowBlurOuter1"/></filter></defs><g fill="none" fill-rule="evenodd"><g transform="translate(12 10)"><mask id="c" fill="#fff"><use xlink:href="#a"/></mask><use fill="#000" filter="url(#b)" xlink:href="#a"/><use fill="#FFA129" xlink:href="#a"/><g mask="url(#c)" fill="#27ADB6"><path d="M-5-5h60v62H-5z"/></g><use stroke="#FFF" stroke-width="3" xlink:href="#d"/></g><g transform="translate(19 23)"><mask id="f" fill="#fff"><use xlink:href="#e"/></mask><use fill="#A9ACAF" xlink:href="#e"/><g mask="url(#f)" fill="#FFF"><path d="M-3-10h42v42H-3z"/></g></g></g></svg>