<svg xmlns="http://www.w3.org/2000/svg" viewBox="0 0 11 11"><g fill="#54595E" stroke="#54595E" stroke-width="1.17" fill-rule="evenodd" stroke-linejoin="round"><path d="M.671 5.08434L4.50827.6811c.09425-.10815.2472-.10815.34104 0 .09424.10814.09424.28365 0 .39133L1.18255 5.28l3.66677 4.20756c.09424.10814.09424.28365 0 .39133-.04713.05407-.10863.08111-.17053.08111-.0619 0-.1234-.02704-.17052-.0811L.67098 5.47565c-.09464-.10814-.09464-.2832 0-.39133H.671zM5.711 5.08434L9.54827.6811c.09425-.10815.2472-.10815.34104 0 .09424.10814.09424.28365 0 .39133L6.22255 5.28l3.66677 4.20756c.09424.10814.09424.28365 0 .39133-.04713.05407-.10863.08111-.17053.08111-.0619 0-.1234-.02704-.17052-.0811L5.71098 5.47565c-.09464-.10814-.09464-.2832 0-.39133H5.711z"/></g></svg>