<svg xmlns="http://www.w3.org/2000/svg" viewBox="0 0 13 14"><path d="M6.49999 2.86364c.32634 0 .59091.26454.59091.59089 0 .32635-.26457.59092-.59091.59092H1.1818v8.27274h8.27271V7c0-.32635.26457-.59092.59092-.59092.32634 0 .59094.26457.59094.59092v5.90908c0 .32635-.26457.59092-.59092.59092H.59091C.26457 13.5 0 13.23543 0 12.9091V3.45456c0-.32634.26457-.59091.59091-.59091zM12.40906.5C12.73541.5 13 .76457 13 1.09092v4.72727c0 .32635-.26457.59092-.59091.59092-.32635 0-.59092-.26457-.59092-.59092V2.5175L5.73601 8.59963c-.11537.11543-.26663.1731-.41785.1731-.15123 0-.30245-.0577-.4178-.17307-.23078-.23078-.23078-.60488 0-.83566l6.08213-6.08217h-3.3007c-.32634 0-.59091-.26457-.59091-.59091C7.09088.76457 7.35545.5 7.68179.5z" fill="#3F993F" fill-rule="nonzero"/></svg>