<svg xmlns="http://www.w3.org/2000/svg" viewBox="0 0 16 16"><path d="M6.10339 14.95539c-1.39284 1.39281-3.66514 1.39281-5.05876 0-1.39284-1.39282-1.39284-3.66507 0-5.05867l3.16125-3.16119c1.3282-1.32819 3.4512-1.40153 4.85622-.19298.28292.241.31612.66628.07422.94833-.241.28205-.6663.31525-.94835.07423-.88372-.76058-2.19012-.7248-3.0327.11876l-3.16125 3.16119c-.88373.8837-.88373 2.2775 0 3.16119.88372.8837 2.27754.8837 3.16124 0l3.0032-3.00314c.12488-.12837.2969-.20085.47592-.20172a.66578.66578 0 01.47854.19648.67098.67098 0 01.19649.47765c-.00089.17989-.07424.35104-.2026.47591l-3.0032 3.00315-.00022.0008zm5.69096-5.69086c-1.32821 1.32819-3.4512 1.40153-4.85622.19298v-.00087a.6667.6667 0 01-.23578-.45845c-.01397-.17902.04279-.3554.15893-.49163.11702-.13535.28206-.22005.46108-.23316.17814-.01397.35453.04454.48989.16155.88372.76058 2.19011.72479 3.0327-.11876l3.16125-3.1612c.88372-.8837.88372-2.2775 0-3.16118-.88372-.88371-2.27755-.88371-3.16125 0l-3.0032 3.00314v-.00087c-.12487.12924-.2969.20259-.47591.20346-.1799.00175-.35192-.06898-.4794-.19648-.12663-.12662-.19736-.2995-.1965-.47852.00175-.17989.07423-.35104.20348-.47679l3.0032-3.00314c1.39283-1.39281 3.66513-1.39281 5.05875 0 1.39284 1.39282 1.39284 3.66507 0 5.05867l-3.16102 3.16125z" fill="#000" fill-rule="evenodd"/></svg>