<svg xmlns="http://www.w3.org/2000/svg" viewBox="0 0 157 43"><g fill="none" fill-rule="evenodd"><path d="M3.32847 18.78768c-.32908-.41306-.32908-.41306-.74207-.17917-.48312.27461-.9679.54955-1.48347.84241-.3235-.3655-.64766-.7297-.98166-1.10627.95544-.70397 1.88204-1.39425 2.81978-2.06987.16355-.11792.20813-.22607.15601-.41436-.26975-.9776-.53983-1.95617-.78795-2.93964-.0567-.22249-.1534-.2808-.36775-.27266-.39856.01531-.79844.00456-1.22814.00456C.47526 11.23727.24025 9.83912 0 8.41002c.12619-.0062.22813-.01564.32842-.01564 1.49593-.00098 2.99283-.00651 4.48974.0075.15602.0013.34678.08143.46183.18796.44019.40556.84727.84631 1.28582 1.25319.1085.10033.28713.17362.43495.17688.81187.01694 1.62408.0189 2.43399-.0013.15503-.00391.34645-.08991.4533-.20197.89546-.94405 1.77715-1.90242 2.66244-2.85722.06982-.07655.13046-.16223.20715-.25702.4048.2417.7709.45997 1.1485.68604-.41266 1.33593-.76534 2.67317-1.24945 3.96252-.28581.76585-.07178 1.39847.19764 2.11221.49591-.3629.9833-.70266 1.45037-1.06718.21993-.17233.44314-.23813.7224-.23585 1.83385.0101 3.6677.00847 5.5009.00065.20354-.00065.32481.05408.43134.23129.314.5199.64897 1.02614.99018 1.5594-.3907.38146-.7814.74729-1.1485 1.1369-.10062.1075-.17732.28438-.17896.43032-.01147 1.69655-.00753 3.39374-.00753 5.09061v.39482h-.31204c-1.15963 0-2.31894.00391-3.47825-.00521-.16094-.00098-.33334-.04137-.48247-.1062-1.35696-.59418-2.71161-1.1978-4.06594-1.79785-.09276-.04072-.1888-.0746-.3258-.129 0 .61633-.01213 1.18966.00524 1.7617.0082.2251-.07604.33227-.26975.4287-.60112.30164-1.18914.62935-1.78862.93524-.1724.08763-.23468.19513-.2291.38993.01409.54434-.00525 1.08966.01015 1.63368.0059.2264-.04556.3971-.22452.54825-.2137.18144-.40577.39025-.61456.59385.38971.64207.77189 1.2558 1.13505 1.8793.07998.1365.13504.30882.1357.46518.0082 2.8178.00262 5.63528.01147 8.45308.00066.21077-.07276.31599-.24582.41209-.59818.33194-1.1839.68376-1.78305 1.01213-.13963.0759-.314.12215-.47297.12346-1.28582.00977-2.57165.01205-3.85715-.00326-.157-.0013-.34874-.07916-.4615-.18698a76.91182 76.91182 0 01-2.01248-1.99983c-.10915-.11239-.19207-.30035-.19535-.45476-.019-.84664-.00918-1.69394-.00918-2.58456h1.32844c0-.82807-.02688-1.61217.00983-2.39367.02164-.45475-.07309-.8157-.45657-1.08184-.42643-.29644-.52312-.69875-.53328-1.21149-.0118-.59255.11308-1.05643.60309-1.40532.12848-.09088.2432-.20001.40414-.33422-.31466-.31338-.59949-.57301-.85252-.86066-.09866-.11173-.17733-.2847-.17864-.43097-.01278-1.36167-.01278-2.72366.00066-4.085.00098-.13193.0839-.30133.18519-.38668.56277-.4717 1.14325-.92385 1.73454-1.39554" fill="#4EBBC3"/><path d="M23.07733 0c-3.52906.67627-6.28328 3.67748-6.7497 7.43542C19.85638 6.75914 22.61093 3.75436 23.07734 0M23.07733 7.30919c-3.52906.67627-6.28328 3.6778-6.7497 7.43606 3.52874-.67627 6.28329-3.6817 6.7497-7.43606M16.39814 11.266c-.46608-3.75794-3.22096-6.75947-6.75001-7.43542.46739 3.7537 3.2216 6.75947 6.75001 7.43542M16.39814 18.5758c-.46608-3.75891-3.22096-6.75947-6.75001-7.43574.46739 3.7537 3.2216 6.75947 6.75001 7.43574" fill="#3E973E"/><path d="M5.92978 30.2592v-.45313c3.07019 0 6.11972-1.43464 7.9575-3.74491 1.87155-2.35132 2.26323-5.29095 2.2616-7.34323-.00099-.04332 0-.08828 0-.1329V3.12163h.45494V18.586a8.55199 8.55199 0 000 .1303c.0013 2.12557-.40643 5.17206-2.35894 7.62566-1.92267 2.41615-5.10922 3.91724-8.3151 3.91724" fill="#275B27"/><path d="M4.7666 30.033c0-.4235.34514-.76684.77124-.76684.42577 0 .77058.34335.77058.76683 0 .42349-.34481.76618-.77058.76618-.4261 0-.77123-.3427-.77123-.76618M15.62737 2.73236c0-.42381.34546-.76684.77123-.76684.42544 0 .77058.34303.77058.76684 0 .42348-.34514.76618-.77058.76618-.42577 0-.77123-.3427-.77123-.76618" fill="#275B27"/><path d="M22.61544 28.79361c-.1393-.43781-.55622-.89844-.9738-1.10594-.3707-.20718-.83416-.3225-1.3435-.3225-.5572 0-1.04296.09219-1.36777.27657-.34776.2303-.41758.43781-.41758.57594 0 .11466.04654.20718.06982.27591.18584.23064.69519.43782 1.32155.6222.62538.18438 1.34384.36876 1.96987.52968 1.04263.32217 1.64539.46062 2.45628 1.12875 1.02034.78312 1.55263 1.84249 1.46053 3.11-.09276 1.17436-.74206 2.18812-1.78469 2.85625-.99673.6222-2.20193.80592-3.47661.80592-1.71488 0-3.17507-.43749-4.33406-1.65843-.57916-.645-1.275-2.02686-1.3209-2.67186l2.98956-.73719c0 .36843.2314 1.05936.5795 1.40532.55621.59907 1.32089.71406 2.0859.71406.57949 0 1.3907-.115 1.76174-.4147.23173-.2075.27762-.34562.32416-.57593 0-.23031-.04654-.39156-.20879-.55281-.30154-.29937-.88038-.48375-1.29762-.59907-.67192-.18405-1.32123-.3453-2.0161-.53-1.13603-.29938-1.83122-.59875-2.4802-1.1053-.85744-.64468-1.29763-1.65843-1.29763-2.53407 0-1.56624.97281-2.81031 2.29437-3.38592.97314-.4147 1.87744-.50688 2.73455-.48375.85776 0 1.80829.18437 2.6654.6222 1.22846.62154 2.17833 1.70436 2.66572 3.01749l-3.0597.73718zM33.46181 31.83391c-1.34482.25344-2.75815.50688-2.8047 1.49718-.04653.7372.62604 1.38252 1.64572 1.33593 1.3209-.04593 2.9204-.69093 3.31372-2.18811.1393-.50688.1629-.96717.1629-1.0825l-2.31764.4375zM27.8993 27.0658c.06949-.0922.16192-.25344.255-.36844 1.13572-1.58937 2.85092-2.2575 4.91322-2.2575 2.29502 0 4.14886.76032 5.16855 2.46469.48706.80625.67192 1.72781.67192 2.4878v7.80874h-2.75783v-2.11938c-.23206.66813-.99674 1.35939-1.55263 1.68156-.88038.53001-1.9702.76032-2.9204.76032-1.22813 0-2.50314-.59907-3.17572-1.38186-.64865-.89877-.97314-1.52064-.97314-2.60346 0-1.3356.83482-2.6484 2.01675-3.33999 1.3907-.73686 2.3645-.76 4.14853-1.03623l2.01642-.27657c-.11603-.48343-.46379-.89844-.92725-1.15156-.50968-.2997-1.13604-.41468-1.78469-.39156-.81089 0-1.48281.18406-1.96922.76-.09308.09219-.18617.2075-.25565.3225l-2.87386-1.35906zM60.25352 29.62263v7.57843h-3.19834v-7.57843c0-.80657-.16225-1.2206-.60277-1.70436-.39397-.43782-.99673-.66813-1.5995-.66813-.60177 0-1.20454.25312-1.59851.69093-.48706.55249-.5795 1.10563-.5795 1.72782v7.53217h-3.19866v-7.57843c0-.80657-.16224-1.2206-.60276-1.70436-.39365-.43782-.99674-.66813-1.59885-.66813-.60276 0-1.20552.25312-1.59917.69093-.48739.55249-.57949 1.10563-.57949 1.72782v7.53217H41.9209V24.762h2.7811v1.33625c.88038-1.03656 2.22487-1.63563 3.61526-1.63563 1.0436 0 2.17899.46095 2.98988 1.17501.2786.25344.51.53001.69552.82906.8571-1.26655 2.34058-2.00407 3.89354-2.00407 1.04328 0 2.17898.46095 2.98955 1.17501 1.08917.96718 1.36777 2.3953 1.36777 3.985M71.86457 30.98166c0-1.05969-.2314-2.02719-.67192-2.67186-.53328-.80658-1.3445-1.10595-2.38778-1.10595-.8571 0-1.59917.27657-2.10884.87564-.60277.69093-.88038 1.77375-.88038 2.90217 0 1.12875.27761 2.23437.88038 2.9025.55687.59907 1.32122.87564 2.2252.87564.88038 0 1.78436-.30002 2.31763-1.10627.44052-.645.62571-1.61218.62571-2.67187m3.33732 0c0 1.7047-.39398 3.29406-1.45988 4.58374-1.01968 1.2672-2.66539 1.98093-4.3111 1.98093-1.20487 0-2.31797-.27592-3.22162-.82938v6.0125h-3.17507V24.76198h2.78143v.78378c.94953-.71439 2.17767-1.12875 3.45334-1.12875 1.73782 0 3.4068.6678 4.47302 1.98093.97347 1.22061 1.45988 2.85591 1.45988 4.58373M82.98876 31.83391c-1.34417.25344-2.75783.50688-2.80437 1.49718-.04654.7372.62603 1.38252 1.64571 1.33593 1.3209-.04593 2.9204-.69093 3.31438-2.18811.13897-.50688.16158-.96717.16158-1.0825l-2.3173.4375zM77.4259 27.0658c.06981-.0922.16257-.25344.25566-.36844 1.13505-1.58937 2.8509-2.2575 4.91354-2.2575 2.2937 0 4.14854.76032 5.16822 2.46469.4864.80625.6716 1.72781.6716 2.4878v7.80874h-2.7575v-2.11938c-.23174.66813-.99642 1.35939-1.55296 1.68156-.88071.53001-1.96988.76032-2.92007.76032-1.22847 0-2.50315-.59907-3.17573-1.38186-.64832-.89877-.97314-1.52064-.97314-2.60346 0-1.3356.83417-2.6484 2.01675-3.33999 1.39006-.73686 2.36352-.76 4.1482-1.03623l2.01643-.27657c-.1157-.48343-.46347-.89844-.92693-1.15156-.51-.2997-1.1357-.41468-1.78436-.39156-.81122 0-1.4838.18406-1.97053.76-.09275.09219-.18551.2075-.25467.3225l-2.87451-1.35906z" fill="#4EBBC3"/><path d="M117.84784 25.1619v6.23435c0 1.13103.18551 2.193.83613 2.83963.4415.46193 1.11572.69256 1.9748.69256.58112-.0228 1.06818-.18437 1.48674-.48472.46477-.34628.78959-.9004.92921-1.59296.11603-.55411.13898-1.40857.13898-2.26304v-5.42581h3.18294v12.46804h-2.78798v-.85446c-.99838.7854-2.25307 1.15481-3.39173 1.20107-1.39333.04593-2.8804-.48473-3.87911-1.38578-1.48675-1.36199-1.6962-3.02433-1.6962-5.19453v-6.23434h3.20622zm26.80963-.32288c2.29896 0 4.15772.76194 5.18035 2.47021.48739.80788.67356 1.73173.67356 2.49368v7.8273h-2.76471v-2.12426c-.23206.66943-.99903 1.36232-1.55623 1.68547-.883.53098-1.97447.76194-2.92728.76194-1.2311 0-2.50905-.60037-3.18294-1.38544-.64996-.90072-.97576-1.5239-.97576-2.609 0-1.33919.83679-2.65525 2.021-3.3478 1.394-.73915 2.36975-.76195 4.15903-1.0395l2.021-.27657c-.11635-.48505-.46477-.9004-.92921-1.1548-.51132-.30003-1.13866-.41567-1.78895-.39222-.81253 0-1.48642.1847-1.97479.76227-.09309.0922-.18552.20751-.25566.32283l-2.8804-1.36232c.0698-.09251.16257-.25409.25598-.3694 1.13768-1.59296 2.85714-2.2624 4.92501-2.2624zm-31.75825.34579v2.90966c-.65061-.25441-1.51001-.39253-2.41596-.32347-.90595.06906-1.55656.39286-1.99806.85446-.55753.60004-.81306 1.43138-.81306 2.3549v6.64969h-3.18228V25.162h2.78765v1.7086c.32514-.55379.76651-1.03916 1.34699-1.38544.67421-.41567 1.44086-.60038 2.18423-.6463.67389-.04627 1.39334.06905 2.0905.34595zm25.15966 0v2.90966c-.65061-.25441-1.50969-.39253-2.41563-.32347-.9066.06906-1.5559.39286-1.99806.85446-.5572.60004-.8132 1.43138-.8132 2.3549v6.64969h-3.1826V25.162h2.78765v1.7086c.32514-.55379.76697-1.03916 1.34777-1.38544.67324-.41567 1.4402-.60038 2.18325-.6463.6739-.04627 1.394.06905 2.09082.34595zm18.63187-4.52523v16.97066h-3.15934V20.65958h3.15934zm-9.31642 11.15195l-2.32255.4388c-1.34745.25409-2.76406.50818-2.8106 1.50076-.04687.73882.62734 1.38545 1.649 1.33919 1.3245-.04626 2.92727-.69256 3.32256-2.19365.1393-.50786.16159-.96946.16159-1.0851z" fill="#FFF"/><path fill="#3E973E" d="M102.01939 32.54523H97.6755v4.34072h-2.43989v-4.34072h-4.36683v-2.42428h4.36683v-4.3176h2.4399v4.3176h4.34388z"/></g></svg>