<?xml version="1.0" encoding="UTF-8"?>
<svg width="28px" height="27px" viewBox="0 0 28 27" version="1.1" xmlns="http://www.w3.org/2000/svg" xmlns:xlink="http://www.w3.org/1999/xlink">
    <title>F6DA23E3-50E5-404F-9132-EEDC8618E869</title>
    <defs>
        <rect id="path-1" x="0" y="0" width="100" height="44" rx="22"></rect>
        <filter x="-12.0%" y="-27.3%" width="124.0%" height="154.5%" filterUnits="objectBoundingBox" id="filter-2">
            <feOffset dx="0" dy="0" in="SourceAlpha" result="shadowOffsetOuter1"></feOffset>
            <feGaussianBlur stdDeviation="4" in="shadowOffsetOuter1" result="shadowBlurOuter1"></feGaussianBlur>
            <feColorMatrix values="0 0 0 0 0   0 0 0 0 0   0 0 0 0 0  0 0 0 0.12 0" type="matrix" in="shadowBlurOuter1"></feColorMatrix>
        </filter>
    </defs>
    <g id="UI---Mapa-cadeia-de-valor" stroke="none" stroke-width="1" fill="none" fill-rule="evenodd">
        <g id="Explorar/Lista-Geral/conexoes" transform="translate(-316.000000, -681.000000)">
            <rect fill="#FFFFFF" x="0" y="0" width="414" height="736"></rect>
            <rect id="Rectangle" fill="#F7F7F7" x="0" y="132" width="414" height="604"></rect>
            <g id="Group" transform="translate(0.000000, 190.000000)" fill="#FFFFFF">
                <g id="item-lista/produtor-copy-2" transform="translate(0.000000, 384.000000)">
                    <rect id="Rectangle" x="0" y="0" width="414" height="185"></rect>
                </g>
            </g>
            <g id="btn/active" transform="translate(269.000000, 672.000000)">
                <rect id="Rectangle" fill="#FFFFFF" x="0" y="7.81597009e-14" width="130" height="43.6148148" rx="21.8074074"></rect>
                <text id="Incluir-local" font-family="Lato-Bold, Lato" font-size="16" font-weight="bold" line-spacing="16" fill="#54595E">
                    <tspan x="30.3070133" y="28">Ver mapa</tspan>
                </text>
            </g>
            <g id="btn/active" transform="translate(298.000000, 672.000000)">
                <g id="Rectangle">
                    <use fill="black" fill-opacity="1" filter="url(#filter-2)" xlink:href="#path-1"></use>
                    <use fill="#FFFFFF" fill-rule="evenodd" xlink:href="#path-1"></use>
                </g>
                <g id="Group" transform="translate(21.641791, 9.000000)">
                    <g id="map" transform="translate(-3.425373, 0.000000)">
                        <rect id="Rectangle-45-Copy-18" x="0" y="0" width="26.4" height="26.4"></rect>
                        <path d="M11.4731849,4.01148223 C11.5772003,3.98734147 11.6858745,4.00109447 11.7868684,4.05437243 L11.7868684,4.05437243 L16.3268557,6.44545772 C16.4156926,6.38320824 16.5190403,6.33789094 16.6322975,6.31496805 L16.6322975,6.31496805 L23.0376075,5.0165545 C23.2722811,4.96894279 23.51786,5.02519291 23.7047181,5.17031823 C23.8915762,5.31540336 24,5.53337259 24,5.76375702 L24,5.76375702 L24,20.93775 C24,21.2987552 23.7363435,21.6103809 23.3677025,21.6849927 L23.3677025,21.6849927 L16.9623925,22.9834464 C16.9076563,22.9946562 16.8523748,23 16.797345,23 C16.7237668,23 16.6508036,22.99027 16.5804999,22.9712694 L16.5110385,22.9918512 L16.5110385,22.9918512 L16.4267506,23 C16.3545291,23 16.2819155,22.9821992 16.2131316,22.9458461 L16.2131316,22.9458461 L11.3596303,20.3891029 C11.2749969,20.3444787 11.2017294,20.275365 11.1438151,20.1894472 L4.98736998,21.969033 C4.91500829,21.9896777 4.84062984,22 4.76677574,22 C4.60394178,22 4.4429229,21.950057 4.30900941,21.854168 C4.11475418,21.7150105 4,21.4954087 4,21.2623025 L4,21.2623025 L4,6.60676492 C4,6.28118462 4.22212699,5.99398321 4.5461815,5.90030611 L4.5461815,5.90030611 L11.0126704,4.03145963 C11.1495459,3.99158564 11.2931858,3.99011035 11.4279613,4.02422244 Z M22.40531,6.70626801 L17.59469,7.68140406 L17.59469,21.2939338 L22.40531,20.3188379 L22.40531,6.70626801 Z M12,6 L12,19.0818137 L16,21 L16,7.91818629 L12,6 Z M10.4664485,5.72963839 L5.53355148,7.15536192 L5.53355148,20.2700781 L10.4664485,18.8443546 L10.4664485,5.72963839 Z" id="Combined-Shape" fill="#54595E" fill-rule="nonzero"></path>
                    </g>
                </g>
            </g>
        </g>
    </g>
</svg>