<svg xmlns="http://www.w3.org/2000/svg" xmlns:xlink="http://www.w3.org/1999/xlink" viewBox="0 0 59 58"><defs><path d="M22.31464.54H7.68651c-.27915 0-.57034.14592-.74838.3628l-.079.114-6.1878 11.14535c-.0837.17013-.13018.35252-.13032.5286-.0197.8677.55693 1.96155 1.76602 3.25427l.42385.43765v12.1079c0 .48508.3544.88938.80677.95888l.1384.01055H26.3248c.4694 0 .86647-.3602.93479-.82659l.01038-.14284V16.2962l.26454-.15689C28.72434 15.43368 29.46 14.12937 29.46 12.68c0-.10922-.02066-.22667-.05556-.33624l-.06223-.15641-6.2054-11.18017c-.1364-.25792-.36968-.41692-.66783-.4571L22.31464.54zm3.0647 23.48664v3.4945H4.62092v-3.4945h20.75844zm-7.69526-8.32294l.31938.24344c.64427.4911 1.45628.75769 2.3094.75769.7356 0 1.4258-.19851 2.0542-.58715l.26548-.17818.31129-.22581.31518.22033c.4721.33002.95382.5523 1.43122.65304l.28581.04575.48173.0523v5.32568H4.69988l-.00536-5.257.44605-.0792c.49069-.08714.97414-.27332 1.40774-.55066l.25383-.17728.27238-.20727.3037.15786c1.04368.54252 1.84844.80759 2.3876.80759.7356 0 1.4258-.19851 2.0542-.58715l.26548-.17818.32506-.2358.31938.24344c.64426.4911 1.45628.75769 2.3094.75769.7356 0 1.4258-.19851 2.0542-.58715l.26548-.17818.32506-.2358zM8.18228 2.44038h13.59523l5.82139 10.45251-.0405.19648c-.20039.9724-1.0551 1.6766-2.05032 1.6766-.75845 0-1.45997-.41387-1.80563-1.06435-.17126-.29851-.48313-.48343-.83113-.48343-.348 0-.65988.18492-.82217.46718-.3491.66007-1.04742 1.0806-1.77687 1.0806-.73265 0-1.4651-.42352-1.80563-1.06435-.17126-.29851-.48313-.48343-.83113-.48343-.32567 0-.66774.19862-.82217.46718-.35235.6662-1.0542 1.0806-1.81315 1.0806-.75845 0-1.45996-.41387-1.80563-1.06435-.17126-.29851-.48313-.48343-.83113-.48343-.348 0-.65988.18492-.82217.46718-.35227.66607-1.05546 1.0806-1.81459 1.0806-.75845 0-1.45997-.41387-1.80563-1.06435-.17126-.29851-.48313-.48343-.83113-.48343-.32567 0-.66774.19862-.82217.46718-.35228.66607-1.05546 1.0806-1.8146 1.0806-.92843 0-1.7347-.61287-2.00255-1.48487l-.049-.1907-.041-.19698L8.18228 2.44038z" id="a"/></defs><g transform="translate(.5)" fill="none" fill-rule="evenodd"><circle fill="#A9ACAF" cx="29" cy="29" r="29"/><g transform="translate(14 14)"><mask id="b" fill="#fff"><use xlink:href="#a"/></mask><use fill="#FFF" fill-rule="nonzero" xlink:href="#a"/><g mask="url(#b)" fill="#fff"><path d="M-9-9h48v48H-9z"/></g></g></g></svg>