<?xml version="1.0" encoding="UTF-8"?>
<svg width="22px" height="22px" viewBox="0 0 22 22" version="1.1" xmlns="http://www.w3.org/2000/svg" xmlns:xlink="http://www.w3.org/1999/xlink">
    <!-- Generator: sketchtool 63.1 (101010) - https://sketch.com -->
    <title>13D4497D-A83A-4AF7-80AC-3FD1F5A82CE6@0,5x</title>
    <desc>Created with sketchtool.</desc>
    <g id="UI---Perfil" stroke="none" stroke-width="1" fill="none" fill-rule="evenodd">
        <g id="[desktop]-perfil---sugestão-form" transform="translate(-18.000000, -544.000000)" fill="#292F36" stroke="#FFFFFF" stroke-width="0.78">
            <g id="Dados-principais/agricultor" transform="translate(5.000000, 508.000000)">
                <g id="Dados-principais">
                    <g id="Group-12" transform="translate(14.000000, 37.000000)">
                        <path d="M1.46058632,11.0691824 L1.46058632,18.9937107 C1.46058632,19.5469686 1.90633385,20 2.45069632,20 L17.5498738,20 C18.0942363,20 18.5399838,19.5469686 18.5399838,18.9937107 L18.5399838,11.0691824 C19.4314788,10.540478 20,9.55974843 20,8.45333333 C20,8.27742893 19.9506876,8.10153459 19.8762363,7.95018868 L15.7427745,0.503144654 C15.5696984,0.175899371 15.2477195,0 14.8764283,0 L5.12433986,0 C4.7781974,0 4.43106484,0.201454088 4.25799361,0.503144654 L0.124531893,7.94918239 C0.0500810666,8.10051824 0.000768638083,8.27642767 0.000768638083,8.45232704 C-0.0243702548,9.5598239 0.569314057,10.5405786 1.46078435,11.0691824 L1.46058632,11.0691824 Z M14.3067685,1.98691824 L18.019681,8.65358491 C17.9210561,9.13215094 17.5004426,9.48397484 17.0053876,9.48397484 C16.6340963,9.48397484 16.2879539,9.28252075 16.1138925,8.95527044 C15.9408163,8.65358491 15.6188375,8.45212579 15.2475463,8.45212579 C14.876255,8.45212579 14.5542712,8.65357987 14.3812,8.95527044 C14.2081238,9.28251572 13.8619616,9.48397484 13.5148538,9.48397484 C13.1687113,9.48397484 12.7974201,9.28252075 12.6233587,8.95527044 C12.4502825,8.65358491 12.1283037,8.45212579 11.7570125,8.45212579 C11.41087,8.45212579 11.0637375,8.65357987 10.8906662,8.95527044 C10.7175901,9.28251572 10.3714278,9.48397484 10.0001365,9.48397484 C9.62884529,9.48397484 9.28270284,9.28252075 9.1086415,8.95527044 C8.93556532,8.65358491 8.6135865,8.45212579 8.24229525,8.45212579 C7.871004,8.45212579 7.54902023,8.65357987 7.375949,8.95527044 C7.20287283,9.28251572 6.85574521,9.48397484 6.48445396,9.48397484 C6.11316271,9.48397484 5.76702026,9.28252075 5.59295892,8.95527044 C5.41988274,8.65358491 5.09790392,8.45212579 4.72661267,8.45212579 C4.38047022,8.45212579 4.03333765,8.65357987 3.86026642,8.95527044 C3.68719024,9.28251572 3.34006263,9.48397484 2.96877138,9.48397484 C2.47371638,9.48397484 2.05311765,9.1321761 1.95351259,8.65358491 L5.66642508,1.98691824 L14.3067685,1.98691824 Z M4.75270207,10.9177358 C5.24775707,11.2950943 5.86657582,11.4965535 6.51054336,11.4965535 C7.1545109,11.4965535 7.74818086,11.2950994 8.26838465,10.9177358 C8.76343965,11.2950943 9.3822584,11.4965535 10.0262259,11.4965535 C10.6701935,11.4965535 11.2638634,11.2950994 11.7840672,10.9177358 C12.2791222,11.2950943 12.897941,11.4965535 13.5419085,11.4965535 C14.1858761,11.4965535 14.779546,11.2950994 15.2997498,10.9177358 C15.6961899,11.1948679 16.1409473,11.3953208 16.6118436,11.4464403 L16.6118436,14.3138616 L3.49288611,14.3138616 L3.48998508,11.4708428 C3.91058381,11.396156 4.35633133,11.2192704 4.75277138,10.9175849 L4.75270207,10.9177358 Z M3.4406083,17.9874214 L3.4406083,16.377761 L16.5595658,16.377761 L16.5595658,17.9874214 L3.4406083,17.9874214 Z" id="Fill-1"></path>
                    </g>
                </g>
            </g>
        </g>
    </g>
</svg>