<?xml version="1.0" encoding="UTF-8"?>
<svg width="32px" height="32px" viewBox="0 0 32 32" version="1.1" xmlns="http://www.w3.org/2000/svg" xmlns:xlink="http://www.w3.org/1999/xlink">
    <!-- Generator: Sketch 63.1 (92452) - https://sketch.com -->
    <title>active-feiras</title>
    <desc>Created with Sketch.</desc>
    <defs>
        <path d="M20.8764283,6.36 L11.1243399,6.36 C10.9382425,6.36 10.7441144,6.45728267 10.6254217,6.60186846 L10.5727481,6.6778719 L6.44755813,14.1080976 C6.3917594,14.2215194 6.36076864,14.3431102 6.36067593,14.4604965 C6.34754523,15.0389711 6.73195704,15.7681983 7.53802028,16.6300101 L7.82058632,16.9217812 L7.82058632,24.9937107 C7.82058632,25.3171014 8.05685729,25.5866324 8.35843483,25.6329654 L8.45069632,25.64 L23.5498738,25.64 C23.862803,25.64 24.1275221,25.3998682 24.1730666,25.0889428 L24.1799838,24.9937107 L24.1799838,16.8641343 L24.3563493,16.7595401 C25.1495625,16.289122 25.64,15.4195808 25.64,14.4533333 C25.64,14.3805219 25.6262275,14.3022171 25.6029599,14.2291733 L25.5614717,14.1248979 L21.424542,6.67145409 C21.3336025,6.49950946 21.1780874,6.39350364 20.9793185,6.36672534 L20.8764283,6.36 Z M22.9195658,22.017761 L22.9195658,24.3474214 L9.0806083,24.3474214 L9.0806083,22.017761 L22.9195658,22.017761 Z M17.7893877,16.4691304 L18.0023064,16.6314289 C18.4318171,16.9588259 18.973161,17.1365535 19.5419085,17.1365535 C20.0323104,17.1365535 20.4924442,17.0042136 20.911375,16.7451185 L21.0883623,16.6263335 L21.2958848,16.4757937 L21.5060084,16.622681 C21.8207413,16.8426955 22.1418846,16.9908798 22.4601538,17.0580419 L22.6506962,17.088543 L22.9718436,17.123406 L22.9718436,20.6738616 L9.13325326,20.6738616 L9.12967709,17.1691919 L9.4270436,17.1163877 C9.75417294,17.0582985 10.0764762,16.9341803 10.36554,16.7492885 L10.5347623,16.6311027 L10.7163471,16.4929191 L10.918811,16.5981622 C11.6145977,16.9598403 12.1511061,17.1365535 12.5105434,17.1365535 C13.0009452,17.1365535 13.461079,17.0042136 13.8800098,16.7451185 L14.0569971,16.6263335 L14.2737051,16.4691304 L14.4866238,16.6314289 C14.9161345,16.9588259 15.4574784,17.1365535 16.0262259,17.1365535 C16.5166278,17.1365535 16.9767616,17.0042136 17.3956924,16.7451185 L17.5726797,16.6263335 L17.7893877,16.4691304 Z M11.4548554,7.62691824 L20.5183382,7.62691824 L24.3992657,14.5952619 L24.3722715,14.7262482 C24.238675,15.37451 23.668864,15.8439748 23.0053876,15.8439748 C22.4997516,15.8439748 22.0320758,15.5680641 21.8016306,15.1344143 C21.6874606,14.9354069 21.4795452,14.8121258 21.2475463,14.8121258 C21.015543,14.8121258 20.8076275,14.9354055 20.6994325,15.1235799 C20.4666953,15.5636298 20.0011547,15.8439748 19.5148538,15.8439748 C19.026422,15.8439748 18.5381218,15.5616337 18.3110968,15.1344143 C18.1969268,14.9354069 17.9890114,14.8121258 17.7570125,14.8121258 C17.5398989,14.8121258 17.3118545,14.9445383 17.2088987,15.1235799 C16.9739985,15.5677196 16.5060997,15.8439748 16.0001365,15.8439748 C15.4945006,15.8439748 15.0268248,15.5680641 14.7963796,15.1344143 C14.6822096,14.9354069 14.4742941,14.8121258 14.2422953,14.8121258 C14.010292,14.8121258 13.8023765,14.9354055 13.6941815,15.1235799 C13.4593311,15.5676253 12.9905419,15.8439748 12.484454,15.8439748 C11.978818,15.8439748 11.5111422,15.5680641 11.280697,15.1344143 C11.166527,14.9354069 10.9586116,14.8121258 10.7266127,14.8121258 C10.5094991,14.8121258 10.2814547,14.9445383 10.1784989,15.1235799 C9.94364854,15.5676253 9.47485929,15.8439748 8.96877138,15.8439748 C8.34981123,15.8439748 7.81230101,15.435399 7.63373394,14.8540664 L7.60106473,14.7269368 L7.57373313,14.5956116 L11.4548554,7.62691824 Z" id="path-1-market-pink"></path>
    </defs>
    <g id="Symbols" stroke="none" stroke-width="1" fill="none" fill-rule="evenodd">
        <g id="header-item/feiras/active" transform="translate(-34.000000, 0.000000)">
            <g id="active-feiras" transform="translate(34.000000, 0.000000)">
                <circle id="Oval" fill="#EA3E57" cx="16" cy="16" r="16"></circle>
                <g id="2.-assets/icons/feiras">
                    <mask id="mask-2-market-pink" fill="white">
                        <use xlink:href="#path-1-market-pink"></use>
                    </mask>
                    <use id="Fill-1" fill="#FFFFFF" fill-rule="nonzero" xlink:href="#path-1-market-pink"></use>
                    <g id="1.-colors/white" mask="url(#mask-2-market-pink)" fill="#FFFFFF" fill-rule="evenodd">
                        <rect id="Rectangle" x="0" y="0" width="32" height="32"></rect>
                    </g>
                </g>
            </g>
        </g>
    </g>
</svg>
