<svg xmlns="http://www.w3.org/2000/svg" viewBox="0 0 32 35"><g transform="translate(0 .45393)" fill="none" fill-rule="evenodd"><ellipse fill="#EA3E57" cx="16" cy="16.85673" rx="16" ry="16.85673"/><path d="M7.46059 16.92962v8.34885c0 .58288.44574 1.06017.9901 1.06017h15.09918c.54437 0 .99011-.47729.99011-1.06017v-8.34885C25.43148 16.3726 26 15.33936 26 14.1737c0-.18532-.04931-.37064-.12376-.53009l-4.13347-7.8458c-.17307-.34476-.49505-.53008-.86634-.53008h-9.75209c-.34614 0-.69328.21224-.86635.53008l-4.13346 7.84474c-.07445.15944-.12376.34477-.12376.53009-.02514 1.1668.56854 2.20007 1.46001 2.75698h-.0002zm12.84618-9.56858l3.71291 7.02363c-.09862.5042-.51924.87486-1.0143.87486-.37128 0-.71743-.21224-.89149-.55702-.17307-.31784-.49505-.53008-.86634-.53008-.3713 0-.69328.21224-.86635.53008-.17308.34477-.51924.55702-.86635.55702-.34614 0-.71743-.21224-.8915-.55702-.17307-.31784-.49505-.53008-.86634-.53008-.34614 0-.69327.21224-.86634.53008-.17308.34477-.51924.55702-.89053.55702-.3713 0-.71744-.21224-.8915-.55702-.17307-.31784-.49505-.53008-.86634-.53008-.3713 0-.69328.21224-.86635.53008-.17308.34477-.5202.55702-.8915.55702-.37129 0-.71743-.21224-.8915-.55702-.17307-.31784-.49505-.53008-.86634-.53008-.34614 0-.69327.21224-.86634.53008-.17308.34477-.5202.55702-.8915.55702-.49505 0-.91565-.37064-1.01526-.87486l3.71292-7.02363h8.64034zm-9.55407 9.40902c.49506.39757 1.11388.60981 1.75784.60981.64397 0 1.23764-.21224 1.75784-.6098.49506.39756 1.11388.6098 1.75785.6098.64396 0 1.23763-.21224 1.75784-.6098.49505.39756 1.11387.6098 1.75784.6098.64397 0 1.23764-.21224 1.75784-.6098.39644.29196.8412.50315 1.3121.557v3.02096H9.49288l-.0029-2.99525c.4206-.07868.86634-.26504 1.26278-.58288l-.00007.00016zM9.4406 24.2183v-1.69585h13.11897v1.69585H9.4406z" stroke="#EA3E57" stroke-width=".72" fill="#FFF"/></g></svg>