<svg xmlns="http://www.w3.org/2000/svg" xmlns:xlink="http://www.w3.org/1999/xlink" viewBox="0 0 63 67"><defs><filter x="-41.5%" y="-33.3%" width="183%" height="176.4%" filterUnits="objectBoundingBox" id="a"><feMorphology radius="1.275" operator="dilate" in="SourceAlpha" result="shadowSpreadOuter1"/><feOffset dy="2" in="shadowSpreadOuter1" result="shadowOffsetOuter1"/><feGaussianBlur stdDeviation="5" in="shadowOffsetOuter1" result="shadowBlurOuter1"/><feComposite in="shadowBlurOuter1" in2="SourceAlpha" operator="out" result="shadowBlurOuter1"/><feColorMatrix values="0 0 0 0 0 0 0 0 0 0 0 0 0 0 0 0 0 0 0.15 0" in="shadowBlurOuter1"/></filter><path d="M20.825 0C32.32633 0 41.65 9.32367 41.65 20.825c0 9.83913-6.82346 18.08456-15.99643 20.26235L20.825 45.9l-4.82857-4.81265C6.82346 38.90956 0 30.66413 0 20.825 0 9.32367 9.32367 0 20.825 0z" id="b"/></defs><g fill="none" fill-rule="evenodd"><g transform="translate(10.9 8.6)"><use fill="#000" filter="url(#a)" xlink:href="#b"/><use stroke="#FFF" stroke-width="2.55" fill="#EA3E57" xlink:href="#b"/></g><path d="M21.20017 29.04277v9.76698c0 .68189.54939 1.24025 1.22031 1.24025h18.60974c.67093 0 1.22031-.55836 1.22031-1.24025v-9.76698c1.09877-.65163 1.79947-1.86038 1.79947-3.22404 0-.2168-.06078-.43359-.15254-.62012l-5.09449-9.17848c-.21332-.40333-.61016-.62013-1.06777-.62013H25.71575c-.42662 0-.85446.2483-1.06777.62013l-5.0945 9.17724c-.09176.18652-.15253.40333-.15253.62012-.03099 1.365.70073 2.57377 1.79947 3.22528h-.00025zm15.83292-11.1939l4.57617 8.21667c-.12156.58984-.63996 1.02346-1.25012 1.02346-.45762 0-.88424-.2483-1.09877-.65163-.21331-.37183-.61015-.62012-1.06777-.62012-.45762 0-.85446.24829-1.06777.62012-.21332.40333-.63996.65163-1.06777.65163-.42662 0-.88424-.2483-1.09877-.65163-.21332-.37183-.61016-.62012-1.06777-.62012-.42662 0-.85446.24829-1.06777.62012-.21332.40333-.63997.65163-1.09758.65163-.45762 0-.88424-.2483-1.09877-.65163-.21332-.37183-.61015-.62012-1.06777-.62012-.45762 0-.85446.24829-1.06777.62012-.21332.40333-.64115.65163-1.09877.65163s-.88424-.2483-1.09877-.65163c-.21331-.37183-.61015-.62012-1.06777-.62012-.42662 0-.85446.24829-1.06777.62012-.21332.40333-.64115.65163-1.09877.65163-.61015 0-1.12854-.4336-1.2513-1.02346l4.57616-8.21666h10.64922zM25.25771 28.85612c.61015.4651 1.37284.7134 2.16653.7134.7937 0 1.5254-.2483 2.16654-.7134.61016.4651 1.37285.7134 2.16654.7134.7937 0 1.5254-.2483 2.16654-.7134.61016.4651 1.37285.7134 2.16654.7134.7937 0 1.52539-.2483 2.16654-.7134.48861.34156 1.03678.58862 1.61716.65163v3.5341H23.70498l-.00357-3.50403c.51838-.09205 1.06777-.31006 1.55638-.68189l-.00008.00019zm-1.61716 8.71339v-1.98391h16.16911v1.9839H23.64055z" stroke="#EA3E57" stroke-width=".765" fill="#FFF"/></g></svg>