<svg xmlns="http://www.w3.org/2000/svg" xmlns:xlink="http://www.w3.org/1999/xlink" viewBox="0 0 69 69"><defs><circle id="a" cx="34.02" cy="34.02" r="34.02"/></defs><g transform="translate(.5)" fill="none" fill-rule="evenodd"><mask id="b" fill="#fff"><use xlink:href="#a"/></mask><use fill="#EA3E57" xlink:href="#a"/><path d="M23.7527 35.28302v9.50943c0 .66391.5349 1.20755 1.18814 1.20755h18.119c.65324 0 1.18814-.54364 1.18814-1.20755v-9.50943C45.31778 34.64857 46 33.4717 46 32.144c0-.21109-.05917-.42216-.14852-.60377l-4.96015-8.93646C40.68363 22.21107 40.29726 22 39.8517 22h-11.7025c-.41537 0-.83193.24174-1.03962.60377l-4.96015 8.93525c-.08934.1816-.14852.3927-.14852.60377-.03016 1.329.68226 2.5059 1.75202 3.14023h-.00024zM39.16812 24.3843l4.4555 8c-.11835.57428-.62309.99647-1.21715.99647-.44555 0-.86093-.24175-1.0698-.63445-.20769-.36202-.59407-.60377-1.03961-.60377-.44555 0-.83193.24175-1.03962.60377-.2077.3927-.62309.63445-1.03962.63445-.41537 0-.86092-.24175-1.06979-.63445-.2077-.36202-.59407-.60377-1.03961-.60377-.41538 0-.83194.24175-1.03962.60377-.2077.3927-.62309.63445-1.06864.63445s-.86092-.24175-1.06979-.63445c-.2077-.36202-.59407-.60377-1.03962-.60377s-.83193.24175-1.03961.60377c-.2077.3927-.62425.63445-1.0698.63445-.44554 0-.86092-.24175-1.06979-.63445-.2077-.36202-.59407-.60377-1.03961-.60377-.41538 0-.83193.24175-1.03962.60377-.2077.3927-.62424.63445-1.0698.63445-.59406 0-1.09878-.42216-1.2183-.99647l4.45549-8h10.36841zM27.70324 35.10128c.59407.45283 1.33665.69458 2.10941.69458.77276 0 1.48517-.24174 2.10941-.69458.59407.45283 1.33665.69458 2.10941.69458.77276 0 1.48517-.24174 2.10941-.69458.59407.45283 1.33665.69458 2.10941.69458.77276 0 1.48517-.24174 2.10941-.69458.47573.33256 1.00944.5731 1.57451.63445v3.4409H26.19146l-.00348-3.41162c.50472-.08962 1.03962-.30189 1.51535-.6639l-.00009.00017zm-1.57451 8.48363v-1.9316h15.74275v1.9316H26.12873z" stroke="#EA3E57" stroke-width=".972" fill="#FFF" mask="url(#b)"/></g></svg>