<svg xmlns="http://www.w3.org/2000/svg" xmlns:xlink="http://www.w3.org/1999/xlink" viewBox="0 0 14 14"><defs><path d="M16.47891 15.6881l-2.98231-2.9823c.8136-.99048 1.3034-2.2585 1.3034-3.6381 0-3.1619-2.57143-5.73333-5.73333-5.73333-3.1619 0-5.73334 2.57143-5.73334 5.73333 0 3.1619 2.57143 5.73333 5.73334 5.73333 1.37959 0 2.64762-.4898 3.6381-1.3034l2.9823 2.98232c.22586.22585.566.22585.79184 0 .22857-.22588.22857-.56602 0-.79184zM4.44898 9.0677c0-2.54694 2.07075-4.61769 4.61769-4.61769 2.54694 0 4.61768 2.07075 4.61768 4.6177 0 2.54693-2.07074 4.61768-4.61768 4.61768S4.44898 11.6146 4.44898 9.0677z" id="a"/></defs><g transform="translate(-3 -3)" fill="none" fill-rule="evenodd"><path d="M0 0h20v20H0z"/><mask id="b" fill="#fff"><use xlink:href="#a"/></mask><use fill="#54595E" fill-rule="nonzero" xlink:href="#a"/><g mask="url(#b)" fill="#FFF"><path d="M0 0h20v20H0z"/></g></g></svg>