<svg xmlns="http://www.w3.org/2000/svg" viewBox="0 0 18 19"><path d="M11.3835 10.27708c1.37965-.72109 2.36286-2.02747 2.67725-3.5558.3153-1.52926-.07276-3.11947-1.05504-4.33015C12.02342 1.18045 10.55054.4779 8.99544.4779c-1.5551 0-3.02806.70236-4.01027 1.91323-.9822 1.21087-1.37034 2.8011-1.05504 4.33015.31436 1.52833 1.29757 2.83467 2.67725 3.5558-1.62594.51318-3.04573 1.53487-4.05421 2.91426C1.54477 14.57077 1.00093 16.23673 1 17.9487c0 .2641.21362.47948.47761.47948.264 0 .47761-.2154.47761-.47948 0-2.5266 1.34329-4.86213 3.5224-6.12555 2.18003-1.2633 4.86566-1.2633 7.04477 0 2.18003 1.2633 3.52239 3.59895 3.52239 6.12555 0 .2641.21362.47948.4776.47948.264 0 .47762-.2154.47762-.47948-.00093-1.7128-.54665-3.37983-1.5569-4.76-1.01026-1.37943-2.432-2.3993-4.0597-2.91162h.0001zM4.77813 5.67626c0-1.12283.44403-2.19979 1.23508-2.99385.79104-.79406 1.8638-1.2399 2.9822-1.2399 1.1184 0 2.19124.44577 2.98221 1.2399.79098.79414 1.23508 1.87109 1.23508 2.99385 0 1.12277-.44403 2.1998-1.23508 2.99385-.79104.79407-1.8638 1.2399-2.9822 1.2399-1.11848-.00093-2.19031-.44763-2.9803-1.24177-.79105-.7932-1.23602-1.86921-1.237-2.99193v-.00005z" fill="#000" stroke="#292F36" stroke-width=".25" fill-rule="evenodd"/></svg>