<svg xmlns="http://www.w3.org/2000/svg" viewBox="0 0 19 19"><path d="M11.37463 12.74935c.27512-.27422.27512-.27422.60645-.60381.307-.30527.54857-.54512.7029-.69774.76665-.76065 1.79167-.76065 2.56088.00083.71465.70781 1.4377 1.43155 2.17416 2.17288.7784.78411.77337 1.80893-.00755 2.59732-.15518.15598-.40765.34131-.7524.56272-.07633.04948-.15685.0998-.24157.1518-.22648.14004-.46805.28177-.70962.4193-.14512.08219-.25835.14509-.3137.17528-.8841.50989-2.32018.62058-3.24202.26417-.09227-.02767-.2575-.08386-.48566-.17108-.37494-.14173-.79182-.31952-1.23973-.53505-1.27748-.61388-2.55487-1.40639-3.74856-2.39937-.4798-.3992-.93694-.82353-1.36808-1.27388-.3481-.36397-.6786-.74302-.9923-1.13552-1.03422-1.29316-1.84535-2.6761-2.46103-4.05978-.21557-.48557-.39171-.93676-.53096-1.34265-.08472-.24655-.13924-.4252-.15434-.48808-.34643-.95436-.15015-2.391.42779-3.23623.03606-.0562.09981-.1518.18285-.27506.13924-.20463.28351-.4084.42612-.60047.06207-.08386.1233-.1627.18201-.23734.15099-.19205.2877-.35054.41102-.4713.76833-.7556 1.79168-.75477 2.56175.00083.3137.30778 1.66919 1.66469 2.15998 2.1587.7935.80174.79517 1.81397.00252 2.60978-.11827.11992-.37662.37822-.73312.73548l-.55443.55433c-.12918.12999-.17531.17528-.2055.20547.05032.1283.1342.32622.24826.57279.2206.47719.47392.95352.75324 1.39632.30532.48305.62321.89399.94784 1.21014.30028.29269.65846.5753 1.06191.84618.47057.31617.97804.59963 1.48468.84367.26339.12663.47391.21887.61735.2776.03271-.03271.0822-.08136.22899-.22812l-.00013-.0001zm5.4093 1.50283c-.7348-.7405-1.45614-1.46174-2.16922-2.16794-.42023-.41596-.88241-.41596-1.3018-.00084-.15267.1518-.39423.39164-.69872.6944-.333.33126-.333.33126-.60812.60549-.2206.21971-.2206.21971-.27597.27422-.21892.21804-.58549.2885-.85809.1736-.15014-.0587-.40597-.16773-.73228-.32539-.54269-.26166-1.08624-.5644-1.59539-.90657-.4454-.29938-.8455-.61556-1.18688-.9485-.3808-.37068-.73981-.83527-1.07952-1.37283-.30281-.47887-.57374-.98876-.80943-1.49864-.14176-.30695-.24157-.5468-.29107-.6793-.11407-.28262-.0369-.6424.17615-.85542l.25164-.25159c.25165-.2516.25165-.2516.55276-.5535.3565-.35726.61484-.61555.73312-.73464.4454-.44698.44456-.8965-.0042-1.34937-.48733-.49144-1.8403-1.84584-2.15075-2.14947-.42276-.41513-.88744-.41513-1.30767-.00252-.09142.09057-.20634.22309-.33635.38745-.05284.06793-.10904.1409-.16608.21804-.13421.1803-.27177.37487-.40346.56859-.07969.1174-.13924.20714-.17783.26752-.42443.61975-.5796 1.7561-.32042 2.47387.02097.07967.06962.23902.1468.46545.13168.38157.29776.80844.50328 1.26886.58548 1.31832 1.35884 2.63575 2.34186 3.86528.29777.37235.61065.73127.94029 1.07512.40764.42603.83964.82774 1.2934 1.20512 1.13321.94261 2.34874 1.69738 3.56412 2.28108.42444.20378.81866.37152 1.17011.50486.20886.07967.3548.12915.45882.16186.70039.27004 1.85373.18114 2.51386-.1996.0604-.0327.1686-.09308.30868-.17192.23317-.1325.46553-.2692.68194-.40254a20.21465 20.21465 0 00.22731-.1434c.2919-.18786.50497-.34385.60059-.4403.43702-.44028.4387-.90403.00838-1.33678l.00014.00025z" fill="#000" stroke="#292F36" stroke-width=".25" fill-rule="evenodd"/></svg>