<svg xmlns="http://www.w3.org/2000/svg" viewBox="0 0 13 14"><path d="M6.47083.01321c1.48523 0 2.90937.5892 3.95796 1.6375 1.01317 1.01546 1.62328 2.36212 1.71755 3.79109a5.56944 5.56944 0 01-.33861 2.29982c-.25866.70653-.67414 1.37396-1.23556 1.98503l-.06071.06526-3.89076 4.13024a.2059.2059 0 01-.14987.06463.20598.20598 0 01-.13635-.05155l-.0135-.01308L2.4302 9.7919c-.59226-.6287-1.02838-1.31853-1.29627-2.05029A5.56944 5.56944 0 01.79533 5.4418c.09427-1.42897.70437-2.77563 1.71755-3.7911C3.56146.60241 4.98561.01321 6.47083.01321zm0 1.16667c-1.176 0-2.30341.46643-3.13206 1.29485-.8138.81563-1.30363 1.89684-1.37917 3.04178-.03966.618.05154 1.23742.2699 1.82403.20395.5571.53642 1.092.99436 1.59161l.05556.05979 3.1913 3.3878 3.19153-3.3878c.46797-.49678.8106-1.02934 1.02678-1.58993l.02533-.0674c.21617-.58068.30737-1.2001.26785-1.816-.07568-1.14704-.56552-2.22825-1.37827-3.04283-.8297-.82947-1.9571-1.2959-3.1331-1.2959zm0 1.85513c1.39759 0 2.53457 1.16097 2.53457 2.58829 0 1.42732-1.13698 2.5883-2.53457 2.5883-1.39758 0-2.53457-1.16115-2.53457-2.5883S5.07325 3.035 6.47083 3.035zm0 1.16666c-.74768 0-1.3679.63338-1.3679 1.42163 0 .78825.62022 1.42163 1.3679 1.42163.74776 0 1.3679-.63328 1.3679-1.42163s-.62014-1.42163-1.3679-1.42163z" fill="#3F993F" fill-rule="nonzero"/></svg>