<svg xmlns="http://www.w3.org/2000/svg" viewBox="0 0 16 20"><path d="M8 1C4.1477 1 1 4.22778 1 8.17806c0 2.5593 1.16684 5.20222 3.41901 7.67911 1.65541 1.83662 3.30968 2.9212 3.39135 2.97656L8.00006 19l.21726-.1391c.0816-.05543 1.70945-1.19652 3.36367-3.0603C13.80549 13.29672 15 10.68212 15 8.20523c0-3.97866-3.1477-7.20505-7-7.20505V1zm0 16.97072c-.48857-.3619-1.7635-1.30736-3.01205-2.6984C3.5498 13.6585 1.81392 11.12757 1.81392 8.178 1.81392 4.67202 4.581 1.83457 8 1.83457c3.41901 0 6.18608 2.83745 6.18608 6.34343 0 4.89592-5.07318 8.95804-6.18608 9.79272h0zm0-12.9367c-1.54623 0-2.79474 1.2802-2.79474 2.86583 0 1.58557 1.24845 2.89281 2.79474 2.89281s2.79474-1.2802 2.79474-2.86582c0-1.58562-1.24845-2.89282-2.79474-2.89282zm0 4.92402c-1.08523 0-1.98076-.91831-1.98076-2.03115 0-1.11283.89553-2.03114 1.98076-2.03114 1.08523 0 1.98076.9183 1.98076 2.03114 0 1.11284-.89553 2.03115-1.98076 2.03115z" fill="#54595E" stroke="#54595E" stroke-width=".5" fill-rule="evenodd"/></svg>