<svg xmlns="http://www.w3.org/2000/svg" xmlns:xlink="http://www.w3.org/1999/xlink" viewBox="0 0 32 32"><defs><path d="M14.56793 18.46588c.31126-1.36412.98452-2.67779 1.96904-3.68817-.05172-2.17269.77767-4.64789 2.79839-5.81023 2.332-1.31369 5.85631-1.16243 8.29176-.30345.25955.10083.4147.35386.36297.60596-.51812 2.52656-2.07248 5.5572-4.40554 6.87102-1.96904 1.06067-4.45724.60596-6.37462-.4043-1.86563 2.07185-1.91734 5.10255-1.39922 7.67952.15514.65637-.98452.80857-1.13967.20167-.25955-1.16244-.36297-2.37436-.31126-3.5871-.15514-.25305-.36297-.50512-.56982-.75817-1.86563 1.06067-4.40554 1.51538-6.37463.4043-2.2803-1.26328-3.88647-4.29503-4.40553-6.82061-.05172-.25305.10343-.55553.4147-.65637 2.43545-.80857 5.95972-.95983 8.24005.30345 2.07248 1.16244 2.8501 3.63776 2.8501 5.86064 0 .05042.05171.05042.05171.10084l.00157.001zm12.17823-8.89251c-2.12516-.55553-4.8719-.70773-6.78927.35386-1.45093.80858-2.07248 2.52656-2.2286 4.09242l2.74668-1.56578c.56982-.30346 1.13967.65636.56982.95982l-2.74668 1.56578c1.45093.65637 3.26475.95983 4.71577.15125 1.96904-1.06066 3.16134-3.48628 3.73136-5.5572l.00092-.00015zm-22.44008 3.5871c.56982 2.0205 1.76219 4.44626 3.6794 5.55721 1.45092.80858 3.26475.50512 4.71577-.15125l-2.74668-1.56578c-.56982-.30345 0-1.31369.56982-.95982l2.74668 1.51537c-.15514-1.56578-.72594-3.23326-2.17686-4.042-1.91734-1.11108-4.71578-.90942-6.78928-.35387l.00115.00014z" id="a"/></defs><g fill="none" fill-rule="evenodd"><circle fill="#FFF" cx="16" cy="16" r="16"/><circle cx="16" cy="16" r="16"/><mask id="b" fill="#fff"><use xlink:href="#a"/></mask><use fill="#A9ACAF" xlink:href="#a"/><g mask="url(#b)" fill="#A9ACAF"><path d="M0 0h32v32H0z"/></g></g></svg>