<svg xmlns="http://www.w3.org/2000/svg" viewBox="0 0 52 52"><g fill="none" fill-rule="evenodd"><path d="M25.992 50.184c13.33893 0 24.192-10.85307 24.192-24.192S39.33093 1.8 25.992 1.8 1.8 12.65307 1.8 25.992s10.85307 24.192 24.192 24.192z" stroke="#FFF" stroke-width="2"/><path d="M21.98547 33.51207c.24393.13916.51958.20793.8103.20793.36422 0 .7535-.10806 1.13441-.32255l5.40498-3.03717 4.68813-2.63442C34.89877 27.23466 35.4 26.511 35.4 25.7398c0-.77118-.50123-1.49484-1.37671-1.98604l-4.68813-2.63442-5.40498-3.03717c-.68502-.38477-1.39339-.42732-1.94475-.11462-.5497.3111-.86543.93491-.86543 1.70933v12.1259c0 .77446.31577 1.39824.86543 1.70933l.00004-.00005z" fill="#FFF"/></g></svg>