<svg xmlns="http://www.w3.org/2000/svg" viewBox="0 0 24 25"><g fill="#7F8286" fill-rule="evenodd"><path d="M12 .9C5.38347.9 0 6.28347 0 12.9s5.38347 12 12 12 12-5.38347 12-12-5.38347-12-12-12zm0 23c-6.06584 0-11-4.93443-11-11s4.93443-11 11-11 11 4.93443 11 11-4.93443 11-11 11z"/><path d="M12.8489 12.48313c-.02238-.02694-.05354-.1057-.05451-.13887V4.92178c0-.23318-.17815-.42178-.3972-.42178-.21904 0-.39719.18862-.39719.42178v7.42142c0 .2539.1178.55653.2862.7358l4.03698 4.29664c.07788.0829.17913.12436.28037.12436s.20248-.04145.28036-.12436c.15479-.16478.15479-.43216 0-.59798l-4.035-4.29453z"/></g></svg>