<svg xmlns="http://www.w3.org/2000/svg" viewBox="0 0 78 78"><g fill="none" fill-rule="evenodd"><circle fill="#3F993F" cx="39" cy="39" r="39"/><path d="M63 16.17s-4.34 7.26-3.97 12.32c.63 8.61 0 16.08-5.76 23.04C47.73 58.2 38 59.6 25.75 56.39l-4.56 4.56a3.5 3.5 0 01-4.95 0l-.3-.3a3.5 3.5 0 010-4.96l4.65-4.66a26 26 0 01.14-23.41C25.47 18.53 37.1 12.3 63 16.17zM48.55 27.12a2.04 2.04 0 00-2.87.32l-9.3 11.61-4.3-4.66-.13-.13a2.15 2.15 0 00-3.04.14l-1.06 1.18-.12.14c-.62.81-.58 1.96.12 2.73l6.8 7.53.11.12c.6.56 1.43.72 2.17.47.41-.1.8-.34 1.09-.7l.28-.35.64-.63.13-.15c.17-.2.3-.42.38-.66l10.47-13.06c.65-.81.58-2-.16-2.73l-1.05-1.03-.16-.14z" fill="#FFF" fill-rule="nonzero"/></g></svg>
