<svg xmlns="http://www.w3.org/2000/svg" viewBox="0 0 23 32"><path d="M3.78057 12.29888c-.32984-.41657-.32984-.41657-.74377-.1807-.48424.27695-.97012.55422-1.48689.84956-.32425-.3686-.64915-.73588-.98391-1.11565.95763-.70993 1.88636-1.40607 2.82625-2.08742.16394-.11892.20861-.228.15638-.41788-.27037-.98588-.54107-1.97276-.78976-2.96456-.05684-.22438-.15375-.28318-.3686-.27497-.39948.01544-.80028.0046-1.23097.0046C.9208 4.68444.68525 3.27443.44444 1.8332c.12648-.00624.22865-.01577.32918-.01577C2.273 1.81646 3.77334 1.81087 5.2737 1.825c.15637.00131.34757.08213.46288.18956.4412.409.84923.8535 1.28879 1.26381.10874.10119.28778.1751.43594.17839.81375.01708 1.62782.01905 2.4396-.00132.15538-.00394.34724-.09067.45434-.20368.89751-.95205 1.78123-1.91855 2.66856-2.88145.06998-.0772.13076-.1636.20763-.2592.40572.24376.77268.46387 1.15113.69186-.4136 1.34726-.7671 2.69584-1.25232 3.99612-.28646.77235-.07194 1.41034.1981 2.13013.49705-.36598.98556-.70862 1.4537-1.07624.22044-.17378.44416-.24014.72406-.23784 1.83807.01018 3.67614.00854 5.51355.00065.20401-.00065.32557.05454.43234.23325.31472.52432.65047 1.03484.99245 1.57263-.3916.3847-.78319.75362-1.15113 1.14653-.10086.10841-.17773.2868-.17937.43398-.0115 1.71093-.00756 3.42252-.00756 5.13378v.39817h-.31275c-1.1623 0-2.32428.00394-3.48625-.00526-.1613-.00099-.3341-.04172-.48358-.1071-1.36008-.59922-2.71785-1.20797-4.0753-1.8131-.09297-.04107-.18922-.07523-.32654-.1301 0 .62157-.01216 1.19976.00525 1.77664.00822.227-.07621.3351-.27037.43233-.6025.30421-1.19187.6347-1.79273.94319-.1728.08837-.23522.19678-.22964.39323.01413.54896-.00526 1.0989.01018 1.64753.00592.22832-.04566.40047-.22503.5529-.2142.18299-.4067.39357-.61598.5989.39061.6475.77367 1.26644 1.13767 1.89522.08016.13765.13535.31144.136.46913.00822 2.8417.00263 5.68307.0115 8.52477.00066.21255-.07293.31866-.24639.41558-.59954.33476-1.18661.68956-1.78714 1.0207-.13995.07655-.31473.1232-.47406.12452-1.28878.00985-2.57757.01215-3.86602-.00329-.15736-.00131-.34955-.07983-.46256-.18857a77.32375 77.32375 0 01-2.01711-2.01678c-.1094-.11334-.19251-.3029-.1958-.45862-.01905-.85382-.0092-1.7083-.0092-2.60648h1.3315c0-.8351-.02695-1.62584.00985-2.41396.02168-.45861-.07326-.82262-.45763-1.09102-.4274-.29895-.52432-.70467-.5345-1.22176-.01183-.59758.11334-1.0654.60448-1.41724.12878-.09165.24376-.2017.40506-.33706-.31538-.31604-.60086-.57787-.85448-.86795-.09888-.11268-.17773-.28713-.17904-.43463-.01282-1.37321-.01282-2.74676.00065-4.11964.00099-.13305.0841-.30388.18562-.38996.56407-.4757 1.14588-.93168 1.73853-1.40737" fill="#4A4A4A" fill-rule="evenodd"/></svg>