<?xml version="1.0" encoding="UTF-8"?>
<svg width="63px" height="67px" viewBox="0 0 63 67" version="1.1" xmlns="http://www.w3.org/2000/svg" xmlns:xlink="http://www.w3.org/1999/xlink">
    <defs>
        <path d="M20.825,0 C32.3263299,0 41.65,9.32367009 41.65,20.825 C41.65,30.6641331 34.8265433,38.9095624 25.6535677,41.0873501 L20.825,45.9 L15.9964323,41.0873501 C6.82345673,38.9095624 0,30.6641331 0,20.825 C0,9.32367009 9.32367009,0 20.825,0 Z" id="path-1-tourism"></path>
        <filter x="-41.5%" y="-33.3%" width="183.0%" height="176.4%" filterUnits="objectBoundingBox" id="filter-2-tourism">
            <feMorphology radius="1.275" operator="dilate" in="SourceAlpha" result="shadowSpreadOuter1"></feMorphology>
            <feOffset dx="0" dy="2" in="shadowSpreadOuter1" result="shadowOffsetOuter1"></feOffset>
            <feGaussianBlur stdDeviation="5" in="shadowOffsetOuter1" result="shadowBlurOuter1"></feGaussianBlur>
            <feComposite in="shadowBlurOuter1" in2="SourceAlpha" operator="out" result="shadowBlurOuter1"></feComposite>
            <feColorMatrix values="0 0 0 0 0   0 0 0 0 0   0 0 0 0 0  0 0 0 0.15 0" type="matrix" in="shadowBlurOuter1"></feColorMatrix>
        </filter>
        <path d="M18.3453922,5.57814886 C18.6193605,5.57814886 18.8420879,5.80087099 18.8420879,6.07484171 L18.8420762,7.56614886 L22.8184906,7.56680492 C22.9293853,7.56680492 23.0374864,7.60408074 23.1250947,7.67304042 L26.6038531,10.4062825 C26.724999,10.5004036 26.7948914,10.6439149 26.7948914,10.7967422 C26.7948914,10.9495695 26.724999,11.093088 26.6047835,11.187202 L23.1260251,13.920444 C23.0384263,13.9903365 22.9303276,14.027629 22.819421,14.027629 L18.8420762,14.0271489 L18.8420762,15.0201489 L23.8128091,15.0210553 C24.0867774,15.0210553 24.3095049,15.2437774 24.3095049,15.5177481 L24.3095049,20.9851865 C24.3104347,21.2600853 24.0877102,21.4828098 23.8128091,21.4828098 L18.8420762,21.4821489 L18.8420879,28.9370034 C18.8430178,29.2119022 18.6202933,29.43465 18.3463226,29.43465 L16.3585993,29.43465 C16.084631,29.43465 15.8619064,29.2119279 15.8619064,28.9379571 L15.8600762,21.4821489 L11.8845466,21.4828098 C11.7736519,21.4828098 11.6655509,21.4455173 11.5779425,21.3765576 L8.09918407,18.6433155 C7.97896865,18.5482616 7.90907619,18.4047503 7.90907619,18.2519254 C7.90907619,18.0991005 7.97896865,17.9555796 8.09918407,17.8614656 L11.5779425,15.1282236 C11.6655413,15.0583311 11.77364,15.0210553 11.8845466,15.0210553 L15.8610762,15.0201489 L15.8610762,14.0271489 L10.8911609,14.027629 C10.6171926,14.027629 10.394468,13.8049069 10.394468,13.5309362 L10.3935353,8.06349777 C10.3935353,7.78952944 10.6162574,7.56680492 10.8902281,7.56680492 L15.8610762,7.56614886 L15.8609737,6.07484171 C15.8609737,5.80087337 16.0836958,5.57814886 16.3576665,5.57814886 L18.3453922,5.57814886 Z M17.8486993,21.4827931 L16.8543594,21.4827931 L16.8552921,28.44031 L17.8496321,28.44031 L17.8486993,21.4827931 Z M23.3161163,16.0153547 L12.0570293,16.0153547 L9.21094584,18.2519039 L12.0570293,20.4884531 L23.3161163,20.4884531 L23.3161163,16.0153547 Z M17.8490762,14.0271489 L16.8550762,14.0271489 L16.8552921,15.0210147 L17.8496321,15.0210147 L17.8490762,14.0271489 Z M22.6469407,8.56019063 L11.3878538,8.56019063 L11.3878538,13.0332891 L22.6469407,13.0332891 L25.4930242,10.7967398 L22.6469407,8.56019063 Z M17.8486993,6.57244111 L16.8543594,6.57244111 L16.8552921,7.56585066 L17.8496321,7.56585066 L17.8486993,6.57244111 Z" id="path-3"></path>
    </defs>
    <g id="UI---Mapa-tourism" stroke="none" stroke-width="1" fill="none" fill-rule="evenodd">
        <g id="[desktop]-mapa---Turismo_layout-tourism" transform="translate(-625.000000, -243.000000)">
            <g id="pin/turismo-tourism" transform="translate(635.900000, 249.900000)">
                <g id="Group-8-Copy-tourism" stroke-width="1" fill-rule="evenodd" transform="translate(0.000000, 1.700000)">
                    <g id="Oval-2">
                        <use fill="black" fill-opacity="1" filter="url(#filter-2-tourism)" xlink:href="#path-1-tourism"></use>
                        <use stroke="#FFFFFF" stroke-width="2.55" fill="#FFA129" fill-rule="evenodd" xlink:href="#path-1-tourism"></use>
                    </g>
                </g>
                <g id="Group-6-tourism" stroke-width="1" fill-rule="evenodd" transform="translate(11.050000, 10.200000)" fill="#FFFFFF">
                    <path d="M14.8247392,8.34518916 L3.04373916,8.34518916 C2.77315315,8.34518916 2.55317832,8.12521668 2.55317832,7.85462832 L2.55225705,2.45468916 C2.55225705,2.18410315 2.77222952,1.96412832 3.04281789,1.96412832 L14.8238179,1.96412832 C14.9333435,1.96412832 15.04011,2.00094394 15.1266367,2.06905226 L18.5624475,4.7685506 C18.6820977,4.86150976 18.7511273,5.00324933 18.7511273,5.15418986 C18.7511273,5.30513038 18.6820977,5.44687702 18.5633665,5.53982911 L15.1275556,8.23932745 C15.0410383,8.30835704 14.9342742,8.34518916 14.8247368,8.34518916 L14.8247392,8.34518916 Z M3.5343,7.363125 L14.6543859,7.363125 L17.4653325,5.1541875 L14.6543859,2.94525 L3.5343,2.94525 L3.5343,7.363125 Z" id="Fill-1-tourism"></path>
                    <path d="M15.8058608,15.7083307 L4.02486084,15.7083307 C3.91533524,15.7083307 3.80856875,15.6714985 3.72204202,15.6033902 L0.286231176,12.9038919 C0.167499902,12.8100114 0.0984703104,12.6682719 0.0984703104,12.5173337 C0.0984703104,12.3663955 0.167499902,12.2246465 0.286231176,12.1316945 L3.72204202,9.43219611 C3.80855932,9.36316652 3.91532346,9.3263509 4.02486084,9.3263509 L15.8058608,9.3263509 C16.0764468,9.3263509 16.2964246,9.54632337 16.2964246,9.81691174 L16.2964246,15.2168509 C16.297343,15.4883558 16.0773681,15.7083307 15.8058608,15.7083307 L15.8058608,15.7083307 Z M4.1952141,14.72625 L15.3153,14.72625 L15.3153,10.308375 L4.1952141,10.308375 L1.3842675,12.5173125 L4.1952141,14.72625 Z" id="Fill-2-tourism"></path>
                    <path d="M10.4068642,10.308375 L8.44367832,10.308375 C8.17309231,10.308375 7.95311748,10.0884025 7.95311748,9.81781416 L7.95311748,7.85462832 C7.95311748,7.58404231 8.17308996,7.36406748 8.44367832,7.36406748 L10.4068642,7.36406748 C10.6774502,7.36406748 10.897425,7.58403996 10.897425,7.85462832 L10.897425,9.81781416 C10.897425,10.0884002 10.6774525,10.308375 10.4068642,10.308375 Z M8.93423916,9.32631084 L9.91630332,9.32631084 L9.91630332,8.34424668 L8.93423916,8.34424668 L8.93423916,9.32631084 Z" id="Fill-3-tourism"></path>
                    <path d="M10.4068642,23.562 L8.44367832,23.562 C8.17309231,23.562 7.95311748,23.3420275 7.95311748,23.0714392 L7.95219621,15.2168108 C7.95219621,14.9462248 8.17216868,14.72625 8.44275705,14.72625 L10.4059429,14.72625 C10.6765289,14.72625 10.8965066,14.9462225 10.8965066,15.2168108 L10.8965066,23.0704972 C10.897425,23.3420021 10.6774502,23.562 10.4068618,23.562 L10.4068642,23.562 Z M8.93423916,22.5799358 L9.91630332,22.5799358 L9.91538205,15.7083142 L8.93331789,15.7083142 L8.93423916,22.5799358 Z" id="Fill-4-tourism"></path>
                    <path d="M10.4068642,2.94525 L8.44367832,2.94525 C8.17309231,2.94525 7.95311748,2.72527752 7.95311748,2.45468916 L7.95219621,0.490584402 C7.95219621,0.219998394 8.17216868,2.3562e-05 8.44275705,2.3562e-05 L10.4059429,2.3562e-05 C10.6765289,2.3562e-05 10.8965066,0.219996038 10.8965066,0.490584402 L10.8965066,2.45377024 C10.897425,2.72527517 10.6774502,2.94525 10.4068618,2.94525 L10.4068642,2.94525 Z M8.93423916,1.96318584 L9.91630332,1.96318584 L9.91538205,0.982040598 L8.93331789,0.982040598 L8.93423916,1.96318584 Z" id="Fill-5-tourism"></path>
                </g>
                <g id="2.-assets/icons/turismo-tourism" transform="translate(3.400000, 4.250000)">
                    <mask id="mask-4-tourism" fill="white">
                        <use xlink:href="#path-3-tourism"></use>
                    </mask>
                    <use id="Combined-Shape-tourism" stroke="#FFFFFF" stroke-width="0.5" fill="#FFFFFF" fill-rule="evenodd" xlink:href="#path-3-tourism"></use>
                    <g id="1.-colors/white-tourism"  style="display: none;" mask="url(#mask-4)" fill="#FFFFFF" fill-rule="evenodd">
                        <rect id="Rectangle-tourism" x="0" y="0" width="35.7" height="35.7"></rect>
                    </g>
                </g>
            </g>
        </g>
    </g>
</svg>
