<svg xmlns="http://www.w3.org/2000/svg" xmlns:xlink="http://www.w3.org/1999/xlink" viewBox="0 0 69 69"><defs><circle id="a" cx="34.02" cy="34.02" r="34.02"/><path d="M15.72158.12503c.39906 0 .72348.32442.72348.72348l-.00084 2.17252 5.7928.00065a.72227.72227 0 01.4466.15474L27.7507 7.1576c.17646.1371.27826.34613.27826.56874 0 .2226-.1018.43165-.2769.56873l-5.0671 3.9812c-.1276.1018-.28505.15612-.4466.15612l-5.79215-.00037v1.447l7.2391.00038c.39906 0 .72348.32441.72348.72347v7.96378c.00136.40041-.32306.72483-.72348.72483l-7.2411-.00046.00084 10.8581c.00135.40042-.32306.72487-.72213.72487h-2.89528c-.39906 0-.72347-.32441-.72347-.72347l-.00196-10.8595-5.7914.00046a.7223.7223 0 01-.44659-.15477l-5.0671-3.98119c-.1751-.13845-.2769-.34749-.2769-.5701 0-.2226.1018-.43164.2769-.56873l5.0671-3.9812c.1276-.1018.28505-.1561.4466-.1561l5.7924-.00037v-1.447l-7.23935.00037c-.39906 0-.72348-.32441-.72348-.72347l-.00136-7.96378c0-.39906.32442-.72347.72348-.72347l7.2407-.00065-.0004-2.17252c0-.39906.32441-.72348.72347-.72348h2.89529zm-.72347 23.16643h-1.44834l.00136 10.1342h1.44833l-.00135-10.1342zm7.96374-7.96377H6.56205L2.4165 18.5854l4.14556 3.25772h16.39979v-6.51544zm-7.96263-2.89566h-1.449l.0009 1.44732h1.44834l-.00024-1.44732zm6.98792-7.9634H5.58735v6.51543h16.3998l4.14555-3.25772-4.14556-3.25772zM14.99811 1.5733h-1.44834l.00136 1.44699h1.44833l-.00135-1.44699z" id="c"/></defs><g transform="translate(.5)" fill="none" fill-rule="evenodd"><mask id="b" fill="#fff"><use xlink:href="#a"/></mask><use fill="#FFA129" xlink:href="#a"/><g mask="url(#b)"><g transform="translate(19 16)"><mask id="d" fill="#fff"><use xlink:href="#c"/></mask><use stroke="#FFF" stroke-width=".25" fill="#FFF" xlink:href="#c"/></g></g></g></svg>