<svg xmlns="http://www.w3.org/2000/svg" viewBox="0 0 32 32"><g fill="none" fill-rule="evenodd"><circle fill="#FFA129" cx="15.81176" cy="15.81176" r="15.81176"/><g fill="#FFF" stroke="#FFF" stroke-width=".25"><path d="M20.45439 12.57379h-10.692c-.24558 0-.44522-.19964-.44522-.44522l-.00084-4.90078c0-.24558.19964-.44522.44522-.44522h10.692c.0994 0 .1963.03341.27483.09523l3.11821 2.44996c.1086.08437.17124.213.17124.35a.44368.44368 0 01-.1704.34998l-3.11822 2.44997a.44024.44024 0 01-.27483.09608h0zM10.2076 11.6825h10.09218l2.55111-2.00475L20.29978 7.673H10.2076v4.0095zM21.34481 19.2563h-10.692a.44449.44449 0 01-.27482-.09524L7.25977 16.7111c-.10775-.0852-.1704-.21384-.1704-.35083a.44369.44369 0 01.1704-.35l3.11822-2.44996a.44023.44023 0 01.27482-.09606h10.692c.24558 0 .44522.19964.44522.44522v4.90078c.00084.2464-.1988.44605-.44522.44605h0zm-10.53739-.8913H20.8996v-4.0095H10.80742l-2.55111 2.00475 2.55111 2.00475z"/><path d="M16.44489 14.3555h-1.78172c-.24557 0-.44521-.19964-.44521-.44521v-1.78172c0-.24557.19963-.44521.44521-.44521h1.78172c.24557 0 .44521.19963.44521.44521v1.78172c0 .24557-.19964.44521-.44521.44521zm-1.3365-.89129h.89128v-.89128h-.89128v.89128zM16.44489 26.384h-1.78172c-.24557 0-.44521-.19964-.44521-.44521l-.00084-7.12858c0-.24557.19964-.44521.44521-.44521h1.78172c.24557 0 .44522.19964.44522.44521v7.12772c.00083.2464-.19881.44607-.44439.44607h0zm-1.3365-.89129h.89128l-.00084-6.23642h-.89128l.00084 6.23642zM16.44489 7.673h-1.78172c-.24557 0-.44521-.19964-.44521-.44521l-.00084-1.78255c0-.24558.19964-.44522.44521-.44522h1.78172c.24557 0 .44522.19964.44522.44522v1.78171c.00083.2464-.19881.44605-.44439.44605h0zm-1.3365-.89129h.89128l-.00084-.89045h-.89128l.00084.89045z"/></g></g></svg>