<svg xmlns="http://www.w3.org/2000/svg" viewBox="0 0 21 17"><g fill="none" fill-rule="evenodd"><path d="M-3-5h26.4v26.4H-3z"/><path d="M.29484 1.62062c0 .89704.7272 1.62422 1.62422 1.62422.89703 0 1.62422-.72718 1.62422-1.62422 0-.89703-.72719-1.62421-1.62422-1.62421S.29484.72359.29484 1.62062zm18.8693.74766H6.33024c-.51305 0-.9307-.41766-.9307-.9307 0-.51305.41765-.9307.9307-.9307h12.83648c.51305 0 .9307.41765.9307.9307-.00258.51562-.41765.9307-.93328.9307zM.29484 8.2c0 .89703.7272 1.62422 1.62422 1.62422.89703 0 1.62422-.72719 1.62422-1.62422S2.8161 6.57578 1.91906 6.57578.29484 7.30297.29484 8.2zm18.8693.75023H6.33024c-.51305 0-.9307-.41765-.9307-.9307s.41765-.9307.9307-.9307h12.83648c.51305 0 .9307.41765.9307.9307-.00258.51305-.41765.9307-.93328.9307zM.29484 14.77937c0 .89704.7272 1.62422 1.62422 1.62422.89703 0 1.62422-.72718 1.62422-1.62422 0-.89703-.72719-1.62421-1.62422-1.62421s-1.62422.72718-1.62422 1.62421zm18.8693.75024H6.33024c-.51305 0-.9307-.41766-.9307-.9307 0-.51305.41765-.9307.9307-.9307h12.83648c.51305 0 .9307.41765.9307.9307-.00258.51562-.41765.9307-.93328.9307z" fill="#FFF" fill-rule="nonzero"/></g></svg>