<svg xmlns="http://www.w3.org/2000/svg" xmlns:xlink="http://www.w3.org/1999/xlink" viewBox="0 0 75 80"><defs><filter x="-41.8%" y="-34.3%" width="183.7%" height="177.1%" filterUnits="objectBoundingBox" id="a"><feMorphology radius="1.5" operator="dilate" in="SourceAlpha" result="shadowSpreadOuter1"/><feOffset dy="2" in="shadowSpreadOuter1" result="shadowOffsetOuter1"/><feGaussianBlur stdDeviation="6" in="shadowOffsetOuter1" result="shadowBlurOuter1"/><feComposite in="shadowBlurOuter1" in2="SourceAlpha" operator="out" result="shadowBlurOuter1"/><feColorMatrix values="0 0 0 0 0 0 0 0 0 0 0 0 0 0 0 0 0 0 0.15 0" in="shadowBlurOuter1"/></filter><path d="M24.5 0C38.03098 0 49 10.96902 49 24.5c0 11.57543-8.02756 21.27592-18.81927 23.83804L24.5 54l-5.68073-5.66196C8.02757 45.77592 0 36.07543 0 24.5 0 10.96902 10.96902 0 24.5 0z" id="b"/></defs><g fill="none" fill-rule="evenodd"><g transform="translate(13 11)"><use fill="#000" filter="url(#a)" xlink:href="#b"/><use stroke="#FFF" stroke-width="3" fill="#3F993F" xlink:href="#b"/></g><g stroke="#FFF" stroke-linejoin="round" stroke-width="1.7"><path d="M37.61061 21.08173c-3.51459 0-4.52175 1.96986-4.80216 4.97432a48.56638 48.56638 0 013.21-.21243c2.13243-.07027 4.26635.00054 6.39432.21243-.2819-3.00838-1.30716-4.97432-4.80216-4.97432zM34.39759 37.43235l-.27487.06784a9.45125 9.45125 0 00-1.01162.32865l-.40108.16567c-1.04824.44122-1.94648 1.19446-2.57662 2.15662-.16432.25878-.3058.53014-.4258.81297-.47176 1.1119-.58676 2.30514-.48176 3.3981l.02756.24798 16.7158.00095.01324-.10176c.03068-.26892.04838-.5569.04879-.85851l-.00555-.30608c-.0431-1.15095-.33189-2.2442-.92864-3.18108-.59122-.89851-1.40933-1.60878-2.36162-2.05568l-.24081-.10621-.08081-.03324c-.4319-.18744-.87852-.34203-1.33379-.46257l-.27986-.06906c-1.69446-.56486-4.66905-.53391-6.40256-.00459z"/><path d="M33.02836 28.59795c-2.94838-.25202-4.94662-.7396-4.94662-1.29986 0-.81851 4.26622-1.48203 9.52891-1.48203 5.26256 0 9.52878.66352 9.52878 1.48203 0 .54986-1.92527 1.02986-4.78446 1.28567"/><path d="M42.15796 28.5451c0 3.4027-2.03581 6.16121-4.5473 6.16121-2.51148 0-4.54742-2.75851-4.54742-6.1612 0-.945 9.09472-1.09204 9.09472 0z"/></g></g></svg>