<svg xmlns="http://www.w3.org/2000/svg" viewBox="0 0 32 35"><g transform="translate(0 .9262)" fill="none" fill-rule="evenodd"><ellipse fill="#3F993F" cx="16" cy="16.85673" rx="16" ry="16.85673"/><path d="M16.3341 6.38786c-2.68207 0-3.45066 1.60486-3.66464 4.05262a34.74877 34.74877 0 012.44963-.17307c1.6273-.05725 3.25576.00044 4.87967.17307-.21512-2.45095-.99753-4.05262-3.66465-4.05262z" stroke="#FFF" stroke-width="1.4" stroke-linejoin="round"/><path d="M13.88216 18.70797l-.20975.05526a6.89208 6.89208 0 00-.772.26776l-.30607.13497c-.79994.35947-1.48541.97314-1.96629 1.75702-.1254.21083-.23337.4319-.32494.66233-.36001.90587-.44777 1.87801-.36764 2.76846l.02103.20203 12.75626.00077.0101-.0829c.02341-.2191.03692-.4537.03723-.69944l-.00423-.24937c-.0329-.93768-.25327-1.82835-.70867-2.59164-.45117-.73203-1.0755-1.3107-1.80221-1.67478l-.18377-.08653-.06167-.02708a6.86355 6.86355 0 00-1.01784-.37686l-.21358-.05626c-1.29308-.4602-3.56307-.43499-4.88596-.00374"/><path d="M13.88216 19.70883l-.20975.05527a6.89208 6.89208 0 00-.772.26775l-.30607.13498c-.79994.35946-1.48541.97314-1.96629 1.75702-.1254.21083-.23337.4319-.32494.66233-.36001.90587-.44777 1.87801-.36764 2.76846l.02103.20203 12.75626.00077.0101-.0829c.02341-.2191.03692-.4537.03723-.69944l-.00423-.24937c-.0329-.93768-.25327-1.82835-.70867-2.59165-.45117-.73202-1.0755-1.31068-1.80221-1.67477l-.18377-.08653-.06167-.02709a6.86355 6.86355 0 00-1.01784-.37685l-.21358-.05626c-1.29308-.4602-3.56307-.43499-4.88596-.00375zM12.83727 12.51138c-2.24998-.20532-3.77489-.60255-3.77489-1.059 0-.66685 3.25566-1.20742 7.27176-1.20742 4.016 0 7.27165.54057 7.27165 1.20741 0 .44798-1.46922.83904-3.65114 1.04745" stroke="#FFF" stroke-width="1.4" stroke-linejoin="round"/><path d="M19.8043 12.46832c0 2.77221-1.55358 5.01959-3.47015 5.01959-1.91658 0-3.47026-2.24738-3.47026-5.01959 0-.7699 6.94041-.88968 6.94041 0z" stroke="#FFF" stroke-width="1.4" stroke-linejoin="round"/></g></svg>