<svg xmlns="http://www.w3.org/2000/svg" xmlns:xlink="http://www.w3.org/1999/xlink" viewBox="0 0 69 69"><defs><circle id="a" cx="34.02" cy="34.02" r="34.02"/></defs><g transform="translate(.5)" fill="none" fill-rule="evenodd"><mask id="b" fill="#fff"><use xlink:href="#a"/></mask><use fill="#3F993F" xlink:href="#a"/><g mask="url(#b)"><path d="M33.63041 20c-3.55207 0-4.56997 2.07743-4.85336 5.24594a47.06756 47.06756 0 013.24422-.22403c2.15517-.0741 4.31198.00057 6.46264.22403C38.19888 22.0733 37.16268 20 33.63041 20z" stroke="#FFF" stroke-width="1.1609" stroke-linejoin="round"/><path d="M30.38313 35.94794l-.2778.0714c-.3454.09506-.68684.21078-1.0224.3466l-.40537.17486c-1.05942.46516-1.96724 1.25968-2.60409 2.27438-.16608.27291-.30907.55908-.43035.85722-.47665 1.17275-.59301 2.431-.48676 3.5838l.02773.26152 16.89404.001.01338-.10746c.03114-.2836.0489-.5873.0493-.9054l-.0056-.32264c-.04356-1.2138-.33542-2.36674-.93854-3.35493-.59752-.94757-1.42435-1.69663-2.3868-2.16778l-.24338-.11202-.08154-.03505a9.23252 9.23252 0 00-1.34814-.48797l-.28285-.07283c-1.71253-.5957-4.71884-.56293-6.47083-.0047"/><path d="M30.38313 35.94794l-.2778.0714c-.3454.09506-.68684.21078-1.0224.3466l-.40537.17486c-1.05942.46516-1.96724 1.25968-2.60409 2.27438-.16608.27291-.30907.55908-.43035.85722-.47665 1.17275-.59301 2.431-.48676 3.5838l.02773.26152 16.89404.001.01338-.10746c.03114-.2836.0489-.5873.0493-.9054l-.0056-.32264c-.04356-1.2138-.33542-2.36674-.93854-3.35493-.59752-.94757-1.42435-1.69663-2.3868-2.16778l-.24338-.11202-.08154-.03505a9.23252 9.23252 0 00-1.34814-.48797l-.28285-.07283c-1.71253-.5957-4.71884-.56293-6.47083-.0047zM28.99936 27.92665C26.01955 27.66085 24 27.14667 24 26.5558c0-.8632 4.3117-1.56295 9.63038-1.56295 5.31882 0 9.63052.69975 9.63052 1.56295 0 .58004-1.9458 1.0861-4.83547 1.35588" stroke="#FFF" stroke-width="1.1609" stroke-linejoin="round"/><path d="M38.22625 27.87091c0 3.58865-2.05752 6.49765-4.59578 6.49765-2.53827 0-4.59592-2.909-4.59592-6.49765 0-.9966 9.1917-1.15166 9.1917 0z" stroke="#FFF" stroke-width="1.1609" stroke-linejoin="round"/></g></g></svg>