<svg xmlns="http://www.w3.org/2000/svg" xmlns:xlink="http://www.w3.org/1999/xlink" viewBox="0 0 69 68"><defs><path d="M9.93169 22.56725c2.60495-.80602 6.83576-.81807 9.20967-.01194l.39404.09871c.6697.17968 1.32479.40979 1.93513.67845l.48426.21313c1.47974.70367 2.74445 1.81847 3.66492 3.23627.89034 1.41645 1.35976 3.08652 1.42786 4.9349l.0076.43772c-.0006.44163-.02548.87642-.07514 1.31623l-.01768.1377c-.0785.61123-.59885 1.06896-1.2151 1.06896L3.42382 34.6761c-.62482-.00004-1.14948-.47032-1.21762-1.0914l-.03865-.35356c-.16979-1.79092.05956-3.57902.73294-5.1873.18715-.44698.40719-.87316.66979-1.292.97433-1.50755 2.36489-2.68754 3.99683-3.38357l.56011-.23414a13.72887 13.72887 0 011.48333-.48831zm8.52048 2.33705c-1.96726-.66455-5.67142-.654-7.86117.0216l-.3605.08885-.39732.11579a11.3419 11.3419 0 00-.4.13119l-.38446.14234-.52803.22099c-1.17208.49992-2.182 1.3569-2.88356 2.44218-.18187.29024-.34063.59773-.47674.92282-.39624.94637-.59183 1.995-.59728 3.068l.00264.16669 20.0375.00175-.00465-.4426c-.05225-1.4137-.40418-2.66576-1.04342-3.68299-.66554-1.02494-1.58417-1.83469-2.62634-2.33065l-.29306-.13142-.65323-.26886c-.352-.13398-.70863-.24953-1.06172-.34439zM14.58468.3856c4.60724 0 6.81956 2.26623 7.5007 6.75001 4.00412.44804 6.44975 1.36051 6.44975 2.88744 0 1.72637-2.2947 2.4335-6.70907 2.88353-.44116 4.6659-3.43232 8.36685-7.2413 8.36685-3.80873 0-6.79987-3.70046-7.24163-8.3652C2.9382 12.46252.63417 11.743.63417 10.02304c0-1.52678 2.44513-2.43922 6.44862-2.88725C7.76163 2.64361 9.96113.3856 14.5847.3856zm.42214 11.51503l-.41212.00119c-1.49765.01227-2.94806.11035-3.99863.27218-.30535.04703-.56846.09834-.77989.15059l-.05993.01491.01023.15808c.2645 3.48255 2.26143 6.13082 4.56153 6.31554l.25675.0103c2.4065 0 4.54381-2.71426 4.8181-6.32583l.01164-.21234-.07264-.01973a5.29037 5.29037 0 00-.14415-.03425l-.33244-.06596-.28554-.0463c-1.02912-.1529-2.46545-.22964-3.98503-.2172zm5.86802-2.33959c-2.7868-.2812-5.58184-.37526-8.37557-.28197a62.79227 62.79227 0 00-4.20484.28198c-.12351.01246-.2439.00626-.3587-.01611-.77896.07575-1.5029.16666-2.15863.27-.27151.0428-.52853.08734-.76994.1333l-.37141.07426.0685.01547c.86539.17905 1.94459.33565 3.17897.45953.92259-.72459 2.89031-.97116 5.7533-1.03214l.93811-.01346c3.44564-.02822 5.77271.1742 6.7651 1.04017 1.01492-.10298 1.92318-.22817 2.69188-.3696l.50164-.09997-.02085-.00432c-.2255-.04727-.46719-.09331-.72393-.13778l-.39625-.06546c-.65572-.10334-1.37965-.19425-2.15739-.27143-.11601.0238-.23644.03-.35999.01753zM14.58468 2.8356c-3.07352 0-4.43816 1.15658-4.99198 4.12038l.00554-.03054c1.52023-.09048 3.19322-.13298 4.9865-.13298l1.10856.00563c1.37655.01423 2.6737.05573 3.87544.1272l-.06375-.3126c-.57464-2.59506-1.8725-3.68843-4.57457-3.77188z" id="a"/></defs><g fill="none" fill-rule="evenodd"><ellipse fill="#A9ACAF" cx="34.5" cy="34" rx="34.5" ry="34"/><g transform="translate(21 15)"><mask id="b" fill="#fff"><use xlink:href="#a"/></mask><path stroke="#3F993F" d="M9.75511 23.12446c2.73011-.8246 6.59653-.87127 8.94785-.18346 1.20125.32944 1.7159.50012 2.20365.69646h0l.84148.3635c1.39403.66478 2.58472 1.71692 3.4483 3.047.7828 1.24534 1.21913 2.69818 1.33087 4.29934.02647 1.0704.01725 1.35815-.00365 1.6373-.04982.42392-.14389.73174-.28927.93856h0l-22.8105.25294c-.91666-2.70374-.70364-4.40705-.06215-5.93915.17665-.4219.38434-.82417.6285-1.2137.86083-1.33193 2.0654-2.39355 3.47926-3.06292h0l.84783-.36367c.30978-.12169.62345-.23147.93153-.32654h0zM9.6875 24.6522l-.20732.06589-.21386.07226-.401.14846-.53766.22502c-1.26588.53992-2.35452 1.46262-3.11043 2.63198-.19993.31896-.37125.65054-.51805 1.00116-.3744.8942-.58149 1.87407-.62669 2.88205l-.00947.37672.01057.66898 21.03494.00183-.01003-.95442c-.05493-1.51274-.43672-2.84998-1.11998-3.93725-.66222-1.01995-1.5511-1.83716-2.56081-2.37764l-.2736-.13841-.31084-.1394-.66654-.27432a11.68893 11.68893 0 00-.74574-.25599l-.36844-.1059-.45795-.11852c-1.94809-.65102-5.5199-.68213-8.9071.2275zM14.58468.8856c2.1105 0 3.6938.48953 4.82525 1.50774 1.17867 1.0607 1.856 2.67717 2.18112 4.81737 2.43936.64566 4.04073.9825 5.12057 1.46592.4547.20357.81082.42874 1.04637.691.17625.19622.27714.41213.27714.65542 0 .28492-.08862.53053-.26625.74312-.21771.26055-.55149.47141-.98587.6581-1.09208.46938-2.77113.75688-5.00766.98489-.66019 2.70435-1.492 4.72547-2.7402 6.1677-1.17295 1.35526-2.71647 2.19657-4.4504 2.19657-1.73376 0-3.2772-.84116-4.45017-2.19612-1.24828-1.44197-2.08027-3.46273-2.29367-5.71623-2.67646-.67585-4.35422-.9652-5.4475-1.43536-.43664-.18778-.77236-.39979-.9915-.66107-.1783-.21256-.26774-.45768-.26774-.7416 0-.24326.10087-.45915.27709-.65537.2355-.26222.59154-.48738 1.04617-.69093 1.07962-.48338 2.6807-.8202 4.68097-1.04405.76282-2.56655 1.43633-4.18325 2.61398-5.2429 1.13027-1.01701 2.7146-1.5042 4.8323-1.5042zm.01123 10.51622c-1.52999.0125-3.00647.11326-4.07596.278-.2815.04337-.53476.08709-1.25203.85562.13472 1.77381.6987 3.34088 1.5135 4.51308.8688 1.24992 2.01752 2.06576 3.80334 2.2749 1.3182 0 2.57853-.70595 3.54805-1.93081.92797-1.17237 1.60826-2.80775.5204-5.76817-.8598-.12774-1.99788-.20426-3.23324-.2206l-.82406-.00202zm-2.11333-2.62247c-1.40866.04702-2.81639.1413-4.59524.26794-.7896.07678-1.5234.169-2.18808.27375-.2824.0445-.54978.09064-1.11595.23177l-2.12796.53044 2.1476.44434c.87938.18196 1.97598.34153 3.5891.36313.83856-.65859 2.60757-.84794 5.45808-.92554l.93168-.01333c3.2448-.02657 5.48553.0935 6.8084 1.03766 1.02963-.10447 1.95107-.23144 3.21867-.48073l2.4151-.47495-2.409-.50501c-.22944-.0481-.47533-.0951-1.13976-.20694-.67175-.1059-1.40743-.19856-2.56083-.25945-2.80563-.28254-5.61938-.377-8.43181-.28308zm2.1021-6.44375c-1.64623 0-2.83273.32705-3.70292 1.04067-.86247.70728-1.43006 1.80814-1.77314 3.44623-.04634.22126-.085.43519-.11595.64217a73.23929 73.23929 0 01.63489-.04054c1.51146-.08951 3.17453-.13167 4.95718-.13167l1.4806.00996c1.27406.01557 2.47632.0255 3.92782-.79784-.31447-1.42013-.84306-2.41877-1.72148-3.09309-.83058-.6376-1.99262-.9907-3.687-1.07589z"/><g mask="url(#b)" fill="#FFF"><path d="M-14-9h56v56h-56z"/></g></g></g></svg>